<?xml version="1.0" encoding="utf-8"?><svg xmlns="http://www.w3.org/2000/svg" xmlns:xlink="http://www.w3.org/1999/xlink"><symbol viewBox="0 0 16 13" id="arrow-down" xmlns="http://www.w3.org/2000/svg"><path d="M6.379 12.055h3.39l2.57-4.157 3.638-5.77L12.75.134c-.793 1.176-2.352 3.554-4.676 7.137C7.281 6.094 5.723 3.715 3.371.133L.145 2.129l6.234 9.926z"/></symbol><symbol viewBox="0 0 26 10" id="arrow-left" xmlns="http://www.w3.org/2000/svg"><path d="M7.668 9.504C7.188 8.232 6.6 7.14 5.904 6.228H25.2V3.276H5.904C6.576 2.364 7.152 1.272 7.632 0H4.896C3.408 1.752 1.776 3.084 0 3.996v1.548c1.776.864 3.408 2.184 4.896 3.96h2.772z"/></symbol><symbol viewBox="0 0 26 10" id="arrow-right" xmlns="http://www.w3.org/2000/svg"><path d="M17.532 9.504c.48-1.272 1.068-2.364 1.764-3.276H0V3.276h19.296c-.672-.912-1.248-2.004-1.728-3.276h2.736c1.488 1.752 3.12 3.084 4.896 3.996v1.548c-1.776.864-3.408 2.184-4.896 3.96h-2.772z"/></symbol></svg>