<svg width="1043" height="745" viewBox="0 0 1043 745" fill="none" xmlns="http://www.w3.org/2000/svg"><g clip-path="url(#clip0)"><path opacity=".1" d="M1043 413.767a244.399 244.399 0 01-22.51 102.316 244.241 244.241 0 01-63.265 83.464 243.963 243.963 0 01-92.382 49.258 243.813 243.813 0 01-104.501 5.988H373.703a331.187 331.187 0 01-45.063 3.08c-146.887 0-271.287-96.458-313.364-229.536A329 329 0 010 328.936C0 147.265 147.142 0 328.64 0c146.177 0 270.04 95.5 312.727 227.622a242.79 242.79 0 01157.793-57.96c134.651 0 243.84 109.287 243.84 244.105z" fill="#B1B834"/><path opacity=".1" d="M949.315 606.09a244.157 244.157 0 01-89.416 44.06 244.045 244.045 0 01-99.557 4.643H373.703a331.187 331.187 0 01-45.063 3.08c-146.887 0-271.287-96.458-313.364-229.536C46.747 361.01 127.623 313.1 222.447 313.1c92.401 0 171.557 45.504 204.658 110.135a274.526 274.526 0 0149.332-4.438c95.77 0 177.311 48.885 208.099 117.278a268.926 268.926 0 0178.665-11.581c78.109 0 146.759 32.511 186.114 81.596zM521.955 745c256.417 0 464.284-10.403 464.284-23.235 0-12.833-207.867-23.235-464.284-23.235-256.417 0-464.284 10.402-464.284 23.235 0 12.832 207.867 23.235 464.284 23.235z" fill="#B1B834"/><path d="M490.611 722.567a6.717 6.717 0 012.504-3.59c.146-.1.3-.191.455-.283 1.266-.59 2.63-.939 4.024-1.029 5.225-.674 10.715-1.686 14.684-5.112 1.138-.993 2.112-2.15 3.168-3.216a56.466 56.466 0 017.219-5.841 2.59 2.59 0 011.876-.693 9.107 9.107 0 002.394-2.87c.566-1.415.833-2.932.783-4.455.528-15.491 3.814-31.418.164-46.471a9.059 9.059 0 01.309-5.111 50.256 50.256 0 01-2.194-1.057 54.16 54.16 0 01-16.186-12.985 25.23 25.23 0 01-4.925-7.772c-1.375-3.864-1.174-8.091-.683-12.155a186.136 186.136 0 014.288-21.258l4.178-17.313c.911-3.808 1.921-7.717 3.942-11.043h-.191c.137-1.923.282-3.845.565-5.75a81.045 81.045 0 012.458-10.25c.364-1.276.646-3.053 1.065-4.766-.756-7.772-3.778-15.317-4.288-23.062-.164.219-.319.437-.492.656-1.256 1.567-2.986 2.734-4.26 4.255-2.385 2.898-2.922 6.816-3.423 10.506a17.2 17.2 0 01-1.411 5.577 18.124 18.124 0 00-1.156 2.269c-.528 1.576-.137 3.289.182 4.929.455 2.333.619 5.048-1.056 6.752a5.363 5.363 0 01-3.35 1.43 7.449 7.449 0 01-6.373-2.815c-1.721-2.233-1.966-5.23-1.894-8.028a18.794 18.794 0 011.02-6.196 32.402 32.402 0 013.487-5.922c2.44-3.773 4.233-7.9 6.245-11.909a68.117 68.117 0 015.544-9.395c1.138-1.585 2.376-3.107 3.396-4.756.336-.547 2.002-4.62 3.559-8.693-.801-.164-1.629-.492-1.821-1.239a2.397 2.397 0 01.137-1.303 78.624 78.624 0 001.866-36.219c-.601-3.262-1.411-6.515-1.402-9.823.009-3.307.911-6.788 3.341-9.112 1.493-1.43 3.441-2.332 4.989-3.699 2.986-2.643 4.169-6.697 4.934-10.579a15.091 15.091 0 011.666-5.203c.239-.361.507-.703.801-1.02a51.974 51.974 0 01-3.222-18.142 53.011 53.011 0 011.82-13.759c-.491 1.221-.91 2.47-1.356 3.745 3.805-19.882 18.708-34.716 36.505-34.716h.492c20.183 0 36.642 19.071 37.425 42.953a24.611 24.611 0 0111.033 24.347 24.502 24.502 0 017.165 17.312 24.994 24.994 0 01-7.437 17.611 24.949 24.949 0 01-17.698 7.192 25.254 25.254 0 01-12.117-3.098 40.514 40.514 0 01-1.102 6.086c-.837 3.171-2.13 6.233-2.776 9.449-.646 3.217-.565 6.752 1.183 9.54a24.284 24.284 0 013.141 7.017c.597 2.998.784 6.063.555 9.111-.082 2.789-.154 5.568-.236 8.356-.31 10.934-.61 21.868 1.602 32.602 1.001 4.866 3.532 9.485 2.959 14.424a20.666 20.666 0 01-1.548 5.194c-.91 2.387-2.094 4.957-4.406 6.114a8.941 8.941 0 01-3.587.774c-1.52.072-3.044.005-4.552-.2-.91-.128-2.139-.738-1.82-1.613.149-.295.375-.544.655-.72a10.066 10.066 0 003.823-7.845c0-4.319-2.867-8.483-1.984-12.757.555-2.624 2.522-5.166 1.693-7.717-1.821-5.768-2.094-11.955-3.641-17.805-.519-1.904-1.038-3.818-1.566-5.722-.91-3.408-1.821-6.825-2.613-10.269a110.555 110.555 0 01-2.622-25.067 27.502 27.502 0 00-2.977 8.711c-.273 2.214-.127 4.556-1.165 6.533-1.038 1.978-3.095 3.426-4.324 5.331a30.494 30.494 0 001.721 3.362 46.684 46.684 0 013.523 5.212c.91 1.822 1.547 3.699 2.321 5.549 2.595 6.214 7.046 11.846 7.693 18.543.528 5.385-1.512 10.651-3.578 15.654a336.361 336.361 0 01-3.778 8.929 8.69 8.69 0 01-.273.593c-.155 1.521-.355 3.034-.556 4.556h-3.341c-1.365 1.822-2.885 3.644-3.705 5.767a18.587 18.587 0 00-.91 5.094c-.665 8.2-.537 16.611-3.642 24.237-.91 2.269-1.82 4.556-1.911 6.861a26.758 26.758 0 01-.911 5.686 28.816 28.816 0 00-.728 6.123c-.1 3.541-.009 7.085.273 10.616 7.283 4.555 13.346 11.134 19.901 16.829a109.52 109.52 0 0030.36 18.652l-.054-.528c3.113-.146 6.081.911 8.903 2.359.992.493 1.957 1.021 2.913 1.54a4.845 4.845 0 011.411 1.003c1.275 1.485.346 3.735-.628 5.467-3.241 5.679-6.482 11.353-9.723 17.021-.746 1.312-1.502 2.633-2.121 4.009-1.056 2.342-1.73 4.829-2.913 7.107a35.236 35.236 0 01-5.025 6.715 559.412 559.412 0 01-6.373 7.208 8.451 8.451 0 01-2.439 2.15 2.966 2.966 0 01-3.105-.136 3.122 3.122 0 01-.81-1.103 6.718 6.718 0 01-.655-3.289 7.008 7.008 0 012.303-4.875c.91-.756 2.003-1.376 2.376-2.46a4.451 4.451 0 00.109-1.823c-.446-5.367-.91-10.788-2.513-15.927-1.201-3.845-3.067-7.8-2.175-11.727a10.99 10.99 0 011.82-.392 26.648 26.648 0 00-1.984-2.077c-3.223-3.025-7.147-5.221-11.025-7.381l-17.114-9.549c-.789 4.386-1.587 8.762-2.395 13.13a592.002 592.002 0 00-.828 4.556c-1.281 7.016-2.561 14.026-3.842 21.03a44.276 44.276 0 00-.746 5.112c-.11 1.695-.046 3.389 0 5.075-.03 1.892.083 3.783.337 5.658.2 1.053.47 2.091.81 3.108h.127c.353.265.609.64.728 1.066a28.268 28.268 0 012.131 7.872 10.03 10.03 0 01-1.266 6.205 2.507 2.507 0 01-.965 1.012c-.461.188-.961.26-1.456.209l-22.495-.473a49.43 49.43 0 00-8.294.3c-2.185.328-4.333.911-6.536 1.085-5.125.309-10.014-2.005-14.566-4.256a3.641 3.641 0 01-1.821-1.403 2.935 2.935 0 010-2.214z" fill="url(#paint0_linear)"/><path d="M610.834 423.59c.168-1.177.253-2.364.255-3.553a24.618 24.618 0 00-11.125-20.593c-.765-23.691-16.869-42.652-36.624-42.652-20.246 0-36.66 19.891-36.66 44.42 0 24.529 16.386 44.411 36.66 44.411a31.03 31.03 0 005.69-.529 24.59 24.59 0 0013.296 17.712 24.556 24.556 0 0022.134-.171 24.574 24.574 0 008.64-7.407 24.617 24.617 0 00-2.266-31.638z" fill="#3F3D56"/><path opacity=".1" d="M561.41 362.587c19.755 0 35.859 18.934 36.624 42.643a24.616 24.616 0 0111.125 20.602 24.273 24.273 0 01-.255 3.553 24.552 24.552 0 016.818 20.256 24.622 24.622 0 00-5.371-26.051c.169-1.177.254-2.364.255-3.553a24.617 24.617 0 00-2.958-11.706 24.587 24.587 0 00-8.167-8.887c-.764-23.691-16.868-42.652-36.623-42.652-17.425 0-32.009 14.733-35.732 34.479 5.235-16.766 18.608-28.684 34.284-28.684z" fill="#000"/><path d="M540.772 410.46a9.398 9.398 0 01-.473 4.301c-.847 1.959-2.922 3.708-2.312 5.749.391 1.321 1.82 2.05 3.077 2.488 6.154 2.086 12.872.847 19.363 1.13 2.164.189 4.337.265 6.509.227a10.382 10.382 0 006.054-2.114 51.937 51.937 0 01-9.522-6.004 10.754 10.754 0 01-1.912-1.823c-1.384-1.822-1.593-4.255-1.675-6.542a105.502 105.502 0 010-6.797 966.947 966.947 0 00-13.938-.064c-1.493 0-6.045-.365-6.563 1.248-.264.802.737 3.153.91 4.055.237 1.376.391 2.761.482 4.146z" fill="#FBBEBE"/><path opacity=".1" d="M540.772 410.46a9.398 9.398 0 01-.473 4.301c-.847 1.959-2.922 3.708-2.312 5.749.391 1.321 1.82 2.05 3.077 2.488 6.154 2.086 12.872.847 19.363 1.13 2.164.189 4.337.265 6.509.227a10.382 10.382 0 006.054-2.114 51.937 51.937 0 01-9.522-6.004 10.754 10.754 0 01-1.912-1.823c-1.384-1.822-1.593-4.255-1.675-6.542a105.502 105.502 0 010-6.797 966.947 966.947 0 00-13.938-.064c-1.493 0-6.045-.365-6.563 1.248-.264.802.737 3.153.91 4.055.237 1.376.391 2.761.482 4.146z" fill="#000"/><path d="M517.64 494.78a31.376 31.376 0 001.821 15.317 291.463 291.463 0 0130.096-1.585 16.927 16.927 0 01-3.213-7.936 43.767 43.767 0 010-8.11l-19.518-.064a18.096 18.096 0 00-4.27.319c-1.966.447-3.004 1.704-4.916 2.059z" fill="#FBBEBE"/><path d="M512.169 505.532c-1.002 1.65-2.212 3.153-3.323 4.729a67.507 67.507 0 00-5.462 9.331c-1.967 3.973-3.724 8.073-6.109 11.845a32.325 32.325 0 00-3.423 5.887 18.988 18.988 0 00-.992 6.15c-.073 2.779.173 5.759 1.821 7.973a7.281 7.281 0 006.281 2.797 5.183 5.183 0 003.278-1.421c1.638-1.686 1.474-4.392 1.037-6.707-.309-1.622-.701-3.325-.182-4.893.321-.776.699-1.528 1.129-2.25a17.21 17.21 0 001.384-5.54c.491-3.645 1.01-7.554 3.35-10.424 1.247-1.549 2.94-2.679 4.169-4.237.647-.82 1.157-1.74 1.821-2.515.983-1.112 2.331-1.959 2.895-3.326.265-.891.436-1.807.51-2.733a19.752 19.752 0 011.611-4.256c2.222-5.111 2.822-10.77 3.387-16.319a22.95 22.95 0 01-7.001-1.385c.719.137-5.498 16.128-6.181 17.294z" fill="#FBBEBE"/><path opacity=".1" d="M512.169 505.532c-1.002 1.65-2.212 3.153-3.323 4.729a67.507 67.507 0 00-5.462 9.331c-1.967 3.973-3.724 8.073-6.109 11.845a32.325 32.325 0 00-3.423 5.887 18.988 18.988 0 00-.992 6.15c-.073 2.779.173 5.759 1.821 7.973a7.281 7.281 0 006.281 2.797 5.183 5.183 0 003.278-1.421c1.638-1.686 1.474-4.392 1.037-6.707-.309-1.622-.701-3.325-.182-4.893.321-.776.699-1.528 1.129-2.25a17.21 17.21 0 001.384-5.54c.491-3.645 1.01-7.554 3.35-10.424 1.247-1.549 2.94-2.679 4.169-4.237.647-.82 1.157-1.74 1.821-2.515.983-1.112 2.331-1.959 2.895-3.326.265-.891.436-1.807.51-2.733a19.752 19.752 0 011.611-4.256c2.222-5.111 2.822-10.77 3.387-16.319a22.95 22.95 0 01-7.001-1.385c.719.137-5.498 16.128-6.181 17.294z" fill="#000"/><path d="M550.313 408.446c9.055 0 16.396-7.347 16.396-16.411 0-9.063-7.341-16.41-16.396-16.41s-16.396 7.347-16.396 16.41c0 9.064 7.341 16.411 16.396 16.411zm-32.7 150.928c-3.086 3.645-4.297 8.529-5.408 13.194l-4.096 17.149c-1.803 6.951-3.204 14-4.197 21.112-.483 4.036-.683 8.2.664 12.073a25.054 25.054 0 004.825 7.718 53.222 53.222 0 0015.841 12.893c3.213 1.667 6.609 2.943 9.904 4.428 4.925 2.214 9.632 4.875 14.338 7.536l17.68 10.023c3.796 2.15 7.629 4.328 10.787 7.335a26.648 26.648 0 016.61 10.023 5.005 5.005 0 001.556 2.578c1.002.693 2.367.465 3.533.11a20.655 20.655 0 0010.537-7.961 20.683 20.683 0 003.564-12.723 107.052 107.052 0 01-35.331-20.675c-7.893-6.952-15.012-15.244-24.643-19.472-4.206-1.822-9.268-3.253-11.234-7.417a15.208 15.208 0 01-1.029-6.068c-.173-5.713-.346-11.49.746-17.103.911-4.738 2.732-9.267 4.07-13.905 2.731-9.285 3.641-18.989 4.552-28.629a160.897 160.897 0 00-18.963-1.121 2.158 2.158 0 00-1.566.419 2.29 2.29 0 00-.483 1.249c-.5 2.478-.619 5.33-2.257 7.234z" fill="#FBBEBE"/><path opacity=".1" d="M517.613 559.374c-3.086 3.645-4.297 8.529-5.408 13.194l-4.096 17.149c-1.803 6.951-3.204 14-4.197 21.112-.483 4.036-.683 8.2.664 12.073a25.054 25.054 0 004.825 7.718 53.222 53.222 0 0015.841 12.893c3.213 1.667 6.609 2.943 9.904 4.428 4.925 2.214 9.632 4.875 14.338 7.536l17.68 10.023c3.796 2.15 7.629 4.328 10.787 7.335a26.648 26.648 0 016.61 10.023 5.005 5.005 0 001.556 2.578c1.002.693 2.367.465 3.533.11a20.655 20.655 0 0010.537-7.961 20.683 20.683 0 003.564-12.723 107.052 107.052 0 01-35.331-20.675c-7.893-6.952-15.012-15.244-24.643-19.472-4.206-1.822-9.268-3.253-11.234-7.417a15.208 15.208 0 01-1.029-6.068c-.173-5.713-.346-11.49.746-17.103.911-4.738 2.732-9.267 4.07-13.905 2.731-9.285 3.641-18.989 4.552-28.629a160.897 160.897 0 00-18.963-1.121 2.158 2.158 0 00-1.566.419 2.29 2.29 0 00-.483 1.249c-.5 2.478-.619 5.33-2.257 7.234z" fill="#000"/><path d="M610.415 672.424l-9.513 16.903c-.738 1.303-1.475 2.615-2.085 3.981-1.029 2.324-1.684 4.793-2.849 7.053a35.104 35.104 0 01-4.916 6.67l-6.209 7.162a8.374 8.374 0 01-2.394 2.132 2.86 2.86 0 01-3.041-.137 3.317 3.317 0 01-.792-1.102 6.677 6.677 0 01-.637-3.262 7.012 7.012 0 012.257-4.839c.856-.747 1.958-1.367 2.322-2.442a4.552 4.552 0 00.109-1.822c-.446-5.33-.91-10.706-2.467-15.809-1.174-3.818-2.995-7.745-2.121-11.645 1.657-.501 3.814-.847 4.807.574 1.93 2.734 2.048 1.731 5.025 1.312 2.977-.419 5.772-.601 7.947-2.934 2.895-3.08 2.649-7.854 2.222-12.055 3.049-.145 5.953.957 8.712 2.342a83.132 83.132 0 012.858 1.531c.518.244.987.58 1.384.993 1.247 1.476.337 3.708-.619 5.394zm-91.582-126.745a78.778 78.778 0 00-2.404 10.178c-.282 1.895-.418 3.809-.564 5.713 6.473 1.54 13.191 1.613 19.846 1.686l27.738.301c.611-3.74.864-7.53.756-11.317-.391-6.224-2.731-12.301-2.34-18.525a171.564 171.564 0 00-23.032-2.514 10.732 10.732 0 00-4.178.4c-1.257.456-2.303 1.358-3.514 1.932-2.731 1.294-6.792.656-9.104 2.734-2.103 1.941-2.458 6.752-3.204 9.412z" fill="#3F3D56"/><path opacity=".1" d="M518.833 545.679a78.778 78.778 0 00-2.404 10.178c-.282 1.895-.418 3.809-.564 5.713 6.473 1.54 13.191 1.613 19.846 1.686l27.738.301c.611-3.74.864-7.53.756-11.317-.391-6.224-2.731-12.301-2.34-18.525a171.564 171.564 0 00-23.032-2.514 10.732 10.732 0 00-4.178.4c-1.257.456-2.303 1.358-3.514 1.932-2.731 1.294-6.792.656-9.104 2.734-2.103 1.941-2.458 6.752-3.204 9.412z" fill="#000"/><path d="M520.408 554.864c-2.094 9.877.118 20.091.637 30.178.364 7.217-.146 14.451-.355 21.677a30.113 30.113 0 00.282 6.214c.39 1.823.941 3.606 1.648 5.331l2.522 6.633c2.339 6.251 4.724 12.948 2.339 19.463a9.119 9.119 0 00-.364 5.258c3.569 14.934.355 30.788-.155 46.133a11.146 11.146 0 01-.774 4.419c-1.274 2.733-4.415 4.009-6.063 6.497-2.002 3.016-1.283 7.289 1.075 10.023 2.357 2.733 6.026 4.091 9.631 4.391 4.507.374 9.022-.719 13.446-1.439l.492-.474c.555-3.071-1.129-5.914-1.657-9.057a38.567 38.567 0 01-.337-5.622c0-1.677-.091-3.362 0-5.039.149-1.703.389-3.398.719-5.075l3.769-20.885.81-4.501 3.378-18.752c.637-3.544-.91-7.508-1.329-11.08-.847-7.408-1.694-14.852-1.448-22.296.029-2.046.27-4.083.719-6.078a26.91 26.91 0 00.847-5.649c.055-2.297.974-4.556 1.875-6.816 2.996-7.572 2.877-15.946 3.524-24.064a18.63 18.63 0 01.91-5.057c.91-2.479 2.804-4.465 4.279-6.661 1.474-2.196 2.594-4.939 1.766-7.454-1.339-4.018-6.783-5.303-10.096-6.478a28.338 28.338 0 00-17.634-.592 60.711 60.711 0 00-14.456 6.852z" fill="#FBBEBE"/><path d="M545.552 728.325a2.423 2.423 0 01-.911 1.003 3.058 3.058 0 01-1.438.209l-22.013-.474a47.385 47.385 0 00-8.12.301c-2.139.319-4.233.911-6.372 1.075-5.007.31-9.769-1.986-14.266-4.228a3.645 3.645 0 01-1.748-1.394 2.924 2.924 0 010-2.15 6.556 6.556 0 012.449-3.563c.143-.103.292-.197.446-.282a10.775 10.775 0 013.933-1.021c5.116-.674 10.496-1.676 14.375-5.084 1.119-.975 2.066-2.123 3.104-3.189a53.958 53.958 0 017.064-5.795 2.482 2.482 0 011.821-.693c.381.105.729.306 1.011.583a6.995 6.995 0 012.394 2.962 2.735 2.735 0 01-1.184 3.307c-.91.355-1.82.173-2.567.665 1.584 1.148 4.033 1.722 5.817 2.916a19.773 19.773 0 005.854 3.098c2.148.556 4.707.173 6.108-1.549.756-.911 1.712-2.342 2.732-1.731.349.259.603.628.719 1.048a28.38 28.38 0 012.084 7.827 10.025 10.025 0 01-1.292 6.159zm-5.927-230.674a14.485 14.485 0 00-3.778.419 16.024 16.024 0 00-3.368 1.549l-12.062 6.688c-.886.442-1.709 1-2.449 1.658-1.739 1.668-2.24 4.246-2.34 6.661-.41 9.385 3.824 18.388 4.361 27.773a35.686 35.686 0 01-1.493 12.392c-.301.993-.601 2.205.127 2.952.265.24.574.426.911.547 3.814 1.485 7.974 1.822 12.053 2.123 10.014.765 20.082 1.531 30.042.191a3.45 3.45 0 001.42-.401 3.65 3.65 0 001.211-1.749 367.509 367.509 0 003.641-8.857c2.03-4.975 4.024-10.205 3.514-15.554-.637-6.633-4.989-12.237-7.529-18.406-.764-1.822-1.365-3.754-2.285-5.512a45.483 45.483 0 00-3.441-5.176c-.974-1.394-1.912-4.556-3.104-5.467-1.457-1.194-5.571-1.166-7.42-1.385a62.53 62.53 0 00-8.011-.446z" fill="#3F3D56"/><path opacity=".1" d="M610.415 672.425l-9.513 16.902c-.738 1.303-1.475 2.615-2.085 3.982-1.029 2.323-1.684 4.793-2.85 7.052a35.056 35.056 0 01-4.915 6.67l-6.209 7.162a8.344 8.344 0 01-2.394 2.132 2.853 2.853 0 01-3.041-.136 3.321 3.321 0 01-.792-1.103 6.674 6.674 0 01-.637-3.262 20.784 20.784 0 006.026-4.446 30.23 30.23 0 003.514-5.276 686.03 686.03 0 002.558-4.556c4.394-7.739 8.795-15.478 13.201-23.217a26.377 26.377 0 003.514-9.868 83.132 83.132 0 012.858 1.531c.518.244.987.58 1.384.993 1.247 1.522.337 3.754-.619 5.44zm-64.863 55.9a2.414 2.414 0 01-.911 1.002 3.059 3.059 0 01-1.438.21l-22.013-.474a47.385 47.385 0 00-8.12.301c-2.139.319-4.233.911-6.372 1.075-5.007.31-9.769-1.986-14.266-4.228a3.645 3.645 0 01-1.748-1.394 2.924 2.924 0 010-2.15 6.556 6.556 0 012.449-3.563c.319.2.619.419.911.629a25.973 25.973 0 0010.014 4.556c3.561.639 7.18.902 10.796.783 8.312 0 16.687.055 24.899-1.439 1.657-.301 5.016-1.823 7.101-1.431a10.031 10.031 0 01-1.302 6.123z" fill="#000"/><path d="M570.031 418.059a163.29 163.29 0 01-24.124 2.287c-1.994 0-4.406-.2-5.289-1.986-.41-.838-.383-1.877-.965-2.615-1.084-1.376-3.259-.693-4.825.1-2.185 1.112-4.47 2.315-5.772 4.392a14.68 14.68 0 00-1.63 5.166c-.764 3.855-1.92 7.882-4.843 10.506-1.511 1.358-3.413 2.242-4.87 3.645-2.358 2.296-3.277 5.741-3.277 9.03 0 3.289.783 6.524 1.374 9.768a79.243 79.243 0 01-1.82 35.955 2.474 2.474 0 00-.128 1.303c.228.838 1.247 1.139 2.112 1.276 13.355 2.205 27.693.118 39.983 5.795 1.029-2.533 3.56-3.964 4.816-6.379 1.01-1.959.91-4.291 1.138-6.487.737-5.932 4.552-10.989 6.664-16.575 1.884-4.893 2.54-10.278 5.171-14.815.91-1.604 2.103-3.071 3.022-4.693a36.168 36.168 0 002.158-4.975 34.81 34.81 0 002.494-9.157c.528-6.379-2.431-12.474-5.927-17.796-1.356-2.041-3.013-4.155-5.462-3.745z" fill="#FF6F61"/><path opacity=".1" d="M531.35 440.738c-1.529.337-2.421 1.877-3.132 3.271-.478.875-.88 1.79-1.201 2.734a15.766 15.766 0 00-.501 4.893 11.447 11.447 0 00.328 3.107 4.111 4.111 0 001.821 2.46" stroke="#000" stroke-miterlimit="10"/><path d="M572.255 384.764c1.238-4.846-5.707-10.808-15.513-13.317-9.805-2.509-18.758-.615-19.996 4.232-1.237 4.846 5.708 10.809 15.514 13.317 9.805 2.509 18.758.615 19.995-4.232z" fill="#3F3D56"/><path opacity=".1" d="M553.19 385.575c-8.722-2.232-15.167-7.189-15.631-11.663a4.834 4.834 0 00-.856 1.722c-1.238 4.848 5.708 10.807 15.476 13.322 9.768 2.515 18.763.61 20.028-4.237a4.772 4.772 0 00.109-1.65c-2.694 3.536-10.587 4.693-19.126 2.506z" fill="#000"/><path d="M562.776 445.568a28.258 28.258 0 014.552-12.857 11.103 11.103 0 014.133-4.009 5.112 5.112 0 015.462.428 7.947 7.947 0 011.966 3.645 43.77 43.77 0 012.895 18.497c0 5.74-.082 11.554-1.529 17.112-.829 3.153-2.094 6.187-2.731 9.385-.638 3.198-.556 6.706 1.165 9.476a24.212 24.212 0 013.059 6.971c.586 2.969.772 6.002.555 9.021l-.237 8.3c-.3 10.825-.601 21.759 1.566 32.366.983 4.847 3.46 9.421 2.895 14.332a20.597 20.597 0 01-1.511 5.149c-.91 2.369-2.048 4.929-4.315 6.077a8.548 8.548 0 01-3.505.766 23.976 23.976 0 01-4.497-.192c-.911-.127-2.085-.738-1.776-1.613.144-.29.364-.536.638-.71a10.025 10.025 0 003.741-7.782c0-4.301-2.804-8.428-1.939-12.638.537-2.606 2.467-5.13 1.657-7.663-1.821-5.722-2.057-11.845-3.641-17.677l-1.53-5.686c-.91-3.389-1.82-6.77-2.558-10.196a111.792 111.792 0 01-2.458-28.866c.064-1.512-.774-3.235-.91-4.738-.146-1.822 0-3.572 0-5.349 0-7.344-1.857-14.241-1.147-21.549z" fill="#FBBEBE"/><path opacity=".1" d="M286.627 123.693a26.291 26.291 0 00-15.267 1.667 22.465 22.465 0 01-18.334-.045 25.72 25.72 0 00-21.558.419 13.322 13.322 0 01-6.208 1.558c-8.74 0-16.014-8.811-17.525-20.438a16.914 16.914 0 004.37-4.72c5.125-8.264 13.064-13.567 21.976-13.567 8.912 0 16.751 5.24 21.849 13.422a16.876 16.876 0 0014.52 7.982h.228c6.946 0 12.972 5.576 15.949 13.722z" fill="#B1B834"/><path opacity=".1" d="M313.21 87.2l-14.129 8.975 8.575-15.618a14.009 14.009 0 00-8.548-3.052h-.228a16.516 16.516 0 01-2.931-.21l-4.77 3.035 2.057-3.736a17.01 17.01 0 01-8.375-6.379l-8.576 5.468 5.417-9.85c-5.016-6.023-11.771-9.723-19.2-9.723-8.912 0-16.85 5.313-21.976 13.577a16.385 16.385 0 01-14.565 7.836h-.483c-9.841 0-17.816 11.171-17.816 24.939s7.957 24.93 17.834 24.93a13.387 13.387 0 006.209-1.549 25.68 25.68 0 0121.557-.428 22.48 22.48 0 0018.335.045 25.737 25.737 0 0121.375.41 13.331 13.331 0 006.136 1.522c9.841 0 17.816-11.162 17.816-24.939A31.705 31.705 0 00313.21 87.2z" fill="#B1B834"/><path d="M781.408 609.507v7.29c0 7.25 2.877 14.202 7.999 19.329a27.297 27.297 0 0038.623 0 27.348 27.348 0 008-19.329v-7.29a27.35 27.35 0 00-8-19.329 27.297 27.297 0 00-38.623 0 27.35 27.35 0 00-7.999 19.329zm54.622-116.631v-7.289c0-7.25-2.878-14.203-8-19.329a27.294 27.294 0 00-38.623 0 27.346 27.346 0 00-7.999 19.329v7.289a27.04 27.04 0 001.174 7.9 27.336 27.336 0 0011.516 15.159 27.292 27.292 0 0035.285-5.216 27.352 27.352 0 006.647-17.843z" fill="#3F3D56"/><path d="M781.408 547.547v7.29c0 7.25 2.877 14.202 7.999 19.329a27.297 27.297 0 0038.623 0 27.348 27.348 0 008-19.329v-7.29a27.35 27.35 0 00-8-19.329 27.297 27.297 0 00-38.623 0 27.35 27.35 0 00-7.999 19.329zm27.311 96.585a27.381 27.381 0 00-19.288 8.031 27.43 27.43 0 00-8.023 19.305v7.289c0 7.25 2.877 14.203 7.999 19.329a27.294 27.294 0 0038.623 0 27.347 27.347 0 008-19.329v-7.289a27.43 27.43 0 00-8.023-19.305 27.385 27.385 0 00-19.288-8.031z" fill="#3F3D56"/><path opacity=".1" d="M836.03 486.289v6.587a27.352 27.352 0 01-6.647 17.843 27.292 27.292 0 01-35.285 5.216 27.332 27.332 0 01-11.516-15.159l53.448-14.487zm0 61.96v6.587a27.352 27.352 0 01-6.647 17.843 27.292 27.292 0 01-35.285 5.216 27.332 27.332 0 01-11.516-15.159l53.448-14.487zm0 61.96v6.588a27.352 27.352 0 01-6.647 17.843 27.301 27.301 0 01-16.674 9.169 27.286 27.286 0 01-18.611-3.954 27.33 27.33 0 01-11.516-15.158l53.448-14.488zm0 61.96v6.588a27.352 27.352 0 01-6.647 17.843 27.292 27.292 0 01-35.285 5.216 27.332 27.332 0 01-11.516-15.159l53.448-14.488z" fill="#000"/><path d="M893.045 555.301l-2.175 1.686a10.307 10.307 0 01-13.482-.729 10.332 10.332 0 01-1.212-13.458 10.214 10.214 0 012.085-2.169l2.185-1.685a10.328 10.328 0 0114.493 1.895 10.35 10.35 0 01-1.894 14.506v-.046z" fill="#3F3D56"/><path d="M861.92 553.242l-2.176 1.686a10.337 10.337 0 005.065 18.241 10.318 10.318 0 007.544-1.886l2.176-1.685a10.337 10.337 0 00-5.065-18.241 10.317 10.317 0 00-7.544 1.885z" fill="#3F3D56"/><path d="M843.403 567.547l-2.175 1.677a10.35 10.35 0 00-1.889 14.511 10.331 10.331 0 0014.497 1.89l2.176-1.676a10.357 10.357 0 003.947-6.864 10.346 10.346 0 00-8.915-11.597 10.33 10.33 0 00-7.641 2.059z" fill="#3F3D56"/><path d="M824.887 581.844l-2.176 1.686a10.33 10.33 0 00-1.871 14.483 10.306 10.306 0 0014.47 1.872l2.185-1.685a10.35 10.35 0 001.889-14.511 10.331 10.331 0 00-14.497-1.89v.045z" fill="#3F3D56"/><path opacity=".1" d="M892.836 555.465l-1.966 1.522a10.307 10.307 0 01-13.482-.729 10.332 10.332 0 01-1.212-13.458l16.66 12.665zm-18.517 14.297l-1.966 1.521a10.309 10.309 0 01-13.464-.737 10.332 10.332 0 01-1.229-13.441l16.659 12.657zm-18.516 14.296l-1.967 1.521a10.308 10.308 0 01-13.482-.719 10.326 10.326 0 01-1.22-13.459l16.669 12.657z" fill="#000"/><path d="M883.368 215.877a30.94 30.94 0 0121.887 9.074 30.994 30.994 0 019.066 21.906 30.994 30.994 0 01-9.066 21.907 30.94 30.94 0 01-21.887 9.074 30.943 30.943 0 0121.887 9.073 30.994 30.994 0 019.066 21.907 30.994 30.994 0 01-9.066 21.906 30.94 30.94 0 01-21.887 9.074 30.94 30.94 0 0121.887 9.074 30.994 30.994 0 019.066 21.906 30.992 30.992 0 01-9.066 21.906 30.94 30.94 0 01-21.887 9.074 30.94 30.94 0 0121.887 9.074 30.994 30.994 0 019.066 21.906 30.994 30.994 0 01-9.066 21.907 30.94 30.94 0 01-21.887 9.074H734.069a30.935 30.935 0 01-21.886-9.074 30.994 30.994 0 01-9.066-21.907 30.994 30.994 0 019.066-21.906 30.935 30.935 0 0121.886-9.074 30.935 30.935 0 01-21.886-9.074 30.992 30.992 0 01-9.066-21.906 30.994 30.994 0 019.066-21.906 30.935 30.935 0 0121.886-9.074 30.935 30.935 0 01-21.886-9.074 30.994 30.994 0 01-9.066-21.906 30.994 30.994 0 019.066-21.907 30.939 30.939 0 0121.886-9.073 30.935 30.935 0 01-21.886-9.074 30.994 30.994 0 01-9.066-21.907 30.994 30.994 0 019.066-21.906 30.935 30.935 0 0121.886-9.074 30.935 30.935 0 01-21.886-9.074 30.992 30.992 0 01-9.066-21.906 30.994 30.994 0 019.066-21.906 30.935 30.935 0 0121.886-9.074 30.935 30.935 0 01-21.886-9.074 30.994 30.994 0 01-9.066-21.906 30.99 30.99 0 019.066-21.906 30.934 30.934 0 0121.886-9.074h6.828c3.924-26.652 34.011-47.382 70.562-47.382 36.551 0 66.638 20.73 70.562 47.382h1.356c8.21 0 16.082 3.264 21.887 9.074a30.99 30.99 0 019.066 21.906 30.994 30.994 0 01-9.066 21.906 30.938 30.938 0 01-21.887 9.074c8.21 0 16.082 3.264 21.887 9.074a30.994 30.994 0 019.066 21.906 30.992 30.992 0 01-9.066 21.906 30.938 30.938 0 01-21.887 9.074h-.009z" fill="#B1B834"/><path opacity=".1" d="M914.321 122.937a31.081 31.081 0 01-9.093 21.879 31.027 31.027 0 01-21.86 9.101H734.069l148.389-61.96h.91a31.028 31.028 0 0121.86 9.1 31.085 31.085 0 019.093 21.88z" fill="#000"/><path opacity=".1" d="M704.027 184.897a31.088 31.088 0 009.092 21.88 31.03 31.03 0 0021.86 9.1h149.3l-148.389-61.96h-.911a31.034 31.034 0 00-21.86 9.1 31.088 31.088 0 00-9.092 21.88zm0 123.921a31.084 31.084 0 009.092 21.879 31.03 31.03 0 0021.86 9.101h149.3L735.89 277.837h-.911a31.03 31.03 0 00-21.86 9.101 31.088 31.088 0 00-9.092 21.88zm0 123.92a31.088 31.088 0 009.092 21.88 31.034 31.034 0 0021.86 9.1h149.3l-148.389-61.96h-.911a31.034 31.034 0 00-21.86 9.1 31.088 31.088 0 00-9.092 21.88z" fill="#000"/><path opacity=".1" d="M914.321 246.857a31.085 31.085 0 01-9.093 21.88 31.026 31.026 0 01-21.86 9.1H734.069l148.389-61.96h.91a31.03 31.03 0 0121.86 9.1 31.085 31.085 0 019.093 21.88zm0 123.921a31.085 31.085 0 01-9.093 21.88 31.03 31.03 0 01-21.86 9.1H734.069l148.389-61.96h.91a31.03 31.03 0 0121.86 9.1 31.085 31.085 0 019.093 21.88z" fill="#000"/><path d="M897.215 587.275l-49.159-26.488a11.587 11.587 0 012.286-21.024 11.563 11.563 0 018.638.623 11.59 11.59 0 01-6.304-11.442 11.604 11.604 0 014.269-7.932 11.576 11.576 0 0113.014-1.028l2.239 1.203c6.018-8.073 19.591-9.567 31.635-3.08 12.044 6.488 18.271 18.652 14.839 28.119l.446.246a11.574 11.574 0 015.924 6.849 11.593 11.593 0 01-.815 9.023 11.569 11.569 0 01-16.033 4.53 11.597 11.597 0 014.44 15.554 11.573 11.573 0 01-15.419 4.847z" fill="#B1B834"/><path opacity=".1" d="M923.879 562.162a11.6 11.6 0 01-15.676 4.711l-49.159-26.488 59.837 5.922.301.164a11.625 11.625 0 014.697 15.691zm-80.23-16.911a11.635 11.635 0 004.67 15.699l49.16 26.488-37.853-46.734-.3-.164a11.608 11.608 0 00-15.677 4.711z" fill="#000"/><path d="M311.48 704.389l-73.412.073a15.216 15.216 0 01-10.763-4.463 15.243 15.243 0 010-21.545 15.215 15.215 0 0110.763-4.462 15.225 15.225 0 01-15.593-15.231c0-2.032.406-4.043 1.194-5.916a15.25 15.25 0 018.461-8.264c1.89-.743 3.909-1.1 5.938-1.05h3.36c1.911-13.103 16.696-23.308 34.666-23.326 17.971-.019 32.773 10.159 34.721 23.262h.665a15.207 15.207 0 0111.003 4.327 15.247 15.247 0 013.396 16.82 15.219 15.219 0 01-14.399 9.314c4.037 0 7.908 1.605 10.763 4.462a15.244 15.244 0 010 21.546 15.215 15.215 0 01-10.763 4.462v-.009z" fill="#B1B834"/><path opacity=".1" d="M326.683 658.675a15.274 15.274 0 01-4.459 10.761 15.253 15.253 0 01-10.744 4.483l-73.412.073 72.929-30.534h.446c4.034.007 7.9 1.612 10.756 4.463a15.289 15.289 0 014.484 10.754zm-103.399 30.57a15.29 15.29 0 004.481 10.751 15.263 15.263 0 0010.749 4.466l73.412-.073-72.993-30.397h-.446a15.25 15.25 0 00-10.747 4.485 15.281 15.281 0 00-4.456 10.768z" fill="#000"/><path opacity=".1" d="M570.659 205.225a18.473 18.473 0 00-10.687 1.167 15.72 15.72 0 01-12.836 0 18.003 18.003 0 00-15.094.291 9.358 9.358 0 01-4.342 1.094c-6.118 0-11.207-6.169-12.263-14.315a11.794 11.794 0 003.059-3.299c3.587-5.786 9.103-9.494 15.376-9.494 6.272 0 11.734 3.645 15.321 9.394a11.842 11.842 0 0010.16 5.586h.164c4.825-.028 9.04 3.881 11.142 9.576z" fill="#B1B834"/><path opacity=".1" d="M589.249 179.685l-9.886 6.278 5.999-10.934a9.726 9.726 0 00-5.981-2.141h-.155a10.885 10.885 0 01-2.048-.146l-3.36 2.123 1.439-2.615a11.952 11.952 0 01-5.863-4.456l-6.017 3.818 3.787-6.898c-3.505-4.209-8.193-6.797-13.437-6.797-6.236 0-11.835 3.708-15.385 9.494a11.518 11.518 0 01-10.169 5.468h-.3c-6.883 0-12.472 7.818-12.472 17.458 0 9.64 5.589 17.458 12.472 17.458a9.252 9.252 0 004.342-1.093 18.004 18.004 0 0115.094-.292 15.919 15.919 0 006.454 1.385 15.726 15.726 0 006.373-1.358 18.012 18.012 0 0114.957.292 9.312 9.312 0 004.297 1.066c6.891 0 12.472-7.818 12.472-17.458a22.207 22.207 0 00-2.613-10.652zm-214.663 81.122a18.494 18.494 0 0110.688 1.167 15.682 15.682 0 0012.827 0 18.015 18.015 0 0115.066.273 9.383 9.383 0 004.343 1.094c6.117 0 11.215-6.169 12.271-14.315a11.654 11.654 0 01-3.059-3.299c-3.586-5.786-9.149-9.494-15.385-9.494-6.236 0-11.725 3.645-15.312 9.394a11.832 11.832 0 01-10.169 5.577h-.154c-4.844 0-9.068 3.909-11.116 9.603z" fill="#B1B834"/><path opacity=".1" d="M355.942 235.267l9.886 6.278-6.008-10.934a9.75 9.75 0 015.981-2.142h.164c.686.016 1.372-.033 2.048-.145l3.35 2.123-1.438-2.615a11.979 11.979 0 005.872-4.456l5.999 3.809-3.787-6.852c3.514-4.21 8.239-6.798 13.446-6.798 6.236 0 11.835 3.709 15.385 9.495a11.51 11.51 0 0010.169 5.467h.328c6.891 0 12.472 7.818 12.472 17.458 0 9.64-5.581 17.458-12.472 17.458a9.307 9.307 0 01-4.343-1.093 18.02 18.02 0 00-15.094-.292 15.857 15.857 0 01-6.445 1.385 15.664 15.664 0 01-6.372-1.357 18.01 18.01 0 00-14.967.291 9.284 9.284 0 01-4.297 1.066c-6.882 0-12.472-7.818-12.472-17.458a22.21 22.21 0 012.595-10.688z" fill="#B1B834"/></g><defs><linearGradient id="paint0_linear" x1="555.511" y1="730.421" x2="555.511" y2="354.103" gradientUnits="userSpaceOnUse"><stop stop-color="gray" stop-opacity=".25"/><stop offset=".54" stop-color="gray" stop-opacity=".12"/><stop offset="1" stop-color="gray" stop-opacity=".1"/></linearGradient><clipPath id="clip0"><path fill="#fff" d="M0 0h1043v745H0z"/></clipPath></defs></svg>