<svg width="881" height="669" viewBox="0 0 881 669" fill="none" xmlns="http://www.w3.org/2000/svg"><g clip-path="url(#clip0)"><path opacity=".1" d="M209.285 558.294c-7.418-.751-15.167-1.553-22.192.41-7.025 1.964-12.846 7.697-10.76 13.177 4.66 12.218 32.009 3.709 44.619 12.06 4.503 2.985 6.258 7.68 9.774 11.345 5.69 5.952 15.473 8.727 24.915 10.254 56.724 9.171 121.389-14.434 171.106 8.299 16.101 7.365 28.798 19.085 46.452 23.998 23.388 6.51 49.001-.445 73.2-4.904a358.062 358.062 0 0191.535-4.8c22.628 1.745 52.727 2.33 59.97-14.102 4.66-10.568-5.201-22.332-18.291-27.332s-28.414-4.843-43.032-4.363c-28.213 1.012-56.436 3.054-84.649 2.059-54.56-1.937-106.1-23.562-159.228-24.277-61.873-.751-121.259 4.442-183.419-1.824zm-57.361-273.536c-8.727 8.823-9.259 22.349-9.259 22.349s13.518-.768 22.209-9.599c8.692-8.831 9.268-22.349 9.268-22.349s-13.526.794-22.218 9.599zm35.125-217.956c3.081 12 14.382 19.46 14.382 19.46s6.309-11.981 3.229-23.98c-3.081-12-14.382-19.452-14.382-19.452s-6.344 11.982-3.229 23.972zm510.375 33.004c-8.727 8.823-9.268 22.349-9.268 22.349s13.527-.768 22.219-9.599c8.692-8.832 9.259-22.358 9.259-22.358s-13.518.83-22.21 9.608zM431.442 223.445c-1.013 12.34 7.217 23.091 7.217 23.091s9.887-9.259 10.899-21.607c1.013-12.349-7.217-23.074-7.217-23.074s-9.887 9.242-10.899 21.59zm286.289 173.058c-1.012 12.339 7.217 23.09 7.217 23.09s9.888-9.259 10.9-21.598c1.012-12.339-7.217-23.091-7.217-23.091s-9.887 9.259-10.9 21.599z" fill="#A0C23C"/><path opacity=".1" d="M511.867 84.107c-56.48-1.702-110.271-17.454-161.637-34.732-51.366-17.279-102.243-36.382-157.369-45.527-35.457-5.882-76.01-6.71-104.573 9.739C60.79 29.408 51.906 56.73 47.133 82.082c-3.596 19.068-5.708 39.139 4.136 56.994 6.842 12.4 18.972 22.82 27.367 34.688 29.209 41.32 8.561 92.266-23.082 132.645-14.836 18.928-32.07 36.974-43.529 57.124-11.458 20.15-16.755 43.223-6.728 63.765 9.93 20.368 33.606 35.666 59.254 46.426 52.09 21.817 113.448 28.108 173.322 31.651 132.498 7.854 265.695 4.451 398.542 1.048 49.166-1.257 98.542-2.531 146.906-9.111 26.861-3.648 54.586-9.442 74.09-23.44 24.749-17.767 30.884-47.848 14.295-70.127-27.821-37.358-104.721-46.643-124.191-86.742-10.699-22.07.288-46.653 15.848-67.125 33.371-43.913 89.301-82.441 92.242-132.645 2.024-34.47-24.863-68.993-66.437-85.303-43.573-17.104-104.005-14.948-136.137 13.352-33.118 29.103-91.291 40.317-141.164 38.825z" fill="#A0C23C"/><path d="M699.091 248.386a7.84 7.84 0 00-5.358 4.721l-.873-.14-3.255-.523s-17.244-1.423-20.464-1.205c-3.221.218-5.236-2.958-5.236-2.958l-12.82-10.847-.995-.873a46.942 46.942 0 012.252-.794s-34.401-42.76-41.819-43.589c-7.418-.829-19.679-10.813-19.801-10.909l-.131-.68a52.062 52.062 0 01-.619-4.364l1.823 1.117c0-.506 0-1.012.053-1.518a27.61 27.61 0 015.131-14.661c3.587-4.974 8.893-8.884 11.013-14.617a21.114 21.114 0 001.126-7.671 25.575 25.575 0 00-3.578-13.343 16.67 16.67 0 00-11.257-7.766c-1.222-.192-2.47-.218-3.674-.498-7.165-1.684-9.8-11.292-16.764-13.648-3.247-1.1-6.86-.375-9.993.986-3.132 1.361-5.969 3.316-9.032 4.826-3.063 1.509-6.536 2.618-9.32 4.756-.288.218-.593.48-.873.75l-.549.533a19.735 19.735 0 00-2.976 3.883l-.131.218a7.512 7.512 0 00-.244.463c-.079.157-.131.244-.184.366-.052.122-.139.279-.2.419l-.184.419-.157.401c-.052.149-.113.297-.157.454-.043.157-.087.253-.122.384l-.131.463-.078.375c0 .157-.062.323-.088.48-.026.157 0 .235 0 .349v1.614c.034.257.087.511.157.759.472 1.606 2.095 3.247 3.334 4.678-.14.131-.279.253-.419.393a30.407 30.407 0 00-9.311 21.912c.001 1.818.168 3.632.497 5.419a29.05 29.05 0 00-5.088-3.08 44.401 44.401 0 00-18.928-4.363c-10.69-.123-25.709-4.137-25.709-4.137.384.733.677 1.509.873 2.313a92.714 92.714 0 00-2.138-1.196 62.672 62.672 0 00-20.072-6.719s-4.45.619-5.044-8.727a39.583 39.583 0 00-1.571-8.613 146.897 146.897 0 01-5.288-26.18L449.227 84.5s6.719-35.78 2.679-51.033c1.3-4.783.567-9.163-3.718-12.314-16.903-12.444-33.956 35.989-33.956 35.989l-6.335 6.152a13.595 13.595 0 00-5.376-2.05s-3.412 3.49-5.786 13.02c-1.256 5.052-9.843 13.49-17.61 20.289-5.516 4.826-10.839 9.843-16.153 14.879-3.927 3.735-12.68 9.075-31.775 12.095-2.993.471-5.716.916-8.203 1.326.636-2.255.959-4.586.96-6.929a25.988 25.988 0 00-20.385-25.246c.087-.61.087-1.23 0-1.841a7.629 7.629 0 00-1.929-3.49c-4.023-4.975-8.386-10.089-14.373-12.445a18.72 18.72 0 00-7.758-1.248h-2.129a19.88 19.88 0 00-14.539 7.575c-2.147 2.871-3.438 6.274-5.289 9.337-3.438 5.673-8.726 10.045-14.46 13.5-3.447 2.086-7.068 3.884-10.323 6.249-11.808 8.578-17.253 24.434-14.286 38.606 1.309 6.222 4.075 12.348 3.333 18.658-.584 4.895-3.22 9.294-5.908 13.448-2.687 4.153-5.532 8.377-6.597 13.185-1.065 4.809.052 10.472 4.084 13.387 1.484 1.065 3.281 1.745 4.547 3.037a14.559 14.559 0 012.094 3.281 32.66 32.66 0 0020.307 15.778c1.357.346 2.755.499 4.154.454h.419c3.203.2 6.484-.655 7.558-3.491a7.885 7.885 0 01.724-1.85 2.173 2.173 0 011.265-.873c1.033.236 2.028.612 2.959 1.117a37.623 37.623 0 0014.381 4.111c.839.067 1.682.081 2.522.043a11.148 11.148 0 005.14-.733 11.004 11.004 0 003.954-3.386c.226-.288.436-.593.654-.872a72.193 72.193 0 01-6.44 20.071s-5.236 8.726-4.861 17.523a17.597 17.597 0 001.963 9.25s.149-.384.454-.986c1.501 2.513 6.423 10.55 9.652 13.369.157 8.299.122 18.693-.916 20.831-1.746 3.656-7.261 29.67 16.458 47.411l5.472 11.982-22.524 1.597c-2.277-.314-31.73-4.276-31.879 1.492-.148 5.995 4.451 64.376 19.723 60.423 14.233-3.682 9.538-20.708 8.831-22.994l.507-.14-.559-.157 11.388-10.795a5.046 5.046 0 00-.872-3.744l.113-.061 27.507 1.231 6.466 14.05s10.97 16.685 2.077 30.726c-8.892 14.041-18.09 35.997-19.574 49.314-1.213 10.891-9.276 21.59-12.165 25.115-5.157 1.746-24.941 9.512-17.043 21.267 9.041 13.457 38.398 39.069 50.266 38.188 11.868-.882 7.112-9.512 7.112-9.512l-9.922-9.617s-1.745-20.49-1.039-26.485c.384-3.116-1.911-5.358-4.363-6.31.934-6.675 3.299-19.329 8.378-26.319 7.112-9.809 29.95-52.971 29.95-52.971s7.261-6.44 5.629-25.604a440.44 440.44 0 01-1.231-19.888l25.849 1.161s27.725-2.784 8.892-32.489c-18.832-29.705-58.862-58.817-58.862-58.817l-.357-18.387c1.815.453 2.88.68 2.88.68s-.158-.663-.419-1.85l.419.096s-5.786-25.037-7.567-44.942l1.632.751c17.201 19.905 28.799 3.08 28.799 3.08s36.329-51.068 32.769-48.729a3.095 3.095 0 01-2.392.148l2.618-8.343s10.726-16.388-4.843-25.604c-12.706-7.522-12.374 16.057-11.825 24.967l-.628-.532s-12.156 18.326-18.684 28.536c-6.528 10.21-12.008 3.491-12.008 3.491l-8.247-9.294a32.642 32.642 0 001.964-11.624 19.757 19.757 0 00-5.577-15.08c-6.292-6.414-8.133-12.627-8.325-17.409a18.444 18.444 0 011.649-7.174l42.857-22.689s9.041.14 21.198-18.587a321.413 321.413 0 0125.953-34.235s-.253-.366-.689-.969c.436-.514.689-.794.689-.794s-.497-.724-1.344-1.841l6.606-7.618a97.732 97.732 0 00-.078 10.34l3.421 11.563 1.92 64.377s-2.077 6.108 11.274 12.296c11.293 5.235 29.183 13.962 34.401 16.536-.192.472-.305.725-.305.725l1.553-.105.227.105c26.084-2.339 25.194 23.701 25.194 23.701s1.746 52.971-6.222 71.41c-7.967 18.439-6.824 41.26-6.824 41.26s.794-3.892 5.236 1.195c-.087.445-.183.925-.288 1.423-2.548 12.767-7.854 39.924-8.84 50.937a178.472 178.472 0 01-5.786 29.67l-2.618 48.721 16.677.812-.184 1.745a5.481 5.481 0 01-2.827 4.25c-5.707 3.098-19.199 13.962-18.117 47.49l-.576 5.393a67.743 67.743 0 01-8.142 26.014 26.436 26.436 0 00-1.012 1.964c.043-.353.203-.682.454-.934 0 0-8.666 1.798-6.886 25.211 1.78 23.414 4.451 27.506 8.011 27.794 3.561.288 20.945 4.538 20.011-4.092-.934-8.631-1.746-27.803-.594-30.727 1.152-2.923 5.882-10.812 1.397-12.714a66.908 66.908 0 001.876-16.407s8.727-13.753 14.966-18.875c6.24-5.123 9.6-13.823 11.86-25.019.157-.733 18.387-12.881 15.708-22.969a60.552 60.552 0 01-1.073-4.686 78.07 78.07 0 01-.297-1.745h.323l3.709-22.245v21.66l2.199.288-.079 1.745-.933 20.77a34.19 34.19 0 01-2.619 11.763c-3.927 9.294-11.17 29.985-9.197 52.36l-.21 19.949c-.628.122-9.687 2.26-7.967 24.871 1.745 23.404 4.441 27.506 8.002 27.794 3.561.288 20.944 4.538 20.019-4.093-.925-8.63-1.745-27.803-.593-30.726 1.152-2.924 3.229-10.655-1.257-12.558a16.708 16.708 0 011.868-7.531c1.954-3.325 8.482-19.129 13.395-31.285a111.977 111.977 0 008.247-38.685v-.445a36.28 36.28 0 012.836-13.029 83.907 83.907 0 004.747-14.32c.123-.585.219-1.152.306-1.746l4.259.568 14.538-62.919s3.98-34.104 2.034-49.506a30.14 30.14 0 00-.271-1.789l.873.078s2.967-7.601 2.077-40.09c-.89-32.489 5.934-42.76 5.934-42.76 3.683-11.676 7.749-15.586 10.123-16.895a4.281 4.281 0 012.033-.663l11.005 12.592 2.024 2.322a.655.655 0 000-.14l.873 1.021a9.373 9.373 0 01-.07-1.562c5.873 3.412 19.443 11.388 27.542 17.113 10.559 7.461 13.456 6.588 22.689 5.812 5.603-.463 13.178-3.604 18.257-5.995l.462-.219a22.265 22.265 0 004.294 1.746s14.905 12.627 16.345-10.42c1.44-23.047-17.881-17.479-17.881-17.479zM312.496 516.782a21.567 21.567 0 01-4.363-1.842l4.363 1.842zm-23.335-249.477l.052 3.272-.227.105c.07-1.152.122-2.286.175-3.377zm233.126 292.097v1.274a.933.933 0 010-1.274z" fill="url(#paint0_linear)"/><path d="M569.865 175.955h-25.307v26.616h25.307v-26.616z" fill="#FF7590"/><path d="M513.805 483.28c-2.226 11.127-5.524 19.775-11.633 24.871-6.109 5.096-14.687 18.762-14.687 18.762-.148 18.178-4.948 23.702-4.948 23.702l-4.948 1.309h-12.218s-2.181-6.109-2.618-9.739c-.148-1.213.716-3.246 1.92-5.428a67.995 67.995 0 007.985-25.857l.567-5.367c-1.029-33.309 12.218-44.122 17.777-47.202a5.447 5.447 0 002.766-4.224l.986-9.521 32.865 1.615s-.698 2.897.55 9.599a61.213 61.213 0 001.047 4.651c2.618 10.027-15.272 22.096-15.411 22.829zm55.729-23.003a84.755 84.755 0 01-4.652 14.233 36.543 36.543 0 00-2.792 12.95v.445a112.718 112.718 0 01-8.09 38.45c-4.826 12.077-11.223 27.794-13.142 31.101-3.194 5.524-1.309 14.836-1.309 14.836l-18.501-1.309.323-31.128c-1.929-22.227 5.175-42.761 9.023-52.037a34.087 34.087 0 002.618-11.685l.873-20.647.27-6.109s32.708-4.651 35.466 2.767c.759 1.963.576 4.887-.087 8.133z" fill="#8E5362"/><path opacity=".1" d="M528.169 455.8l-34.436-1.693.986-9.521 32.9 1.615s-.724 2.888.55 9.599zm41.365 4.477l-35.658-4.791.271-6.109s32.708-4.651 35.465 2.767c.768 1.963.585 4.886-.078 8.133z" fill="#000"/><path d="M588.27 396.59l-14.251 62.543-42.176-5.672v-21.528l-3.648 22.122-50.615-2.479 2.618-48.433a179.606 179.606 0 005.672-29.522c.987-10.943 6.17-37.934 8.675-50.614.872-4.18 1.361-6.816 1.361-6.816s86.692 18.03 92.364 24.575c.969 1.117 1.606 3.49 1.998 6.641 1.903 15.289-1.998 49.183-1.998 49.183z" fill="#BDD2E8"/><path opacity=".1" d="M487.04 400.665s34.121-17.889 42.438-14.111l-42.438 14.111zm18.614-58.468s28.362 21.528 29.234 27.34l-29.234-27.34zm-7.706 74.176s20.508-.873 27.053 4.363l-27.053-4.363zm36.941-23.021s9.747 31.905 5.524 40.631c-4.224 8.727-8.579-2.042-8.579-2.042l3.055-38.589z" fill="#000"/><path d="M521.196 559.646s-9.599 1.458-7.854 24.723 4.364 27.349 7.854 27.637c3.491.288 20.508 4.512 19.636-4.075-.873-8.587-1.746-27.629-.585-30.543 1.161-2.915 3.168-10.586-1.231-12.479l-.951 4.485s-9.311-8.587-14.835-2.33a24.189 24.189 0 00-1.144-4.477c-.549-1.361-1.754-2.068-.89-2.941z" fill="#494457"/><path d="M696.874 274.129s-2.199 1.231-5.428 2.767c-4.983 2.373-12.409 5.498-17.907 5.96-9.058.768-11.894 1.641-22.253-5.777-7.95-5.69-21.258-13.622-27.053-17.008l-2.522-1.492-.253-.149v-.104l4.808-13.213 17.017-9.049 4.224 3.622 12.575 10.777s1.964 3.159 5.132 2.941c3.168-.218 20.071 1.195 20.071 1.195l3.194.524 6.729 1.117 1.666 17.889z" fill="#8E5362"/><path opacity=".1" d="M696.874 274.129s-2.199 1.231-5.428 2.767c-3.412-1.746-7.653-5.018-6.021-10.402 1.475-4.844 1.876-8.622 3.089-11.345l6.728 1.117 1.632 17.863z" fill="#000"/><path d="M694.588 250.568s18.981-5.455 17.567 17.453c-1.414 22.907-16.04 10.367-16.04 10.367s-12.436-3.272-9.818-11.894c2.619-8.622 1.859-13.85 8.291-15.926zM497.8 176.391l-19.775 8.308-.305.13-.219-.104-1.23-.62c-5.114-2.548-22.69-11.266-33.746-16.441-13.09-6.108-11.057-12.217-11.057-12.217l-1.885-63.992-3.351-11.493s-2.365-38.956 16.581-48.721c18.945-9.765 6.693 56.426 6.693 56.426l1.466 13.753a147.28 147.28 0 005.193 25.98 40.405 40.405 0 011.535 8.56c.585 9.303 4.948 8.683 4.948 8.683a60.781 60.781 0 0119.671 6.685 49.251 49.251 0 016.51 4.119l8.971 20.944zm70.399 30.543l-16.878-1.745s4.974-7.4 7.165-14.6c.309-.987.557-1.992.741-3.011.507-2.853.376-5.497-.925-7.408-4.939-7.27 29.383-17.454 29.383-17.454a83.897 83.897 0 00-.375 12.113 61.29 61.29 0 00.873 8.386c1.038 5.646 3.106 10.961 7.051 13.683 10.777 7.418-27.035 10.036-27.035 10.036z" fill="#8E5362"/><path opacity=".1" d="M568.199 206.934l-16.878-1.745s4.974-7.4 7.165-14.6c1.946 2.767 2.618 2.706 5.349 3.255 0 0 17.035 2.522 24.365-10.629 1.039 5.646 3.107 10.961 7.051 13.684 10.761 7.417-27.052 10.035-27.052 10.035zm56.069 53.137c-.02.519.003 1.038.07 1.553l-2.618-3.045-.219-.253 4.809-13.213 17.017-9.049 4.224 3.622c-6.048 2.312-23.013 9.651-23.283 20.385zM497.8 176.391l-19.775 8.308h-.524l-1.527.105s.114-.253.297-.725c1.649-4.005 9.303-23.561 5.995-32.777a49.186 49.186 0 016.51 4.119l9.024 20.97zm92.468 170.989c-7.697-.689-84.701-7.81-91.883-19.146a39.922 39.922 0 00-3.84-5.236c.872-4.18 1.361-6.815 1.361-6.815s86.692 18.029 92.364 24.574c.969 1.099 1.606 3.464 1.998 6.623z" fill="#000"/><path d="M563.835 194.717s17.218 2.548 24.496-10.83c0 0 12.156 9.984 19.426 10.839 7.269.855 41.016 43.336 41.016 43.336s-27.053 8.727-25.308 22.689l-12.802-14.835s-6.397-.296-11.921 17.453c0 0-6.693 10.176-5.821 42.464.873 32.289-2.033 39.855-2.033 39.855s-84.946-7.27-92.503-19.199c-7.558-11.929-8.727-6.109-8.727-6.109s-1.17-22.689 6.684-41.015c7.855-18.326 6.109-70.973 6.109-70.973s.873-25.892-24.723-23.562c0 0 10.76-25.019 5.821-34.619 0 0 14.722 3.997 25.212 4.119a43.118 43.118 0 0118.57 4.364c3.151 1.544 6.057 3.49 7.706 5.812 4.939 6.981 13.09 3.787 13.09 3.787a132.203 132.203 0 007.592 18.614 63.38 63.38 0 001.03 1.867c.506.873 1.03 1.746 1.553 2.461 2.095 2.993 2.688 2.915 5.533 3.482z" fill="#FF7590"/><path opacity=".1" d="M587.31 174.803a29.855 29.855 0 01-3.089 3.709 30.457 30.457 0 01-21.817 9.198c-1.052 0-2.104-.052-3.15-.157.506-2.854.375-5.498-.925-7.409-4.94-7.27 29.383-17.454 29.383-17.454a83.904 83.904 0 00-.402 12.113z" fill="#000"/><path d="M592.921 156.32a30.544 30.544 0 11-30.543-30.543 30.421 30.421 0 0121.631 8.912 30.432 30.432 0 018.912 21.631z" fill="#8E5362"/><path opacity=".1" d="M608.054 226.133l.628 20.438s9.119-7.348 9.407-14.329c.288-6.982-10.035-6.109-10.035-6.109zm-73.602 20.437s23.999 32.943 37.962 36.286c13.962 3.342-32.726-25.604-37.962-36.286zm25.456 3.43s13.378 15.114 22.978 16.999L559.908 250zm-47.124 38.092s24.435 23.998 38.397 25.455l-38.397-25.455zm80.137-131.772a30.427 30.427 0 01-8.726 21.345l-3.351-2.085a9.261 9.261 0 01-3.264-2.837c-1.109-1.85-.786-4.171-.698-6.326.183-4.564-1.074-9.504-4.643-12.357-5.786-4.634-15.062-2.069-20.944-6.615a20.628 20.628 0 01-3.709-4.128l-5.515-7.391c-.332-.437-.733-.873-1.161-1.388a30.55 30.55 0 0133.24-6.383 30.533 30.533 0 0113.623 11.27 30.534 30.534 0 015.096 16.93l.052-.035z" fill="#000"/><path d="M543.973 117.207c2.732-2.086 6.065-3.185 9.137-4.721s5.786-3.491 8.858-4.8c3.071-1.309 6.623-2.077 9.808-.986 6.834 2.348 9.417 11.895 16.442 13.57 1.187.279 2.408.306 3.604.489a16.402 16.402 0 0111.039 7.723 25.703 25.703 0 013.491 13.273 21.282 21.282 0 01-1.108 7.618c-2.077 5.699-7.287 9.6-10.804 14.53a27.633 27.633 0 00-5.053 16.136l-8.517-5.297a9.193 9.193 0 01-3.264-2.836c-1.108-1.851-.785-4.172-.698-6.327.183-4.564-1.074-9.504-4.634-12.357-5.795-4.634-15.071-2.068-20.944-6.615a20.628 20.628 0 01-3.709-4.128l-5.515-7.391c-1.196-1.606-3.491-3.604-4.015-5.559-1.16-4.206 2.81-9.957 5.882-12.322z" fill="#362133"/><path opacity=".1" d="M581.821 173.756a9.186 9.186 0 01-3.264-2.837c-1.108-1.85-.785-4.171-.698-6.326.183-4.564-1.073-9.504-4.643-12.357-5.785-4.634-15.062-2.068-20.944-6.615a20.658 20.658 0 01-3.709-4.128l-5.515-7.391c-1.204-1.606-3.491-3.604-4.014-5.559-.951-3.368 1.457-7.758 4.032-10.568-2.889 2.67-6.057 7.741-4.983 11.519.558 1.955 2.818 3.953 4.014 5.559l5.515 7.392a20.68 20.68 0 003.709 4.127c5.856 4.547 15.132 1.981 20.944 6.615 3.561 2.854 4.817 7.793 4.634 12.357-.087 2.155-.41 4.477.698 6.327a9.193 9.193 0 003.264 2.836l8.517 5.297c0-.506 0-1.012.053-1.51l-7.61-4.738z" fill="#000"/><path d="M464.123 537.778s-8.499 1.745-6.754 25.054c1.745 23.309 4.363 27.349 7.854 27.637 3.491.288 20.508 4.512 19.635-4.075-.873-8.587-1.745-27.629-.585-30.543 1.161-2.915 5.769-10.743 1.371-12.637l-3.552 4.643s-9.312-8.587-14.836-2.33c0 0-5.166-5.716-3.133-7.749z" fill="#494457"/><path opacity=".1" d="M469.499 552.229c1.841.873 3.561 1.937 5.393 2.81a12.112 12.112 0 005.856 1.379 4.085 4.085 0 002.391-.829m42.298 19.434c1.091 1.004 1.938 2.286 3.168 3.115 1.746 1.17 3.98 1.24 6.109 1.266.354.032.712-.013 1.047-.131.38-.207.702-.507.934-.873l1.143-1.475" fill="#000"/><path d="M382.031 188.024s-3.927-37.228 11.345-28.065c15.271 9.163 4.756 25.447 4.756 25.447l-3.587 11.493-12.514-8.875zm24.435-118.97l8.726-8.57s16.73-48.145 33.31-35.779c16.581 12.366-21.014 43.633-21.014 43.633l-9.966 11.633-11.056-10.917z" fill="#FFC1C7"/><path d="M278.758 259.451l-.436 9.887s8.003 13.963 11.345 14.984c3.342 1.021 3.054-29.531 3.054-29.531l-13.963 4.66z" fill="#FF5374"/><path opacity=".1" d="M278.758 259.451l-.436 9.887s8.003 13.963 11.345 14.984c3.342 1.021 3.054-29.531 3.054-29.531l-13.963 4.66z" fill="#000"/><path d="M292.137 248.595l.593 36.443h40.571l-3.055-21.232-38.109-15.211z" fill="#FFC1C7"/><path d="M301.596 339.579l1.894 11.633 23.711 52.656s10.76 16.581 2.033 30.543c-8.727 13.963-17.742 35.779-19.199 49.009-1.457 13.23-12.942 26.18-12.942 26.18l25.02 10.62s1.745-20.795 8.727-30.543c6.981-9.748 29.374-52.648 29.374-52.648s7.13-6.405 5.533-25.455c-1.597-19.05-1.458-32.437-1.458-32.437l-2.469-30.395-60.224-9.163z" fill="#575988"/><path opacity=".1" d="M301.596 339.579l1.894 11.633 23.711 52.656s10.76 16.581 2.033 30.543c-8.727 13.963-17.742 35.779-19.199 49.009-1.457 13.23-12.942 26.18-12.942 26.18l25.02 10.62s1.745-20.795 8.727-30.543c6.981-9.748 29.374-52.648 29.374-52.648s7.13-6.405 5.533-25.455c-1.597-19.05-1.458-32.437-1.458-32.437l-2.469-30.395-60.224-9.163z" fill="#000"/><path d="M299.266 508.003s-26.765 8.142-17.89 21.528c8.876 13.387 37.674 38.834 49.307 37.961 11.632-.872 6.981-9.459 6.981-9.459l-9.748-9.6s-1.745-20.359-1.012-26.319c.733-5.96-8.291-8.727-9.46-5.236-1.169 3.491-18.178-8.875-18.178-8.875z" fill="#C4747B"/><path d="M316.135 269.557l-21.215 2.347a7.607 7.607 0 00-6.772 7.758c.227 8.482.376 21.974-.811 24.435-1.745 3.639-7.121 29.53 16.144 47.123l31.565 10.036-50.615 3.639 1.606 28.073 7.854-4.363 95.994 4.363s27.201-2.766 8.727-32.288c-18.475-29.522-57.737-58.468-57.737-58.468l-.436-22.986-2.915-6.685-21.389-2.984z" fill="#575988"/><path opacity=".1" d="M342.464 360.811a27.262 27.262 0 0121.817 0h-21.817z" fill="#000"/><path d="M286.909 364.738s-31.268-4.503-31.416 1.457c-.148 5.961 4.363 63.993 19.347 60.066 14.984-3.927 8.579-23.126 8.579-23.126l11.205-10.76s1.16-5.96-6.257-5.384l-1.458-22.253z" fill="#C4747B"/><path d="M338.685 201.986l12.357 14.111s5.384 6.694 11.781-3.49c6.397-10.184 18.326-28.362 18.326-28.362s13.239 11.633 16.73 9.311c3.49-2.321-32.141 48.442-32.141 48.442s-11.345 16.72-28.222-3.054l-4.94-2.33 6.109-34.628z" fill="#FF5374"/><path opacity=".1" d="M338.685 201.986l12.357 14.111s5.384 6.694 11.781-3.49c6.397-10.184 18.326-28.362 18.326-28.362s13.239 11.633 16.73 9.311c3.49-2.321-32.141 48.442-32.141 48.442s-11.345 16.72-28.222-3.054l-4.94-2.33 6.109-34.628z" fill="#000"/><path d="M300.881 144.644c14.218 0 25.744-11.526 25.744-25.744 0-14.217-11.526-25.743-25.744-25.743s-25.744 11.526-25.744 25.743c0 14.218 11.526 25.744 25.744 25.744z" fill="#FFC1C7"/><path opacity=".1" d="M300.872 132.758s-22.122 10.472-19.504 28.798c2.618 18.326 3.054 41.452 3.054 41.452s10.045 14.835-3.272 43.196c0 0-8.509 14.399-2.837 24.871 0 0 6.292-16.58 22.559-4.363 16.267 12.217 42.456 17.889 42.456 17.889s-13.527-59.341-5.236-67.631c0 0 14.399-21.38 1.309-34.906-13.09-13.527-6.545-26.18-6.545-26.18l42.036-22.541s8.867.14 20.796-18.474a320.453 320.453 0 0125.456-34.034s-9.023-13.526-17.453-14.547c0 0-3.351 3.49-5.673 12.95-1.239 5.018-9.66 13.404-17.279 20.167-5.41 4.8-10.629 9.783-15.839 14.835-3.857 3.709-12.444 9.015-31.172 12.017-30.823 4.913-32.856 6.501-32.856 6.501z" fill="#000"/><path d="M300.872 131.013s-22.122 10.472-19.504 28.797c2.618 18.326 3.054 41.452 3.054 41.452s10.045 14.835-3.272 43.197c0 0-8.509 14.399-2.837 24.871 0 0 6.292-16.581 22.559-4.364 16.267 12.217 42.456 17.89 42.456 17.89s-13.527-59.341-5.236-67.632c0 0 14.399-21.38 1.309-34.906s-6.545-26.18-6.545-26.18l42.036-22.541s8.867.14 20.796-18.474a320.55 320.55 0 0125.456-34.034s-9.023-13.526-17.453-14.547c0 0-3.351 3.49-5.673 12.95-1.239 5.018-9.66 13.404-17.279 20.167-5.41 4.8-10.629 9.783-15.839 14.836-3.857 3.709-12.444 9.014-31.172 12.016-30.823 4.913-32.856 6.502-32.856 6.502z" fill="#FF5374"/><path opacity=".1" d="M319.922 240.68s17.157 25.307 17.594 29.671c.008 0-2.61-27.201-17.594-29.671zm-22.541-85.233s11.965 14.399 29.252 2.33a37.092 37.092 0 01-29.252-2.33z" fill="#000"/><path opacity=".1" d="M306.658 91.979a7.722 7.722 0 00-1.885-3.49c-3.945-4.949-8.229-10.028-14.102-12.375a19.498 19.498 0 00-22.245 6.335c-2.112 2.845-3.368 6.231-5.192 9.277-3.369 5.637-8.579 9.983-14.181 13.421-3.378 2.068-6.938 3.857-10.123 6.205-11.581 8.526-16.93 24.286-14.016 38.397 1.283 6.178 3.997 12.27 3.264 18.544-.567 4.869-3.159 9.233-5.786 13.369-2.626 4.137-5.428 8.325-6.475 13.09-1.047 4.765.053 10.411 4.006 13.3 1.457 1.064 3.211 1.745 4.459 3.019a14.474 14.474 0 012.051 3.264 32.098 32.098 0 0019.923 15.708c3.753.986 8.788.628 10.158-3.002.157-.641.395-1.26.707-1.842 1.239-1.745 3.971-.768 5.89.236a36.466 36.466 0 0014.077 4.04c1.95.258 3.933.02 5.768-.689a10.666 10.666 0 003.884-3.36c4.59-5.978 5.907-13.788 6.693-21.284.515-4.878.873-9.844-.061-14.661-1.484-7.732-6.187-14.957-5.489-22.794.741-8.377 7.54-15.228 8.578-23.562a17.97 17.97 0 00-3.063-12.383 17.731 17.731 0 01-2.33-3.647 3.616 3.616 0 01.698-4.006 6.136 6.136 0 011.815-.873c5.612-2.155 8.605-7.775 9.006-13.526.157-2.181 0-4.189.602-6.318.96-3.29 3.866-6.885 3.369-10.393z" fill="#000"/><path d="M304.913 91.979a7.731 7.731 0 00-1.885-3.49c-3.945-4.949-8.23-10.028-14.103-12.375a19.495 19.495 0 00-22.244 6.335c-2.112 2.845-3.369 6.231-5.193 9.277-3.368 5.637-8.578 9.983-14.181 13.421-3.377 2.068-6.937 3.857-10.123 6.205-11.58 8.526-16.93 24.286-14.015 38.397 1.283 6.178 3.997 12.27 3.264 18.544-.567 4.869-3.159 9.233-5.786 13.369-2.627 4.137-5.428 8.325-6.475 13.09-1.047 4.765.052 10.411 4.005 13.3 1.458 1.064 3.212 1.745 4.46 3.019a14.51 14.51 0 012.051 3.264 32.09 32.09 0 0019.923 15.708c3.752.986 8.788.628 10.158-3.002.157-.641.394-1.26.707-1.842 1.239-1.745 3.97-.768 5.89.236a36.461 36.461 0 0014.076 4.04c1.951.258 3.934.02 5.769-.689a10.655 10.655 0 003.883-3.36c4.59-5.978 5.908-13.788 6.694-21.284.514-4.878.872-9.844-.062-14.661-1.483-7.732-6.187-14.957-5.489-22.794.742-8.377 7.54-15.228 8.579-23.562a17.97 17.97 0 00-3.063-12.383 17.69 17.69 0 01-2.33-3.647 3.625 3.625 0 01.698-4.006 6.125 6.125 0 011.815-.873c5.611-2.155 8.604-7.775 9.006-13.526.157-2.181 0-4.189.602-6.318.96-3.29 3.866-6.885 3.369-10.393z" fill="#BB7684"/><path opacity=".1" d="M252.875 225.155a8.22 8.22 0 00-.716 1.842c-.811 2.164-2.932 3.159-5.297 3.403 3.29.332 6.807-.463 7.915-3.403a8.22 8.22 0 01.716-1.842c.22-.32.521-.576.873-.742-1.327-.383-2.688-.366-3.491.742zM304.956 91.97a7.53 7.53 0 00-1.885-3.491c-3.944-4.948-8.229-10.027-14.102-12.374a18.327 18.327 0 00-8.029-1.205 17.81 17.81 0 015.411 1.205c5.873 2.347 10.158 7.426 14.102 12.374a7.53 7.53 0 011.885 3.49c.498 3.491-2.4 7.113-3.36 10.342-.637 2.129-.453 4.127-.602 6.318-.41 5.742-3.395 11.344-9.015 13.526a6.088 6.088 0 00-1.815.873 3.62 3.62 0 00-.689 4.014 17.684 17.684 0 002.321 3.648 17.947 17.947 0 013.072 12.374c-1.047 8.351-7.854 15.193-8.587 23.562-.698 7.854 4.014 15.062 5.489 22.785.925 4.817.576 9.783.061 14.661-.785 7.496-2.094 15.315-6.693 21.284a10.622 10.622 0 01-3.875 3.36 8.691 8.691 0 01-2.854.707c1.855.22 3.735-.023 5.472-.707a10.626 10.626 0 003.901-3.299c4.599-5.969 5.908-13.788 6.693-21.284.515-4.878.873-9.844-.061-14.661-1.475-7.723-6.187-14.957-5.489-22.785.751-8.386 7.54-15.228 8.587-23.562a17.947 17.947 0 00-3.072-12.374 17.726 17.726 0 01-2.321-3.648 3.62 3.62 0 01.689-4.014 6.106 6.106 0 011.816-.873c5.62-2.164 8.604-7.784 9.014-13.526.149-2.191 0-4.189.603-6.318.933-3.29 3.831-6.885 3.333-10.402zm-33.039 307.98a11.79 11.79 0 0012.069 3.333m43.852 145.892a7.42 7.42 0 01-6.022 1.518" fill="#000"/><path opacity=".1" d="M91.762 576.262c12.979 0 23.501-1.778 23.501-3.971s-10.522-3.97-23.501-3.97c-12.98 0-23.501 1.777-23.501 3.97 0 2.193 10.521 3.971 23.5 3.971z" fill="#A0C23C"/><path d="M735.167 655.325c12.98 0 23.501-1.777 23.501-3.97 0-2.193-10.521-3.971-23.501-3.971-12.979 0-23.501 1.778-23.501 3.971s10.522 3.97 23.501 3.97z" fill="#A0C23C"/><path opacity=".1" d="M735.167 578.898c12.98 0 23.501-1.778 23.501-3.971s-10.521-3.97-23.501-3.97c-12.979 0-23.501 1.777-23.501 3.97 0 2.193 10.522 3.971 23.501 3.971zm-576.768 34.234c12.979 0 23.501-1.778 23.501-3.97 0-2.193-10.522-3.971-23.501-3.971-12.979 0-23.501 1.778-23.501 3.971 0 2.192 10.522 3.97 23.501 3.97z" fill="#A0C23C"/><path d="M809.493 615.096c19.38 0 35.09-2.657 35.09-5.934 0-3.278-15.71-5.934-35.09-5.934-19.38 0-35.09 2.656-35.09 5.934 0 3.277 15.71 5.934 35.09 5.934z" fill="#A0C23C"/><path opacity=".1" d="M304.965 669c43.743 0 79.204-5.994 79.204-13.387 0-7.393-35.461-13.386-79.204-13.386-43.743 0-79.204 5.993-79.204 13.386 0 7.393 35.461 13.387 79.204 13.387z" fill="#A0C23C"/><path d="M823.997 599.458a10.237 10.237 0 003.351-5.053c.428-2.007-.428-4.407-2.339-5.14-2.147-.82-4.442.663-6.178 2.173-1.737 1.51-3.735 3.211-6.013 2.897a9.138 9.138 0 002.827-8.561 3.579 3.579 0 00-.785-1.745c-1.196-1.274-3.351-.724-4.782.279-4.538 3.194-5.804 9.355-5.83 14.905-.453-1.998-.07-4.084-.078-6.108-.009-2.025-.576-4.364-2.304-5.437a7.047 7.047 0 00-3.491-.873c-2.042-.07-4.311.131-5.707 1.623-1.745 1.859-1.283 4.966.227 6.982s3.796 3.316 5.899 4.73a13.086 13.086 0 014.224 4.023c.125.228.231.468.314.715h12.785a35.533 35.533 0 007.88-5.41zM749.68 641.86a10.214 10.214 0 003.342-5.053c.428-2.007-.419-4.363-2.338-5.14-2.147-.82-4.442.663-6.179 2.173s-3.735 3.212-6.013 2.897a9.133 9.133 0 002.828-8.56 3.488 3.488 0 00-.786-1.746c-1.186-1.274-3.351-.724-4.773.279-4.538 3.194-5.804 9.355-5.83 14.906-.462-1.999-.078-4.085-.087-6.109-.009-2.025-.576-4.363-2.304-5.437a6.993 6.993 0 00-3.491-.829c-2.042-.07-4.31.131-5.707 1.623-1.745 1.859-1.283 4.966.227 6.982 1.51 2.015 3.796 3.316 5.908 4.729a13.1 13.1 0 014.215 4.023c.126.229.231.469.314.716h12.785a35.771 35.771 0 007.889-5.454z" fill="#A0C23C"/><path d="M185.016 563.137s-12.261-41.634 2.304-72.274a65.757 65.757 0 005.34-41.276 110.414 110.414 0 00-5.838-19.365" stroke="#535461" stroke-width="2" stroke-miterlimit="10"/><path d="M195.854 410.858c0 5.105-9.241 19.897-9.241 19.897s-9.233-14.792-9.233-19.897a9.245 9.245 0 015.635-8.795 9.25 9.25 0 0110.237 2.077 9.252 9.252 0 012.602 6.718zm15.272 28.266c-2.775 4.276-18.57 11.676-18.57 11.676s.288-17.453 3.063-21.721a9.241 9.241 0 0115.507 10.045zm-.663 48.292c-4.555 2.304-21.93.716-21.93.716s9.049-14.914 13.605-17.209a9.241 9.241 0 018.325 16.493zm-8.735 36.452c-4.102 3.028-21.494 4.363-21.494 4.363s6.405-16.232 10.472-19.268a9.24 9.24 0 0114.299 8.825 9.245 9.245 0 01-3.312 6.01l.035.07zm-28.572-72.074c3.665 3.552 20.709 7.235 20.709 7.235s-4.172-16.939-7.854-20.49a9.245 9.245 0 00-12.897.354 9.24 9.24 0 00.025 12.901h.017zm-9.669 42.734c4.555 2.296 21.921.707 21.921.707s-9.049-14.913-13.604-17.209a9.244 9.244 0 00-12.245 4.177 9.238 9.238 0 003.928 12.325zm-3.709 42.822c4.102 3.037 21.494 4.363 21.494 4.363s-6.405-16.231-10.472-19.259a9.238 9.238 0 00-14.3 8.825 9.242 9.242 0 003.313 6.01l-.035.061z" fill="#A0C23C"/><path d="M156.008 560.52s14.932-2.967 18.92-6.921c3.988-3.953 21.895-10.864 23.885-5.925 1.989 4.939 26.878 21.738 9.957 24.705-16.921 2.967-39.82 3.953-44.794 1.981-4.975-1.972-7.968-13.84-7.968-13.84z" fill="#A8A8A8"/><path opacity=".2" d="M208.796 570.52c-16.921 2.967-39.82 3.953-44.794 1.972-3.796-1.501-6.432-8.726-7.47-12.103l-.524.131s2.985 11.859 7.968 13.84c4.983 1.981 27.873.986 44.794-1.981 4.887-.873 6.283-2.862 5.76-5.41-.393 1.631-2.095 2.914-5.734 3.551z" fill="#000"/><path d="M739.976 517.681s4.8 6.274-2.208 15.708c-7.008 9.433-12.785 17.453-10.472 23.361 0 0 10.577-17.584 19.199-17.829 8.622-.244 2.932-10.69-6.519-21.24z" fill="#A0C23C"/><path opacity=".1" d="M739.976 517.681c.42.607.752 1.271.986 1.972 8.395 9.861 12.863 19.068 4.791 19.294-7.514.219-16.529 13.658-18.693 17.052.071.263.156.522.253.777 0 0 10.577-17.584 19.199-17.829 8.622-.244 2.915-10.716-6.536-21.266z" fill="#000"/><path d="M748.895 525.674c0 2.208-.254 3.997-.559 3.997-.305 0-.55-1.746-.55-3.997 0-2.252.306-1.169.611-1.169.306 0 .498-1.039.498 1.169z" fill="#FFD037"/><path d="M751.949 528.31c-1.937 1.055-3.63 1.692-3.77 1.422-.14-.271 1.3-1.335 3.238-2.391 1.937-1.056 1.178-.288 1.326 0 .148.288 1.143-.087-.794.969z" fill="#FFD037"/><path d="M714.66 517.681s-4.8 6.274 2.207 15.708c7.008 9.433 12.785 17.453 10.472 23.361 0 0-10.568-17.584-19.198-17.829-8.631-.244-2.95-10.69 6.519-21.24z" fill="#A0C23C"/><path opacity=".1" d="M714.66 517.681a7.85 7.85 0 00-.987 1.972c-8.395 9.861-12.863 19.068-4.791 19.294 7.514.219 16.529 13.658 18.693 17.052-.07.265-.158.524-.262.777 0 0-10.568-17.584-19.199-17.829-8.63-.244-2.923-10.716 6.546-21.266z" fill="#000"/><path d="M705.741 525.674c0 2.208.253 3.997.558 3.997.306 0 .55-1.746.55-3.997 0-2.252-.305-1.169-.611-1.169-.305 0-.497-1.039-.497 1.169z" fill="#FFD037"/><path d="M702.686 528.31c1.938 1.055 3.622 1.692 3.77 1.422.149-.271-1.3-1.335-3.237-2.391-1.938-1.056-1.178-.288-1.327 0-.148.288-1.143-.087.794.969z" fill="#FFD037"/><path d="M707.268 555.955s13.404-.419 17.453-3.29c4.05-2.871 20.622-6.309 21.625-1.745 1.004 4.564 20.142 22.942 5.01 23.064-15.133.123-35.161-2.356-39.192-4.808-4.032-2.452-4.896-13.221-4.896-13.221z" fill="#A8A8A8"/><path opacity=".2" d="M751.617 572.423c-15.132.122-35.16-2.357-39.192-4.809-3.071-1.867-4.302-8.578-4.703-11.676h-.454s.873 10.812 4.887 13.264c4.014 2.453 24.06 4.931 39.192 4.809 4.363 0 5.873-1.588 5.794-3.884-.611 1.405-2.277 2.269-5.524 2.296z" fill="#000"/></g><defs><linearGradient id="paint0_linear" x1="463.015" y1="613.324" x2="463.015" y2="19.111" gradientUnits="userSpaceOnUse"><stop stop-color="gray" stop-opacity=".25"/><stop offset=".54" stop-color="gray" stop-opacity=".12"/><stop offset="1" stop-color="gray" stop-opacity=".1"/></linearGradient><clipPath id="clip0"><path fill="#fff" d="M0 0h881v669H0z"/></clipPath></defs></svg>