<svg width="443" height="312" viewBox="0 0 443 312" fill="none" xmlns="http://www.w3.org/2000/svg"><path d="M109.416 267.645c-12.98 0-23.501-1.778-23.501-3.971s10.522-3.97 23.501-3.97c12.979 0 23.501 1.777 23.501 3.97 0 2.193-10.522 3.971-23.501 3.971z" fill="#A0C23C"/><path opacity=".1" d="M187.416 228.217c-12.979 0-23.501-1.778-23.501-3.97 0-2.193 10.522-3.971 23.501-3.971 12.979 0 23.501 1.778 23.501 3.971 0 2.192-10.522 3.97-23.501 3.97zM409 312c-18.778 0-34-2.686-34-6s15.222-6 34-6 34 2.686 34 6-15.222 6-34 6z" fill="#A0C23C"/><path d="M35.09 227.415c-19.38 0-35.09-2.657-35.09-5.934s15.71-5.934 35.09-5.934c19.38 0 35.09 2.657 35.09 5.934s-15.71 5.934-35.09 5.934z" fill="#A0C23C"/><path opacity=".1" d="M309.5 278c-64.341 0-116.5-8.954-116.5-20s52.159-20 116.5-20c64.341 0 116.5 8.954 116.5 20s-52.159 20-116.5 20z" fill="#A0C23C"/><path d="M20.586 211.777a10.236 10.236 0 01-3.35-5.053c-.428-2.007.427-4.407 2.338-5.14 2.147-.82 4.442.663 6.179 2.173 1.736 1.51 3.735 3.212 6.012 2.897a9.13 9.13 0 01-2.827-8.56c.099-.643.37-1.246.785-1.746 1.196-1.274 3.351-.724 4.782.28 4.538 3.193 5.804 9.355 5.83 14.905.454-1.999.07-4.084.079-6.109.008-2.025.575-4.363 2.303-5.437a7.037 7.037 0 013.491-.872c2.042-.07 4.311.13 5.707 1.623 1.746 1.859 1.283 4.965-.227 6.981s-3.796 3.316-5.899 4.73a13.083 13.083 0 00-4.224 4.023c-.125.229-.23.468-.314.716H28.467a35.568 35.568 0 01-7.88-5.411zm74.317 42.402a10.215 10.215 0 01-3.342-5.052c-.428-2.008.419-4.364 2.339-5.14 2.146-.821 4.442.663 6.178 2.172 1.737 1.51 3.735 3.212 6.013 2.898a9.135 9.135 0 01-2.827-8.561 3.488 3.488 0 01.785-1.745c1.187-1.274 3.351-.725 4.773.279 4.538 3.194 5.804 9.355 5.83 14.905.463-1.999.079-4.084.087-6.109.009-2.024.576-4.363 2.304-5.436a6.975 6.975 0 013.491-.829c2.042-.07 4.311.13 5.707 1.623 1.745 1.858 1.283 4.965-.227 6.981s-3.796 3.316-5.908 4.73a13.088 13.088 0 00-4.215 4.023 4.457 4.457 0 00-.314.715h-12.785a35.751 35.751 0 01-7.889-5.454z" fill="#A0C23C"/><path d="M369.6 238s18.801-61.082-3.532-106.033c-9.51-18.805-12.384-40.056-8.19-60.558A156.873 156.873 0 01366.83 43" stroke="#535461" stroke-width="2" stroke-miterlimit="10"/><path d="M353.007 14.245c0 7.635 14 29.755 14 29.755s13.986-22.12 13.986-29.755a13.642 13.642 0 00-.939-5.418A13.782 13.782 0 00377.05 4.2a14.009 14.009 0 00-4.593-3.106 14.16 14.16 0 00-10.914 0A14.009 14.009 0 00356.95 4.2a13.782 13.782 0 00-3.004 4.628 13.642 13.642 0 00-.939 5.418zm-21.042 41.508C336.005 62.07 359 73 359 73s-.419-25.78-4.459-32.083a13.444 13.444 0 00-8.455-5.653 13.294 13.294 0 00-9.946 1.93 13.652 13.652 0 00-5.803 8.42 13.826 13.826 0 001.628 10.14zm.269 70.503c6.806 3.217 32.766.999 32.766.999s-13.521-20.828-20.327-24.033a14.7 14.7 0 00-10.37-.516c-3.397 1.096-6.202 3.386-7.822 6.384-1.619 2.999-1.924 6.469-.85 9.674 1.075 3.205 3.443 5.892 6.603 7.492zm12.753 54.248C351.096 185.012 377 187 377 187s-9.54-24.166-15.597-28.687a13.769 13.769 0 00-18.7 3.257 13.755 13.755 0 002.336 18.83l-.052.104z" fill="#A0C23C"/><path d="M387.025 73.593C381.534 78.703 356 84 356 84s6.249-24.368 11.767-29.477c2.654-2.35 6.159-3.613 9.768-3.518 3.609.095 7.037 1.54 9.553 4.028 2.515 2.487 3.919 5.82 3.912 9.287-.007 3.467-1.424 6.794-3.949 9.273h-.026zm14.647 63.542c-6.789 3.446-32.672 1.061-32.672 1.061s13.488-22.39 20.277-25.835a13.68 13.68 0 0110.395-.618 13.804 13.804 0 017.854 6.887 13.965 13.965 0 01.824 10.456 13.85 13.85 0 01-6.678 8.049zm5.476 62.576C401.204 204.088 376 206 376 206s9.282-23.396 15.176-27.761a13.453 13.453 0 019.731-2.041 13.401 13.401 0 018.463 5.195 13.268 13.268 0 01-2.273 18.23l.051.088z" fill="#A0C23C"/><path d="M412 234.276s-21.649-4.336-27.432-10.112c-5.782-5.777-31.746-15.877-34.631-8.659-2.885 7.218-38.971 31.766-14.437 36.101 24.534 4.336 57.736 5.777 64.948 2.895C407.66 251.619 412 234.276 412 234.276z" fill="#A8A8A8"/><path opacity=".2" d="M335.463 248.859c24.534 4.351 57.735 5.797 64.947 2.892 5.504-2.201 9.325-12.798 10.831-17.751l.759.192s-4.327 17.393-11.552 20.298c-7.225 2.905-40.413 1.446-64.947-2.905-7.086-1.28-9.11-4.198-8.351-7.935.569 2.393 3.037 4.275 8.313 5.209z" fill="#000"/><path d="M182.607 167s-4.799 6.274 2.208 15.708c7.008 9.433 12.785 17.453 10.472 23.361 0 0-10.576-17.584-19.198-17.828-8.622-.245-2.933-10.691 6.518-21.241z" fill="#A0C23C"/><path opacity=".1" d="M182.607 167a7.915 7.915 0 00-.986 1.972c-8.395 9.861-12.863 19.068-4.791 19.295 7.514.218 16.529 13.657 18.693 17.052a8.077 8.077 0 01-.253.776s-10.577-17.584-19.199-17.828c-8.622-.245-2.915-10.717 6.536-21.267z" fill="#000"/><path d="M173.689 174.993c0 2.208.253 3.997.558 3.997.306 0 .55-1.745.55-3.997 0-2.251-.305-1.169-.611-1.169-.305 0-.497-1.039-.497 1.169z" fill="#FFD037"/><path d="M170.634 177.629c1.938 1.056 3.631 1.693 3.77 1.422.14-.27-1.3-1.335-3.237-2.391-1.938-1.056-1.178-.288-1.327 0-.148.288-1.143-.087.794.969z" fill="#FFD037"/><path d="M207.924 167s4.799 6.274-2.208 15.708c-7.008 9.433-12.785 17.453-10.472 23.361 0 0 10.568-17.584 19.199-17.828 8.63-.245 2.949-10.691-6.519-21.241z" fill="#A0C23C"/><path opacity=".1" d="M207.924 167c.42.608.751 1.272.986 1.972 8.395 9.861 12.863 19.068 4.791 19.295-7.514.218-16.529 13.657-18.693 17.052.07.264.158.523.262.776 0 0 10.568-17.584 19.199-17.828 8.631-.245 2.923-10.717-6.545-21.267z" fill="#000"/><path d="M216.843 174.993c0 2.208-.254 3.997-.559 3.997-.305 0-.55-1.745-.55-3.997 0-2.251.306-1.169.611-1.169.306 0 .498-1.039.498 1.169z" fill="#FFD037"/><path d="M219.897 177.629c-1.937 1.056-3.622 1.693-3.77 1.422-.149-.27 1.3-1.335 3.238-2.391 1.937-1.056 1.178-.288 1.326 0 .148.288 1.143-.087-.794.969z" fill="#FFD037"/><path d="M215.315 205.275s-13.404-.419-17.453-3.29c-4.049-2.871-20.622-6.31-21.625-1.746-1.004 4.564-20.141 22.943-5.009 23.065 15.132.122 35.16-2.356 39.192-4.809 4.031-2.452 4.895-13.22 4.895-13.22z" fill="#A8A8A8"/><path opacity=".2" d="M170.966 221.742c15.132.122 35.16-2.356 39.192-4.808 3.072-1.868 4.302-8.579 4.704-11.677h.453s-.872 10.813-4.887 13.265c-4.014 2.452-24.059 4.93-39.191 4.808-4.364 0-5.874-1.588-5.795-3.883.611 1.405 2.278 2.269 5.524 2.295z" fill="#000"/></svg>