<svg width="1440" height="149" viewBox="0 0 1440 149" fill="none" xmlns="http://www.w3.org/2000/svg"><path opacity=".1" d="M0 149.001V26.777S95.262 2.712 146.706 1.155c63.796-1.93 122.438 5.99 174.383 16.767 64.987 13.473 125.635 32.004 203.971 32.936 53.349.637 108.733-7.067 163.204-12.806 91.061-9.582 182.619-13.802 273.656-17.68 44.36-1.872 88.88-3.66 132.94-4.477 9.88-.186 19.76-.32 29.65-.4 4.95-.037 9.91-.06 14.83-.066 3.86-.01 7.71.021 11.55.012 6.07.021 12.12.072 18.15.15 17.32.223 34.5.686 51.53 1.432 59.21 2.603 107.35 12.494 163.48 17.445C1402.3 36.078 1440 37.1 1440 37.1V149H0z" fill="#B1B834"/></svg>