<svg width="100" height="62" viewBox="0 0 100 62" fill="none" xmlns="http://www.w3.org/2000/svg"><g clip-path="url(#clip0)"><path fill-rule="evenodd" clip-rule="evenodd" d="M14.877 43.604c2.927-.113 11.148-5.79 11.148-14.307 0-7.118-3.052-12.605-6.092-17.374-.419-.655-2.703-5.45-4.38-11.923C13.862 1.703.348 13.626.011 24.187c-.338 10.56 6.756 18.396 11.486 19.417h3.379zm8.783-10.56c-2.162 6.54-6.756 8.857-8.784 9.198l-3.378-.34C2.703 37.812.338 26.911 2.365 20.78c2.027-6.132 9.471-15.33 12.511-18.395 1.082 5.723 4.505 11.923 6.082 14.307 1.802 2.726 4.865 9.811 2.702 16.352z" fill="#A0C23C"/><path d="M14.877 42.242c2.027-.34 6.621-2.657 8.783-9.198 2.163-6.54-.9-13.626-2.702-16.352-1.577-2.384-5-8.584-6.081-14.307C11.837 5.45 4.392 14.648 2.365 20.78c-2.027 6.132.338 17.033 9.133 21.121l3.379.34z" fill="#A0C23C"/><path fill-rule="evenodd" clip-rule="evenodd" d="M14.877 43.604c2.927-.113 11.148-5.79 11.148-14.307 0-7.118-3.052-12.605-6.092-17.374-.419-.655-2.703-5.45-4.38-11.923C13.862 1.703.348 13.626.011 24.187c-.338 10.56 6.756 18.396 11.486 19.417h3.379zm8.783-10.56c-2.162 6.54-6.756 8.857-8.784 9.198l-3.378-.34C2.703 37.812.338 26.911 2.365 20.78c2.027-6.132 9.471-15.33 12.511-18.395 1.082 5.723 4.505 11.923 6.082 14.307 1.802 2.726 4.865 9.811 2.702 16.352z" fill="#6A8617"/><path d="M13.851 58.934L9.46 62l1.014-3.747-5.743-.681 6.756-1.363V44.626l.338-6.472-.675-.682-6.081-2.725 4.391.681L6.42 31l.676-.34 4.73 5.11h.675l1.69-8.517h.337l-.338 9.027 2.027-3.236.338.681-1.69 3.747v2.385l2.028-1.022.338.681-2.365 2.044v14.99l5.067 2.043-6.08.341z" fill="#6A8617"/><path d="M8.818 15.33c-.45-1.704 3.716-7.154 3.716-7.154 1.351 1.022 3.716 6.132.676 9.198-2.433 2.452-3.942-.341-4.392-2.044z" fill="#B9EA28"/><path d="M40.828 30.216c.553.02 1.086-.06 1.599-.163a7.297 7.297 0 001.517-.49 8.4 8.4 0 001.395-.776 6.7 6.7 0 001.19-1.083l.368-.429-1.989-2.124-.287.306-.205.225c-.246.266-.513.47-.78.654a3.333 3.333 0 01-.86.408 8.025 8.025 0 01-.944.245 5.417 5.417 0 01-1.005.082c-.635 0-1.23-.102-1.783-.327a4.2 4.2 0 01-1.456-.96 4.47 4.47 0 01-.985-1.43c-.225-.53-.328-1.102-.328-1.736 0-.633.103-1.225.328-1.756a4.5 4.5 0 01.984-1.43 4.156 4.156 0 011.456-.94 4.695 4.695 0 011.785-.326c.328 0 .635.02.943.061.307.041.594.102.861.204.267.082.533.205.8.348.266.163.533.367.8.592l.471.429 1.846-2.227-.39-.387a7.196 7.196 0 00-1.148-.94c-.39-.266-.82-.51-1.292-.694a7.38 7.38 0 00-1.415-.409A6.958 6.958 0 0040.827 15c-.348 0-.717.02-1.066.082-.348.061-.697.122-1.046.224a6.963 6.963 0 00-.984.348 7.71 7.71 0 00-.902.49 7.513 7.513 0 00-1.456 1.184c-.43.45-.82.96-1.169 1.532a6.783 6.783 0 00-.738 1.777 7.784 7.784 0 00-.246 1.961c0 .674.082 1.328.246 1.96.164.634.41 1.226.738 1.778a8.886 8.886 0 001.169 1.532c.43.449.902.837 1.456 1.184a7.493 7.493 0 001.886.858c.349.102.698.163 1.046.204a6.28 6.28 0 001.066.102zm16.076-5.861c-.717-.103-1.456-.164-2.173-.225a51.56 51.56 0 01-1.62-.163l1.025-2.595c.349-.857.595-1.51.78-1.94l1.127 2.819.861 2.104zm5.393 5.535l-5.885-14.584h-3.014c-1.292 3.248-2.44 6.087-3.425 8.518l-2.46 6.086h3.219l1.435-3.554 5.804.654 1.189 2.88h3.138zm17.083.02V15.286h-2.81a964.59 964.59 0 01-4.614 6.516l-4.594-6.516h-2.809V29.91h2.974v-9.559a131.409 131.409 0 002.583 3.411 73.09 73.09 0 011.846 2.41c.984-1.286 2.46-3.247 4.409-5.841v9.58h3.014zm7.422-8.19v-3.268h2.379c.226 0 .43.04.636.122.184.062.369.184.533.348.164.163.287.347.349.53.082.184.123.41.123.634 0 .224-.041.429-.124.633a1.402 1.402 0 01-.348.531 1.785 1.785 0 01-.533.368c-.205.06-.41.102-.636.102h-2.379zm0 8.19v-5.004h2.379c.226 0 .451-.02.677-.04.225-.042.43-.103.656-.164.226-.062.43-.123.636-.225l.574-.306c.369-.204.656-.47.923-.736.266-.285.512-.612.717-.96a3.85 3.85 0 00.472-1.123A5.04 5.04 0 0094 20.106c0-.225-.02-.45-.041-.674-.041-.224-.103-.429-.164-.653a2.711 2.711 0 00-.226-.613 3.258 3.258 0 00-.307-.593 4.049 4.049 0 00-.738-.919 7.036 7.036 0 00-.964-.735 3.886 3.886 0 00-1.128-.47 4.997 4.997 0 00-1.251-.163h-5.557V29.89c.533 0 1.6 0 3.178.02zM41.835 52.323V39.228h5.25v-3.595H33v3.595h5.226v13.095h3.61zM53.53 39.228h2.835c.258 0 .516.047.727.14.21.093.422.233.586.443.187.21.328.42.422.63.093.21.14.467.14.724a1.7 1.7 0 01-.14.7 2.47 2.47 0 01-.422.63c-.164.21-.375.351-.586.444-.211.094-.469.14-.727.14H53.53v-3.851zm.468 7.33l3.54 3.758L60.091 53l1.453-1.354 1.03-.98c-.96-1.004-1.827-1.868-2.554-2.615l-1.828-1.867c.586-.257 1.125-.537 1.57-.887.446-.35.797-.747 1.102-1.19.305-.444.515-.934.656-1.424.14-.49.211-1.027.211-1.611 0-.77-.117-1.47-.375-2.1a5.621 5.621 0 00-1.148-1.775 5.015 5.015 0 00-1.735-1.19 5.44 5.44 0 00-2.085-.397h-6.422v16.713h3.586v-5.766h.445zm23.928 5.765v-3.595h-8.132V45.67h7.171v-3.43h-7.171v-3.012h7.992v-3.595H66.302v16.69h11.624zm15.702 0v-3.595h-8.132V45.67h7.171v-3.43h-7.171v-3.012h7.991v-3.595H82.004v16.69h11.624z" fill="#31383E"/></g><defs><clipPath id="clip0"><path fill="#fff" d="M0 0h100v62H0z"/></clipPath></defs></svg>