<svg width="787" height="538" fill="none" xmlns="http://www.w3.org/2000/svg"><g clip-path="url(#clip0)"><path opacity=".1" d="M.854 225.742C5.643 245.131 30.227 254.849 44 269.313c25.954 27.262 15.847 67.072-.62 98.955-5.513 10.676-11.769 21.978-9.433 33.426 2.846 14.002 17.97 24.237 33.85 29.665 28.939 9.884 63.596 7.528 90.198-6.144 22.985-11.812 39.453-30.994 62.83-42.304 39.129-18.865 88.93-11.709 131.421 1.261 30.054 9.195 62.92 21.158 92.788 11.557 21.015-6.764 35.546-23.225 43.462-40.637 3.817-8.424 6.594-17.543 13.891-24.217 4.34-3.974 10.004-6.791 15.798-9.16 52.971-21.697 119.887-10.077 171.307-34.142 34.74-16.248 56.988-46.898 66.834-78.864 9.845-31.965 8.702-65.481 6.201-98.403-1.778-23.418-4.968-48.365-23.061-66.425-19.141-19.1-51.986-26.173-81.682-22.57-29.696 3.602-56.601 16.571-80.282 31.806-29.627 19.052-57.036 42.766-93.367 50.48-24.742 5.255-50.766 2.376-76.287 1.377-42.663-1.659-85.339 2.067-127.761 6.089-20.67 1.977-41.409 4.05-61.9 7.053-4.594.67-9.187 1.394-13.78 2.17-2.302.392-4.603.799-6.891 1.219-1.791.324-3.575.689-5.36 1.012a435.684 435.684 0 00-8.42 1.722 388.098 388.098 0 00-23.867 5.889c-27.381 7.721-49.332 21.744-75.19 31.539-16.854 6.384-35.23 8.148-51.187 16.275-19.636 9.98-37.674 27.413-32.638 47.8z" fill="#B1B834"/><path d="M139.372 329.057c-38.902 0-70.437-31.525-70.437-70.413 0-38.887 31.535-70.412 70.437-70.412 38.901 0 70.436 31.525 70.436 70.412 0 38.888-31.535 70.413-70.436 70.413z" fill="#B1B834"/><path d="M214.28 309.82c-38.901 0-70.437-31.525-70.437-70.413 0-38.887 31.536-70.412 70.437-70.412 38.901 0 70.437 31.525 70.437 70.412 0 38.888-31.536 70.413-70.437 70.413z" fill="#B1B834"/><path d="M296.74 310.508c-38.901 0-70.437-31.524-70.437-70.412 0-38.888 31.536-70.412 70.437-70.412 38.901 0 70.437 31.524 70.437 70.412 0 38.888-31.536 70.412-70.437 70.412z" fill="#B1B834"/><path d="M323.542 329.057c-38.901 0-70.437-31.525-70.437-70.413 0-38.887 31.536-70.412 70.437-70.412 38.901 0 70.437 31.525 70.437 70.412 0 38.888-31.536 70.413-70.437 70.413z" fill="#B1B834"/><path d="M368.899 335.242c-38.901 0-70.437-31.525-70.437-70.412 0-38.888 31.536-70.413 70.437-70.413 38.901 0 70.437 31.525 70.437 70.413 0 38.887-31.536 70.412-70.437 70.412z" fill="#B1B834"/><path d="M387.454 279.597c-38.901 0-70.437-31.525-70.437-70.413 0-38.887 31.536-70.412 70.437-70.412 38.901 0 70.437 31.525 70.437 70.412 0 38.888-31.536 70.413-70.437 70.413z" fill="#B1B834"/><path d="M366.839 215.018c-38.901 0-70.437-31.524-70.437-70.412 0-38.888 31.536-70.412 70.437-70.412 38.901 0 70.437 31.524 70.437 70.412 0 38.888-31.536 70.412-70.437 70.412z" fill="#B1B834"/><path d="M327.669 215.018c-38.901 0-70.437-31.524-70.437-70.412 0-38.888 31.536-70.412 70.437-70.412 38.901 0 70.437 31.524 70.437 70.412 0 38.888-31.536 70.412-70.437 70.412z" fill="#B1B834"/><path d="M304.987 186.166c-38.901 0-70.437-31.525-70.437-70.412 0-38.888 31.536-70.413 70.437-70.413 38.901 0 70.437 31.525 70.437 70.413 0 38.887-31.536 70.412-70.437 70.412z" fill="#B1B834"/><path d="M247.263 217.766c-38.902 0-70.437-31.524-70.437-70.412 0-38.888 31.535-70.412 70.437-70.412 38.901 0 70.436 31.524 70.436 70.412 0 38.888-31.535 70.412-70.436 70.412zm-134.694 61.831c-38.9 0-70.436-31.525-70.436-70.413 0-38.887 31.535-70.412 70.436-70.412 38.902 0 70.437 31.525 70.437 70.412 0 38.888-31.535 70.413-70.437 70.413z" fill="#B1B834"/><path d="M153.117 244.559c-38.901 0-70.437-31.524-70.437-70.412 0-38.888 31.536-70.412 70.437-70.412 38.901 0 70.437 31.524 70.437 70.412 0 38.888-31.536 70.412-70.437 70.412z" fill="#B1B834"/><path d="M179.23 209.522c-38.901 0-70.436-31.525-70.436-70.412 0-38.888 31.535-70.413 70.436-70.413 38.902 0 70.437 31.525 70.437 70.413 0 38.887-31.535 70.412-70.437 70.412z" fill="#B1B834"/><path d="M228.708 156.625c-38.901 0-70.437-31.525-70.437-70.412 0-38.888 31.536-70.413 70.437-70.413 38.901 0 70.436 31.525 70.436 70.413 0 38.887-31.535 70.412-70.436 70.412z" fill="#B1B834"/><path d="M136.622 215.018c-38.9 0-70.436-31.524-70.436-70.412 0-38.888 31.535-70.412 70.436-70.412 38.902 0 70.437 31.524 70.437 70.412 0 38.888-31.535 70.412-70.437 70.412z" fill="#B1B834"/><g opacity=".1" fill="#000"><path opacity=".1" d="M139.372 329.057c-38.902 0-70.437-31.525-70.437-70.413 0-38.887 31.535-70.412 70.437-70.412 38.901 0 70.436 31.525 70.436 70.412 0 38.888-31.535 70.413-70.436 70.413z"/><path opacity=".1" d="M214.28 309.82c-38.901 0-70.437-31.525-70.437-70.413 0-38.887 31.536-70.412 70.437-70.412 38.901 0 70.437 31.525 70.437 70.412 0 38.888-31.536 70.413-70.437 70.413z"/><path opacity=".1" d="M296.74 310.508c-38.901 0-70.437-31.524-70.437-70.412 0-38.888 31.536-70.412 70.437-70.412 38.901 0 70.437 31.524 70.437 70.412 0 38.888-31.536 70.412-70.437 70.412z"/><path opacity=".1" d="M323.542 329.057c-38.901 0-70.437-31.525-70.437-70.413 0-38.887 31.536-70.412 70.437-70.412 38.901 0 70.437 31.525 70.437 70.412 0 38.888-31.536 70.413-70.437 70.413z"/><path opacity=".1" d="M368.899 335.242c-38.901 0-70.437-31.525-70.437-70.412 0-38.888 31.536-70.413 70.437-70.413 38.901 0 70.437 31.525 70.437 70.413 0 38.887-31.536 70.412-70.437 70.412z"/><path opacity=".1" d="M387.454 279.597c-38.901 0-70.437-31.525-70.437-70.413 0-38.887 31.536-70.412 70.437-70.412 38.901 0 70.437 31.525 70.437 70.412 0 38.888-31.536 70.413-70.437 70.413z"/><path opacity=".1" d="M366.839 215.018c-38.901 0-70.437-31.524-70.437-70.412 0-38.888 31.536-70.412 70.437-70.412 38.901 0 70.437 31.524 70.437 70.412 0 38.888-31.536 70.412-70.437 70.412z"/><path opacity=".1" d="M327.669 215.018c-38.901 0-70.437-31.524-70.437-70.412 0-38.888 31.536-70.412 70.437-70.412 38.901 0 70.437 31.524 70.437 70.412 0 38.888-31.536 70.412-70.437 70.412z"/><path opacity=".1" d="M304.987 186.166c-38.901 0-70.437-31.525-70.437-70.412 0-38.888 31.536-70.413 70.437-70.413 38.901 0 70.437 31.525 70.437 70.413 0 38.887-31.536 70.412-70.437 70.412z"/><path opacity=".1" d="M247.263 217.766c-38.902 0-70.437-31.524-70.437-70.412 0-38.888 31.535-70.412 70.437-70.412 38.901 0 70.436 31.524 70.436 70.412 0 38.888-31.535 70.412-70.436 70.412zm-134.694 61.831c-38.9 0-70.436-31.525-70.436-70.413 0-38.887 31.535-70.412 70.436-70.412 38.902 0 70.437 31.525 70.437 70.412 0 38.888-31.535 70.413-70.437 70.413z"/><path opacity=".1" d="M153.117 244.559c-38.901 0-70.437-31.524-70.437-70.412 0-38.888 31.536-70.412 70.437-70.412 38.901 0 70.437 31.524 70.437 70.412 0 38.888-31.536 70.412-70.437 70.412z"/><path opacity=".1" d="M179.23 209.522c-38.901 0-70.436-31.525-70.436-70.412 0-38.888 31.535-70.413 70.436-70.413 38.902 0 70.437 31.525 70.437 70.413 0 38.887-31.535 70.412-70.437 70.412z"/><path opacity=".1" d="M228.708 156.625c-38.901 0-70.437-31.525-70.437-70.412 0-38.888 31.536-70.413 70.437-70.413 38.901 0 70.436 31.525 70.436 70.413 0 38.887-31.535 70.412-70.436 70.412z"/><path opacity=".1" d="M136.622 215.018c-38.9 0-70.436-31.524-70.436-70.412 0-38.888 31.535-70.412 70.436-70.412 38.902 0 70.437 31.524 70.437 70.412 0 38.888-31.535 70.412-70.437 70.412z"/></g><path d="M174.159 382.036s-43.062-36.18-21.758-87.7l21.304-7.976 23.116 71.143-22.662 24.533z" fill="#67647E"/><path opacity=".1" d="M171.865 283.908l-5.099 1.908 22.696 69.848-19.802 21.434c1.64 1.632 2.66 2.486 2.66 2.486l22.668-24.533-23.123-71.143z" fill="#000"/><path opacity=".1" d="M387.723 537.993c-211.763 0-383.43-28.728-383.43-64.165 0-35.438 171.667-64.165 383.43-64.165 211.762 0 383.43 28.727 383.43 64.165 0 35.437-171.668 64.165-383.43 64.165z" fill="#B1B834"/><path d="M92.595 374.446s14.008 14.003 6.098 34.783c-7.91 20.78 13.552 55.328 13.552 55.328l-.689-.11c-28.766-5.076-43.062-37.965-27.064-62.402 5.981-9.071 10.866-19.733 8.103-27.599z" fill="#B1B834"/><path d="M92.595 374.446s7.91 17.164 0 31.167c-7.91 14.002-1.378 53.296 19.657 58.944" stroke="#535461" stroke-miterlimit="10"/><path d="M67.646 431.083s15.985-2.541 17.439 11.778c1.454 14.319 30.743 16.303 30.743 16.303l-.551.365c-24.177 15.842-47.286 10.104-43.8-10.958 1.289-7.831 1.185-15.697-3.83-17.488z" fill="#B1B834"/><path opacity=".2" d="M67.646 431.083s15.985-2.541 17.439 11.778c1.454 14.319 30.743 16.303 30.743 16.303l-.551.365c-24.177 15.842-47.286 10.104-43.8-10.958 1.289-7.831 1.185-15.697-3.83-17.488z" fill="#F5F5F5"/><path d="M67.646 431.083s12.402 2.755 11.39 14.003c-1.013 11.247 18.424 24.795 36.785 14.078" stroke="#535461" stroke-miterlimit="10"/><path d="M368.637 306.679l-5.594 22.385s-39.528 5.152-65.883 1.914a34.266 34.266 0 01-13.139-4.738c-2.226-1.316-5.74-1.888-10.542 1.708-8.227 6.199-48.602 55.79-42.064 107.24a17.785 17.785 0 0015.276 15.318 53.659 53.659 0 0122.509 8.513l19.981 13.3-204.875-4.476 21.27-25.74s14.552-12.308 25.748-13.43c3.266-.324 5.96-3.32 8.137-7.391 12.754-23.866 28.008-46.305 44.544-67.733 12.044-15.607 22.152-32.055 21.208-42.386-2.24-24.624 0-64.909 0-64.909l42.539-5.593s-5.595 53.723 45.901 67.147c51.496 13.424 74.984-1.129 74.984-1.129z" fill="#67647E"/><path opacity=".1" d="M333.932 316.755s-23.509 14.547-75.012 1.116c-51.503-13.431-45.901-67.147-45.901-67.147l-8.096 1.053c.152-3.443.269-5.51.269-5.51l42.539-5.592s-5.595 53.723 45.901 67.147c51.497 13.424 75.012-1.116 75.012-1.116l-5.594 22.385s-15.103 1.97-32.866 2.707l3.748-15.043zm-99.437 152.334a53.659 53.659 0 00-22.509-8.513 17.759 17.759 0 01-15.269-15.256c-6.573-51.451 33.823-101.131 42.029-107.303 8.958-6.715 13.436 1.116 13.436 1.116a72.027 72.027 0 009.646 1.839c-14.51 19.286-35.27 56.279-30.413 94.271a17.759 17.759 0 0015.269 15.256 53.656 53.656 0 0122.51 8.514l19.981 13.3-51.51-1.123-3.17-2.101z" fill="#000"/><path d="M334.352 415.262s4.279-14.519-.799-25.208a22.927 22.927 0 01-1.853-14.389 38.53 38.53 0 012.067-6.756" stroke="#535461" stroke-width="2" stroke-miterlimit="10"/><path d="M330.57 362.152c0 1.777 3.224 6.943 3.224 6.943s3.204-5.166 3.204-6.943a3.225 3.225 0 00-6.449 0h.021zm-5.333 9.856c.965 1.495 6.477 4.077 6.477 4.077s-.104-6.081-1.068-7.576a3.232 3.232 0 00-2.037-1.47 3.219 3.219 0 00-2.475.437 3.23 3.23 0 00-1.409 2.08 3.23 3.23 0 00.512 2.459v-.007zm.234 16.833c1.592.799 7.648.248 7.648.248s-3.155-5.2-4.747-5.999a3.225 3.225 0 00-3.892 4.984c.276.321.613.584.991.774v-.007zm3.046 12.722c1.433 1.061 7.496 1.536 7.496 1.536s-2.232-5.662-3.666-6.716a3.223 3.223 0 00-3.83 5.18zm9.97-25.119c-1.275 1.239-7.228 2.527-7.228 2.527s1.454-5.909 2.756-7.149a3.223 3.223 0 014.491.13 3.222 3.222 0 01.001 4.492h-.02zm3.376 14.891c-1.592.799-7.648.248-7.648.248s3.155-5.201 4.747-6a3.227 3.227 0 014.33 1.43 3.22 3.22 0 01-1.429 4.329v-.007zm1.295 14.939c-1.433 1.061-7.496 1.536-7.496 1.536s2.232-5.662 3.665-6.716a3.226 3.226 0 015.008 3.081 3.225 3.225 0 01-1.177 2.099z" fill="#B1B834"/><path d="M343.661 413.844s-7.82-1.564-9.901-3.651c-2.081-2.087-11.465-5.73-12.512-3.127-1.048 2.604-14.077 11.461-5.209 13.025 8.867 1.563 20.849 2.066 23.426 1.04 2.577-1.027 4.196-7.287 4.196-7.287z" fill="#A8A8A8"/><path opacity=".2" d="M316.032 419.147c8.86 1.563 20.849 2.066 23.426 1.04 1.984-.792 3.362-4.608 3.907-6.378l.261.055s-1.564 6.254-4.168 7.294-14.593.524-23.426-1.04c-2.556-.454-3.287-1.508-3.011-2.851.22.854 1.109 1.529 3.011 1.88z" fill="#000"/><path d="M214.011 462.856s-23.722-4.746-30.054-11.068c-6.332-6.323-34.795-17.392-37.957-9.485-3.163 7.907-42.718 34.783-15.847 39.528 26.871 4.746 63.264 6.323 71.174 3.162 7.909-3.162 12.684-22.137 12.684-22.137z" fill="#A8A8A8"/><path opacity=".2" d="M130.18 478.89c26.871 4.746 63.265 6.323 71.174 3.162 6.022-2.411 10.211-13.982 11.865-19.361l.792.165s-4.747 18.975-12.65 22.137c-7.903 3.161-44.289 1.584-71.174-3.162-7.765-1.377-9.983-4.587-9.143-8.651.655 2.652 3.362 4.698 9.136 5.71z" fill="#000"/><path d="M53.446 328.092a15.025 15.025 0 002.556 7.928 15.023 15.023 0 002.598-7.914c0-4.373-1.13-7.921-2.556-7.927-1.427-.007-2.584 3.54-2.598 7.913zm194.499-3.843c.095 2.83.988 5.576 2.577 7.921a15.026 15.026 0 002.576-7.921c0-4.373-1.15-7.921-2.576-7.921-1.427 0-2.577 3.548-2.577 7.921zM35.966 402.3a15.024 15.024 0 00-2.577 7.921 15.04 15.04 0 006.745-4.891c2.577-3.54 3.728-7.087 2.577-7.92-1.15-.834-4.175 1.356-6.745 4.89zm82.308-41.471a15.033 15.033 0 002.577 7.921 15.024 15.024 0 002.577-7.921c0-4.373-1.151-7.92-2.577-7.92s-2.577 3.56-2.577 7.92zm48.148-26.31c.095 2.83.988 5.576 2.577 7.92a15.03 15.03 0 002.577-7.92c0-4.374-1.151-7.921-2.577-7.921-1.427 0-2.577 3.547-2.577 7.921zm29.868 16.041a15.02 15.02 0 00-1.702 8.155 15.038 15.038 0 006.201-5.593c2.178-3.795 2.935-7.445 1.702-8.155-1.233-.709-4.031 1.798-6.201 5.593zm22.317 72.761a15.04 15.04 0 007.544 3.54 15.03 15.03 0 00-4.016-7.294c-3.191-2.989-6.573-4.573-7.545-3.54-.971 1.033.827 4.305 4.017 7.294z" fill="#B1B834"/><path opacity=".1" d="M218.607 423.321a15.04 15.04 0 007.544 3.54 15.03 15.03 0 00-4.016-7.294c-3.191-2.989-6.573-4.573-7.545-3.54-.971 1.033.827 4.305 4.017 7.294z" fill="#000"/><path d="M171.748 418.83a15.032 15.032 0 007.544 3.54 15.03 15.03 0 00-4.016-7.294c-3.191-2.989-6.574-4.573-7.545-3.54-.972 1.033.827 4.298 4.017 7.294z" fill="#B1B834"/><path opacity=".1" d="M171.748 418.83a15.032 15.032 0 007.544 3.54 15.03 15.03 0 00-4.016-7.294c-3.191-2.989-6.574-4.573-7.545-3.54-.972 1.033.827 4.298 4.017 7.294z" fill="#000"/><path d="M162.763 466.314a15.04 15.04 0 007.545 3.54 15.04 15.04 0 00-4.024-7.315c-3.19-2.989-6.573-4.573-7.545-3.54-.971 1.033.827 4.318 4.024 7.315z" fill="#B1B834"/><path opacity=".1" d="M162.763 466.314a15.04 15.04 0 007.545 3.54 15.04 15.04 0 00-4.024-7.315c-3.19-2.989-6.573-4.573-7.545-3.54-.971 1.033.827 4.318 4.024 7.315z" fill="#000"/><path d="M724.666 390.405c-10.563 15.587-7.193 71.39-7.193 71.39s53.087-17.57 63.65-33.15a34.077 34.077 0 00-9.109-47.339 34.106 34.106 0 00-47.355 9.106l.007-.007z" fill="#B1B834"/><path opacity=".1" d="M724.666 390.405c-10.563 15.587-7.193 71.39-7.193 71.39s53.087-17.57 63.65-33.15a34.077 34.077 0 00-9.109-47.339 34.106 34.106 0 00-47.355 9.106l.007-.007z" fill="#000"/><path d="M771.814 381.341s-39.783 30.705-54.548 80.509" stroke="#535461" stroke-miterlimit="10"/><path d="M707.248 419.54s28.249-4.822 8.957 41.952c0 0-19.63-7.48-21.159-26.09a14.855 14.855 0 0111.816-15.787l.386-.075z" fill="#B1B834"/><path d="M706.834 419.491s-5.381 25.87 9.343 42.015" stroke="#535461" stroke-miterlimit="10"/><path d="M92.05 462.946s-11.788-2.342-14.93-5.462c-3.142-3.121-17.294-8.582-18.865-4.684-1.57 3.898-21.221 17.164-7.861 19.499 13.36 2.335 31.439 3.12 35.366 1.563 3.927-1.556 6.29-10.916 6.29-10.916z" fill="#A8A8A8"/><path opacity=".2" d="M50.373 470.859c13.36 2.342 31.44 3.12 35.367 1.564 2.99-1.192 5.07-6.888 5.897-9.553l.393.082s-2.356 9.361-6.29 10.924c-3.935 1.564-22.007.778-35.367-1.563-3.858-.689-4.96-2.26-4.547-4.271.351 1.302 1.694 2.314 4.547 2.817z" fill="#000"/><path d="M139.372 313.256c-38.902 0-70.437-31.524-70.437-70.412 0-38.887 31.535-70.412 70.437-70.412 38.901 0 70.436 31.525 70.436 70.412 0 38.888-31.535 70.412-70.436 70.412z" fill="#B1B834"/><path d="M214.28 294.019c-38.901 0-70.437-31.524-70.437-70.412 0-38.888 31.536-70.412 70.437-70.412 38.901 0 70.437 31.524 70.437 70.412 0 38.888-31.536 70.412-70.437 70.412z" fill="#B1B834"/><path d="M296.74 294.708c-38.901 0-70.437-31.525-70.437-70.412 0-38.888 31.536-70.412 70.437-70.412 38.901 0 70.437 31.524 70.437 70.412 0 38.887-31.536 70.412-70.437 70.412z" fill="#B1B834"/><path d="M323.542 313.256c-38.901 0-70.437-31.524-70.437-70.412 0-38.887 31.536-70.412 70.437-70.412 38.901 0 70.437 31.525 70.437 70.412 0 38.888-31.536 70.412-70.437 70.412z" fill="#B1B834"/><path d="M368.899 319.442c-38.901 0-70.437-31.525-70.437-70.413 0-38.887 31.536-70.412 70.437-70.412 38.901 0 70.437 31.525 70.437 70.412 0 38.888-31.536 70.413-70.437 70.413z" fill="#B1B834"/><path d="M387.454 263.796c-38.901 0-70.437-31.524-70.437-70.412 0-38.888 31.536-70.412 70.437-70.412 38.901 0 70.437 31.524 70.437 70.412 0 38.888-31.536 70.412-70.437 70.412z" fill="#B1B834"/><path d="M366.839 199.218c-38.901 0-70.437-31.525-70.437-70.412 0-38.888 31.536-70.413 70.437-70.413 38.901 0 70.437 31.525 70.437 70.413 0 38.887-31.536 70.412-70.437 70.412z" fill="#B1B834"/><path d="M327.669 199.218c-38.901 0-70.437-31.525-70.437-70.412 0-38.888 31.536-70.413 70.437-70.413 38.901 0 70.437 31.525 70.437 70.413 0 38.887-31.536 70.412-70.437 70.412z" fill="#B1B834"/><path d="M304.987 170.366c-38.901 0-70.437-31.525-70.437-70.413 0-38.887 31.536-70.412 70.437-70.412 38.901 0 70.437 31.525 70.437 70.412 0 38.888-31.536 70.413-70.437 70.413z" fill="#B1B834"/><path d="M247.263 201.966c-38.902 0-70.437-31.525-70.437-70.412 0-38.888 31.535-70.412 70.437-70.412 38.901 0 70.436 31.524 70.436 70.412 0 38.887-31.535 70.412-70.436 70.412zm-134.694 61.83c-38.9 0-70.436-31.524-70.436-70.412 0-38.888 31.535-70.412 70.436-70.412 38.902 0 70.437 31.524 70.437 70.412 0 38.888-31.535 70.412-70.437 70.412z" fill="#B1B834"/><path d="M153.117 228.759c-38.901 0-70.437-31.525-70.437-70.412 0-38.888 31.536-70.413 70.437-70.413 38.901 0 70.437 31.525 70.437 70.413 0 38.887-31.536 70.412-70.437 70.412z" fill="#B1B834"/><path d="M179.23 193.722c-38.901 0-70.436-31.525-70.436-70.413 0-38.887 31.535-70.412 70.436-70.412 38.902 0 70.437 31.525 70.437 70.412 0 38.888-31.535 70.413-70.437 70.413z" fill="#B1B834"/><path d="M228.708 140.825c-38.901 0-70.437-31.525-70.437-70.413C158.271 31.525 189.807 0 228.708 0c38.901 0 70.436 31.525 70.436 70.412 0 38.888-31.535 70.413-70.436 70.413z" fill="#B1B834"/><path d="M136.622 199.218c-38.9 0-70.436-31.525-70.436-70.412 0-38.888 31.535-70.413 70.436-70.413 38.902 0 70.437 31.525 70.437 70.413 0 38.887-31.535 70.412-70.437 70.412z" fill="#B1B834"/><path opacity=".1" d="M69.245 139.833s65.6-31.098 105.293 24.017L69.245 139.833zm172.306-63.001s72.565-2.19 86.814 64.206l-86.814-64.207zm90.204 144.061s65.6-31.104 105.293 23.997l-105.293-23.997z" fill="#000"/><path d="M618.856 396.418s-3.783 4.945 1.75 12.397c5.532 7.453 10.094 13.776 8.268 18.432 0 0-8.344-13.872-15.158-14.065-6.815-.193-2.329-8.423 5.14-16.764z" fill="#B1B834"/><path opacity=".1" d="M618.856 396.418c-.33.477-.589.999-.772 1.549-6.628 7.783-10.163 15.05-3.79 15.236 5.933.172 13.057 10.779 14.759 13.458a5.697 5.697 0 01-.2.613s-8.344-13.871-15.158-14.064c-6.814-.193-2.308-8.451 5.161-16.792z" fill="#000"/><path d="M611.821 402.727c0 1.742.193 3.154.434 3.154s.434-1.377.434-3.154-.241-.923-.482-.923-.386-.82-.386.923z" fill="#FFD037"/><path d="M609.409 404.8c1.53.833 2.867 1.336 2.977 1.123.11-.214-1.034-1.061-2.563-1.894-1.53-.834-.923-.228-1.041 0-.117.227-.902-.035.627.771z" fill="#FFD037"/><path d="M638.851 396.418s3.782 4.945-1.751 12.397c-5.532 7.453-10.093 13.776-8.268 18.432 0 0 8.344-13.872 15.159-14.065 6.814-.193 2.335-8.423-5.14-16.764z" fill="#B1B834"/><path opacity=".1" d="M638.851 396.418c.329.477.589.999.771 1.549 6.628 7.783 10.163 15.05 3.79 15.236-5.933.172-13.057 10.779-14.759 13.458.055.208.122.413.2.613 0 0 8.344-13.871 15.158-14.064 6.814-.193 2.315-8.451-5.16-16.792z" fill="#000"/><path d="M645.885 402.727c0 1.742-.193 3.154-.434 3.154s-.434-1.377-.434-3.154.241-.923.482-.923c.242 0 .386-.82.386.923z" fill="#FFD037"/><path d="M648.304 404.8c-1.53.833-2.867 1.336-2.977 1.123-.11-.214 1.034-1.061 2.563-1.894 1.53-.834.924-.228 1.041 0 .117.227.875-.035-.627.771z" fill="#FFD037"/><path d="M644.68 426.62s-10.584-.324-13.781-2.597c-3.197-2.273-16.281-4.979-17.066-1.343-.786 3.637-15.902 18.108-3.955 18.204 11.947.097 27.76-1.859 30.943-3.802 3.183-1.942 3.859-10.462 3.859-10.462z" fill="#A8A8A8"/><path opacity=".2" d="M609.671 439.624c11.948.096 27.76-1.86 30.943-3.802 2.426-1.474 3.39-6.771 3.714-9.216h.352s-.689 8.534-3.852 10.47c-3.163 1.935-18.996 3.898-30.943 3.801-3.445 0-4.637-1.253-4.575-3.071.475 1.109 1.778 1.797 4.361 1.818z" fill="#000"/><path d="M704.623 494.732a8.04 8.04 0 01-2.639-3.981c-.345-1.584.331-3.478 1.846-4.057 1.695-.647 3.507.523 4.879 1.715 1.371 1.192 2.949 2.542 4.747 2.287a7.218 7.218 0 01-2.233-6.757c.078-.507.293-.983.621-1.378.943-1.005 2.645-.571 3.775.221 3.583 2.521 4.582 7.383 4.603 11.764.358-1.577.055-3.224.069-4.821.013-1.598.454-3.444 1.819-4.285a5.524 5.524 0 012.756-.654c1.612-.062 3.403.103 4.506 1.281 1.378 1.46 1.013 3.919-.179 5.51-1.192 1.591-2.998 2.618-4.665 3.733a10.35 10.35 0 00-3.335 3.176 3.116 3.116 0 00-.248.564h-10.094a28.138 28.138 0 01-6.228-4.318zM77.63 504.375a8.045 8.045 0 01-2.639-3.981c-.344-1.585.33-3.479 1.847-4.057 1.695-.648 3.507.523 4.878 1.715 1.37 1.191 2.949 2.541 4.747 2.286a7.215 7.215 0 01-2.232-6.756 2.82 2.82 0 01.62-1.378c.944-1.005 2.645-.572 3.775.221 3.583 2.52 4.582 7.383 4.603 11.764.358-1.578.055-3.224.069-4.822.014-1.598.455-3.444 1.819-4.284a5.514 5.514 0 012.756-.654c1.612-.062 3.404.103 4.506 1.281 1.378 1.46 1.013 3.919-.179 5.51-1.192 1.591-2.997 2.617-4.665 3.733a10.338 10.338 0 00-3.334 3.175c-.101.18-.184.369-.248.565H83.859a28.153 28.153 0 01-6.229-4.318z" fill="#B1B834"/><path d="M312.49 500.642s.689 10.786-.689 12.576c0 0 31.639 5.752 35.594 3.954 3.955-1.798 2.157-4.67 0-5.751-2.156-1.082-12.946-5.035-14.379-12.577 0 0 4.671-2.156-10.425.689-15.096 2.844-10.101 1.109-10.101 1.109z" fill="#DC9BA3"/><path opacity=".05" d="M312.49 500.642s.689 10.786-.689 12.576c0 0 31.639 5.752 35.594 3.954 3.955-1.798 2.157-4.67 0-5.751-2.156-1.082-12.946-5.035-14.379-12.577 0 0 4.671-2.156-10.425.689-15.096 2.844-10.101 1.109-10.101 1.109z" fill="#000"/><path d="M189.166 396.046s3.955 6.467 1.44 19.051 6.47 12.577 6.47 12.577h17.969l6.111-15.842-8.626.689s-5.753-1.439-3.238-14.739l-20.126-1.736zm53.928-15.091c-2.756 8.754-6.201 19.416-8.041 25.099l-1.309 4.015-11.864-12.219s.523-1.212 1.302-2.906c1.736-3.761 4.761-9.898 6.249-10.394 0 0-16.536-1.081-21.573 2.873-5.036 3.953-3.596-10.786-3.596-10.786s9.708-.689 13.304-2.873c3.597-2.183 23.013-4.311 23.013-4.311s6.47-1.082 2.515 11.502zm107.87 105.691l-2.514 18.328-6.47-.689s-.393-.372-1.054-.964c-1.744-1.536-5.375-4.546-8.847-6.199-1.175-.6-2.45-.981-3.762-1.123l7.193-10.786a39.675 39.675 0 005.367 1.591 25.93 25.93 0 005.781.689 10.56 10.56 0 004.306-.847z" fill="#FFD2D9"/><path d="M332.988 499.567c-3.238 2.872-17.976-3.237-20.498 6.109l-2.315-8.864-7.131-27.275-.978-3.754-5.939-.255-68.163-2.906-3.859-.166-2.067-.089 2.701-1.336 17.976-8.906s6.477-.455 15.406-1.681c13.539-1.852 32.721-5.51 43.552-11.977 17.976-10.786 24.804 25.518 24.804 25.518s2.756 9.209 4.823 18.287a105.933 105.933 0 012.171 11.881c.31 2.776.213 4.787-.483 5.414z" fill="#E9E9EF"/><path opacity=".05" d="M332.988 499.567c-3.238 2.872-17.976-3.237-20.498 6.109l-2.315-8.864-7.131-27.275-.978-3.754-6.125-.379-65.855-4.05-4.065-.254-1.254-.076-1.62-.104 19.596-8.809s6.476-.454 15.406-1.68c13.539-1.853 32.721-5.51 43.552-11.978 17.976-10.786 24.804 25.519 24.804 25.519s2.756 9.208 4.823 18.286a105.906 105.906 0 012.17 11.882c.283 2.789.186 4.8-.51 5.427z" fill="#000"/><path opacity=".1" d="M340.871 486.777l-6.291 7.376-2.508 2.941c-1.175-.6-2.45-.98-3.762-1.122l7.193-10.786a39.79 39.79 0 005.368 1.591z" fill="#000"/><path d="M340.533 485.909l-7.035 8.265-3.39 3.974v1.082c-4.134.957-17.08-1.771-19.933-2.397l-.558-.124c-8.268.358-38.832-17.612-38.832-17.612s-33.437 5.751-49.608 4.312c-9.033-.806-11.569-4.071-12.044-6.805a7.078 7.078 0 01.538-3.981l14.469-10.16 1.915-1.377 3.059-2.156s5.319-1.205 12.072-2.693c10.555-2.328 24.618-5.352 27.463-5.565 4.672-.358 16.536 3.595 23.371 11.502a20.21 20.21 0 003.941 3.217l.186.124c1.923 1.274 4.286 2.624 6.89 4.008 8.702 4.58 20.305 9.505 28.284 12.735a453.281 453.281 0 009.212 3.651z" fill="#E9E9EF"/><path opacity=".1" d="M350.964 486.646l-2.514 18.328-6.47-.689s-.393-.372-1.054-.964c1.433 0 3.796-.379 4.292-3.348 0 0-2.494-8.713 1.44-12.466 1.48.018 2.947-.276 4.306-.861z" fill="#000"/><path d="M345.955 499.925s-3.596-12.577 4.672-14.016l13.663 5.393 15.847 1.081s4.134 6.743-2.488 14.306a20.338 20.338 0 01-14.427 6.819l-17.267.792-5.422-11.124s4.678 1.061 5.422-3.251z" fill="#DC9BA3"/><path opacity=".1" d="M258.142 450.444c-1.812.531-9.309 2.755-16.984 5.807a94.48 94.48 0 00-11.065 5.103c-.745.421-1.454.841-2.123 1.261a18.324 18.324 0 00-4.637 3.884c-4.437 5.738-10.955 8.83-14.2 10.091a7.086 7.086 0 01.537-3.981l14.47-10.16-2.067-.089 2.7-1.336-1.619-.104 19.596-8.809s6.462-.441 15.392-1.667zm-23.116-44.384l-1.309 4.016-11.865-12.219s.524-1.212 1.302-2.906c1.537 3.161 8.696 8.713 11.872 11.109z" fill="#000"/><path d="M192.246 412.018a20.82 20.82 0 01-.93-3.747l-15.455 5.366s-10.604 8.086-9.529 25.698c0 0 13.091-4.822 18.879.895l.117 1.013a46.716 46.716 0 0012.678 26.737c2.859 3.003 5.553 6.385 6.979 9.643 0 0 10.067-2.872 16.178-10.786 6.112-7.914 35.222-16.151 35.222-16.151s-15.461.358-17.618-5.035c-2.156-5.393-9.35-16.896-6.835-25.877 2.515-8.982 3.955-11.861 3.955-11.861s-14.745-10.421-13.663-13.658l-9.35 10.786-4.313 1.44c.341.835.514 1.729.51 2.631.248 9.76-13.546 12.101-16.825 2.906z" fill="#CEDAD5"/><path opacity=".1" d="M208.754 402.568c.109-1.342.291-2.678.544-4.001l-20.132-1.798s1.378 1.205 1.998 5.696c2.363 1.378 5.119 3.292 8.068 3.292a15.755 15.755 0 009.522-3.189z" fill="#000"/><path d="M199.411 405.213c-8.737 0-15.819-7.08-15.819-15.814s7.082-15.814 15.819-15.814c8.737 0 15.82 7.08 15.82 15.814s-7.083 15.814-15.82 15.814z" fill="#FFD2D9"/><path d="M187.726 393.532h2.156v-6.109l2.157-6.468s10.79-5.035 15.847-3.953l3.927 3.574s1.082-8.623-5.395-11.86c-6.476-3.237-17.976-1.798-20.856.689-2.88 2.486-7.579 6.832-3.955 18.693l1.055 2.92s4.347-1.44 5.064 2.514z" fill="#844F6E"/><path opacity=".05" d="M215.672 401.832l1.178-.393 5.429-6.261a1.531 1.531 0 01-.034-.923l-6.573 7.577zm-7.565 11.598a8.142 8.142 0 004.94-7.92v-.607l-.111.131-4.313 1.44c.341.835.514 1.729.51 2.631a8.577 8.577 0 01-1.026 4.325zm41.939 36.959c-9.012 3.134-21.214 8.073-24.928 12.873l-.276.345c9.874-6.771 31.557-12.928 31.557-12.928a55.917 55.917 0 01-6.353-.29zm-41.106 23.659c-1.426-3.244-4.134-6.632-6.979-9.642a46.722 46.722 0 01-12.678-26.738l-.117-1.013c-5.753-5.751-18.879-.895-18.879-.895-.689-11.172 3.335-18.507 6.36-22.378l-.793.276s-10.604 8.086-9.529 25.697c0 0 13.091-4.821 18.879.896l.117 1.012a46.719 46.719 0 0012.678 26.738c2.859 3.003 5.553 6.385 6.979 9.643 0 0 8.765-2.507 14.897-9.257a37.22 37.22 0 01-10.935 5.661z" fill="#000"/><path d="M204.985 431.992s-17.225 24.796-26.244 31.987c-9.019 7.19-11.506-3.238-11.506-3.238v-22.997l15.847-1.798.172 2.183.193 2.494 14.745-15.842s14.744-13.3 17.618-5.393c2.873 7.907-10.825 12.604-10.825 12.604z" fill="#FFD2D9"/><path opacity=".1" d="M183.22 438.129a34.27 34.27 0 01-6.821 3.031c-3.397 1.047-7.29-.055-9.171-.73v-2.686l15.847-1.798.145 2.183z" fill="#000"/><path d="M167.049 435.409l-.924 3.85s5.623 2.617 10.294 1.185a40.91 40.91 0 008.957-4.312c.689-.358-2.873-4.312-2.873-4.312l-15.454 3.589z" fill="#CEDAD5"/><path opacity=".1" d="M270.606 479.255a29.201 29.201 0 017.91-4.318 28.249 28.249 0 007.579-3.954" fill="#000"/><path opacity=".2" d="M380.089 492.376l-.586-.041c.854 2.17 2.067 7.473-2.977 13.266a20.347 20.347 0 01-14.379 6.811l-16.743.786.538 1.102 17.28-.792a20.353 20.353 0 0014.379-6.812c6.622-7.577 2.488-14.32 2.488-14.32z" fill="#fff"/><path opacity=".05" d="M319.036 507.784c.051.216.108.429.172.64.352-.199.855-.585-.172-.64z" fill="#0F0"/><path opacity=".2" d="M347.333 516.097c-3.686 1.674-31.398-3.202-35.139-3.877a2.801 2.801 0 01-.427.998s31.639 5.751 35.594 3.954c2.067-.923 2.542-2.135 2.267-3.237-.228.771-.875 1.536-2.295 2.162z" fill="#fff"/><path opacity=".1" d="M209.464 381.844a24.502 24.502 0 009.122-9.781c.291-.445.411-.981.338-1.508-.255-.978-1.53-1.15-2.453-1.571-1.716-.785-2.439-2.755-3.562-4.284a8.585 8.585 0 00-8.385-3.216c-1.64.33-3.156 1.143-4.823 1.377-3.569.524-7.455-1.639-10.659 0-1.461.751-2.453 2.163-3.321 3.554-2.184 3.492-4.92 7.205-2.935 11.282 1.137 2.342 2.956 4.284 5.512 4.966 2.556.682 5.512.11 8.116-.165 2.136-.234 4.382-.689 6.532-.496 2.535.262 4.113 1.288 6.518-.158z" fill="#000"/><path d="M209.464 381.12a24.492 24.492 0 009.122-9.78c.291-.446.411-.981.338-1.508-.255-.979-1.53-1.151-2.453-1.571-1.716-.785-2.439-2.755-3.562-4.284a8.585 8.585 0 00-8.385-3.217c-1.64.331-3.156 1.144-4.823 1.378-3.569.523-7.455-1.639-10.659 0-1.461.751-2.453 2.163-3.321 3.554-2.184 3.492-4.92 7.205-2.935 11.282 1.137 2.342 2.956 4.284 5.512 4.966 2.556.682 5.512.11 8.116-.165 2.136-.235 4.382-.689 6.532-.496 2.535.261 4.113 1.295 6.518-.159z" fill="#844F6E"/><path d="M505.845 466.747c0 7.412-.413 12.309-.413 12.309s-10.59.592-10.294 10.407c.297 9.815-41.161 11.895-41.161 11.895v-2.521c-3.941.585-8.158 1.061-10.521.833.159.765.345 1.571.524 2.287.193.193 4.01 4.05 3.886 8.155.069 2.066-.868 4.188-3.9 5.951-8.75 5.111-36 2.266-36 2.266-4.134-2.714-5.512-5.021-5.437-6.936-.131-2.824 2.687-4.821 5.271-6.109a9.305 9.305 0 016.449-.689c2.918.646 5.914.867 8.895.654a13.723 13.723 0 00-.461-1.749c-2.798.792-4.727 1.377-4.727 1.377s-14.524-7.728-8.475-20.215a10.229 10.229 0 014.134-4.084c-4.664-8.038-9.094-17.502-8.653-23.866.737-10.621 21.834-8.306 29.737-7.06l15.234-14.939c0-11.02-.338-23.673.689-26.414 1.819-4.759 1.212-4.133 2.418-6.24l.048-.076c.689-1.116 2.564-2.886 3.046-2.645a30.78 30.78 0 00-.09-6.578 18.77 18.77 0 01-12.939-17.756 18.376 18.376 0 012.067-8.479l-.207-.089 1.998-9.822a1.637 1.637 0 00-.089-1.274c-.207-.276-.558-.358-.827-.551a1.903 1.903 0 01-.324-2.314c.186-.365.441-.69.751-.958 1.681-1.908 5.257-1.226 7.455-1.508 2.977-.379 6.098-.93 8.916.544.606.376 1.24.708 1.894.992.898.243 1.83.332 2.756.262a27.885 27.885 0 015.003.447c2.149-.778 4.678-.089 6.669 1.102a14.693 14.693 0 017 13.445 28.482 28.482 0 01-.957 4.925l-3.686 14.36a9.382 9.382 0 01-1.378 3.362 3.965 3.965 0 01-.552.592 3.194 3.194 0 01-2.935 1.116 2.026 2.026 0 01-.406-.145 20.32 20.32 0 00.875 4.449c4.216 1.226 10.335 5.511 17.68 17.908 9.425 15.883 10.996 39.301 11.037 53.379z" fill="url(#paint0_linear)"/><path d="M469.197 487.403h-41.23v-29.52h41.23v29.52z" fill="#5F5D7E"/><path d="M438.199 451.45s-30.702-6.433-31.577 6.433 18.128 38.571 18.128 38.571l17.225-3.506-4.968-19.878s19.588-4.387 20.76-4.676c1.171-.29-19.568-16.944-19.568-16.944z" fill="#5F5D7E"/><path opacity=".1" d="M438.199 451.45s-30.702-6.433-31.577 6.433 18.128 38.571 18.128 38.571l17.225-3.506-4.968-19.878s19.588-4.387 20.76-4.676c1.171-.29-19.568-16.944-19.568-16.944z" fill="#000"/><path d="M422.111 499.973s2.921 5.552 2.067 7.894c-.854 2.341 20.76-3.217 20.76-3.217s-1.757-6.722-1.461-7.576c.296-.854-21.366 2.899-21.366 2.899z" fill="#5F5D7E"/><path d="M441.12 461.974l-2.149 1.943-1.378 1.253s-7.021 11.399-16.082 4.388c-9.06-7.012 7.035-12.26 10.253-12.529a4.032 4.032 0 003.031-2.197 9.648 9.648 0 001.061-2.755l5.264 9.897z" fill="#FDC2CC"/><path opacity=".05" d="M441.12 461.974l-2.149 1.943-1.378 1.253s-7.021 11.399-16.082 4.388c-9.06-7.012 7.035-12.26 10.253-12.529a4.032 4.032 0 003.031-2.197 9.648 9.648 0 001.061-2.755l5.264 9.897z" fill="#000"/><path opacity=".1" d="M422.111 499.973s2.921 5.552 2.067 7.894c-.854 2.341 20.76-3.217 20.76-3.217s-1.757-6.722-1.461-7.576c.296-.854-21.366 2.899-21.366 2.899zm19.009-37.999l-2.149 1.943c0-3.747-2.488-7.191-4.189-9.127a9.625 9.625 0 001.061-2.755l5.277 9.939z" fill="#000"/><path d="M453.984 432.454l-20.174 20.167s7.021 6.137 5.554 12.57l14.62-16.372v-16.365z" fill="#C4C8E2"/><path opacity=".1" d="M453.839 432.454v16.372l-2.342 2.624-6.952 7.783-5.326 5.965c1.46-6.433-5.554-12.57-5.554-12.57l20.174-20.174z" fill="#000"/><path d="M453.984 403.512s0 6.137 5.264 4.388c5.264-1.75 1.171 69.275 1.171 69.275s-15.206-11.399-12.278-19.581c2.929-8.183 3.507-14.34 3.232-22.509-.276-8.169 2.611-31.573 2.611-31.573z" fill="#D39999"/><path d="M454.28 387.147s4.389 11.984 0 21.049c-4.389 9.064 26.031-4.973 26.031-4.973s-6.725-3.217-4.389-18.707l-21.642 2.631z" fill="#FDC2CC"/><path opacity=".1" d="M451.648 441.807c.18 3.212.18 6.431 0 9.643l-6.952 7.783a58.737 58.737 0 013.445-6.316c1.082-1.674 1.323-8.348 1.378-15.966l2.55-2.548a431.219 431.219 0 00-.421 7.404z" fill="#000"/><path d="M456.196 401.928c.324-1.536-2.212.778-3.025 2.121l-.041.076c-1.172 2.066-.586 1.46-2.343 6.137-1.757 4.677.586 38.571-2.067 42.703a65.758 65.758 0 00-4.678 9.064l4.678-1.756s1.757-5.262 2.922-6.433c1.164-1.171.585-11.984.585-11.984s.875-18.707 1.757-22.799c.696-3.292 1.523-13.899 2.212-17.129z" fill="#C4C8E2"/><path opacity=".1" d="M456.196 401.928c.324-1.536-2.212.778-3.025 2.121l-.041.076c-1.172 2.066-.586 1.46-2.343 6.137-1.757 4.677.586 38.571-2.067 42.703a65.758 65.758 0 00-4.678 9.064l4.678-1.756s1.757-5.262 2.922-6.433c1.164-1.171.585-11.984.585-11.984s.875-18.707 1.757-22.799c.696-3.292 1.523-13.899 2.212-17.129z" fill="#000"/><path d="M463.051 474.833s-46.197-1.756-52.047 10.525c-5.85 12.28 8.185 19.884 8.185 19.884s19.589-6.136 23.978-5.262c4.389.875 19.884-2.342 19.884-2.342v-22.805z" fill="#5F5D7E"/><path d="M437.317 467.236s-10.528-5.847-16.377-2.066c-5.85 3.781-5.264 14.03 2.921 14.32 8.185.289 12.574-4.677 12.574-4.677l.882-7.577z" fill="#FDC2CC"/><path d="M470.362 397.961s9.356-6.433 23.102 17.219 10.232 64.303 10.232 64.303-10.232.585-9.943 10.228c.29 9.643-39.769 11.709-39.769 11.709s.586-95.876 4.678-98.493c4.093-2.618 11.7-4.966 11.7-4.966z" fill="#C4C8E2"/><path opacity=".1" d="M470.403 415.4a12.808 12.808 0 00-5.319 10.414c-.048 8.754-.262 27.62-1.151 31.187-1.171 4.677-18.713 10.814-27.78 10.525 0 0-4.389 8.182.875 9.939 5.264 1.756 37.426 0 37.426 0s12.575-14.32 12.864-26.862c.289-12.543 2.067-26.6 0-29.231-1.688-2.225-8.75-11.73-16.915-5.972z" fill="#000"/><path d="M469.817 414.229a12.809 12.809 0 00-5.353 10.428c-.048 8.754-.262 27.619-1.151 31.187-1.171 4.677-18.713 10.814-27.78 10.525 0 0-4.389 8.182.875 9.938 5.264 1.757 37.426 0 37.426 0s12.575-14.319 12.864-26.861c.289-12.543 2.067-26.6 0-29.231-1.654-2.211-8.716-11.744-16.881-5.986z" fill="#C4C8E2"/><path d="M409.378 505.594c-4.196 2.066-9.06 6.323.159 12.79 0 0 26.313 2.92 34.794-2.342 8.482-5.262 0-13.741 0-13.741s-19.409 5.159-28.724 2.638a8.842 8.842 0 00-6.229.655z" fill="#4C4C56"/><path opacity=".1" d="M409.378 506.186c-4.196 1.997-9.06 6.047.159 12.239 0 0 26.313 2.797 34.794-2.238 8.482-5.035 0-13.142 0-13.142s-19.409 4.932-28.724 2.528a9.212 9.212 0 00-6.229.613zm59.668-70.082s-1.461 18.418-11.114 22.509l11.114-22.509zm-14.476-46.911a37.498 37.498 0 011.729 7.81c1.847.62 4.548-.936 6.608-.936 5.36 0 6.89-5.993 10.231-9.643 0-1.626 2.756 2.169 3.073.144l-21.641 2.625z" fill="#000"/><path d="M480.311 377.498a18.52 18.52 0 01-.558 4.532l-.062.234a18.518 18.518 0 01-32.925 6.054 18.502 18.502 0 013.27-25.097 18.518 18.518 0 0125.264 1.632 18.504 18.504 0 015.011 12.651v-.006z" fill="#FDC2CC"/><path opacity=".1" d="M493.457 415.497a69.492 69.492 0 00-6.539-9.56 74.385 74.385 0 015.368 8.099c13.745 23.68 10.232 64.303 10.232 64.303s-10.232.586-9.943 10.228c.262 8.658-31.976 11.193-38.584 11.62v1.529s40.059-2.066 39.769-11.709c-.289-9.643 9.943-10.228 9.943-10.228s3.479-40.603-10.246-64.282zm-15.482-59.027c-1.929-1.164-4.368-1.846-6.449-1.082a26.449 26.449 0 00-4.823-.441 7.715 7.715 0 01-2.632-.255 14.145 14.145 0 01-1.833-.971c-2.721-1.446-5.739-.902-8.612-.53-2.336.303-6.284-.544-7.634 2.128a1.896 1.896 0 00.31 2.273c.262.193.599.269.799.544a1.629 1.629 0 01.09 1.254l-1.93 9.643a7.26 7.26 0 005.74.261 16.26 16.26 0 001.516-.688c1.44.936 2.928.227 4.671.599a5.324 5.324 0 012.632 1.722 15.316 15.316 0 013.907 7.776c.193 1.095.447 2.445 1.509 2.755.402.077.81.119 1.219.124 1.916.248 2.701 2.514 3.934 4.008 1.502 1.819 4.196 3.003 4.362 5.359.041.606-.09 1.274.248 1.784.228.304.562.511.937.578a3.161 3.161 0 003.073-1.377 9.286 9.286 0 001.302-3.299l3.562-14.12c.449-1.577.76-3.19.93-4.821a14.526 14.526 0 00-6.828-13.224z" fill="#000"/><path d="M478.244 356.208c-1.929-1.164-4.368-1.846-6.449-1.082a26.448 26.448 0 00-4.823-.44 7.762 7.762 0 01-2.632-.255 14.203 14.203 0 01-1.833-.971c-2.721-1.447-5.739-.903-8.612-.531-2.336.303-6.284-.544-7.635 2.129a1.892 1.892 0 00.31 2.272c.262.193.6.269.8.545a1.62 1.62 0 01.089 1.253l-1.929 9.643a7.256 7.256 0 005.739.262 16.411 16.411 0 001.516-.689c1.44.937 2.929.227 4.672.599a5.329 5.329 0 012.632 1.722 15.314 15.314 0 013.906 7.776c.193 1.095.448 2.445 1.509 2.755.402.077.81.119 1.22.124 1.915.248 2.701 2.514 3.934 4.009 1.502 1.818 4.196 3.003 4.361 5.358.042.606-.089 1.275.248 1.784.228.305.563.511.937.579a3.165 3.165 0 003.073-1.378 9.288 9.288 0 001.303-3.299l3.562-14.12c.448-1.577.759-3.19.93-4.821a14.526 14.526 0 00-6.828-13.224z" fill="#865A61"/></g><defs><linearGradient id="paint0_linear" x1="402.536" y1="434.355" x2="505.845" y2="434.355" gradientUnits="userSpaceOnUse"><stop stop-color="gray" stop-opacity=".25"/><stop offset=".54" stop-color="gray" stop-opacity=".12"/><stop offset="1" stop-color="gray" stop-opacity=".1"/></linearGradient><clipPath id="clip0"><path transform="matrix(-1 0 0 1 787 0)" fill="#fff" d="M0 0h787v538H0z"/></clipPath></defs></svg>