<svg width="150" height="148" viewBox="0 0 150 148" fill="none" xmlns="http://www.w3.org/2000/svg"><g filter="url(#filter0_d)"><path d="M72.594 18.9a30.612 30.612 0 0114.693 1.803c19.09 6.968 28.04 15.638 35.663 34.494 3.48 8.423 3.163 18.272-1.72 26.73a30.175 30.175 0 01-2.022 3.06c-11.427 15.565-22.471 21.931-41.798 24.112a30.61 30.61 0 01-14.696-1.802c-19.089-6.968-28.04-15.636-35.662-34.49-3.482-8.424-3.166-18.275 1.718-26.734a30.402 30.402 0 012.018-3.056C42.218 27.448 53.263 21.08 72.594 18.9z" fill="#A0C23C"/></g><path d="M92.5 59.67c3.333 1.924 3.333 6.736 0 8.66L70 81.32c-3.333 1.925-7.5-.48-7.5-4.33V51.01c0-3.85 4.167-6.255 7.5-4.33l22.5 12.99z" fill="#fff"/><defs><filter id="filter0_d" x=".065" y=".529" width="149.87" height="146.942" filterUnits="userSpaceOnUse" color-interpolation-filters="sRGB"><feFlood flood-opacity="0" result="BackgroundImageFix"/><feColorMatrix in="SourceAlpha" values="0 0 0 0 0 0 0 0 0 0 0 0 0 0 0 0 0 0 127 0"/><feOffset dy="10"/><feGaussianBlur stdDeviation="5"/><feColorMatrix values="0 0 0 0 0.627451 0 0 0 0 0.760784 0 0 0 0 0.235294 0 0 0 0.35 0"/><feBlend in2="BackgroundImageFix" result="effect1_dropShadow"/><feBlend in="SourceGraphic" in2="effect1_dropShadow" result="shape"/></filter></defs></svg>