<svg width="100" height="80" viewBox="0 0 100 80" fill="none" xmlns="http://www.w3.org/2000/svg"><path d="M91.516 68.54C84.503 76.145 73.892 80 59.981 80h-4.998V65.905l4.019-.805c6.847-1.37 11.61-4.065 14.16-8.02 1.564-2.435 2.08-5.035 2.19-7.08h-15.37a4.995 4.995 0 01-5-5V10c0-5.515 4.484-10 9.998-10h29.99a4.995 4.995 0 014.999 5v25l-.015 14.595c.045.555.994 13.705-8.438 23.945zM9.996 0h29.991a4.995 4.995 0 014.999 5v25l-.015 14.595c.045.555.995 13.705-8.438 23.945C29.521 76.145 18.91 80 4.998 80H0V65.905l4.019-.805c6.848-1.37 11.611-4.065 14.16-8.02 1.565-2.435 2.08-5.035 2.19-7.08H4.999A4.995 4.995 0 010 45V10C0 4.485 4.484 0 9.997 0z" fill="#F7F8EB"/></svg>