<svg width="616" height="405" viewBox="0 0 616 405" fill="none" xmlns="http://www.w3.org/2000/svg"><g clip-path="url(#clip0)"><path d="M17.24 230.559l111.54 95.005 24.405 20.785 68.291-.417 58.282-.354 4.841-.029 11.827-13.896 47.024-55.241 23.605-27.734 7.098-8.336 5.134-6.033 11.442-13.441 18.524-21.761-18.762-15.979-17.918-15.264-12.88-10.969L197.525 18.769 17.24 230.559z" fill="#F2F2F2"/><path d="M102.846 374.299h201.385v1.077H102.846v-1.077z" fill="#3F3D56"/><path d="M5.426 345.752h161.19s3.267-47.936-16.065-48.48c-19.332-.545-17.153 21.244-41.386-8.716-24.233-29.959-53.64-28.325-57.452-10.622-3.812 17.704 7.352 31.866-13.07 27.509-20.42-4.358-49.827 7.081-33.217 40.309z" fill="#B1B834"/><path d="M88.742 345.763l.544-.022c-1.269-31.56-7.877-51.838-13.197-63.291-5.776-12.436-11.342-17.471-11.397-17.52l-.362.407c.055.049 5.556 5.033 11.286 17.385 5.29 11.405 11.862 31.599 13.126 63.041zm-58.339.065l.523-.152c-6.295-21.613-21.119-35.259-21.268-35.394l-.366.403c.148.135 14.86 13.684 21.11 35.143zm110.825-.039l.539-.074c-2.135-15.408 1.722-27.362 5.335-34.677 3.911-7.92 8.374-12.246 8.419-12.289l-.377-.393c-.045.043-4.577 4.436-8.53 12.441-3.647 7.383-7.541 19.448-5.386 34.992z" fill="#F2F2F2"/><path d="M0 345.752h592.846v1.077H0v-1.077z" fill="#3F3D56"/><path d="M174.768 21.229h50.99v63.369h-50.99v-63.37z" fill="#2F2E41"/><path d="M267.863 316.823l6.953 25.502-11.589 8.501-3.09-2.319-5.408-26.275 13.134-5.409zm-87.3-2.319l2.317 30.912h-14.679v-28.593l12.362-2.319zm46.354-195.517v18.547l-28.585 4.637-24.722-10.046 4.635-11.592 48.672-1.546z" fill="#FFB8B8"/><path d="M203.74 134.443l24.722-4.637 6.18 50.232 15.452 62.596s23.177 53.323 20.087 65.688l-1.546 3.864 1.546 6.955-15.452 6.182-6.18-10.046s-4.636 6.955-12.361-7.728c-7.726-14.683-40.174-105.873-40.174-105.873l-5.408 15.456a31.868 31.868 0 01.773 14.683c-1.546 7.728-3.091 31.685-3.091 31.685s8.499 41.731-3.09 44.822l-2.318 9.273-16.224 1.546-3.09-9.274s-15.451-5.409-11.588-32.457c3.862-27.048 5.408-115.919 5.408-115.919l15.22-37.538 31.134 10.49zm66.441 206.336s3.863-3.091 5.408-2.318c1.545.773 17.769 21.638 17.769 21.638s16.996 13.138 4.635 14.683c-12.361 1.546-46.354-15.456-46.354-19.32 0-3.864 7.143-13.541 7.143-13.541s5.218 4.268 11.399-1.142zm-85.756-2.318s-13.906-.864-16.223 1.5c-2.318 2.364-1.546 13.956-1.546 13.956s-1.545 20.865 10.816 20.865 9.271-13.91 9.271-13.91l-2.318-22.411z" fill="#31383E"/><path d="M198.332 50.981c-10.667 0-19.315-8.65-19.315-19.32s8.648-19.32 19.315-19.32c10.667 0 19.314 8.65 19.314 19.32s-8.647 19.32-19.314 19.32z" fill="#FFB8B8"/><path d="M211.079 43.64s-10.816 13.137 10.816 23.184c21.632 10.046-15.451 51.777-15.451 51.777s-43.264-16.229-39.401-47.913c0 0 26.267-4.637 20.086-26.275l23.95-.773z" fill="#FFB8B8"/><path d="M222.668 66.05s17.769-2.318 18.541 12.365c.773 14.684 0 50.232 0 50.232s7.726 30.912 3.863 57.96c0 0 4.636 31.684-7.726 30.139-12.361-1.546-3.09-32.458-3.09-32.458l-5.408-50.231 2.318-37.094-10.043-22.411 1.545-8.501zm-51.139 3.415s-16.847-.323-17.62 12.042c-.773 12.364 5.408 50.231 5.408 50.231l9.271 4.637 8.498-26.275-5.557-40.635z" fill="#FFB8B8"/><path d="M166.656 132.897l1.545 3.864-4.635 11.592s18.542 14.683 16.997 17.775c-1.546 3.091-10.044-3.864-10.044-3.864l-12.361 6.182s-10.043-10.819-5.408-20.865c4.636-10.047 6.426-16.719 6.426-16.719s6.708-.283 7.48 2.035z" fill="#FFB8B8"/><path d="M226.144 63.346l2.318 25.502s10.816 10.82-1.545 25.502l1.545 11.592s-28.585-1.545-33.993 0c-5.408 1.546-22.11-1.244-22.11-1.244l-.295-8.802s-7.725-10.819-5.408-27.048c2.318-16.228 0-21.638 0-21.638l5.408-.773s3.477 23.57 27.427 25.889c0 0 29.743 2.705 21.245-28.98h5.408z" fill="#B1B834"/><path d="M196.4.363s20.087-1.245 24.723 11.25c4.635 12.494 12.747 19.053 12.747 19.053s12.778 8.885 6.389 24.747c0 0 19.878 13.362 6.745 25.231 0 0 .772 11.87-6.954 19.992 0 0-6.18 3.123-3.862 4.997 2.317 1.875-15.452.625-13.907-16.242 1.546-16.868-8.884-28.75-8.884-28.75s10.043-21.87 5.408-29.366c-2.815-4.551-4.023-7.946-6.359-9.91a29.329 29.329 0 01-3.607-3.521 8.32 8.32 0 00-8.962-2.796c-6.953 1.874-8.498 7.497-8.498 7.497s-5.022 13.431-13.52 19.679c-8.499 6.247 6.567 17.18 6.567 17.18s-2.619 12.871-9.422 20.492c-6.802 7.62 1.961 14.263 2.468 15.117 1.159 1.95 5.787 14.26-13.33 14.314 0 0-4.439-9.316-10.619-14.939-6.181-5.622-1.545-21.865-1.545-21.865s-9.271-5.623.772-19.366c0 0-3.09-12.495 5.408-20.616 0 0 11.975-36.55 38.242-32.178z" fill="#2F2E41"/><path d="M219.191 34.366c-1.067 0-1.931-1.384-1.931-3.091 0-1.707.864-3.091 1.931-3.091 1.067 0 1.932 1.384 1.932 3.091 0 1.707-.865 3.091-1.932 3.091z" fill="#FFB8B8"/><path d="M296.692 404.461h318.77s6.461-94.796-31.77-95.874c-38.23-1.077-33.923 42.013-81.846-17.235-47.923-59.249-106.077-56.017-113.615-21.007-7.539 35.011 14.538 63.019-25.846 54.401-40.385-8.618-98.539 14.004-65.693 79.715z" fill="#B1B834"/><path d="M461.458 404.483l1.076-.043c-2.509-62.414-15.577-102.515-26.098-125.165-11.422-24.593-22.43-34.549-22.54-34.647l-.715.805c.108.097 10.987 9.954 22.318 34.381 10.463 22.554 23.459 62.491 25.959 124.669zm-115.371.129l1.034-.301c-12.449-42.741-41.764-69.727-42.059-69.995l-.723.798c.292.265 29.388 27.06 41.748 69.498zm219.167-.076l1.067-.149c-4.224-30.47 3.405-54.11 10.55-68.576 7.735-15.663 16.561-24.218 16.649-24.302l-.745-.778c-.089.086-9.052 8.772-16.87 24.603-7.211 14.602-14.912 38.46-10.651 69.202z" fill="#F2F2F2"/><path d="M165.308 403.923H616V405H165.308v-1.077z" fill="#3F3D56"/></g><defs><clipPath id="clip0"><path transform="matrix(-1 0 0 1 616 0)" fill="#fff" d="M0 0h616v405H0z"/></clipPath></defs></svg>