<svg width="222" height="101" viewBox="0 0 222 101" fill="none" xmlns="http://www.w3.org/2000/svg"><path d="M109.416 100.645c-12.98 0-23.501-1.778-23.501-3.97 0-2.194 10.522-3.971 23.501-3.971 12.979 0 23.501 1.777 23.501 3.97 0 2.193-10.522 3.971-23.501 3.971z" fill="#A0C23C"/><path opacity=".1" d="M187.416 61.217c-12.979 0-23.501-1.777-23.501-3.97 0-2.193 10.522-3.971 23.501-3.971 12.979 0 23.501 1.778 23.501 3.97 0 2.194-10.522 3.971-23.501 3.971z" fill="#A0C23C"/><path d="M35.09 60.415C15.71 60.415 0 57.758 0 54.481s15.71-5.934 35.09-5.934c19.38 0 35.09 2.657 35.09 5.934s-15.71 5.934-35.09 5.934z" fill="#A0C23C"/><path d="M20.586 44.777a10.236 10.236 0 01-3.35-5.053c-.428-2.007.427-4.407 2.338-5.14 2.147-.82 4.442.663 6.179 2.173 1.736 1.51 3.735 3.212 6.012 2.897a9.137 9.137 0 01-2.827-8.56c.099-.643.37-1.246.785-1.746 1.196-1.274 3.351-.724 4.782.28 4.538 3.194 5.804 9.355 5.83 14.905.454-1.999.07-4.084.079-6.109.008-2.025.575-4.363 2.303-5.437a7.042 7.042 0 013.491-.872c2.042-.07 4.311.13 5.707 1.623 1.746 1.858 1.283 4.965-.227 6.981s-3.796 3.316-5.899 4.73a13.09 13.09 0 00-4.224 4.023c-.125.229-.23.468-.314.715H28.467a35.546 35.546 0 01-7.88-5.41zM94.903 87.18a10.218 10.218 0 01-3.342-5.054c-.428-2.007.419-4.363 2.339-5.14 2.146-.82 4.442.664 6.178 2.173 1.737 1.51 3.735 3.212 6.013 2.898a9.134 9.134 0 01-2.827-8.561 3.492 3.492 0 01.785-1.745c1.187-1.275 3.351-.725 4.773.279 4.538 3.194 5.804 9.355 5.83 14.905.463-1.999.079-4.084.087-6.109.009-2.024.576-4.363 2.304-5.436a6.983 6.983 0 013.491-.83c2.042-.07 4.311.132 5.707 1.624 1.745 1.859 1.283 4.965-.227 6.981s-3.796 3.316-5.908 4.73a13.096 13.096 0 00-4.215 4.023 4.444 4.444 0 00-.314.715h-12.785a35.783 35.783 0 01-7.889-5.454zM182.607 0s-4.799 6.274 2.208 15.708c7.008 9.433 12.785 17.453 10.472 23.361 0 0-10.576-17.584-19.198-17.828-8.622-.245-2.933-10.69 6.518-21.241z" fill="#A0C23C"/><path opacity=".1" d="M182.607 0a7.904 7.904 0 00-.986 1.972c-8.395 9.861-12.863 19.068-4.791 19.295 7.514.218 16.529 13.657 18.693 17.052a8.136 8.136 0 01-.253.776s-10.577-17.584-19.199-17.828c-8.622-.244-2.915-10.716 6.536-21.267z" fill="#000"/><path d="M173.689 7.993c0 2.208.253 3.997.558 3.997.306 0 .55-1.745.55-3.997 0-2.251-.305-1.17-.611-1.17-.305 0-.497-1.038-.497 1.17z" fill="#FFD037"/><path d="M170.634 10.629c1.938 1.056 3.631 1.693 3.77 1.422.14-.27-1.3-1.335-3.237-2.39-1.938-1.057-1.178-.289-1.327 0-.148.287-1.143-.088.794.968z" fill="#FFD037"/><path d="M207.924 0s4.799 6.274-2.208 15.708c-7.008 9.433-12.785 17.453-10.472 23.361 0 0 10.568-17.584 19.199-17.828 8.63-.245 2.949-10.69-6.519-21.241z" fill="#A0C23C"/><path opacity=".1" d="M207.924 0a7.87 7.87 0 01.986 1.972c8.395 9.861 12.863 19.068 4.791 19.295-7.514.218-16.529 13.657-18.693 17.052.07.264.158.523.262.776 0 0 10.568-17.584 19.199-17.828 8.631-.244 2.923-10.716-6.545-21.267z" fill="#000"/><path d="M216.843 7.993c0 2.208-.254 3.997-.559 3.997-.305 0-.55-1.745-.55-3.997 0-2.251.306-1.17.611-1.17.306 0 .498-1.038.498 1.17z" fill="#FFD037"/><path d="M219.897 10.629c-1.937 1.056-3.622 1.693-3.77 1.422-.149-.27 1.3-1.335 3.238-2.39 1.937-1.057 1.178-.289 1.326 0 .148.287 1.143-.088-.794.968z" fill="#FFD037"/><path d="M215.315 38.275s-13.404-.42-17.453-3.29c-4.049-2.871-20.622-6.31-21.625-1.746-1.004 4.564-20.141 22.943-5.009 23.065 15.132.122 35.16-2.356 39.192-4.809 4.031-2.452 4.895-13.22 4.895-13.22z" fill="#A8A8A8"/><path opacity=".2" d="M170.966 54.742c15.132.122 35.16-2.356 39.192-4.808 3.072-1.868 4.302-8.579 4.704-11.677h.453s-.872 10.813-4.887 13.265c-4.014 2.452-24.059 4.93-39.191 4.808-4.364 0-5.874-1.588-5.795-3.883.611 1.405 2.278 2.269 5.524 2.295z" fill="#000"/></svg>