<svg width="728" height="497" viewBox="0 0 728 497" fill="none" xmlns="http://www.w3.org/2000/svg"><g clip-path="url(#clip0)"><path opacity=".1" d="M.58 208.582c3.247 17.902 19.92 26.876 29.26 40.231 17.603 25.171 10.748 61.929-.42 91.367-3.738 9.857-7.981 20.293-6.397 30.862 1.93 12.929 12.186 22.38 22.957 27.391 19.626 9.126 43.13 6.951 61.171-5.673 15.588-10.906 26.756-28.618 42.611-39.06 26.536-17.419 60.311-10.811 89.128 1.164 20.382 8.49 42.671 19.536 62.928 10.671 14.252-6.245 24.106-21.444 29.475-37.521 2.589-7.778 4.472-16.198 9.421-22.36 2.944-3.67 6.785-6.271 10.714-8.458 35.924-20.033 81.306-9.304 116.179-31.524 23.56-15.002 38.648-43.302 45.326-72.817 6.677-29.514 5.901-60.46 4.205-90.858-1.206-21.623-3.369-44.657-15.64-61.331-12.981-17.635-35.256-24.166-55.395-20.84-20.14 3.326-38.387 15.3-54.447 29.368-20.093 17.59-38.681 39.486-63.32 46.609-16.78 4.852-34.429 2.194-51.737 1.272-28.934-1.533-57.877 1.907-86.647 5.621-14.018 1.826-28.083 3.74-41.98 6.513-3.115.619-6.23 1.286-9.345 2.003-1.561.362-3.122.737-4.673 1.125-1.215.299-2.425.636-3.635.935-1.91.505-3.813 1.035-5.711 1.59a207.648 207.648 0 00-16.186 5.438c-18.57 7.129-33.457 20.077-50.994 29.12-11.43 5.895-23.891 7.523-34.713 15.027C9.397 173.662-2.836 189.758.58 208.582z" fill="#B1B834"/><path d="M128.923 303.98c-35.985 0-65.156-29.122-65.156-65.047 0-35.924 29.171-65.046 65.156-65.046 35.985 0 65.156 29.122 65.156 65.046 0 35.925-29.171 65.047-65.156 65.047z" fill="#B1B834"/><path d="M198.216 286.209c-35.985 0-65.156-29.122-65.156-65.046 0-35.925 29.171-65.047 65.156-65.047 35.985 0 65.156 29.122 65.156 65.047 0 35.924-29.171 65.046-65.156 65.046z" fill="#B1B834"/><path d="M274.494 286.845c-35.985 0-65.156-29.122-65.156-65.046 0-35.924 29.171-65.047 65.156-65.047 35.985 0 65.156 29.123 65.156 65.047 0 35.924-29.171 65.046-65.156 65.046z" fill="#B1B834"/><path d="M299.287 303.98c-35.985 0-65.157-29.122-65.157-65.047 0-35.924 29.172-65.046 65.157-65.046 35.984 0 65.156 29.122 65.156 65.046 0 35.925-29.172 65.047-65.156 65.047z" fill="#B1B834"/><path d="M341.243 309.694c-35.984 0-65.156-29.123-65.156-65.047 0-35.924 29.172-65.046 65.156-65.046 35.985 0 65.157 29.122 65.157 65.046 0 35.924-29.172 65.047-65.157 65.047z" fill="#B1B834"/><path d="M358.407 258.289c-35.985 0-65.156-29.122-65.156-65.046 0-35.924 29.171-65.047 65.156-65.047 35.985 0 65.157 29.123 65.157 65.047 0 35.924-29.172 65.046-65.157 65.046z" fill="#B1B834"/><path d="M339.338 198.632c-35.985 0-65.156-29.122-65.156-65.046 0-35.924 29.171-65.046 65.156-65.046 35.985 0 65.156 29.122 65.156 65.046 0 35.924-29.171 65.046-65.156 65.046z" fill="#B1B834"/><path d="M303.104 198.632c-35.984 0-65.156-29.122-65.156-65.046 0-35.924 29.172-65.046 65.156-65.046 35.985 0 65.157 29.122 65.157 65.046 0 35.924-29.172 65.046-65.157 65.046z" fill="#B1B834"/><path d="M282.123 171.978c-35.985 0-65.156-29.122-65.156-65.046 0-35.924 29.171-65.046 65.156-65.046 35.985 0 65.156 29.122 65.156 65.046 0 35.924-29.171 65.046-65.156 65.046z" fill="#B1B834"/><path d="M228.726 201.171c-35.985 0-65.156-29.122-65.156-65.047 0-35.924 29.171-65.046 65.156-65.046 35.985 0 65.156 29.122 65.156 65.046 0 35.925-29.171 65.047-65.156 65.047zM104.13 258.289c-35.984 0-65.156-29.122-65.156-65.046 0-35.924 29.172-65.047 65.156-65.047 35.985 0 65.157 29.123 65.157 65.047 0 35.924-29.172 65.046-65.157 65.046z" fill="#B1B834"/><path d="M141.638 225.922c-35.985 0-65.156-29.123-65.156-65.047 0-35.924 29.171-65.046 65.156-65.046 35.985 0 65.156 29.122 65.156 65.046 0 35.924-29.171 65.047-65.156 65.047z" fill="#B1B834"/><path d="M165.794 193.555c-35.985 0-65.156-29.123-65.156-65.047 0-35.924 29.171-65.046 65.156-65.046 35.985 0 65.156 29.122 65.156 65.046 0 35.924-29.171 65.047-65.156 65.047z" fill="#B1B834"/><path d="M211.562 144.689c-35.985 0-65.156-29.122-65.156-65.046 0-35.925 29.171-65.047 65.156-65.047 35.985 0 65.156 29.122 65.156 65.046 0 35.925-29.171 65.047-65.156 65.047z" fill="#B1B834"/><path d="M126.38 198.632c-35.985 0-65.156-29.122-65.156-65.046 0-35.924 29.171-65.046 65.156-65.046 35.985 0 65.156 29.122 65.156 65.046 0 35.924-29.171 65.046-65.156 65.046z" fill="#B1B834"/><g opacity=".1" fill="#000"><path opacity=".1" d="M128.923 303.98c-35.985 0-65.156-29.122-65.156-65.047 0-35.924 29.171-65.046 65.156-65.046 35.985 0 65.156 29.122 65.156 65.046 0 35.925-29.171 65.047-65.156 65.047z"/><path opacity=".1" d="M198.216 286.209c-35.985 0-65.157-29.122-65.157-65.047 0-35.924 29.172-65.046 65.157-65.046 35.984 0 65.156 29.122 65.156 65.046 0 35.925-29.172 65.047-65.156 65.047z"/><path opacity=".1" d="M274.494 286.845c-35.985 0-65.157-29.122-65.157-65.046 0-35.924 29.172-65.047 65.157-65.047s65.156 29.123 65.156 65.047c0 35.924-29.171 65.046-65.156 65.046z"/><path opacity=".1" d="M299.287 303.98c-35.985 0-65.157-29.122-65.157-65.047 0-35.924 29.172-65.046 65.157-65.046 35.984 0 65.156 29.122 65.156 65.046 0 35.925-29.172 65.047-65.156 65.047z"/><path opacity=".1" d="M341.243 309.694c-35.984 0-65.156-29.123-65.156-65.047 0-35.924 29.172-65.046 65.156-65.046 35.985 0 65.157 29.122 65.157 65.046 0 35.924-29.172 65.047-65.157 65.047z"/><path opacity=".1" d="M358.407 258.289c-35.985 0-65.156-29.122-65.156-65.046 0-35.924 29.171-65.046 65.156-65.046 35.985 0 65.157 29.122 65.157 65.046 0 35.924-29.172 65.046-65.157 65.046z"/><path opacity=".1" d="M339.338 198.632c-35.985 0-65.156-29.122-65.156-65.046 0-35.924 29.171-65.046 65.156-65.046 35.985 0 65.156 29.122 65.156 65.046 0 35.924-29.171 65.046-65.156 65.046z"/><path opacity=".1" d="M303.104 198.632c-35.984 0-65.156-29.122-65.156-65.046 0-35.924 29.172-65.046 65.156-65.046 35.985 0 65.157 29.122 65.157 65.046 0 35.924-29.172 65.046-65.157 65.046z"/><path opacity=".1" d="M282.123 171.979c-35.985 0-65.156-29.122-65.156-65.046 0-35.925 29.171-65.047 65.156-65.047 35.985 0 65.156 29.122 65.156 65.047 0 35.924-29.171 65.046-65.156 65.046z"/><path opacity=".1" d="M228.726 201.171c-35.985 0-65.157-29.122-65.157-65.047 0-35.924 29.172-65.046 65.157-65.046 35.984 0 65.156 29.122 65.156 65.046 0 35.925-29.172 65.047-65.156 65.047zM104.13 258.289c-35.985 0-65.156-29.122-65.156-65.046 0-35.924 29.171-65.046 65.156-65.046 35.985 0 65.156 29.122 65.156 65.046 0 35.924-29.171 65.046-65.156 65.046z"/><path opacity=".1" d="M141.638 225.922c-35.985 0-65.156-29.123-65.156-65.047 0-35.924 29.171-65.046 65.156-65.046 35.985 0 65.156 29.122 65.156 65.046 0 35.924-29.171 65.047-65.156 65.047z"/><path opacity=".1" d="M165.794 193.555c-35.985 0-65.156-29.123-65.156-65.047 0-35.924 29.171-65.046 65.156-65.046 35.985 0 65.156 29.122 65.156 65.046 0 35.924-29.171 65.047-65.156 65.047z"/><path opacity=".1" d="M211.562 144.689c-35.985 0-65.156-29.122-65.156-65.046 0-35.925 29.171-65.047 65.156-65.047 35.985 0 65.156 29.122 65.156 65.046 0 35.925-29.171 65.047-65.156 65.047z"/><path opacity=".1" d="M126.38 198.632c-35.985 0-65.156-29.122-65.156-65.046 0-35.924 29.171-65.046 65.156-65.046 35.985 0 65.156 29.122 65.156 65.046 0 35.924-29.171 65.046-65.156 65.046z"/></g><path d="M161.103 352.922s-39.834-33.423-20.128-81.016l19.707-7.368 21.383 65.72-20.962 22.664z" fill="#67647E"/><path opacity=".1" d="M158.98 262.272l-4.716 1.762 20.994 64.525-18.317 19.801c1.517 1.508 2.46 2.297 2.46 2.297l20.969-22.664-21.39-65.721z" fill="#000"/><path d="M220.169 497C101.106 497 4.587 470.468 4.587 437.74c0-32.729 96.519-59.261 215.582-59.261 119.063 0 215.583 26.532 215.583 59.261 0 32.728-96.52 59.26-215.583 59.26z" fill="#F7F8EB"/><path d="M85.653 345.91s12.958 12.936 5.641 32.132c-7.317 19.196 12.537 51.112 12.537 51.112l-.638-.102c-26.61-4.689-39.834-35.071-25.035-57.646 5.532-8.38 10.051-18.23 7.495-25.496z" fill="#B1B834"/><path d="M85.653 345.91s7.317 15.856 0 28.792c-7.316 12.935-1.274 49.235 18.184 54.452" stroke="#535461" stroke-miterlimit="10"/><path d="M62.575 398.231s14.787-2.348 16.131 10.88c1.345 13.228 28.439 15.061 28.439 15.061l-.51.337c-22.365 14.634-43.741 9.334-40.516-10.123 1.192-7.234 1.096-14.501-3.544-16.155z" fill="#B1B834"/><path opacity=".2" d="M62.575 398.231s14.787-2.348 16.131 10.88c1.345 13.228 28.439 15.061 28.439 15.061l-.51.337c-22.365 14.634-43.741 9.334-40.516-10.123 1.192-7.234 1.096-14.501-3.544-16.155z" fill="#F5F5F5"/><path d="M62.575 398.231s11.472 2.545 10.535 12.935c-.936 10.391 17.043 22.906 34.028 13.006" stroke="#535461" stroke-miterlimit="10"/><path d="M341.001 283.307l-5.175 20.679s-36.565 4.759-60.943 1.769a31.724 31.724 0 01-12.155-4.378c-2.058-1.215-5.309-1.743-9.751 1.578-7.61 5.727-44.959 51.539-38.91 99.068a16.415 16.415 0 004.662 9.467 16.466 16.466 0 009.468 4.684 49.675 49.675 0 0120.822 7.864l18.483 12.287-189.516-4.136 19.675-23.778s13.461-11.37 23.818-12.407c3.021-.299 5.513-3.067 7.527-6.827 11.797-22.047 25.908-42.777 41.205-62.571 11.14-14.418 20.49-29.613 19.617-39.157-2.071-22.746 0-59.962 0-59.962l39.35-5.167s-5.175 49.63 42.46 62.031c47.636 12.401 69.363-1.044 69.363-1.044z" fill="#67647E"/><path opacity=".1" d="M308.898 292.616s-21.747 13.438-69.388 1.031c-47.642-12.407-42.461-62.03-42.461-62.03l-7.489.973c.141-3.181.249-5.09.249-5.09l39.35-5.167s-5.175 49.63 42.46 62.031c47.636 12.401 69.389-1.031 69.389-1.031l-5.176 20.679s-13.97 1.82-30.401 2.501l3.467-13.897zm-91.983 140.725a49.665 49.665 0 00-20.822-7.864 16.443 16.443 0 01-9.452-4.659 16.386 16.386 0 01-4.671-9.435c-6.081-47.529 31.287-93.424 38.878-99.125 8.286-6.203 12.428 1.031 12.428 1.031a66.789 66.789 0 008.923 1.699c-13.422 17.816-32.626 51.99-28.132 87.087a16.386 16.386 0 004.671 9.434 16.43 16.43 0 009.452 4.659 49.666 49.666 0 0120.822 7.865l18.484 12.286-47.649-1.037-2.932-1.941z" fill="#000"/><path d="M309.287 383.616s3.958-13.413-.74-23.288a21.157 21.157 0 01-1.714-13.292 35.66 35.66 0 011.912-6.242" stroke="#535461" stroke-width="2" stroke-miterlimit="10"/><path d="M305.788 334.553c0 1.642 2.983 6.414 2.983 6.414s2.963-4.772 2.963-6.414a2.978 2.978 0 00-2.983-2.978 2.978 2.978 0 00-2.982 2.978h.019zm-4.933 9.105c.892 1.381 5.991 3.767 5.991 3.767s-.096-5.619-.988-6.999a2.981 2.981 0 00-3.07-1.388 2.991 2.991 0 00-1.95 1.262 2.986 2.986 0 00-.451 2.276c.081.391.24.761.468 1.088v-.006zm.216 15.551c1.473.738 7.075.229 7.075.229s-2.919-4.804-4.391-5.542a2.988 2.988 0 00-4.006 1.32 2.98 2.98 0 00-.169 2.273 2.98 2.98 0 001.491 1.726v-.006zm2.817 11.751c1.326.98 6.935 1.419 6.935 1.419s-2.065-5.23-3.391-6.204a2.985 2.985 0 00-4.632 2.846 2.972 2.972 0 001.088 1.939zm9.223-23.204c-1.179 1.145-6.686 2.335-6.686 2.335s1.345-5.459 2.549-6.605a2.99 2.99 0 014.155.121 2.975 2.975 0 01.001 4.149h-.019zm3.123 13.756c-1.472.738-7.075.229-7.075.229s2.919-4.804 4.392-5.542a2.985 2.985 0 014.005 1.32 2.973 2.973 0 01-1.322 3.999v-.006zm1.198 13.801c-1.326.98-6.934 1.419-6.934 1.419s2.065-5.231 3.39-6.204a2.988 2.988 0 014.073.694 2.976 2.976 0 01-.529 4.091z" fill="#B1B834"/><path d="M317.897 382.306s-7.234-1.445-9.158-3.373c-1.925-1.928-10.606-5.294-11.575-2.888-.968 2.405-13.021 10.587-4.818 12.032 8.203 1.444 19.286 1.908 21.67.96 2.384-.948 3.881-6.731 3.881-6.731z" fill="#A8A8A8"/><path opacity=".2" d="M292.34 387.205c8.196 1.444 19.286 1.908 21.669.96 1.836-.731 3.111-4.256 3.614-5.892l.242.051s-1.446 5.778-3.856 6.738c-2.409.961-13.499.484-21.669-.96-2.365-.42-3.041-1.394-2.786-2.634.204.789 1.026 1.412 2.786 1.737z" fill="#000"/><path d="M197.967 427.582s-21.944-4.384-27.801-10.225c-5.857-5.841-32.186-16.065-35.112-8.761-2.925 7.304-39.515 32.132-14.659 36.516 24.857 4.384 58.522 5.841 65.839 2.92 7.316-2.92 11.733-20.45 11.733-20.45z" fill="#A8A8A8"/><path opacity=".2" d="M120.421 442.395c24.857 4.384 58.521 5.841 65.838 2.92 5.571-2.227 9.446-12.916 10.975-17.885l.733.152s-4.391 17.53-11.701 20.45c-7.311 2.921-40.969 1.464-65.839-2.92-7.183-1.273-9.235-4.238-8.457-7.992.605 2.45 3.11 4.339 8.451 5.275z" fill="#000"/><path d="M49.44 303.089a13.869 13.869 0 002.364 7.324 13.872 13.872 0 002.403-7.311c0-4.04-1.046-7.317-2.365-7.324-1.32-.006-2.39 3.271-2.403 7.311zm179.917-3.55a13.868 13.868 0 002.383 7.317 13.86 13.86 0 002.384-7.317c0-4.041-1.064-7.317-2.384-7.317-1.319 0-2.383 3.276-2.383 7.317zM33.27 371.641a13.872 13.872 0 00-2.384 7.318 13.905 13.905 0 006.24-4.518c2.383-3.27 3.448-6.547 2.383-7.317-1.064-.77-3.862 1.253-6.24 4.517zm76.137-38.31a13.872 13.872 0 002.384 7.318 13.872 13.872 0 002.384-7.318c0-4.04-1.065-7.317-2.384-7.317s-2.384 3.29-2.384 7.317zm44.538-24.305a13.87 13.87 0 002.384 7.317 13.87 13.87 0 002.384-7.317c0-4.041-1.065-7.318-2.384-7.318s-2.384 3.277-2.384 7.318zm27.63 14.818a13.868 13.868 0 00-1.575 7.534 13.889 13.889 0 005.736-5.167c2.014-3.506 2.716-6.878 1.575-7.533-1.141-.656-3.729 1.66-5.736 5.166zm20.643 67.216a13.922 13.922 0 006.979 3.271 13.872 13.872 0 00-3.715-6.738c-2.951-2.762-6.081-4.225-6.979-3.271-.899.954.764 3.977 3.715 6.738z" fill="#B1B834"/><path opacity=".1" d="M202.218 391.06a13.922 13.922 0 006.979 3.271 13.872 13.872 0 00-3.715-6.738c-2.951-2.762-6.081-4.225-6.979-3.271-.899.954.764 3.977 3.715 6.738z" fill="#000"/><path d="M158.872 386.912a13.92 13.92 0 006.979 3.27 13.875 13.875 0 00-3.716-6.738c-2.95-2.761-6.08-4.225-6.978-3.27-.899.954.764 3.97 3.715 6.738z" fill="#B1B834"/><path opacity=".1" d="M158.872 386.912a13.92 13.92 0 006.979 3.27 13.875 13.875 0 00-3.716-6.738c-2.95-2.761-6.08-4.225-6.978-3.27-.899.954.764 3.97 3.715 6.738z" fill="#000"/><path d="M150.561 430.777a13.92 13.92 0 006.979 3.27 13.87 13.87 0 00-3.722-6.757c-2.951-2.762-6.08-4.225-6.979-3.271-.899.955.765 3.99 3.722 6.758z" fill="#B1B834"/><path opacity=".1" d="M150.561 430.777a13.92 13.92 0 006.979 3.27 13.87 13.87 0 00-3.722-6.757c-2.951-2.762-6.08-4.225-6.979-3.271-.899.955.765 3.99 3.722 6.758z" fill="#000"/><path d="M411.756 398.322c-5.732 8.392-3.903 38.436-3.903 38.436s28.811-9.46 34.543-17.848a18.226 18.226 0 002.851-13.758 18.339 18.339 0 00-7.794-11.728 18.627 18.627 0 00-13.874-2.827 18.51 18.51 0 00-11.826 7.729l.003-.004z" fill="#B1B834"/><path opacity=".1" d="M411.756 398.322c-5.732 8.392-3.903 38.436-3.903 38.436s28.811-9.46 34.543-17.848a18.226 18.226 0 002.851-13.758 18.339 18.339 0 00-7.794-11.728 18.627 18.627 0 00-13.874-2.827 18.51 18.51 0 00-11.826 7.729l.003-.004z" fill="#000"/><path d="M437.062 393.54s-21.505 16.482-29.487 43.217" stroke="#535461" stroke-miterlimit="10"/><path d="M402.387 413.916s15.232-2.625 4.83 22.842c0 0-10.584-4.073-11.409-14.206a8.145 8.145 0 011.569-5.519 8.007 8.007 0 014.802-3.076l.208-.041z" fill="#B1B834"/><path d="M402.227 413.839s-3.08 14.112 5.348 22.919" stroke="#535461" stroke-miterlimit="10"/><path d="M85.15 427.665s-10.905-2.163-13.812-5.046c-2.906-2.882-15.997-7.927-17.45-4.326-1.453 3.601-19.63 15.856-7.272 18.013 12.358 2.157 29.082 2.882 32.715 1.444 3.633-1.438 5.819-10.085 5.819-10.085z" fill="#A8A8A8"/><path opacity=".2" d="M46.597 434.976c12.358 2.163 29.082 2.882 32.715 1.444 2.766-1.1 4.69-6.362 5.456-8.825l.363.077s-2.18 8.647-5.82 10.091c-3.639 1.444-20.356.719-32.714-1.444-3.57-.637-4.59-2.087-4.207-3.945.325 1.202 1.568 2.138 4.207 2.602z" fill="#000"/><path d="M128.923 289.384c-35.985 0-65.156-29.123-65.156-65.047 0-35.924 29.171-65.046 65.156-65.046 35.985 0 65.156 29.122 65.156 65.046 0 35.924-29.171 65.047-65.156 65.047z" fill="#B1B834"/><path d="M198.216 271.613c-35.985 0-65.156-29.123-65.156-65.047 0-35.924 29.171-65.046 65.156-65.046 35.985 0 65.156 29.122 65.156 65.046 0 35.924-29.171 65.047-65.156 65.047z" fill="#B1B834"/><path d="M274.494 272.249c-35.985 0-65.156-29.122-65.156-65.046 0-35.925 29.171-65.047 65.156-65.047 35.985 0 65.156 29.122 65.156 65.047 0 35.924-29.171 65.046-65.156 65.046z" fill="#B1B834"/><path d="M299.287 289.384c-35.985 0-65.157-29.123-65.157-65.047 0-35.924 29.172-65.046 65.157-65.046 35.984 0 65.156 29.122 65.156 65.046 0 35.924-29.172 65.047-65.156 65.047z" fill="#B1B834"/><path d="M341.243 295.097c-35.984 0-65.156-29.122-65.156-65.046 0-35.924 29.172-65.046 65.156-65.046 35.985 0 65.157 29.122 65.157 65.046 0 35.924-29.172 65.046-65.157 65.046z" fill="#B1B834"/><path d="M358.407 243.693c-35.985 0-65.156-29.122-65.156-65.046 0-35.924 29.171-65.046 65.156-65.046 35.985 0 65.157 29.122 65.157 65.046 0 35.924-29.172 65.046-65.157 65.046z" fill="#B1B834"/><path d="M339.338 184.036c-35.985 0-65.156-29.122-65.156-65.046 0-35.924 29.171-65.047 65.156-65.047 35.985 0 65.156 29.123 65.156 65.047 0 35.924-29.171 65.046-65.156 65.046z" fill="#B1B834"/><path d="M303.104 184.036c-35.984 0-65.156-29.122-65.156-65.046 0-35.924 29.172-65.047 65.156-65.047 35.985 0 65.157 29.123 65.157 65.047 0 35.924-29.172 65.046-65.157 65.046z" fill="#B1B834"/><path d="M282.123 157.383c-35.985 0-65.156-29.123-65.156-65.047 0-35.924 29.171-65.046 65.156-65.046 35.985 0 65.156 29.122 65.156 65.046 0 35.924-29.171 65.047-65.156 65.047z" fill="#B1B834"/><path d="M228.726 186.575c-35.985 0-65.156-29.123-65.156-65.047 0-35.924 29.171-65.046 65.156-65.046 35.985 0 65.156 29.122 65.156 65.046 0 35.924-29.171 65.047-65.156 65.047zM104.13 243.693c-35.984 0-65.156-29.122-65.156-65.046 0-35.924 29.172-65.046 65.156-65.046 35.985 0 65.157 29.122 65.157 65.046 0 35.924-29.172 65.046-65.157 65.046z" fill="#B1B834"/><path d="M141.638 211.326c-35.985 0-65.156-29.123-65.156-65.047 0-35.924 29.171-65.046 65.156-65.046 35.985 0 65.156 29.122 65.156 65.046 0 35.924-29.171 65.047-65.156 65.047z" fill="#B1B834"/><path d="M165.794 178.958c-35.985 0-65.156-29.122-65.156-65.046 0-35.924 29.171-65.046 65.156-65.046 35.985 0 65.156 29.122 65.156 65.046 0 35.924-29.171 65.046-65.156 65.046z" fill="#B1B834"/><path d="M211.562 130.093c-35.985 0-65.156-29.123-65.156-65.047C146.406 29.122 175.577 0 211.562 0c35.985 0 65.156 29.122 65.156 65.046 0 35.924-29.171 65.047-65.156 65.047z" fill="#B1B834"/><path d="M126.38 184.036c-35.985 0-65.156-29.122-65.156-65.046 0-35.924 29.171-65.047 65.156-65.047 35.985 0 65.156 29.123 65.156 65.047 0 35.924-29.171 65.046-65.156 65.046z" fill="#B1B834"/><path opacity=".1" d="M64.054 129.177s60.682-28.728 97.399 22.187l-97.4-22.187zm159.388-58.2s67.126-2.024 80.306 59.313l-80.306-59.313zm83.442 133.082s60.682-28.734 97.4 22.168l-97.4-22.168z" fill="#000"/><path d="M354.62 401.398s-2.095 2.731.969 6.846c3.065 4.116 5.592 7.608 4.581 10.179 0 0-4.623-7.661-8.397-7.767-3.775-.107-1.29-4.652 2.847-9.258z" fill="#B1B834"/><path opacity=".1" d="M354.682 401.398c-.184.263-.33.551-.432.855-3.714 4.294-5.694 8.303-2.123 8.406 3.324.095 7.315 5.947 8.269 7.426a3.184 3.184 0 01-.112.338s-4.675-7.654-8.493-7.76c-3.818-.107-1.293-4.663 2.891-9.265z" fill="#000"/><path d="M350.567 405.189c0 .8.146 1.447.328 1.447.182 0 .327-.632.327-1.447 0-.815-.182-.423-.364-.423s-.291-.376-.291.423z" fill="#FFD037"/><path d="M349.725 405.989c.767.46 1.438.738 1.494.62.055-.118-.519-.586-1.287-1.047-.768-.46-.463-.125-.522 0-.059.126-.453-.019.315.427z" fill="#FFD037"/><path d="M365.516 401.398s2.096 2.731-.969 6.846c-3.065 4.116-5.591 7.608-4.58 10.179 0 0 4.622-7.661 8.396-7.767 3.775-.107 1.294-4.652-2.847-9.258z" fill="#B1B834"/><path opacity=".1" d="M365.454 401.398c.184.263.33.551.432.855 3.714 4.294 5.694 8.303 2.123 8.406-3.323.095-7.315 5.947-8.268 7.426.031.114.068.227.112.338 0 0 4.674-7.654 8.492-7.76 3.818-.107 1.297-4.663-2.891-9.265z" fill="#000"/><path d="M370.416 405.989c-.77.46-1.442.738-1.498.62-.055-.118.52-.586 1.29-1.047.77-.46.465-.125.524 0 .059.126.44-.019-.316.427z" fill="#FFD037"/><path d="M368.259 418.146s-5.635-.169-7.337-1.361c-1.702-1.191-8.669-2.61-9.087-.704-.419 1.906-8.468 9.493-2.106 9.543 6.361.051 14.781-.975 16.476-1.993 1.695-1.018 2.054-5.485 2.054-5.485z" fill="#A8A8A8"/><path opacity=".2" d="M349.615 424.934c6.363.053 14.784-1.024 16.479-2.093 1.292-.811 1.806-3.727 1.978-5.073h.187s-.367 4.698-2.051 5.763c-1.684 1.065-10.117 2.146-16.48 2.093-1.834 0-2.469-.69-2.436-1.691.253.61.947.99 2.323 1.001z" fill="#000"/><path d="M401.161 454.738a4.318 4.318 0 01-1.402-2.138c-.183-.85.176-1.867.981-2.178.901-.347 1.864.281 2.592.921.729.64 1.567 1.365 2.523 1.228a3.905 3.905 0 01-1.186-3.628c.041-.272.155-.528.329-.739.502-.54 1.406-.307 2.007.118 1.904 1.353 2.435 3.964 2.446 6.316.19-.847.029-1.731.036-2.589.007-.858.242-1.849.967-2.3a2.9 2.9 0 011.464-.351c.857-.033 1.809.055 2.395.688.732.784.538 2.104-.095 2.958-.634.854-1.593 1.405-2.479 2.004a5.528 5.528 0 00-1.772 1.705 1.695 1.695 0 00-.132.303h-5.364a14.936 14.936 0 01-3.31-2.318zM71.81 465.937a7.42 7.42 0 01-2.44-3.677c-.32-1.464.305-3.214 1.707-3.748 1.568-.598 3.244.483 4.513 1.584 1.268 1.101 2.728 2.348 4.391 2.113a6.67 6.67 0 01-2.065-6.242 2.61 2.61 0 01.574-1.273c.873-.929 2.447-.528 3.492.204 3.315 2.329 4.239 6.821 4.258 10.867.331-1.457.05-2.977.064-4.454.012-1.476.42-3.181 1.682-3.957a5.111 5.111 0 012.55-.605c1.49-.057 3.148.096 4.168 1.184 1.275 1.349.937 3.62-.166 5.09-1.102 1.47-2.772 2.418-4.315 3.449a9.545 9.545 0 00-3.085 2.933 2.91 2.91 0 00-.229.522h-9.337a26.056 26.056 0 01-5.762-3.99z" fill="#B1B834"/><path opacity=".05" d="M199.503 371.209l1.09-.363 5.022-5.784a1.42 1.42 0 01-.032-.853l-6.08 7zm-6.998 10.714a7.514 7.514 0 004.57-7.317v-.56l-.102.121-3.99 1.33a6.37 6.37 0 01.472 2.431 7.925 7.925 0 01-.95 3.995z" fill="#000"/><path opacity=".1" d="M250.319 442.732a27.008 27.008 0 017.317-3.989 26.156 26.156 0 007.011-3.653" fill="#000"/><path opacity=".05" d="M295.118 469.086c.047.2.1.397.16.592.325-.184.79-.541-.16-.592z" fill="#0F0"/><path opacity=".2" d="M321.294 476.766c-3.409 1.546-29.044-2.958-32.504-3.582-.07.33-.205.644-.396.923 0 0 29.267 5.313 32.926 3.652 1.912-.853 2.352-1.973 2.097-2.991-.211.713-.81 1.419-2.123 1.998z" fill="#fff"/></g><defs><clipPath id="clip0"><path transform="matrix(-1 0 0 1 728 0)" fill="#fff" d="M0 0h728v497H0z"/></clipPath></defs></svg>