<svg width="714" height="782" viewBox="0 0 714 782" fill="none" xmlns="http://www.w3.org/2000/svg"><g clip-path="url(#clip0)"><path d="M517.95 477.75c-56.46 0-102.23-45.77-102.23-102.23s45.77-102.23 102.23-102.23 102.23 45.77 102.23 102.23-45.77 102.23-102.23 102.23z" fill="#B1B834"/><path d="M409.23 449.82c-56.46 0-102.23-45.77-102.23-102.23s45.77-102.23 102.23-102.23 102.23 45.77 102.23 102.23-45.77 102.23-102.23 102.23z" fill="#B1B834"/><path d="M289.55 450.82c-56.46 0-102.23-45.77-102.23-102.23s45.77-102.23 102.23-102.23 102.23 45.77 102.23 102.23-45.77 102.23-102.23 102.23z" fill="#B1B834"/><path d="M250.65 477.75c-56.46 0-102.23-45.77-102.23-102.23s45.77-102.23 102.23-102.23 102.23 45.77 102.23 102.23-45.77 102.23-102.23 102.23z" fill="#B1B834"/><path d="M184.82 486.73c-56.46 0-102.23-45.77-102.23-102.23s45.77-102.23 102.23-102.23 102.23 45.77 102.23 102.23-45.77 102.23-102.23 102.23z" fill="#B1B834"/><path d="M157.89 405.94c-56.46 0-102.23-45.77-102.23-102.23s45.77-102.23 102.23-102.23 102.23 45.77 102.23 102.23-45.77 102.23-102.23 102.23z" fill="#B1B834"/><path d="M187.81 312.18c-56.46 0-102.23-45.77-102.23-102.23s45.77-102.23 102.23-102.23 102.23 45.77 102.23 102.23-45.77 102.23-102.23 102.23z" fill="#B1B834"/><path d="M244.66 312.18c-56.46 0-102.23-45.77-102.23-102.23s45.77-102.23 102.23-102.23 102.23 45.77 102.23 102.23-45.77 102.23-102.23 102.23z" fill="#B1B834"/><path d="M277.58 270.29c-56.46 0-102.23-45.77-102.23-102.23S221.12 65.83 277.58 65.83s102.23 45.77 102.23 102.23-45.77 102.23-102.23 102.23z" fill="#B1B834"/><path d="M361.36 316.17c-56.46 0-102.23-45.77-102.23-102.23s45.77-102.23 102.23-102.23 102.23 45.77 102.23 102.23-45.77 102.23-102.23 102.23zm195.49 89.77c-56.46 0-102.23-45.77-102.23-102.23s45.77-102.23 102.23-102.23 102.23 45.77 102.23 102.23-45.77 102.23-102.23 102.23z" fill="#B1B834"/><path d="M498 355.07c-56.46 0-102.23-45.77-102.23-102.23S441.54 150.61 498 150.61s102.23 45.77 102.23 102.23S554.46 355.07 498 355.07z" fill="#B1B834"/><path d="M460.1 304.2c-56.46 0-102.23-45.77-102.23-102.23S403.64 99.74 460.1 99.74s102.23 45.77 102.23 102.23S516.56 304.2 460.1 304.2z" fill="#B1B834"/><path d="M388.29 227.4c-56.46 0-102.23-45.77-102.23-102.23S331.83 22.94 388.29 22.94s102.23 45.77 102.23 102.23S444.75 227.4 388.29 227.4z" fill="#B1B834"/><path d="M521.94 312.18c-56.46 0-102.23-45.77-102.23-102.23s45.77-102.23 102.23-102.23 102.23 45.77 102.23 102.23-45.77 102.23-102.23 102.23z" fill="#B1B834"/><g opacity=".1" fill="#000"><path opacity=".1" d="M517.95 477.75c-56.46 0-102.23-45.77-102.23-102.23s45.77-102.23 102.23-102.23 102.23 45.77 102.23 102.23-45.77 102.23-102.23 102.23z"/><path opacity=".1" d="M409.23 449.82c-56.46 0-102.23-45.77-102.23-102.23s45.77-102.23 102.23-102.23 102.23 45.77 102.23 102.23-45.77 102.23-102.23 102.23z"/><path opacity=".1" d="M289.55 450.82c-56.46 0-102.23-45.77-102.23-102.23s45.77-102.23 102.23-102.23 102.23 45.77 102.23 102.23-45.77 102.23-102.23 102.23z"/><path opacity=".1" d="M250.65 477.75c-56.46 0-102.23-45.77-102.23-102.23s45.77-102.23 102.23-102.23 102.23 45.77 102.23 102.23-45.77 102.23-102.23 102.23z"/><path opacity=".1" d="M184.82 486.73c-56.46 0-102.23-45.77-102.23-102.23s45.77-102.23 102.23-102.23 102.23 45.77 102.23 102.23-45.77 102.23-102.23 102.23z"/><path opacity=".1" d="M157.89 405.94c-56.46 0-102.23-45.77-102.23-102.23s45.77-102.23 102.23-102.23 102.23 45.77 102.23 102.23-45.77 102.23-102.23 102.23z"/><path opacity=".1" d="M187.81 312.18c-56.46 0-102.23-45.77-102.23-102.23s45.77-102.23 102.23-102.23 102.23 45.77 102.23 102.23-45.77 102.23-102.23 102.23z"/><path opacity=".1" d="M244.66 312.18c-56.46 0-102.23-45.77-102.23-102.23s45.77-102.23 102.23-102.23 102.23 45.77 102.23 102.23-45.77 102.23-102.23 102.23z"/><path opacity=".1" d="M277.58 270.29c-56.46 0-102.23-45.77-102.23-102.23S221.12 65.83 277.58 65.83s102.23 45.77 102.23 102.23-45.77 102.23-102.23 102.23z"/><path opacity=".1" d="M361.36 316.17c-56.46 0-102.23-45.77-102.23-102.23s45.77-102.23 102.23-102.23 102.23 45.77 102.23 102.23-45.77 102.23-102.23 102.23zm195.49 89.77c-56.46 0-102.23-45.77-102.23-102.23s45.77-102.23 102.23-102.23 102.23 45.77 102.23 102.23-45.77 102.23-102.23 102.23z"/><path opacity=".1" d="M498 355.07c-56.46 0-102.23-45.77-102.23-102.23S441.54 150.61 498 150.61s102.23 45.77 102.23 102.23S554.46 355.07 498 355.07z"/><path opacity=".1" d="M460.1 304.2c-56.46 0-102.23-45.77-102.23-102.23S403.64 99.74 460.1 99.74s102.23 45.77 102.23 102.23S516.56 304.2 460.1 304.2z"/><path opacity=".1" d="M388.29 227.4c-56.46 0-102.23-45.77-102.23-102.23S331.83 22.94 388.29 22.94s102.23 45.77 102.23 102.23S444.75 227.4 388.29 227.4z"/><path opacity=".1" d="M521.94 312.18c-56.46 0-102.23-45.77-102.23-102.23s45.77-102.23 102.23-102.23 102.23 45.77 102.23 102.23-45.77 102.23-102.23 102.23z"/></g><path d="M467.46 554.67S530 502.13 499 427.34l-30.92-11.58-33.52 103.29 32.9 35.62z" fill="#67647E"/><path opacity=".1" d="M470.79 412.2l7.4 2.77-32.94 101.41L474 547.5c-2.38 2.37-3.86 3.61-3.86 3.61l-32.9-35.62 33.55-103.29z" fill="#000"/><path d="M387.93 781.1c-180.084 0-326.07-41.709-326.07-93.16 0-51.451 145.986-93.16 326.07-93.16 180.083 0 326.07 41.709 326.07 93.16 0 51.451-145.987 93.16-326.07 93.16z" fill="#F7F8EB"/><path d="M585.84 543.65s-20.33 20.33-8.85 50.5c11.48 30.17-19.67 80.33-19.67 80.33l1-.16c41.75-7.37 62.5-55.12 39.28-90.6-8.69-13.17-15.77-28.65-11.76-40.07z" fill="#B1B834"/><path d="M585.84 543.65s-11.48 24.92 0 45.25 2 77.38-28.53 85.58" stroke="#535461" stroke-miterlimit="10"/><path d="M622 625.88s-23.2-3.69-25.31 17.1c-2.11 20.79-44.61 23.67-44.61 23.67l.8.53c35.09 23 68.63 14.67 63.57-15.91-1.84-11.37-1.68-22.79 5.55-25.39z" fill="#B1B834"/><path opacity=".2" d="M622 625.88s-23.2-3.69-25.31 17.1c-2.11 20.79-44.61 23.67-44.61 23.67l.8.53c35.09 23 68.63 14.67 63.57-15.91-1.84-11.37-1.68-22.79 5.55-25.39z" fill="#F5F5F5"/><path d="M622 625.88s-18 4-16.53 20.33c1.47 16.33-26.74 36-53.39 20.44" stroke="#535461" stroke-miterlimit="10"/><path d="M185.19 445.26l8.12 32.5s57.37 7.48 95.62 2.78a49.71 49.71 0 0019.07-6.88c3.23-1.91 8.33-2.74 15.3 2.48 11.94 9 70.54 81 61.05 155.7a25.83 25.83 0 01-7.315 14.878 25.827 25.827 0 01-14.855 7.362 77.85 77.85 0 00-32.67 12.36l-29 19.31 297.35-6.5L567 641.87s-21.12-17.87-37.37-19.5c-4.74-.47-8.65-4.82-11.81-10.73-18.51-34.65-40.65-67.23-64.65-98.34-17.48-22.66-32.15-46.54-30.78-61.54 3.25-35.75 0-94.24 0-94.24l-61.74-8.12s8.12 78-66.62 97.49c-74.74 19.49-108.84-1.63-108.84-1.63z" fill="#67647E"/><path opacity=".1" d="M235.56 459.89s34.13 21.12 108.87 1.66c74.74-19.46 66.57-97.53 66.57-97.53l11.81 1.53c-.22-5-.39-8-.39-8l-61.74-8.12s8.12 78-66.62 97.49c-74.74 19.49-108.87-1.62-108.87-1.62l8.12 32.5s21.92 2.86 47.7 3.93l-5.45-21.84zm144.33 221.17a77.864 77.864 0 0132.67-12.36 25.779 25.779 0 0022.16-22.15c9.54-74.7-49.09-146.83-61-155.79-13-9.75-19.5 1.62-19.5 1.62a104.391 104.391 0 01-14 2.67c21.06 28 51.19 81.71 44.14 136.87a25.779 25.779 0 01-22.16 22.15 77.864 77.864 0 00-32.67 12.36l-29 19.31 74.76-1.63 4.6-3.05z" fill="#000"/><path d="M226.87 682.73s-12.35-41.93 2.32-72.8a66.235 66.235 0 005.36-41.55 111.393 111.393 0 00-5.88-19.5" stroke="#535461" stroke-width="2" stroke-miterlimit="10"/><path d="M237.78 529.37c0 5.14-9.31 20-9.31 20s-9.31-14.9-9.31-20a9.31 9.31 0 0118.61 0h.01zm15.39 28.47c-2.79 4.31-18.7 11.77-18.7 11.77s.29-17.57 3.08-21.88a9.309 9.309 0 0116.681 3.231 9.31 9.31 0 01-1.061 6.879zm-.68 48.65c-4.59 2.31-22.09.72-22.09.72s9.12-15 13.71-17.33a9.308 9.308 0 118.38 16.62v-.01zm-8.79 36.69c-4.13 3.06-21.65 4.44-21.65 4.44s6.45-16.34 10.58-19.4a9.324 9.324 0 0113.035 1.965 9.312 9.312 0 011.717 6.925 9.306 9.306 0 01-3.682 6.11v-.04zm-28.78-72.58c3.69 3.58 20.86 7.29 20.86 7.29s-4.21-17.06-7.89-20.64a9.315 9.315 0 00-15.816 6.799 9.32 9.32 0 002.816 6.551h.03zm-9.74 43.04c4.59 2.31 22.09.72 22.09.72s-9.12-15-13.71-17.33a9.307 9.307 0 00-12.845 11.218 9.314 9.314 0 004.465 5.402v-.01zm-3.73 43.14c4.13 3.06 21.65 4.44 21.65 4.44s-6.45-16.34-10.58-19.4a9.318 9.318 0 00-13.035 1.965 9.318 9.318 0 001.965 13.035v-.04z" fill="#B1B834"/><path d="M200 678.65s22.57-4.51 28.59-10.53 33.1-16.55 36.11-9c3.01 7.55 40.62 33.1 15 37.62-25.62 4.52-60.18 6-67.71 3-7.53-3-11.99-21.09-11.99-21.09z" fill="#A8A8A8"/><path opacity=".2" d="M279.74 693.91c-25.58 4.51-60.18 6-67.71 3-5.73-2.29-9.71-13.3-11.28-18.43l-.75.16s4.51 18.06 12 21.06 42.13 1.5 67.71-3c7.38-1.3 9.49-4.36 8.7-8.24-.6 2.54-3.17 4.49-8.67 5.45z" fill="#000"/><path d="M409.62 672.01s34.43-6.89 43.62-16.07c9.19-9.18 50.5-25.25 55.09-13.77 4.59 11.48 62 50.5 23 57.39-39 6.89-91.82 9.18-103.3 4.59-11.48-4.59-18.41-32.14-18.41-32.14z" fill="#A8A8A8"/><path opacity=".2" d="M531.28 695.29c-39 6.89-91.82 9.18-103.3 4.59-8.74-3.5-14.82-20.3-17.22-28.11l-1.15.24s6.89 27.54 18.39 32.14c11.5 4.6 64.28 2.3 103.3-4.59 11.27-2 14.49-6.66 13.27-12.56-.98 3.85-4.9 6.82-13.29 8.29z" fill="#000"/><path d="M642.66 476.35a21.83 21.83 0 01-3.71 11.51 21.818 21.818 0 01-3.77-11.49c0-6.35 1.64-11.5 3.71-11.51 2.07-.01 3.75 5.14 3.77 11.49zm-282.29-5.58a21.818 21.818 0 01-3.74 11.5 21.818 21.818 0 01-3.74-11.5c0-6.35 1.67-11.5 3.74-11.5 2.07 0 3.74 5.15 3.74 11.5zM668 584.09a21.818 21.818 0 013.74 11.5 21.818 21.818 0 01-9.79-7.1c-3.74-5.14-5.41-10.29-3.74-11.5 1.67-1.21 6.08 1.97 9.79 7.1zm-119.44-60.21a21.821 21.821 0 01-3.74 11.5 21.821 21.821 0 01-3.74-11.5c0-6.35 1.67-11.5 3.74-11.5 2.07 0 3.74 5.17 3.74 11.5zm-69.87-38.2a21.818 21.818 0 01-3.74 11.5 21.818 21.818 0 01-3.74-11.5c0-6.35 1.67-11.5 3.74-11.5 2.07 0 3.74 5.15 3.74 11.5zm-43.35 23.29a21.815 21.815 0 012.47 11.84 21.812 21.812 0 01-9-8.12c-3.16-5.51-4.26-10.81-2.47-11.84 1.79-1.03 5.84 2.61 9 8.12zm-340.05 7.46a21.819 21.819 0 012.47 11.84 21.82 21.82 0 01-9-8.12c-3.16-5.51-4.26-10.81-2.47-11.84 1.79-1.03 5.85 2.6 9 8.12zm152.79 160.24a21.824 21.824 0 012.47 11.88 21.82 21.82 0 01-9-8.12c-3.16-5.51-4.26-10.81-2.47-11.84 1.79-1.03 5.84 2.57 9 8.08zm154.87-62.06a21.823 21.823 0 01-10.95 5.13 21.814 21.814 0 015.83-10.59c4.63-4.34 9.54-6.64 10.95-5.14 1.41 1.5-1.2 6.26-5.83 10.6z" fill="#B1B834"/><path opacity=".1" d="M402.95 614.61a21.823 21.823 0 01-10.95 5.13 21.814 21.814 0 015.83-10.59c4.63-4.34 9.54-6.64 10.95-5.14 1.41 1.5-1.2 6.26-5.83 10.6z" fill="#000"/><path d="M471 608.09a21.818 21.818 0 01-11 5.13 21.814 21.814 0 015.83-10.59c4.63-4.34 9.54-6.64 10.95-5.14 1.41 1.5-1.19 6.25-5.78 10.6z" fill="#B1B834"/><path opacity=".1" d="M471 608.09a21.818 21.818 0 01-11 5.13 21.814 21.814 0 015.83-10.59c4.63-4.34 9.54-6.64 10.95-5.14 1.41 1.5-1.19 6.25-5.78 10.6z" fill="#000"/><path d="M484 677.03a21.818 21.818 0 01-11 5.13 21.823 21.823 0 015.88-10.61c4.63-4.34 9.54-6.64 10.95-5.14 1.41 1.5-1.2 6.27-5.83 10.62z" fill="#B1B834"/><path opacity=".1" d="M484 677.03a21.818 21.818 0 01-11 5.13 21.823 21.823 0 015.88-10.61c4.63-4.34 9.54-6.64 10.95-5.14 1.41 1.5-1.2 6.27-5.83 10.62z" fill="#000"/><path d="M350.77 628.55a21.822 21.822 0 01-10.95 5.14 21.823 21.823 0 015.83-10.59c4.63-4.34 9.54-6.64 10.95-5.14 1.41 1.5-1.19 6.28-5.83 10.59z" fill="#B1B834"/><path opacity=".1" d="M350.77 628.55a21.822 21.822 0 01-10.95 5.14 21.823 21.823 0 015.83-10.59c4.63-4.34 9.54-6.64 10.95-5.14 1.41 1.5-1.19 6.28-5.83 10.59z" fill="#000"/><path d="M165.66 556.48a21.818 21.818 0 01-3.74 11.5 21.818 21.818 0 01-3.74-11.5c0-6.35 1.67-11.5 3.74-11.5 2.07 0 3.74 5.15 3.74 11.5zm119.9 39.5a21.822 21.822 0 01-10.95 5.14 21.817 21.817 0 015.83-10.57c4.63-4.34 9.54-6.64 10.95-5.14 1.41 1.5-1.2 6.22-5.83 10.57z" fill="#B1B834"/><path opacity=".1" d="M285.56 595.98a21.822 21.822 0 01-10.95 5.14 21.817 21.817 0 015.83-10.57c4.63-4.34 9.54-6.64 10.95-5.14 1.41 1.5-1.2 6.22-5.83 10.57z" fill="#000"/><path d="M273.28 520.25c-3.54 3.32-9 3.28-9 3.28s.31-5.42 3.85-8.74c3.54-3.32 7.55-4.78 9-3.28 1.45 1.5-.31 5.43-3.85 8.74z" fill="#B1B834"/><path opacity=".1" d="M273.28 520.25c-3.54 3.32-9 3.28-9 3.28s.31-5.42 3.85-8.74c3.54-3.32 7.55-4.78 9-3.28 1.45 1.5-.31 5.43-3.85 8.74z" fill="#000"/><path d="M159.79 640.69a21.822 21.822 0 01-10.95 5.14 21.823 21.823 0 015.83-10.59c4.63-4.34 9.54-6.64 10.95-5.14 1.41 1.5-1.2 6.25-5.83 10.59z" fill="#B1B834"/><path opacity=".1" d="M159.79 640.69a21.822 21.822 0 01-10.95 5.14 21.823 21.823 0 015.83-10.59c4.63-4.34 9.54-6.64 10.95-5.14 1.41 1.5-1.2 6.25-5.83 10.59z" fill="#000"/><path d="M560.67 677.07c-2.36-.78-5.87-1.68-8.67-1.36-2.64-1-8.87-3.48-13.11-7.21a94.62 94.62 0 00-.28-11.08c-2.17-24.71 2.71-41 2.71-41s3.84-12.42 3.42-22.73c.25.47.39.74.39.74.34-8.89 3.37-18.1 5.64-23.83l.23-.05 2.59-6c.203-.35.364-.723.48-1.11l.41-1-.12-.05.12-.49c1.62-6.85 2.86-23.11 2.86-23.11 4.34-17.1-6-27.69-6-27.69l-17.51-15.07c.086.194.143.4.17.61l-.15-.13c-.25-.71-.52-1.56-.78-2.53.625-.442 1.21-.937 1.75-1.48a13.436 13.436 0 003.92-7c.341-2.099.428-4.231.26-6.35l-.29-7.27a23.035 23.035 0 00-.43-4.24c-1.32-5.78-7.23-9.81-13.16-10.06a48.038 48.038 0 00-5.65.3 38.004 38.004 0 01-4.59.1.832.832 0 01-.49-.13.721.721 0 01-.22-.5 2.5 2.5 0 01.61-1.87c.23-.204.499-.36.79-.46l-.42.1a2.3 2.3 0 01.69-.37 13.432 13.432 0 00-4.37 1.58 5.659 5.659 0 00-1 .86 4.446 4.446 0 00-1.47 2.75 5.098 5.098 0 01-1.56-2.3 2.332 2.332 0 010-1.12l-.3.39v-.12a11.644 11.644 0 00-2.28 4.69 1.828 1.828 0 01-.41-1.35c-.09.27-.17.54-.24.81a1.879 1.879 0 010-.54 18.572 18.572 0 00-.91 6.45c0 2.18 1 5.57 3.3 6.34l.37.1a14.643 14.643 0 00-1.086 13.85 14.644 14.644 0 0010.966 8.53c.04.267.077.543.11.83h.09c.06.59.11 1.21.15 1.86a12.443 12.443 0 01-1.92 1.55 15.878 15.878 0 01-6.41 2.12 19.092 19.092 0 00-7.71 2.29c-2.79 1.56-5.88 3.84-6.85 6.61-1.62 4.62-10.5 11.79-16.46 12.66l-2.12-.12h-1.38s-.05.25-.13.68c-3-1-9.37-3.89-17.66-11.41-9.24-8.38-21.7-6.73-26.5-5.67a.82.82 0 00-.22 1.52c1.94 1.07 5 2.62 6.36 2.79 0 0-2.91 3 .18 4.62a2.231 2.231 0 002.33-.23c1.49-1.09 5.62 1.38 11.61 2.66 0 0 16.9 17.49 25.29 20.2.194.381.407.752.64 1.11h.59l.06.55s13-.69 17.28-5.42a6.84 6.84 0 00.83-.88l-4.53 57.07v.54h3.34c.29 7.013-.008 14.037-.89 21v37.19s-.17 3.28 6.63 8a254.218 254.218 0 0120.59 16l.85.76c-1.25 11.38-3.87 32.59-6 33.39l1.35.24c-2.32 2.92-8.85 10.94-10.85 11.17-2.44.27-4.07 4.07 0 4.89a45.655 45.655 0 0024.19-2.39 3.691 3.691 0 002.32-3.93l-.79-6a.84.84 0 01.35.37c.54 1.63 0-2.17 0-2.17a169.839 169.839 0 005.25-21.91l8.05 7 .44-.56c2 4.49 5.51 13.66 4.71 20.38-1.09 9.23 9.23 1.09 8.14-4.34-.88-4.39 3-23 4.57-30a3.088 3.088 0 00-2.06-3.62z" fill="url(#paint0_linear)"/><path d="M476.37 526.46s-7.69-1.33-19.09-11.66c-9-8.18-21.19-6.57-25.88-5.54a.801.801 0 00-.22 1.49c1.89 1 4.84 2.55 6.21 2.73 0 0-2.84 2.94.18 4.51a2.165 2.165 0 002.27-.22c1.45-1.06 5.49 1.35 11.33 2.6 0 0 22.8 23.59 28.1 19.62l-2.9-13.53zm39.23-32.08s2.12 9 0 15.38l9.54 1.33 8.48-4.24v-5.57a38.222 38.222 0 01-2.92-18.29l-15.1 11.39z" fill="#FEC3BE"/><path d="M542.64 689.76s6.89 13.52 5.83 22.53c-1.06 9.01 9 1.06 8-4.24-.86-4.29 3-22.46 4.46-29.24a3.002 3.002 0 00-2-3.52c-3.19-1-8.52-2.34-11.2-.37-4.03 2.91-5.09 14.84-5.09 14.84zM516.4 704.6s-9 11.66-11.4 11.93c-2.4.27-4 4 0 4.77a44.578 44.578 0 0023.62-2.33 3.608 3.608 0 002.27-3.84l-1.5-11.33-12.99.8z" fill="#8B416F"/><path d="M501.55 580.8l-8.65 1.15a126.524 126.524 0 01-.1 30.39v36.32s-.17 3.2 6.47 7.85a247.872 247.872 0 0120.1 15.58l24.06 20.84s9.54-11.66 8.22-18.56c0 0-15.91-5-18-13.25-1.21-4.71-7.38-8.63-12.43-11.12a15.462 15.462 0 01-8.27-17.55c.293-1.193.747-2.34 1.35-3.41 4.24-7.42 10.34-24.12 10.34-24.12L513 582.66l-11.45-1.86z" fill="#4D4981"/><path opacity=".05" d="M501.55 580.8l-8.65 1.15a126.524 126.524 0 01-.1 30.39v36.32s-.17 3.2 6.47 7.85a247.872 247.872 0 0120.1 15.58l24.06 20.84s9.54-11.66 8.22-18.56c0 0-15.91-5-18-13.25-1.21-4.71-7.38-8.63-12.43-11.12a15.462 15.462 0 01-8.27-17.55c.293-1.193.747-2.34 1.35-3.41 4.24-7.42 10.34-24.12 10.34-24.12L513 582.66l-11.45-1.86z" fill="#000"/><path d="M514.28 705.4s15.64 2.65 16.17 4.24c.53 1.59 0-2.12 0-2.12s9-27.3 6.89-51.43c-2.11-24.13 2.65-40 2.65-40s5.57-18 2.39-28.36-36.58-5.83-36.58-5.83 11.66 27.3 11.4 40.29c0 0 1.33 39.23 3.71 43.74-.01-.03-3.72 38.41-6.63 39.47z" fill="#4D4981"/><path d="M516.13 501.28s1.59 9.81 17.5 5.57L523 587.43s-30.75 1.06-30.49-2.65l6.36-48.78 17.26-34.72z" fill="#fff"/><path opacity=".1" d="M516.53 500.75a12.92 12.92 0 01-7.66 3.64 18.635 18.635 0 00-7.53 2.24c-2.73 1.53-5.74 3.75-6.69 6.45-1.86 5.3-13.52 14-18.82 12.19l1.86 15.91s15.11-.8 17.76-6.63l-4.51 56.73h4s2.12-15.38 3.71-18.56c1.59-3.18 4.77-20.68 5-24.92.23-4.24 4.24-28.63 7.69-32.87l5.17-12.59.02-1.59z" fill="#000"/><path opacity=".1" d="M516.53 501.55a16.414 16.414 0 01-8.19 3.37 18.62 18.62 0 00-7.53 2.24c-2.73 1.53-5.74 3.75-6.69 6.45-1.86 5.3-13.52 14-18.82 12.19l1.86 15.91s15.11-.8 17.76-6.63l-4.51 56.73h4s2.12-15.38 3.71-18.56c1.59-3.18 4.77-20.68 5-24.92.23-4.24 4.24-28.63 7.69-32.87l5.7-12.33.02-1.58z" fill="#000"/><path d="M516.53 501.01a16.423 16.423 0 01-8.19 3.37 18.62 18.62 0 00-7.53 2.24c-2.73 1.53-5.74 3.75-6.69 6.45-1.86 5.3-13.52 14-18.82 12.19l1.86 15.91s15.11-.8 17.76-6.63l-4.51 56.73h4s2.12-15.38 3.71-18.56c1.59-3.18 4.77-20.68 5-24.92.23-4.24 4.24-28.63 7.69-32.87l5.7-12.33.02-1.58z" fill="#FD6F8D"/><path opacity=".1" d="M530 490.8c-.35-2.51.34-4.08.66-7l-15.11 11.4s.36 1.54.64 3.79c.754.12 1.516.18 2.28.18 5.32-.02 9.09-4.12 11.53-8.37z" fill="#000"/><path d="M518.52 498.36c-7.903 0-14.31-6.407-14.31-14.31 0-7.903 6.407-14.31 14.31-14.31 7.903 0 14.31 6.407 14.31 14.31 0 7.903-6.407 14.31-14.31 14.31z" fill="#FEC3BE"/><path opacity=".1" d="M502.89 470.01a18.114 18.114 0 011.16-7.08 1.772 1.772 0 00.3 2.29 11.337 11.337 0 013.6-6.37 2 2 0 00-1.29 2.43c.344.98.958 1.843 1.77 2.49a4.445 4.445 0 012.18-3.76 13.104 13.104 0 014.26-1.55 2.47 2.47 0 00-1.64 2.54c.004.184.079.36.21.49.142.093.31.138.48.13 1.494.057 2.99.024 4.48-.1a46.915 46.915 0 015.52-.29c5.79.24 11.56 4.18 12.85 9.83.267 1.364.408 2.75.42 4.14l.28 7.09a25.947 25.947 0 01-.25 6.2 13.148 13.148 0 01-6.75 8.92c-2.08-3-2.26-6.89-3-10.48a5.302 5.302 0 00-.9-2.32 1.999 1.999 0 00-2.22-.75 1.278 1.278 0 00-.744.88 1.272 1.272 0 00.274 1.12c-.56.68-1.66.17-2.29-.43a12.381 12.381 0 01-3.59-6.38c-.26-1.24-.52-2.76-1.71-3.17a3.215 3.215 0 00-1.28-.09c-2.52.17-6.47 1.22-8.92.42-2.25-.75-3.2-4.07-3.2-6.2z" fill="#000"/><path d="M503.16 469.75a18.117 18.117 0 011.16-7.08 1.775 1.775 0 00.3 2.29 11.337 11.337 0 013.6-6.37 2 2 0 00-1.29 2.43 5.534 5.534 0 001.77 2.53 4.453 4.453 0 01.598-2.165 4.453 4.453 0 011.582-1.595 13.104 13.104 0 014.26-1.55 2.47 2.47 0 00-1.64 2.54.71.71 0 00.21.49c.142.093.31.138.48.13 1.494.057 2.99.024 4.48-.1a47.132 47.132 0 015.52-.29c5.79.24 11.56 4.18 12.85 9.83.267 1.364.408 2.75.42 4.14l.28 7.09a25.947 25.947 0 01-.25 6.2 13.142 13.142 0 01-6.75 8.92c-2.08-3-2.26-6.89-3-10.48a5.302 5.302 0 00-.9-2.32 2.004 2.004 0 00-2.22-.75 1.278 1.278 0 00-.744.881 1.274 1.274 0 00.274 1.119c-.56.68-1.66.17-2.29-.43a12.38 12.38 0 01-3.59-6.41c-.26-1.24-.52-2.76-1.71-3.17a3.234 3.234 0 00-1.28-.09c-2.52.17-6.47 1.22-8.92.42-2.26-.77-3.2-4.08-3.2-6.21z" fill="#784F69"/><path opacity=".1" d="M474.64 525.27s-2.12 9.81 1.86 15.91l2.25-.18-1.23-15.55-2.88-.18z" fill="#000"/><path d="M475.17 525.27s-2.12 9.81 1.86 15.91l2.25-.18-1.23-15.55-2.88-.18z" fill="#FD6F8D"/><path opacity=".1" d="M532.17 498.49l17.1 14.71s10.07 10.34 5.83 27c0 0-1.86 24.39-4 25.45 0 0-7.42 14.85-8 28.89 0 0-9.94-20-14.45-7.82s-15 13.92-15 13.92l5.93-72.09s14.71-25.55 12.59-30.06z" fill="#000"/><path d="M532.7 498.49l17.1 14.71s10.07 10.34 5.83 27c0 0-1.86 24.39-4 25.45 0 0-7.42 14.85-8 28.89 0 0-10.47-21.07-15-8.88-4.53 12.19-14.45 15-14.45 15l5.93-72.11s14.71-25.55 12.59-30.06z" fill="#FD6F8D"/><path d="M540.52 560.66s4.24-2.92 11.13 5l-17 30.75-5.7-8.62s12.1-23.69 11.57-27.13z" fill="#FEC3BE"/><path opacity=".1" d="M536.41 562.38s9.38 10.54 13 8.85l3.39-7.89-12.72-5.46-3.67 4.5z" fill="#000"/><path d="M536.41 561.85s9.38 10.54 13 8.85l3.39-7.89-12.72-5.46-3.67 4.5z" fill="#FD6F8D"/><path opacity=".1" d="M529.56 585.83s4.46 9.15 6.85 9.68l-3.45 4-5-9.54 1.6-4.14z" fill="#000"/><path d="M529.3 586.1s4.46 9.15 6.85 9.68l-3.45 4-5-9.54 1.6-4.14z" fill="#4D4981"/><path opacity=".1" d="M537.74 529.55s.53 19.09-1.59 26.24l1.59-26.24zm-42.95 3.67s3.21-1.06 3.21-3.67l-3.21 3.67z" fill="#000"/><path d="M390.52 564.32c-1.2 3.17-4.38 5.22-6.14 8.14a79.49 79.49 0 011 13.52 78.47 78.47 0 01-1.46 14.72l-2 10.07a3.85 3.85 0 01-.73 2.35 33.686 33.686 0 003.21 8.36c7.45 13.82 3.19 31.45 2.13 33.52a1.13 1.13 0 01-.49.51 4.85 4.85 0 01-.22.52c-.9 1.76-3.6-1-7.23 3.91a25.107 25.107 0 00-1.28 2.31c-.248.495-.55.962-.9 1.39-5 8.86-30.38 9.72-46.87-10.06-.79.396-1.537.872-2.23 1.42 3.9 8.29-5 28.68-9.22 39.74a28.35 28.35 0 00-1.83 6.42c3.39.94 5.37 7.75 5.37 7.75l-.05.52.05.17-1.42 14.51h-2.84l-.71-9.33-7.45 14.17s-5 .63-10.28.73v4.45l-2.13-.35s0-.25.08-.68h-.08s.21-1.52.28-3.4a28.447 28.447 0 01-7.55-.83 72.954 72.954 0 00-3.37 7c-8.51 3.11-17.38-1.38-18.08-1.73-.12-.06.06-.23.44-.48l-.44-.21c-.71-.35 8.91-4.65 8.91-4.65h.2c.5-2.233.774-4.511.82-6.8a25.624 25.624 0 013.55-11.75s13.12-47.34 14.54-49.07l.15-.21.05-.09.11-.19.06-.12.11-.21.07-.14.11-.24.07-.15.17-.28.06-.14.18-.46.19-.51.06-.18.13-.36.07-.22.12-.35.08-.23.12-.37.07-.23.13-.4.06-.2.18-.59.19-.61.06-.2.12-.42.07-.23.11-.37.07-.24.1-.36v-.15c.539-2 .831-4.059.87-6.13v-.95c0-.07.05-.24.08-.36v-.17c.101-.367.224-.728.37-1.08l.08-.18.16-.36.11-.21.17-.33.09-.17c-.253.327-.5.66-.74 1a28.888 28.888 0 013.54-7c1.42-2.23 3.3-4.23 5.51-4.23a20.269 20.269 0 005.38-1.25c3-2.94 7-6.35 7-6.35l5.52-6.55h-.2l.39-.66h-.39l7.33-12.43a71.674 71.674 0 01-.34-14.73 12.624 12.624 0 01-4.44-9.59c0-2.56.87-5.11.57-7.65-.3-2.54-1.62-4.65-2.33-7a14.481 14.481 0 010-8.21c.71-2.44 2.07-4.69 2.67-7.16.417-2.136.548-4.319.39-6.49l-.27-9.57a18.813 18.813 0 01.48-6 12.886 12.886 0 013.66-5.5 27.075 27.075 0 013.26-2.72 35.776 35.776 0 0114.09-6.39 23.39 23.39 0 0115.23 2c5.58 3 9.32 8.47 11.58 14.26 2.26 5.79 3.31 12.3 6.28 17.92 1.35 2.56 3.1 4.92 4.3 7.56 1.2 2.64 1.98 5.57.95 8.27zM351 585l.3-.07.12-.45-.42.52zm-20.92 39.46c1.79-1 3.55-2.08 5.2-3.2a4.722 4.722 0 00-.65-.63c-1.25 1.01-2.93 2.4-4.56 3.83h.01zm-35.61 86.66l.12-.32c2.3-.39 3.42 1 4 2.72a131.82 131.82 0 015.38-12.55c3.19-5.87 4.61-18.66 4.61-18.66v-.77c-4.08 7.5-10 18.18-12.41 21.85-2.29 3.37-2.17 6.05-1.71 7.73h.01z" fill="url(#paint1_linear)"/><path d="M358.63 621.99h-23.27v-27.65h23.27v27.65z" fill="#FD6F8D"/><path opacity=".1" d="M358.63 621.99h-23.27v-27.65h23.27v27.65z" fill="#000"/><path d="M330.13 615.41l-7.76 9.44s-14.58 12.85-8.43 9.78c2-1 9.1-3 12.14-6.41 3.201-3.22 6.58-6.258 10.12-9.1l-6.07-3.71z" fill="#FEC3BE"/><path opacity=".1" d="M336.54 602.55l-9.1 15.85s6.74.34 8.09 3.71c1.35 3.37 4.72-9.78 4.72-9.78l-3.71-9.78z" fill="#000"/><path d="M336.54 601.92l-9.1 15.85s6.74.34 8.09 3.71c1.35 3.37 4.72-9.78 4.72-9.78l-3.71-9.78z" fill="#FD6F8D"/><path opacity=".05" d="M336.54 601.92l-9.1 15.85s6.74.34 8.09 3.71c1.35 3.37 4.72-9.78 4.72-9.78l-3.71-9.78z" fill="#000"/><path d="M352.16 522.64a9.987 9.987 0 00-2.65 1.54l-3.77 2.74c-2 1.48-4.14 3-5.27 5.29-1.49 3-1 6.56 0 9.74 1 3.18 2.33 6.32 2.45 9.65.08 2.07-.34 4.19.13 6.21a9.689 9.689 0 003.94 5.48 25.977 25.977 0 006.18 3c3.36 1.26 6.83 2.46 10.47 2.26a14.447 14.447 0 0011.82-7.63 3.082 3.082 0 00.45-1.56 4.597 4.597 0 00-.89-1.95c-1.7-2.86-1.16-6.45-.67-9.73.64-4.33 1.08-8.8.06-13.05-.91-3.76-3.47-8.35-7.28-9.85a35.155 35.155 0 00-6.09-1.37c-2.7-.53-6.17-1.66-8.88-.77z" fill="#784F69"/><path opacity=".1" d="M352.16 522.64a9.987 9.987 0 00-2.65 1.54l-3.77 2.74c-2 1.48-4.14 3-5.27 5.29-1.49 3-1 6.56 0 9.74 1 3.18 2.33 6.32 2.45 9.65.08 2.07-.34 4.19.13 6.21a9.689 9.689 0 003.94 5.48 25.977 25.977 0 006.18 3c3.36 1.26 6.83 2.46 10.47 2.26a14.447 14.447 0 0011.82-7.63 3.082 3.082 0 00.45-1.56 4.597 4.597 0 00-.89-1.95c-1.7-2.86-1.16-6.45-.67-9.73.64-4.33 1.08-8.8.06-13.05-.91-3.76-3.47-8.35-7.28-9.85a35.155 35.155 0 00-6.09-1.37c-2.7-.53-6.17-1.66-8.88-.77z" fill="#000"/><path d="M309.22 634.63s-9.44 7.76-7.42 13.15c0 0-2.7 10.79-4 12.48-1.3 1.69-13.82 47.88-13.82 47.88a25.436 25.436 0 00-3.42 11.41c-.34 6.74-1 10.79-5.39 10.12h9.78l7.05-5.02 4-9.1 1-4.72s-3-3.71.67-9.44c3.67-5.73 15.85-29 15.85-29l6.74-21.92 5.39-9.1-16.43-6.74z" fill="#FEC3BE"/><path opacity=".05" d="M309.22 634.63s-7.53 6.18-7.7 11.35a25.383 25.383 0 01-.83 6c-.9 3.23-2.15 7.31-2.93 8.29-1.35 1.69-13.82 47.88-13.82 47.88a25.437 25.437 0 00-3.38 11.4c-.34 6.74-1 10.79-5.39 10.12h9.78l7.05-5.02 4-9.1 1-4.72s-3-3.71.67-9.44c3.67-5.73 15.85-29 15.85-29l6.74-21.92 5.39-9.1-16.43-6.74z" fill="#000"/><path d="M286.3 726s-3.61 1.72-6.7.86c0 0-9.15 4.2-8.48 4.54.67.34 9.1 4.72 17.2 1.69 0 0 5.15-12.92 8.31-12.36 3.16.56 1.81 10.34 1.81 10.34l2 .34v-14.86s.79-8.13-4.16-7.27c.02.01-5.94 17.06-9.98 16.72z" fill="#4D4981"/><path opacity=".05" d="M286.3 725.33s-3.61 1.72-6.7.86c0 0-9.15 4.2-8.48 4.54.67.34 9.1 4.72 17.2 1.69 0 0 5.15-12.92 8.31-12.36 3.16.56 1.81 10.34 1.81 10.34l2 .34v-14.85s.79-8.13-4.16-7.27c.02 0-5.94 17.05-9.98 16.71z" fill="#000"/><path opacity=".05" d="M309.22 718.55s-4.38 4.72-13.15 0c0 0-10.12 5.23-4.55 7 5.57 1.77 18.71.08 18.71.08l7.08-13.82.67 9.1h2.7l1.32-14.13s-1.91-6.74-5.17-7.58c.04 0-2.21 18.04-7.61 19.35z" fill="#000"/><path opacity=".05" d="M286.3 726s-3.61 1.72-6.7.86c0 0-9.15 4.2-8.48 4.54.67.34 9.1 4.72 17.2 1.69 0 0 5.15-12.92 8.31-12.36 3.16.56 1.81 10.34 1.81 10.34l2 .34v-14.86s.79-8.13-4.16-7.27c.02.01-5.94 17.06-9.98 16.72z" fill="#000"/><path d="M320.69 632.94s-9.1-3-10.12 11.13c-1.02 14.13-1 36.75-1 36.75s-1.35 12.48-4.38 18.21-9.1 23.27-9.1 23.27 12.14 4 15.85-3.37a125.523 125.523 0 006.41-15.51c.34-1-3.71.34.34-10.45s12.48-30.68 8.77-38.78c0 0 5.06-4.38 10.45-2s-17.22-19.25-17.22-19.25z" fill="#FEC3BE"/><path d="M309.22 719.26s-4.38 4.72-13.15 0c0 0-10.12 5.23-4.55 7 5.57 1.77 18.71.08 18.71.08l7.09-13.79.67 9.1h2.7l1.31-14.19s-1.91-6.74-5.17-7.58c.04-.01-2.21 18.03-7.61 19.38z" fill="#4D4981"/><path d="M346.65 542.91s6.41 14.84 3.71 21.92c-2.7 7.08-10.12 18.21-10.12 18.21s3.76 11.8 10.76 1.35c7-10.45 12.81-28 12.81-28s-1.69-2 0-7.76l-17.16-5.72z" fill="#FEC3BE"/><path opacity=".1" d="M337.88 581.35s2.62 11.78 19.46 2.14l.78-.45c17.53-10.49 20.88 15.84 20.88 15.84s-5.06 10.12 2 23.6c7.06 13.48 3 30.68 2 32.71-1 2.03-4.38-2-8.77 7.08s-29.67 10.12-45.52-10.45c-15.85-20.57-22.09-15.34-26.81-8.6 0 0 3.2-9.95 7.92-9.95s25.63-9.1 32.37-18.21a17.309 17.309 0 00-1-12.14c-2.97-6.06-6.68-21.23-3.31-21.57z" fill="#000"/><path d="M338.56 580.34s2.62 11.78 19.46 2.14l.78-.45c17.52-10.48 20.9 15.84 20.9 15.84s-5.06 10.12 2 23.6c7.06 13.48 3 30.68 2 32.71-1 2.03-4.38-2-8.77 7.08s-29.67 10.12-45.52-10.45c-15.85-20.57-22.09-15.34-26.81-8.6 0 0 3.2-9.95 7.92-9.95s25.63-9.1 32.37-18.21a17.309 17.309 0 00-1-12.14c-2.99-6.06-6.7-21.23-3.33-21.57z" fill="#4D4981"/><path opacity=".1" d="M363 555.92s-1.52-2.22-5.9 8.91a180.802 180.802 0 00-8.09 26c-1 4.72-2 26 0 29s21.24-1.35 23.94-4.72c2.7-3.37 2.7-28.66 2.7-28.66L363 555.92z" fill="#000"/><path d="M363.34 555.25s-1.52-2.22-5.9 8.91a180.802 180.802 0 00-8.09 26c-1 4.72-2 26 0 29s21.24-1.35 23.94-4.72c2.7-3.37 2.7-28.66 2.7-28.66l-12.65-30.53zm-12.47 5.03a6.483 6.483 0 00-5.577-.203 6.49 6.49 0 00-3.673 4.203c-1.86 6.45-4.48 15.27-6.09 19.48-2.7 7.08-1.69 23.94 0 26.3 1.69 2.36 3 10.45 3 10.45s3-2 2.7-16.52c-.3-14.52 16.19-40.22 9.61-43.67l.03-.04z" fill="#FD6F8D"/><path d="M362.16 612.71l-21.92 10.45s-20.23 7.76-9.78 10.79c10.45 3.03 19.23-6.4 19.23-6.4l19.56-7.42-7.09-7.42z" fill="#FEC3BE"/><path opacity=".1" d="M379.36 563.82l.25.91a79.416 79.416 0 011.62 36.47l-1.88 9.83s.34 2.36-3.37 5.06a42.58 42.58 0 00-7.42 7.76s-4.38-7.08-9.78-9.78c0 0 5.39-3.71 7.42-6.07 2.03-2.36.67-28 .67-28s9.79-25.96 12.49-16.18z" fill="#000"/><path d="M363.34 555.22s13.32-1.85 16 7.92l.25.91a79.425 79.425 0 011.65 36.5l-1.88 9.83s.34 2.36-3.37 5.06a42.58 42.58 0 00-7.42 7.76s-4.38-7.08-9.78-9.78c0 0 5.39-3.71 7.42-6.07 2.03-2.36.67-28 .67-28l-3.54-24.13z" fill="#FD6F8D"/><path opacity=".1" d="M346.65 543.55a70.707 70.707 0 012.74 7.84 13.164 13.164 0 0013.73 3 15.24 15.24 0 01.73-5.11l-17.2-5.73z" fill="#000"/><path d="M358.62 554.55c-7.263 0-13.15-5.887-13.15-13.15 0-7.263 5.887-13.15 13.15-13.15 7.263 0 13.15 5.887 13.15 13.15 0 7.263-5.887 13.15-13.15 13.15z" fill="#FEC3BE"/><path opacity=".1" d="M357.13 529.93c-.95.72-1.07 2.07-1.22 3.25a18.306 18.306 0 01-3.55 8.67c-1.39 1.83-3.22 3.65-3.21 5.95 0 1.56.89 3 1.57 4.37 3.27 6.8 2 14.81.59 22.23-.45 2.41-1 5-2.82 6.63-.94.83-2.19 1.38-2.79 2.49-.71 1.3-.27 2.93.43 4.25a16.384 16.384 0 011.95 4 5.112 5.112 0 01-3.26 5.72l.24 3.87c.098.613.007 1.24-.26 1.8a2.233 2.233 0 01-1.77.92 5.31 5.31 0 01-4.84-3.09 12.837 12.837 0 01-1.07-5.93 3.171 3.171 0 00-.25-1.55 3.501 3.501 0 00-1.31-1.12 12.415 12.415 0 01-5.69-10.46c0-2.5.83-5 .54-7.47-.29-2.47-1.54-4.54-2.22-6.85a14.503 14.503 0 010-8c.68-2.39 2-4.57 2.54-7 .396-2.085.521-4.213.37-6.33l-.26-9.34a18.817 18.817 0 01.45-5.87c1-3.22 3.54-5.68 6.24-7.68a33.608 33.608 0 0113.4-6.24 21.732 21.732 0 0114.48 1.94c5.3 2.9 8.86 8.27 11 13.91 2.14 5.64 3.15 12 6 17.48 1.29 2.5 2.95 4.8 4.09 7.38 1.14 2.58 1.73 5.55.75 8.19-1.16 3.13-4.23 5.14-5.89 8-1.24 2.15-1.64 4.68-2.71 6.92s-3.22 4.32-5.68 4a5.19 5.19 0 01-2.43-1.06c-3.25-2.44-4-7-3.87-11 .13-4 1.07-8.18.17-12.14-.46-2-1.36-3.91-1.54-6-.36-4.06 2.15-7.77 3.2-11.71.92-3.44-.37-9.09-2.73-12.13-1.83-2.26-6.65-2.5-8.64-1z" fill="#000"/><path d="M357.47 529.55c-.95.72-1.07 2.07-1.22 3.25a18.31 18.31 0 01-3.55 8.75c-1.39 1.83-3.22 3.65-3.21 5.95 0 1.56.89 3 1.57 4.37 3.27 6.8 2 14.81.59 22.23-.45 2.41-1 5-2.82 6.63-.94.83-2.19 1.38-2.79 2.49-.71 1.3-.27 2.93.43 4.25a16.367 16.367 0 011.95 4 5.113 5.113 0 01-3.26 5.72l.24 3.87a3.06 3.06 0 01-.26 1.8 2.233 2.233 0 01-1.77.92 5.311 5.311 0 01-4.84-3.09 12.839 12.839 0 01-1.07-5.93 3.167 3.167 0 00-.25-1.55 3.492 3.492 0 00-1.31-1.12 12.421 12.421 0 01-5.71-10.54c0-2.5.83-5 .54-7.47-.29-2.47-1.54-4.54-2.22-6.85a14.503 14.503 0 010-8c.68-2.39 2-4.57 2.54-7 .396-2.085.521-4.213.37-6.33l-.26-9.34a18.817 18.817 0 01.45-5.87c1-3.22 3.54-5.68 6.24-7.68a33.594 33.594 0 0113.4-6.24 21.726 21.726 0 0114.48 1.94c5.3 2.9 8.86 8.27 11 13.91 2.14 5.64 3.15 12 6 17.48 1.29 2.5 2.95 4.8 4.09 7.38 1.14 2.58 1.73 5.55.75 8.19-1.16 3.13-4.23 5.14-5.89 8-1.24 2.15-1.64 4.68-2.71 6.92s-3.22 4.32-5.68 4a5.19 5.19 0 01-2.43-1.06c-3.25-2.44-4-7-3.87-11 .13-4 1.07-8.18.17-12.14-.46-2-1.36-3.91-1.54-6-.36-4.06 2.15-7.77 3.2-11.71.92-3.44-.37-9.09-2.73-12.13-1.81-2.22-6.63-2.46-8.62-1z" fill="#784F69"/><path opacity=".1" d="M365 577.47s3.71 17.2-1.35 26.64l1.35-26.64z" fill="#000"/><path d="M91.466 627.726c15.329 22.63 10.43 103.649 10.43 103.649s-77.05-25.51-92.38-48.13a49.488 49.488 0 0113.22-68.729 49.488 49.488 0 0168.73 13.22v-.01z" fill="#B1B834"/><path opacity=".1" d="M91.466 627.726c15.329 22.63 10.43 103.649 10.43 103.649s-77.05-25.51-92.38-48.13a49.488 49.488 0 0113.22-68.729 49.488 49.488 0 0168.73 13.22v-.01z" fill="#000"/><path d="M22.995 614.565s57.78 44.58 79.2 116.89" stroke="#535461" stroke-miterlimit="10"/><path d="M116.735 670.025s-41-7-13 60.91c0 0 28.49-10.86 30.71-37.88a21.555 21.555 0 00-17.15-22.92l-.56-.11z" fill="#B1B834"/><path d="M117.345 669.955s7.81 37.56-13.56 61" stroke="#535461" stroke-miterlimit="10"/><path d="M586.63 672.14s17.11-3.4 21.67-7.93c4.56-4.53 25.1-12.46 27.38-6.8 2.28 5.66 30.8 24.92 11.41 28.31-19.39 3.39-45.63 4.53-51.33 2.27-5.7-2.26-9.13-15.85-9.13-15.85z" fill="#A8A8A8"/><path opacity=".2" d="M647.09 683.63c-19.39 3.4-45.63 4.53-51.33 2.27-4.34-1.73-7.36-10-8.56-13.87l-.57.12s3.42 13.59 9.13 15.86c5.71 2.27 31.94 1.13 51.33-2.27 5.6-1 7.2-3.28 6.6-6.2-.49 1.89-2.44 3.36-6.6 4.09z" fill="#000"/><path d="M517.95 454.81c-56.46 0-102.23-45.77-102.23-102.23s45.77-102.23 102.23-102.23 102.23 45.77 102.23 102.23-45.77 102.23-102.23 102.23z" fill="#B1B834"/><path d="M409.23 426.88c-56.46 0-102.23-45.77-102.23-102.23s45.77-102.23 102.23-102.23 102.23 45.77 102.23 102.23-45.77 102.23-102.23 102.23z" fill="#B1B834"/><path d="M289.55 427.88c-56.46 0-102.23-45.77-102.23-102.23s45.77-102.23 102.23-102.23 102.23 45.77 102.23 102.23-45.77 102.23-102.23 102.23z" fill="#B1B834"/><path d="M250.65 454.81c-56.46 0-102.23-45.77-102.23-102.23s45.77-102.23 102.23-102.23 102.23 45.77 102.23 102.23-45.77 102.23-102.23 102.23z" fill="#B1B834"/><path d="M184.82 463.79c-56.46 0-102.23-45.77-102.23-102.23s45.77-102.23 102.23-102.23 102.23 45.77 102.23 102.23-45.77 102.23-102.23 102.23z" fill="#B1B834"/><path d="M157.89 383c-56.46 0-102.23-45.77-102.23-102.23s45.77-102.23 102.23-102.23 102.23 45.77 102.23 102.23S214.35 383 157.89 383z" fill="#B1B834"/><path d="M187.81 289.24c-56.46 0-102.23-45.77-102.23-102.23S131.35 84.78 187.81 84.78s102.23 45.77 102.23 102.23-45.77 102.23-102.23 102.23z" fill="#B1B834"/><path d="M244.66 289.24c-56.46 0-102.23-45.77-102.23-102.23S188.2 84.78 244.66 84.78s102.23 45.77 102.23 102.23-45.77 102.23-102.23 102.23z" fill="#B1B834"/><path d="M277.58 247.35c-56.46 0-102.23-45.77-102.23-102.23S221.12 42.89 277.58 42.89s102.23 45.77 102.23 102.23-45.77 102.23-102.23 102.23z" fill="#B1B834"/><path d="M361.36 293.23c-56.46 0-102.23-45.77-102.23-102.23S304.9 88.77 361.36 88.77 463.59 134.54 463.59 191s-45.77 102.23-102.23 102.23zM556.85 383c-56.46 0-102.23-45.77-102.23-102.23s45.77-102.23 102.23-102.23 102.23 45.77 102.23 102.23S613.31 383 556.85 383z" fill="#B1B834"/><path d="M498 332.13c-56.46 0-102.23-45.77-102.23-102.23S441.54 127.67 498 127.67s102.23 45.77 102.23 102.23S554.46 332.13 498 332.13z" fill="#B1B834"/><path d="M460.1 281.26c-56.46 0-102.23-45.77-102.23-102.23S403.64 76.8 460.1 76.8s102.23 45.77 102.23 102.23-45.77 102.23-102.23 102.23z" fill="#B1B834"/><path d="M388.29 204.46c-56.46 0-102.23-45.77-102.23-102.23S331.83 0 388.29 0s102.23 45.77 102.23 102.23-45.77 102.23-102.23 102.23z" fill="#B1B834"/><path d="M521.94 289.24c-56.46 0-102.23-45.77-102.23-102.23S465.48 84.78 521.94 84.78s102.23 45.77 102.23 102.23-45.77 102.23-102.23 102.23z" fill="#B1B834"/><path opacity=".1" d="M619.73 203.02s-95.21-45.15-152.82 34.87l152.82-34.87zm-250.08-91.47s-105.32-3.18-126 93.22l126-93.22zM238.72 320.71s-95.21-45.16-152.82 34.84l152.82-34.84z" fill="#000"/></g><defs><linearGradient id="paint0_linear" x1="496.13" y1="724.88" x2="496.13" y2="454.75" gradientUnits="userSpaceOnUse"><stop stop-color="gray" stop-opacity=".25"/><stop offset=".54" stop-color="gray" stop-opacity=".12"/><stop offset="1" stop-color="gray" stop-opacity=".1"/></linearGradient><linearGradient id="paint1_linear" x1="-50088.5" y1="178222" x2="-50088.5" y2="128413" gradientUnits="userSpaceOnUse"><stop stop-color="gray" stop-opacity=".25"/><stop offset=".54" stop-color="gray" stop-opacity=".12"/><stop offset="1" stop-color="gray" stop-opacity=".1"/></linearGradient><clipPath id="clip0"><path transform="matrix(-1 0 0 1 714 0)" fill="#fff" d="M0 0h714v781.11H0z"/></clipPath></defs></svg>