<svg width="473" height="212" viewBox="0 0 473 212" fill="none" xmlns="http://www.w3.org/2000/svg"><path d="M362.662 205.645c12.979 0 23.501-1.778 23.501-3.971s-10.522-3.97-23.501-3.97c-12.979 0-23.501 1.777-23.501 3.97 0 2.193 10.522 3.971 23.501 3.971z" fill="#A0C23C"/><path opacity=".1" d="M284.662 166.217c12.979 0 23.501-1.778 23.501-3.97 0-2.193-10.522-3.971-23.501-3.971-12.979 0-23.501 1.778-23.501 3.971 0 2.192 10.522 3.97 23.501 3.97zM23.501 211.8c12.98 0 23.501-1.778 23.501-3.971s-10.522-3.971-23.5-3.971c-12.98 0-23.502 1.778-23.502 3.971s10.522 3.971 23.501 3.971z" fill="#A0C23C"/><path d="M436.988 165.415c19.379 0 35.09-2.657 35.09-5.934s-15.711-5.934-35.09-5.934c-19.38 0-35.091 2.657-35.091 5.934s15.711 5.934 35.091 5.934z" fill="#A0C23C"/><path opacity=".1" d="M91.204 188.773c43.743 0 79.204-5.993 79.204-13.386 0-7.394-35.461-13.387-79.204-13.387C47.46 162 12 167.993 12 175.387c0 7.393 35.46 13.386 79.204 13.386z" fill="#A0C23C"/><path d="M451.491 149.777a10.241 10.241 0 003.352-5.053c.427-2.007-.428-4.407-2.339-5.14-2.147-.82-4.442.663-6.179 2.173-1.736 1.51-3.735 3.212-6.012 2.897a9.135 9.135 0 002.827-8.56 3.587 3.587 0 00-.785-1.746c-1.196-1.274-3.351-.724-4.783.28-4.538 3.193-5.803 9.355-5.829 14.905-.454-1.999-.07-4.084-.079-6.109-.008-2.025-.576-4.363-2.304-5.437a7.034 7.034 0 00-3.49-.872c-2.042-.07-4.311.13-5.708 1.623-1.745 1.859-1.282 4.965.227 6.981 1.51 2.016 3.797 3.316 5.9 4.73a13.083 13.083 0 014.223 4.023c.126.229.231.468.315.716h12.784a35.548 35.548 0 007.88-5.411zm-74.316 42.402a10.218 10.218 0 003.342-5.052c.427-2.008-.419-4.364-2.339-5.14-2.147-.821-4.442.663-6.178 2.172-1.737 1.51-3.735 3.212-6.013 2.898a9.145 9.145 0 002.827-8.561 3.488 3.488 0 00-.785-1.745c-1.187-1.274-3.351-.725-4.774.279-4.538 3.194-5.803 9.355-5.829 14.905-.463-1.999-.079-4.084-.087-6.109-.009-2.024-.576-4.363-2.304-5.436a6.975 6.975 0 00-3.491-.829c-2.042-.07-4.311.13-5.707 1.623-1.746 1.858-1.283 4.965.227 6.981 1.509 2.016 3.796 3.316 5.908 4.73a13.088 13.088 0 014.215 4.023c.125.229.23.468.314.715h12.785a35.76 35.76 0 007.889-5.454z" fill="#A0C23C"/><path d="M50.118 161.805s-12.261-41.635 2.304-72.274a65.763 65.763 0 005.34-41.277 110.442 110.442 0 00-5.838-19.364" stroke="#535461" stroke-width="2" stroke-miterlimit="10"/><path d="M60.956 9.525c0 5.105-9.241 19.897-9.241 19.897S42.482 14.63 42.482 9.525a9.242 9.242 0 1118.474 0zm15.272 28.266c-2.775 4.276-18.57 11.676-18.57 11.676s.288-17.453 3.063-21.72A9.241 9.241 0 0176.228 37.79zm-.663 48.293c-4.555 2.303-21.93.715-21.93.715s9.05-14.913 13.605-17.209a9.242 9.242 0 018.325 16.494zm-8.735 36.451c-4.102 3.028-21.494 4.363-21.494 4.363s6.405-16.231 10.472-19.268a9.245 9.245 0 0112.555 2.188 9.242 9.242 0 01-1.568 12.647l.034.07zM38.258 50.462c3.665 3.552 20.709 7.234 20.709 7.234s-4.172-16.938-7.854-20.49A9.242 9.242 0 0038.24 50.462h.017zm-9.669 42.734c4.555 2.295 21.922.707 21.922.707s-9.05-14.914-13.605-17.209a9.242 9.242 0 00-8.317 16.502zm-3.709 42.822c4.102 3.036 21.494 4.363 21.494 4.363s-6.405-16.232-10.472-19.26a9.245 9.245 0 00-12.555 2.188 9.242 9.242 0 001.568 12.648l-.035.061z" fill="#A0C23C"/><path d="M21.11 159.187s14.931-2.967 18.92-6.92c3.988-3.953 21.895-10.865 23.885-5.925 1.99 4.939 26.878 21.738 9.957 24.705-16.921 2.967-39.82 3.953-44.794 1.981-4.975-1.973-7.968-13.841-7.968-13.841z" fill="#A8A8A8"/><path opacity=".2" d="M73.898 169.188c-16.921 2.967-39.82 3.953-44.794 1.972-3.796-1.501-6.432-8.727-7.47-12.104l-.524.131s2.985 11.86 7.968 13.84c4.982 1.981 27.873.987 44.794-1.98 4.887-.873 6.283-2.863 5.76-5.411-.393 1.632-2.095 2.915-5.734 3.552z" fill="#000"/><path d="M289.47 105s4.8 6.274-2.207 15.708c-7.008 9.433-12.785 17.453-10.473 23.361 0 0 10.577-17.584 19.199-17.828 8.622-.245 2.932-10.691-6.519-21.241z" fill="#A0C23C"/><path opacity=".1" d="M289.47 105c.42.608.752 1.272.987 1.972 8.395 9.861 12.863 19.068 4.791 19.295-7.514.218-16.529 13.657-18.693 17.052.071.263.155.522.253.776 0 0 10.577-17.584 19.199-17.828 8.622-.245 2.914-10.717-6.537-21.267z" fill="#000"/><path d="M298.389 112.993c0 2.208-.253 3.997-.558 3.997-.306 0-.55-1.745-.55-3.997 0-2.251.305-1.169.611-1.169.305 0 .497-1.039.497 1.169z" fill="#FFD037"/><path d="M301.443 115.629c-1.937 1.056-3.63 1.693-3.769 1.422-.14-.27 1.3-1.335 3.237-2.391 1.938-1.056 1.178-.288 1.327 0 .148.288 1.143-.087-.795.969z" fill="#FFD037"/><path d="M264.154 105s-4.8 6.274 2.208 15.708c7.008 9.433 12.785 17.453 10.472 23.361 0 0-10.568-17.584-19.199-17.828-8.631-.245-2.949-10.691 6.519-21.241z" fill="#A0C23C"/><path opacity=".1" d="M264.154 105a7.847 7.847 0 00-.986 1.972c-8.395 9.861-12.863 19.068-4.791 19.295 7.514.218 16.529 13.657 18.693 17.052-.07.264-.158.523-.262.776 0 0-10.568-17.584-19.199-17.828-8.631-.245-2.923-10.717 6.545-21.267z" fill="#000"/><path d="M255.235 112.993c0 2.208.253 3.997.559 3.997.305 0 .55-1.745.55-3.997 0-2.251-.306-1.169-.611-1.169-.306 0-.498-1.039-.498 1.169z" fill="#FFD037"/><path d="M252.181 115.629c1.937 1.056 3.622 1.693 3.77 1.422.148-.27-1.3-1.335-3.238-2.391-1.937-1.056-1.178-.288-1.326 0-.149.288-1.143-.087.794.969z" fill="#FFD037"/><path d="M256.763 143.275s13.404-.419 17.453-3.29c4.049-2.871 20.621-6.31 21.625-1.746 1.004 4.564 20.141 22.943 5.009 23.065-15.132.122-35.16-2.356-39.192-4.809-4.031-2.452-4.895-13.22-4.895-13.22z" fill="#A8A8A8"/><path opacity=".2" d="M301.112 159.742c-15.132.122-35.16-2.356-39.192-4.808-3.072-1.868-4.302-8.579-4.704-11.677h-.453s.872 10.813 4.887 13.265c4.014 2.452 24.059 4.93 39.191 4.808 4.364 0 5.873-1.588 5.795-3.883-.611 1.405-2.278 2.269-5.524 2.295z" fill="#000"/></svg>