<svg width="260" height="135" viewBox="0 0 260 135" fill="none" xmlns="http://www.w3.org/2000/svg"><path opacity=".1" d="M122 135C54.621 135 0 113.286 0 86.5S54.621 38 122 38c67.379 0 122 21.714 122 48.5S189.379 135 122 135z" fill="#B1B834"/><path d="M197.373 14.964c-10.562 15.586-7.193 71.39-7.193 71.39s53.088-17.57 63.65-33.15a34.078 34.078 0 00-9.108-47.339 34.11 34.11 0 00-47.356 9.106l.007-.007z" fill="#B1B834"/><path opacity=".1" d="M197.373 14.964c-10.562 15.586-7.193 71.39-7.193 71.39s53.088-17.57 63.65-33.15a34.078 34.078 0 00-9.108-47.339 34.11 34.11 0 00-47.356 9.106l.007-.007z" fill="#000"/><path d="M244.522 5.9s-39.783 30.705-54.548 80.509" stroke="#535461" stroke-miterlimit="10"/><path d="M179.955 44.098s28.25-4.821 8.957 41.953c0 0-19.629-7.48-21.159-26.09a14.852 14.852 0 0111.817-15.787l.385-.076z" fill="#B1B834"/><path d="M179.542 44.05s-5.381 25.87 9.343 42.015" stroke="#535461" stroke-miterlimit="10"/><path d="M91.563 20.977s-3.782 4.945 1.75 12.397c5.533 7.453 10.094 13.776 8.268 18.432 0 0-8.344-13.872-15.158-14.065-6.814-.193-2.329-8.424 5.14-16.764z" fill="#B1B834"/><path opacity=".1" d="M91.563 20.977a6.101 6.101 0 00-.771 1.55c-6.629 7.782-10.163 15.049-3.79 15.235 5.932.172 13.057 10.779 14.758 13.458a5.735 5.735 0 01-.199.613S93.217 37.962 86.403 37.77c-6.815-.193-2.309-8.451 5.16-16.792z" fill="#000"/><path d="M84.528 27.286c0 1.742.193 3.154.434 3.154.242 0 .435-1.377.435-3.154s-.242-.923-.483-.923c-.24 0-.386-.82-.386.923z" fill="#FFD037"/><path d="M82.117 29.359c1.53.833 2.866 1.336 2.977 1.122.11-.213-1.034-1.06-2.564-1.894-1.53-.833-.923-.227-1.04 0-.117.228-.903-.034.627.772z" fill="#FFD037"/><path d="M111.558 20.977s3.783 4.945-1.75 12.397c-5.533 7.453-10.094 13.776-8.268 18.432 0 0 8.344-13.872 15.158-14.065 6.814-.193 2.336-8.424-5.14-16.764z" fill="#B1B834"/><path opacity=".1" d="M111.558 20.977c.329.477.589.999.772 1.55 6.628 7.782 10.163 15.049 3.789 15.235-5.932.172-13.056 10.779-14.758 13.458.055.208.122.413.2.613 0 0 8.344-13.871 15.158-14.064 6.814-.193 2.315-8.451-5.161-16.792z" fill="#000"/><path d="M118.593 27.286c0 1.742-.193 3.154-.434 3.154s-.434-1.377-.434-3.154.241-.923.482-.923.386-.82.386.923z" fill="#FFD037"/><path d="M121.011 29.359c-1.529.833-2.866 1.336-2.976 1.122-.111-.213 1.033-1.06 2.563-1.894 1.529-.833.923-.227 1.04 0 .117.228.875-.034-.627.772z" fill="#FFD037"/><path d="M117.387 51.179s-10.583-.324-13.78-2.597c-3.197-2.273-16.281-4.98-17.067-1.343-.785 3.637-15.902 18.108-3.955 18.204 11.948.096 27.76-1.86 30.944-3.802 3.183-1.942 3.858-10.462 3.858-10.462z" fill="#A8A8A8"/><path opacity=".2" d="M82.379 64.183c11.947.096 27.76-1.86 30.943-3.802 2.425-1.474 3.39-6.77 3.714-9.216h.351s-.689 8.534-3.852 10.47c-3.162 1.935-18.995 3.898-30.943 3.801-3.445 0-4.637-1.253-4.575-3.072.476 1.11 1.778 1.798 4.362 1.819z" fill="#000"/><path d="M177.33 119.291a8.044 8.044 0 01-2.639-3.981c-.344-1.585.331-3.479 1.847-4.057 1.695-.648 3.507.523 4.878 1.715 1.371 1.191 2.949 2.541 4.747 2.286a7.21 7.21 0 01-2.232-6.756 2.83 2.83 0 01.62-1.378c.944-1.005 2.646-.572 3.776.221 3.583 2.52 4.582 7.383 4.602 11.764.359-1.578.055-3.224.069-4.822.014-1.598.455-3.444 1.819-4.284a5.513 5.513 0 012.756-.654c1.612-.062 3.404.103 4.506 1.281 1.378 1.46 1.013 3.919-.179 5.51-1.192 1.591-2.997 2.617-4.664 3.733a10.327 10.327 0 00-3.335 3.175c-.101.18-.184.369-.248.565h-10.094a28.154 28.154 0 01-6.229-4.318z" fill="#B1B834"/></svg>