<svg width="784" height="617" viewBox="0 0 784 617" fill="none" xmlns="http://www.w3.org/2000/svg"><g clip-path="url(#clip0)"><mask id="a" maskUnits="userSpaceOnUse" x="-1" y="0" width="785" height="617"><path d="M4.185 405.904c-32.758 154.199 134.824 204.067 222.71 209.727 98.381 7.323 332.293-11.186 480.9-143.813 129.831-112.853 52.931-291.621 52.931-371.517 0-79.896-281.633 22.971-326.574-59.922-44.942-82.892-304.765-32.4-393.488 98.872-58.856 87.079 16.926 177.768-36.48 266.653z" fill="#C4C4C4"/></mask><g mask="url(#a)"><path d="M-243-44H859.566v736.043H-243V-44z" fill="#B1B834"/><path d="M534.771 436.445a10.035 10.035 0 00-4.278 3.373l-.247.003c-1.108.144-2.03.414-2.797.886.465-1.506 1.324-2.888 1.45-4.457.043-.566-.538-1.12-1.094-1.091-2.207.12-3.849 1.763-4.84 3.942.143-.708.317-1.424.533-2.15 1.108-3.736 3.093-7.24 4.95-10.646.505-.927-.534-2.083-1.495-1.491-2.733 1.686-5.013 4.196-6.744 7.12l-.03-.315c-.518-4.675-1.784-11.414-5.682-14.538-.803-.644-1.997-.255-2.045.845-.098 2.18.627 4.395.998 6.533.25 1.44.454 2.862.604 4.29a37.996 37.996 0 00-.6-1.666c-2.272-5.817-6.309-13.444-12.614-15.688-.513-.182-.88.44-.662.86 1.409 2.71 3.528 5.068 5.186 7.634 1.817 2.812 3.282 5.797 4.3 8.989a38.437 38.437 0 011.09 4.25c-1.806-2.347-4.243-4.6-7.082-4.838-.415-.034-.673.417-.59.775.718 3.092 3.163 5.88 4.51 8.746 1.561 3.318 2.17 6.644 2.68 10.248.398 2.812 4.437 2.654 5.54.51.288.006.573-.027.844-.099.036.27.078.536.125.8.568 3.198 5.513 2.345 5.546-.75.003-.376.008-.75.01-1.12.3.919.745 1.72 1.349 2.313.892.872 2.124.814 2.979.197l.383.298c.978.683 2.298.261 3.037-.594 1.709 1.198 4.62-.214 4.113-2.858-.537-2.795-.028-5.902 1.818-8.177.691-.854.076-2.684-1.245-2.134zm-202.653 64.386c.006-2.558.034-5.076-.441-7.605-.425-2.268-1.322-4.447-1.522-6.744-.127-1.436 1.785-1.852 2.669-1.042 1.506 1.378 2.581 3.377 3.304 5.58.589-3.894 2.046-7.623 4.205-10.918.759-1.16 2.42-.119 1.822 1.097-1.732 3.523-2.478 7.2-2.422 11.114.005.392.024.775.044 1.158 1.515-3.365 4.17-6.37 7.15-7.84.852-.42 2.048.542 1.395 1.437-1.476 2.029-2.874 3.95-3.844 6.286-.982 2.362-1.167 4.797-1.646 7.27-.322 1.665-1.892 1.88-3.055 1.232-.246.235-.603.37-.936.25-.681-.248-1.213-.686-1.633-1.244l-.007.102c-.33 3.213-5.09 3.18-5.083-.133zM63.331 377.32c-.006-2.558-.034-5.076.442-7.606.424-2.266 1.32-4.445 1.521-6.742.127-1.437-1.784-1.852-2.669-1.043-1.507 1.379-2.581 3.376-3.304 5.581-.589-3.894-2.046-7.624-4.205-10.918-.759-1.16-2.42-.12-1.822 1.097 1.732 3.523 2.478 7.2 2.422 11.114-.005.39-.024.775-.044 1.158-1.515-3.365-4.17-6.372-7.15-7.841-.852-.42-2.048.542-1.396 1.438 1.477 2.028 2.875 3.948 3.846 6.286.981 2.361 1.166 4.796 1.645 7.269.322 1.666 1.892 1.879 3.055 1.233.246.233.603.37.936.249.681-.247 1.213-.685 1.633-1.243l.008.102c.33 3.212 5.09 3.179 5.082-.133v-.001zM267.5 478.61c-.006-2.559-.034-5.077.44-7.607.426-2.266 1.323-4.445 1.523-6.742.125-1.437-1.784-1.852-2.669-1.043-1.507 1.379-2.582 3.376-3.306 5.581-.587-3.894-2.044-7.624-4.202-10.918-.76-1.16-2.42-.12-1.822 1.097 1.73 3.523 2.477 7.2 2.421 11.114-.006.39-.023.775-.045 1.158-1.514-3.365-4.17-6.372-7.149-7.84-.853-.42-2.047.541-1.396 1.437 1.477 2.028 2.875 3.95 3.846 6.286.981 2.361 1.166 4.796 1.645 7.27.32 1.665 1.892 1.88 3.055 1.232.246.235.603.37.936.25.681-.248 1.213-.686 1.633-1.244l.008.102c.33 3.212 5.09 3.179 5.082-.133zm241.56-102.838c.006-2.558.034-5.075-.44-7.605-.426-2.268-1.321-4.447-1.523-6.743-.125-1.437 1.786-1.853 2.67-1.043 1.506 1.38 2.581 3.377 3.305 5.58.588-3.894 2.046-7.622 4.203-10.918.76-1.16 2.42-.119 1.823 1.097-1.731 3.525-2.48 7.202-2.423 11.116.006.39.023.773.045 1.156 1.514-3.365 4.17-6.37 7.15-7.84.852-.42 2.048.542 1.395 1.437-1.476 2.029-2.875 3.95-3.846 6.286-.98 2.362-1.164 4.797-1.643 7.27-.323 1.665-1.893 1.88-3.057 1.234-.244.233-.601.369-.935.248-.68-.248-1.213-.686-1.632-1.244l-.008.102c-.33 3.213-5.092 3.18-5.084-.133zm-384.245 92.932c-2.928-1.108-6.378 1.23-8.031 3.504l-.088.127.02-.286c.282-2.387 1.284-4.33 2.218-6.497.722-1.676-.906-4.08-2.806-2.802-1.05.705-1.986 1.681-2.772 2.828.375-3.505 1.006-6.97 1.358-10.488.176-1.75-2.335-2.173-3.147-.85-2.66 4.327-3.677 9.465-3.987 14.492-.079 1.291-.149 2.62-.146 3.947l-.048-.163c-1.159-3.996-1.74-8.224-2.259-12.347-.147-1.169-1.73-1.524-2.134-.287-1.119 3.429-1.441 6.806-1.224 10.277-1.775-1.36-3.883-2.346-5.962-2.244-.928.045-1.89 1.193-1.197 2.085 1.715 2.22 3.947 3.83 5.533 6.2 1.572 2.35 1.74 5.592 4.073 7.29.463.337 1.031.4 1.57.28.538.532 1.157.943 1.872 1.173 1.187.382 2.33-.453 2.708-1.536.094-.269.157-.522.196-.766.68.542 1.69.086 1.958-.692.152-.436.269-.876.37-1.318.649.513 1.51.716 2.305.624l.103.162c1.159 1.563 3.877 2.102 4.915 0 .899-1.82.54-3.85 1.617-5.626 1.018-1.679 2.578-2.63 3.771-4.116.875-1.09.542-2.467-.786-2.97v-.001zm534.794-44.243a10.035 10.035 0 00-4.278 3.373l-.247.003c-1.108.144-2.03.414-2.797.886.465-1.506 1.324-2.888 1.45-4.457.043-.566-.538-1.12-1.094-1.091-2.207.12-3.849 1.763-4.84 3.942.143-.708.317-1.424.533-2.15 1.108-3.736 3.093-7.24 4.95-10.646.505-.927-.534-2.083-1.495-1.491-2.733 1.686-5.013 4.196-6.744 7.12l-.03-.315c-.518-4.675-1.784-11.414-5.682-14.538-.803-.644-1.997-.255-2.045.845-.098 2.18.627 4.395.998 6.533.25 1.44.454 2.862.604 4.29a37.996 37.996 0 00-.6-1.666c-2.272-5.817-6.309-13.444-12.614-15.688-.513-.182-.88.44-.662.86 1.409 2.71 3.528 5.068 5.186 7.634 1.817 2.812 3.282 5.797 4.3 8.989a38.437 38.437 0 011.09 4.25c-1.806-2.347-4.243-4.6-7.082-4.838-.415-.034-.673.417-.59.775.718 3.092 3.163 5.88 4.51 8.746 1.561 3.318 2.17 6.644 2.68 10.248.398 2.812 4.437 2.654 5.54.51.288.006.573-.027.844-.099.036.27.078.536.125.8.568 3.198 5.513 2.345 5.546-.75.003-.376.008-.75.01-1.12.3.919.745 1.72 1.349 2.313.892.872 2.124.814 2.979.197l.383.298c.978.683 2.298.261 3.037-.594 1.709 1.198 4.62-.214 4.113-2.858-.537-2.795-.028-5.902 1.818-8.177.691-.854.076-2.684-1.245-2.134zm-202.654 64.386c.006-2.558.034-5.076-.441-7.605-.425-2.268-1.322-4.447-1.522-6.744-.127-1.436 1.785-1.852 2.669-1.042 1.506 1.378 2.581 3.377 3.304 5.58.589-3.894 2.046-7.623 4.205-10.918.759-1.16 2.42-.119 1.822 1.097-1.732 3.523-2.478 7.2-2.422 11.114.005.392.024.775.044 1.158 1.515-3.365 4.17-6.37 7.15-7.84.852-.42 2.048.542 1.395 1.437-1.476 2.029-2.874 3.95-3.844 6.286-.982 2.362-1.167 4.797-1.646 7.27-.322 1.665-1.892 1.88-3.055 1.232-.246.235-.603.37-.936.25-.681-.248-1.213-.686-1.633-1.244l-.007.102c-.33 3.213-5.09 3.18-5.083-.133zM188.17 365.337c-.007-2.559-.035-5.077.44-7.607.425-2.266 1.322-4.445 1.522-6.742.127-1.437-1.784-1.852-2.669-1.043-1.507 1.379-2.581 3.376-3.304 5.581-.589-3.894-2.046-7.624-4.205-10.918-.759-1.16-2.42-.12-1.822 1.097 1.732 3.523 2.478 7.2 2.422 11.114-.005.39-.024.775-.044 1.158-1.515-3.365-4.17-6.372-7.15-7.841-.852-.42-2.048.542-1.396 1.438 1.477 2.028 2.875 3.948 3.846 6.286.981 2.361 1.166 4.796 1.645 7.269.322 1.666 1.892 1.879 3.055 1.233.246.233.603.37.936.249.681-.247 1.213-.685 1.633-1.243l.008.102c.33 3.212 5.09 3.179 5.082-.133h.001zm204.168 101.289c-.006-2.559-.034-5.077.44-7.607.426-2.266 1.323-4.445 1.523-6.742.125-1.437-1.784-1.852-2.669-1.043-1.507 1.379-2.582 3.376-3.306 5.581-.587-3.894-2.044-7.624-4.202-10.918-.76-1.16-2.42-.12-1.822 1.097 1.73 3.523 2.477 7.2 2.421 11.114-.006.39-.023.775-.045 1.158-1.514-3.365-4.17-6.372-7.149-7.84-.853-.42-2.047.541-1.396 1.437 1.477 2.028 2.875 3.95 3.846 6.286.981 2.361 1.166 4.796 1.645 7.27.32 1.665 1.892 1.88 3.055 1.232.246.235.603.37.936.25.681-.248 1.213-.686 1.633-1.244l.008.102c.33 3.212 5.09 3.179 5.082-.133zm241.56-102.838c.006-2.558.034-5.075-.44-7.605-.426-2.268-1.321-4.447-1.523-6.743-.125-1.437 1.786-1.853 2.67-1.043 1.506 1.38 2.581 3.377 3.305 5.58.588-3.894 2.046-7.622 4.203-10.918.76-1.16 2.42-.119 1.823 1.097-1.731 3.525-2.48 7.202-2.423 11.116.006.39.023.773.045 1.156 1.514-3.365 4.17-6.37 7.15-7.84.852-.42 2.048.542 1.395 1.437-1.476 2.029-2.875 3.95-3.846 6.286-.98 2.362-1.164 4.797-1.643 7.27-.323 1.665-1.893 1.88-3.057 1.234-.244.233-.601.369-.935.248-.68-.248-1.213-.686-1.632-1.244l-.008.102c-.33 3.213-5.092 3.18-5.084-.133zM249.653 456.72c-2.928-1.108-6.378 1.23-8.031 3.504l-.088.127.02-.286c.282-2.387 1.284-4.33 2.219-6.497.721-1.676-.907-4.08-2.807-2.802-1.05.705-1.986 1.681-2.772 2.828.375-3.505 1.006-6.97 1.358-10.488.176-1.75-2.335-2.173-3.147-.85-2.66 4.327-3.677 9.465-3.987 14.492-.078 1.291-.149 2.62-.146 3.947l-.048-.163c-1.159-3.996-1.74-8.224-2.259-12.347-.147-1.169-1.73-1.524-2.133-.287-1.12 3.429-1.442 6.806-1.225 10.277-1.775-1.36-3.883-2.346-5.962-2.244-.928.045-1.889 1.193-1.197 2.085 1.715 2.22 3.948 3.83 5.533 6.2 1.572 2.35 1.74 5.592 4.073 7.29.463.337 1.032.4 1.57.28.538.532 1.157.943 1.872 1.173 1.187.382 2.33-.453 2.708-1.536.094-.269.157-.522.196-.766.68.542 1.69.086 1.958-.692.152-.436.27-.876.37-1.318.649.513 1.51.716 2.305.624l.103.162c1.159 1.563 3.878 2.102 4.915 0 .899-1.82.54-3.85 1.617-5.626 1.018-1.679 2.578-2.63 3.771-4.116.875-1.09.542-2.467-.786-2.97v-.001zm-58.368-224.01c1.71.708 3.19 1.876 4.278 3.373l.247.003c1.108.144 2.03.414 2.797.886-.465-1.506-1.324-2.888-1.45-4.457-.043-.566.538-1.12 1.094-1.091 2.207.12 3.849 1.763 4.84 3.942a24.445 24.445 0 00-.533-2.15c-1.108-3.736-3.093-7.24-4.95-10.646-.505-.927.534-2.083 1.495-1.491 2.733 1.686 5.013 4.196 6.744 7.12l.03-.315c.518-4.675 1.784-11.414 5.682-14.538.803-.644 1.997-.255 2.045.845.098 2.18-.627 4.395-.998 6.533a63.855 63.855 0 00-.604 4.29c.189-.558.385-1.114.6-1.666 2.272-5.817 6.309-13.444 12.614-15.688.513-.182.88.44.662.86-1.409 2.71-3.528 5.068-5.186 7.634-1.817 2.812-3.282 5.797-4.3 8.989a37.88 37.88 0 00-1.09 4.25c1.806-2.347 4.243-4.6 7.082-4.838.415-.034.673.417.59.775-.718 3.092-3.163 5.88-4.51 8.746-1.561 3.318-2.17 6.644-2.68 10.248-.398 2.812-4.437 2.654-5.54.51a3.038 3.038 0 01-.844-.099c-.036.27-.078.536-.125.8-.568 3.198-5.513 2.345-5.546-.75-.003-.376-.008-.75-.01-1.12-.3.919-.745 1.72-1.349 2.313-.892.872-2.124.814-2.979.197l-.383.298c-.978.683-2.298.261-3.037-.594-1.709 1.198-4.62-.214-4.113-2.858.537-2.795.028-5.902-1.818-8.177-.691-.854-.076-2.684 1.245-2.134zm202.653 64.386c-.006-2.558-.034-5.076.441-7.605.425-2.268 1.322-4.447 1.522-6.744.127-1.436-1.785-1.852-2.669-1.042-1.506 1.378-2.581 3.377-3.304 5.58-.589-3.894-2.046-7.623-4.205-10.918-.759-1.16-2.42-.119-1.822 1.097 1.732 3.523 2.478 7.2 2.422 11.114a28 28 0 01-.044 1.158c-1.515-3.365-4.17-6.37-7.15-7.84-.852-.42-2.048.542-1.395 1.437 1.476 2.029 2.874 3.95 3.844 6.286.982 2.362 1.167 4.797 1.646 7.27.322 1.665 1.892 1.88 3.055 1.232.246.235.603.37.936.25.681-.248 1.213-.686 1.633-1.244l.007.102c.33 3.213 5.09 3.18 5.083-.133zm268.787-123.51c.006-2.559.034-5.077-.442-7.607-.424-2.266-1.32-4.445-1.521-6.742-.127-1.437 1.784-1.852 2.669-1.043 1.507 1.379 2.581 3.376 3.304 5.581.589-3.894 2.046-7.624 4.205-10.918.759-1.16 2.42-.12 1.822 1.097-1.732 3.523-2.478 7.2-2.422 11.114.005.39.024.775.044 1.158 1.515-3.365 4.17-6.372 7.15-7.841.852-.42 2.048.542 1.396 1.438-1.477 2.028-2.875 3.948-3.846 6.286-.981 2.361-1.166 4.796-1.645 7.269-.322 1.666-1.892 1.879-3.055 1.233-.246.233-.603.37-.936.249-.681-.247-1.213-.685-1.633-1.243l-.008.102c-.33 3.212-5.09 3.179-5.082-.133zM458.556 274.875c.006-2.559.034-5.077-.44-7.607-.426-2.266-1.323-4.445-1.523-6.742-.125-1.437 1.784-1.852 2.669-1.043 1.507 1.379 2.582 3.376 3.306 5.581.587-3.894 2.044-7.624 4.202-10.918.76-1.16 2.42-.12 1.822 1.097-1.73 3.523-2.477 7.2-2.421 11.114.006.39.023.775.045 1.158 1.514-3.365 4.17-6.372 7.149-7.84.853-.42 2.047.541 1.396 1.437-1.477 2.028-2.875 3.95-3.846 6.286-.981 2.361-1.166 4.796-1.645 7.27-.32 1.665-1.892 1.88-3.055 1.232-.246.235-.603.37-.936.25-.681-.248-1.213-.686-1.633-1.244l-.008.102c-.33 3.212-5.09 3.179-5.082-.133zm-241.56-102.838c-.006-2.558-.034-5.075.44-7.605.426-2.268 1.321-4.447 1.523-6.743.125-1.437-1.786-1.853-2.67-1.043-1.506 1.38-2.581 3.377-3.305 5.58-.588-3.894-2.046-7.622-4.203-10.918-.76-1.16-2.42-.119-1.823 1.097 1.731 3.525 2.48 7.202 2.423 11.116-.006.39-.023.773-.045 1.156-1.514-3.365-4.17-6.37-7.15-7.84-.852-.42-2.048.542-1.395 1.437 1.476 2.029 2.875 3.95 3.846 6.286.98 2.362 1.164 4.797 1.643 7.27.323 1.665 1.893 1.88 3.057 1.234.244.233.601.369.935.248.68-.248 1.213-.686 1.632-1.244l.008.102c.33 3.213 5.092 3.18 5.084-.133zM601.24 264.97c2.93-1.109 6.38 1.23 8.032 3.503l.088.127-.02-.286c-.282-2.387-1.284-4.33-2.219-6.497-.721-1.676.907-4.08 2.807-2.802 1.05.705 1.986 1.681 2.772 2.828-.375-3.505-1.006-6.97-1.358-10.488-.176-1.75 2.335-2.173 3.147-.85 2.66 4.327 3.677 9.465 3.987 14.492.078 1.291.149 2.62.146 3.947l.048-.163c1.159-3.996 1.74-8.224 2.259-12.347.147-1.169 1.73-1.524 2.133-.287 1.12 3.429 1.442 6.806 1.225 10.277 1.775-1.36 3.883-2.346 5.962-2.244.928.045 1.889 1.193 1.197 2.085-1.715 2.22-3.948 3.83-5.533 6.2-1.572 2.35-1.74 5.592-4.073 7.29-.463.337-1.032.4-1.57.28-.538.532-1.157.943-1.872 1.173-1.187.382-2.33-.453-2.708-1.536a4.392 4.392 0 01-.196-.766c-.68.542-1.69.086-1.958-.692-.152-.436-.27-.876-.37-1.318-.649.513-1.51.716-2.305.624l-.103.162c-1.159 1.563-3.878 2.102-4.915 0-.899-1.82-.54-3.85-1.617-5.626-1.018-1.679-2.578-2.63-3.771-4.116-.875-1.09-.542-2.467.786-2.97h-.001zM66.447 234.707c1.71.708 3.19 1.876 4.278 3.373l.247.003c1.108.144 2.03.414 2.797.886-.465-1.506-1.324-2.888-1.45-4.457-.043-.566.538-1.12 1.094-1.091 2.207.12 3.849 1.763 4.84 3.942a24.48 24.48 0 00-.533-2.15c-1.108-3.736-3.093-7.24-4.95-10.646-.505-.927.534-2.083 1.495-1.491 2.733 1.686 5.013 4.196 6.744 7.12l.03-.315c.518-4.675 1.784-11.414 5.682-14.538.803-.644 1.997-.255 2.045.845.098 2.18-.627 4.395-.998 6.533a63.985 63.985 0 00-.604 4.29c.189-.558.385-1.114.6-1.666 2.272-5.817 6.309-13.444 12.614-15.688.513-.182.88.44.662.86-1.409 2.71-3.528 5.068-5.186 7.634-1.817 2.812-3.282 5.797-4.3 8.989a38.054 38.054 0 00-1.09 4.25c1.806-2.347 4.243-4.6 7.082-4.838.415-.034.673.417.59.775-.718 3.092-3.163 5.88-4.51 8.746-1.561 3.318-2.17 6.644-2.68 10.248-.398 2.812-4.437 2.654-5.54.51a3.041 3.041 0 01-.844-.099c-.036.27-.078.536-.125.8-.568 3.198-5.513 2.345-5.546-.75-.003-.376-.008-.75-.01-1.12-.3.919-.745 1.72-1.349 2.313-.892.872-2.124.814-2.979.197l-.383.298c-.978.683-2.298.261-3.037-.594-1.709 1.198-4.62-.214-4.113-2.858.537-2.795.028-5.902-1.818-8.177-.691-.854-.076-2.684 1.245-2.134zm202.654 64.387c-.006-2.558-.034-5.076.441-7.605.425-2.268 1.322-4.447 1.522-6.744.127-1.436-1.785-1.852-2.669-1.042-1.506 1.378-2.581 3.377-3.304 5.58-.589-3.894-2.046-7.623-4.205-10.918-.759-1.16-2.42-.119-1.822 1.097 1.732 3.523 2.478 7.2 2.422 11.114a28 28 0 01-.044 1.158c-1.515-3.365-4.17-6.37-7.15-7.84-.852-.42-2.048.542-1.395 1.437 1.476 2.029 2.874 3.95 3.844 6.286.982 2.362 1.167 4.797 1.646 7.27.322 1.665 1.892 1.88 3.055 1.232.246.235.603.37.936.25.681-.248 1.213-.686 1.633-1.244l.007.102c.33 3.213 5.09 3.18 5.083-.133zm268.786-123.51c.006-2.559.034-5.077-.442-7.607-.424-2.266-1.32-4.445-1.521-6.742-.127-1.437 1.784-1.852 2.669-1.043 1.507 1.379 2.581 3.376 3.304 5.581.589-3.894 2.046-7.624 4.205-10.918.759-1.16 2.42-.12 1.822 1.097-1.732 3.523-2.478 7.2-2.422 11.114.005.39.024.775.044 1.158 1.515-3.365 4.17-6.372 7.15-7.841.852-.42 2.048.542 1.396 1.438-1.477 2.028-2.875 3.948-3.846 6.286-.981 2.361-1.166 4.796-1.645 7.269-.322 1.666-1.892 1.879-3.055 1.233-.246.233-.603.37-.936.249-.681-.247-1.213-.685-1.633-1.243l-.008.102c-.33 3.212-5.09 3.179-5.082-.133zM333.718 276.872c.006-2.559.034-5.077-.44-7.607-.426-2.266-1.323-4.445-1.523-6.742-.125-1.437 1.784-1.852 2.669-1.043 1.507 1.379 2.582 3.376 3.306 5.581.587-3.894 2.044-7.624 4.202-10.918.76-1.16 2.42-.12 1.822 1.097-1.73 3.523-2.477 7.2-2.421 11.114.006.39.023.775.045 1.158 1.514-3.365 4.17-6.372 7.149-7.84.853-.42 2.047.541 1.396 1.437-1.477 2.028-2.875 3.95-3.846 6.286-.981 2.361-1.166 4.796-1.645 7.27-.32 1.665-1.892 1.88-3.055 1.232-.246.235-.603.37-.936.25-.681-.248-1.213-.686-1.633-1.244l-.008.102c-.33 3.212-5.09 3.179-5.082-.133zM92.158 174.035c-.006-2.558-.034-5.075.44-7.605.426-2.268 1.321-4.447 1.523-6.743.125-1.437-1.786-1.853-2.67-1.043-1.506 1.38-2.581 3.377-3.304 5.58-.589-3.894-2.046-7.622-4.203-10.918-.761-1.16-2.422-.119-1.824 1.097 1.731 3.525 2.48 7.202 2.423 11.116-.006.39-.023.773-.045 1.156-1.514-3.365-4.17-6.37-7.15-7.84-.852-.42-2.048.542-1.395 1.437 1.476 2.029 2.875 3.95 3.846 6.286.98 2.362 1.164 4.797 1.643 7.27.323 1.665 1.893 1.88 3.057 1.234.244.233.601.369.935.248.68-.248 1.213-.686 1.632-1.244l.008.102c.33 3.213 5.092 3.18 5.084-.133zm384.245 92.931c2.928-1.108 6.378 1.23 8.031 3.504l.088.127-.02-.286c-.282-2.387-1.284-4.33-2.219-6.497-.721-1.676.907-4.08 2.807-2.802 1.05.705 1.986 1.681 2.772 2.828-.375-3.505-1.006-6.97-1.358-10.488-.176-1.75 2.335-2.173 3.147-.85 2.66 4.327 3.677 9.465 3.987 14.492.078 1.291.149 2.62.146 3.947l.048-.163c1.159-3.996 1.74-8.224 2.259-12.347.147-1.169 1.73-1.524 2.133-.287 1.12 3.429 1.442 6.806 1.225 10.277 1.775-1.36 3.883-2.346 5.962-2.244.928.045 1.889 1.193 1.197 2.085-1.715 2.22-3.948 3.83-5.533 6.2-1.572 2.35-1.74 5.592-4.073 7.29-.463.337-1.032.4-1.57.28-.538.532-1.157.943-1.872 1.173-1.187.382-2.33-.453-2.708-1.536a4.392 4.392 0 01-.196-.766c-.68.542-1.69.086-1.958-.692-.152-.436-.27-.876-.37-1.318-.649.513-1.51.716-2.305.624l-.103.162c-1.159 1.563-3.878 2.102-4.915 0-.899-1.82-.54-3.85-1.617-5.626-1.018-1.679-2.578-2.63-3.771-4.116-.875-1.09-.542-2.467.786-2.97v-.001z" fill="#6A8617"/></g></g><defs><clipPath id="clip0"><path fill="#fff" d="M0 0h784v617H0z"/></clipPath></defs></svg>