<svg width="126" height="129" viewBox="0 0 126 129" fill="none" xmlns="http://www.w3.org/2000/svg"><path d="M121.793 78.772c1.685-2.933 3.004-6.006 3.688-9.29l-.734-.152a23.6 23.6 0 00.503-4.83c0-1.806-.094-3.715-.275-5.692l.747-.069c-.333-3.648-.958-7.514-1.825-11.391l-.732.164a99.795 99.795 0 00-3.132-11.015l.708-.247c-1.33-3.81-2.867-7.418-4.558-10.595l-.662.352c-.941-1.768-1.928-3.396-2.949-4.842a46.303 46.303 0 00-2.949-3.759l.565-.493a43.18 43.18 0 00-7.139-6.544l-.441.607a44.448 44.448 0 00-8.27-4.73l.302-.687c-2.91-1.282-5.977-2.298-9.188-3.092l-.18.728c-3.023-.748-6.18-1.297-9.457-1.683l.088-.745a113.609 113.609 0 00-9.681-.693l-.023.75A150.606 150.606 0 0061.368.75a50.61 50.61 0 00-5.593.305L55.692.31c-3.92.435-7.568 1.312-11.062 2.525l.246.709c-3.523 1.223-6.895 2.796-10.245 4.613l-.358-.66c-3.246 1.76-6.459 3.742-9.752 5.843l.403.632c-1.31.837-2.634 1.692-3.98 2.562-.265.17-.53.343-.797.515a29.439 29.439 0 00-3.493 2.652l-.496-.563c-2.206 1.945-4.173 4.222-5.909 6.76l.62.423c-1.622 2.369-3.042 4.974-4.265 7.755l-.686-.302a63.213 63.213 0 00-3.002 8.479l.723.2a76.259 76.259 0 00-1.87 8.712l-.742-.116a86.616 86.616 0 00-.914 8.952l.75.038A88.682 88.682 0 00.75 64.5c0 1.66.015 3.278.048 4.855l-.75.016c.074 3.42.236 6.652.534 9.714l.746-.072c.329 3.38.822 6.538 1.54 9.498l-.73.177c.792 3.266 1.856 6.306 3.271 9.144l.671-.335a35.052 35.052 0 005.346 7.855l-.558.501c2.044 2.274 4.458 4.398 7.307 6.393l.43-.614a56.292 56.292 0 004.058 2.58c1.362.789 2.895 1.643 4.556 2.526l-.352.662a154.952 154.952 0 009.416 4.61l.306-.685c3.145 1.406 6.428 2.734 9.678 3.844l-.242.709c3.477 1.188 6.922 2.13 10.132 2.657l.121-.74c1.796.294 3.504.455 5.09.455a48.15 48.15 0 004.681-.222l.072.747c3.329-.323 6.41-.987 9.286-1.946l-.237-.711a40.144 40.144 0 008.428-3.959l.395.638c2.68-1.655 5.179-3.595 7.547-5.761l-.507-.553c2.264-2.071 4.412-4.357 6.494-6.808l.572.486c2.007-2.363 3.947-4.873 5.863-7.483l-.604-.444a252.1 252.1 0 002.767-3.851 91.462 91.462 0 013.046-4.04l.588.466c.967-1.22 1.967-2.44 2.972-3.67a274.83 274.83 0 003.34-4.132l-.589-.464c2.081-2.643 4.046-5.334 5.661-8.145l.65.374z" stroke="#B1B834" stroke-width="1.5" stroke-dasharray="10 10"/></svg>