<svg width="130" height="127" viewBox="0 0 130 127" fill="none" xmlns="http://www.w3.org/2000/svg"><path d="M79.272 4.707c-2.933-1.685-6.006-3.004-9.29-3.688l-.152.734A23.576 23.576 0 0065 1.25c-1.806 0-3.715.094-5.692.275l-.069-.747c-3.648.333-7.514.958-11.391 1.825l.163.732a99.87 99.87 0 00-11.014 3.132l-.247-.708c-3.81 1.33-7.418 2.867-10.595 4.558l.352.662c-1.768.941-3.396 1.928-4.842 2.949a46.24 46.24 0 00-3.759 2.95l-.493-.566a43.169 43.169 0 00-6.544 7.139l.607.441a44.457 44.457 0 00-4.73 8.27l-.687-.302c-1.282 2.91-2.298 5.977-3.092 9.188l.728.18c-.748 3.023-1.297 6.18-1.683 9.457l-.745-.088a113.585 113.585 0 00-.693 9.68l.75.023c-.05 1.589-.074 3.2-.074 4.832 0 1.932.105 3.792.305 5.593l-.745.083c.435 3.92 1.312 7.568 2.525 11.062l.709-.246c1.223 3.523 2.796 6.895 4.613 10.245l-.66.358c1.76 3.246 3.742 6.459 5.843 9.752l.632-.403a848.256 848.256 0 002.562 3.98c.17.265.343.53.515.797a29.408 29.408 0 002.652 3.493l-.563.496c1.945 2.206 4.222 4.173 6.76 5.909l.423-.619c2.369 1.621 4.974 3.041 7.755 4.264l-.302.686a63.163 63.163 0 008.479 3.002l.2-.723a76.267 76.267 0 008.712 1.87l-.116.742a86.65 86.65 0 008.952.914l.038-.749c1.49.075 2.979.112 4.461.112 1.66 0 3.278-.015 4.855-.048l.016.749c3.42-.073 6.652-.235 9.714-.533l-.072-.746c3.38-.329 6.538-.822 9.498-1.54l.177.729c3.266-.791 6.306-1.855 9.144-3.27l-.335-.671a35.033 35.033 0 007.855-5.346l.501.558c2.274-2.044 4.398-4.458 6.393-7.307l-.614-.43a56.264 56.264 0 002.58-4.058 143.835 143.835 0 002.526-4.556l.662.352a154.952 154.952 0 004.61-9.416l-.685-.306c1.406-3.145 2.734-6.428 3.844-9.678l.709.242c1.188-3.477 2.13-6.922 2.657-10.132l-.74-.121c.294-1.796.455-3.504.455-5.09a48.15 48.15 0 00-.222-4.681l.747-.072c-.323-3.328-.987-6.41-1.946-9.286l-.711.237a40.144 40.144 0 00-3.959-8.428l.638-.395c-1.655-2.68-3.595-5.179-5.761-7.546l-.553.506c-2.071-2.264-4.357-4.412-6.808-6.494l.486-.572c-2.363-2.006-4.873-3.947-7.483-5.863l-.444.604a252.492 252.492 0 00-3.851-2.767 91.07 91.07 0 01-4.04-3.046l.466-.588c-1.22-.967-2.44-1.966-3.67-2.972a272.26 272.26 0 00-4.132-3.34l-.464.589c-2.643-2.081-5.334-4.046-8.145-5.66l.374-.651z" stroke="#B1B834" stroke-width="1.5" stroke-dasharray="10 10"/></svg>