<svg width="126" height="129" viewBox="0 0 126 129" fill="none" xmlns="http://www.w3.org/2000/svg"><path d="M4.207 50.228c-1.685 2.933-3.004 6.006-3.688 9.289l.734.153A23.576 23.576 0 00.75 64.5c0 1.806.094 3.715.275 5.692l-.747.069c.333 3.648.958 7.514 1.825 11.391l.732-.164a99.858 99.858 0 003.132 11.015l-.708.247c1.33 3.81 2.867 7.418 4.558 10.595l.662-.352c.941 1.768 1.928 3.395 2.949 4.842a46.34 46.34 0 002.95 3.759l-.566.493a43.174 43.174 0 007.139 6.544l.441-.607a44.465 44.465 0 008.27 4.731l-.302.686c2.91 1.282 5.977 2.298 9.188 3.092l.18-.728c3.023.748 6.18 1.297 9.457 1.683l-.088.745c3.126.368 6.356.589 9.68.693l.023-.749c1.589.05 3.2.073 4.832.073a50.6 50.6 0 005.593-.305l.083.745c3.92-.435 7.568-1.312 11.062-2.525l-.246-.709c3.523-1.223 6.895-2.796 10.245-4.613l.358.659c3.245-1.76 6.459-3.741 9.752-5.842l-.403-.632a848.256 848.256 0 003.98-2.562l.797-.515a29.327 29.327 0 003.493-2.652l.496.563c2.206-1.945 4.173-4.222 5.909-6.759l-.619-.424c1.621-2.369 3.041-4.974 4.264-7.755l.686.302a63.163 63.163 0 003.002-8.479l-.723-.2a76.267 76.267 0 001.87-8.712l.742.116a86.65 86.65 0 00.914-8.952l-.749-.038c.075-1.49.112-2.979.112-4.461 0-1.66-.015-3.278-.048-4.855l.749-.016c-.073-3.42-.235-6.652-.533-9.714l-.746.072c-.329-3.38-.822-6.538-1.54-9.498l.729-.177c-.791-3.266-1.855-6.306-3.27-9.144l-.671.335a35.025 35.025 0 00-5.346-7.855l.558-.501c-2.044-2.274-4.458-4.397-7.307-6.393l-.43.614a55.887 55.887 0 00-4.058-2.58 143.927 143.927 0 00-4.556-2.526l.352-.662a155.04 155.04 0 00-9.416-4.61l-.306.685c-3.145-1.406-6.428-2.734-9.678-3.844l.242-.71C76.498 1.935 73.053.993 69.843.466l-.121.74C67.926.911 66.218.75 64.632.75a48.4 48.4 0 00-4.681.222l-.072-.747c-3.328.323-6.41.987-9.286 1.946l.237.711a40.137 40.137 0 00-8.428 3.96l-.395-.639c-2.68 1.655-5.179 3.595-7.546 5.761l.506.553c-2.264 2.071-4.412 4.357-6.494 6.808l-.572-.486c-2.006 2.363-3.947 4.873-5.863 7.483l.604.444a252.965 252.965 0 00-2.767 3.851 90.953 90.953 0 01-3.046 4.04l-.588-.466c-.967 1.22-1.966 2.44-2.972 3.67a280.75 280.75 0 00-3.34 4.132l.589.464c-2.081 2.643-4.046 5.334-5.66 8.145l-.651-.374z" stroke="#B1B834" stroke-width="1.5" stroke-dasharray="10 10"/></svg>