<svg width="33" height="78" viewBox="0 0 33 78" fill="none" xmlns="http://www.w3.org/2000/svg"><path fill-rule="evenodd" clip-rule="evenodd" d="M18.747 54.955c3.69-.143 14.048-7.3 14.048-18.032 0-8.97-3.846-15.886-7.677-21.896-.527-.827-3.406-6.87-5.52-15.027C17.469 2.147.44 17.173.015 30.483c-.426 13.309 8.514 23.184 14.474 24.472h4.258zm11.069-13.31c-2.725 8.243-8.515 11.163-11.07 11.592l-4.257-.43C3.406 47.657.426 33.918 2.98 26.19 5.534 18.461 14.915 6.87 18.747 3.005c1.362 7.213 5.676 15.027 7.663 18.032 2.27 3.435 6.13 12.365 3.405 20.608z" fill="#A0C23C"/><path d="M18.613 53.182c2.451-.432 8.009-3.368 10.624-11.66 2.615-8.29-1.09-17.272-3.269-20.727-1.907-3.022-6.048-10.881-7.355-18.136C14.935 6.545 5.93 18.205 3.48 25.977c-2.452 7.773.408 21.591 11.046 26.773l4.087.432z" fill="#A0C23C"/><path fill-rule="evenodd" clip-rule="evenodd" d="M18.747 54.955c3.69-.143 14.048-7.3 14.048-18.032 0-8.97-3.846-15.886-7.677-21.896-.527-.827-3.406-6.87-5.52-15.027C17.469 2.147.44 17.173.015 30.483c-.426 13.309 8.514 23.184 14.474 24.472h4.258zm11.069-13.31c-2.725 8.243-8.515 11.163-11.07 11.592l-4.257-.43C3.406 47.657.426 33.918 2.98 26.19 5.534 18.461 14.915 6.87 18.747 3.005c1.362 7.213 5.676 15.027 7.663 18.032 2.27 3.435 6.13 12.365 3.405 20.608z" fill="#6A8617"/><path d="M17.018 74.168L11.385 78l1.3-4.684-7.367-.851 8.667-1.704V56.284l.433-8.09-.866-.852-7.8-3.406 5.633.851-3.9-5.535.867-.426 6.066 6.387h.867l2.167-10.645h.433l-.433 11.284 2.6-4.045.433.851-2.167 4.684v2.98l2.6-1.277.434.852-3.034 2.555v18.735l6.5 2.555-7.8.426z" fill="#6A8617"/><path d="M10.688 19.108c-.676-2.228 5.575-9.358 5.575-9.358 2.028 1.337 5.576 8.022 1.014 12.032-3.65 3.209-5.914-.445-6.59-2.674z" fill="#B9EA28"/></svg>