<?xml version="1.0" encoding="UTF-8"?> <svg xmlns="http://www.w3.org/2000/svg" width="80" height="80" viewBox="0 0 80 80" fill="none"><rect x="62" y="19" width="13" height="54" fill="#FDD69B" fill-opacity="0.5"></rect><rect x="43" y="34" width="13" height="39" fill="#FDD69B" fill-opacity="0.5"></rect><rect x="24" y="43" width="13" height="30" fill="#FDD69B" fill-opacity="0.5"></rect><rect x="5" y="57" width="13" height="16" fill="#FDD69B" fill-opacity="0.5"></rect><rect x="2" y="74" width="77" height="5" fill="#FDD69B" fill-opacity="0.5"></rect><path d="M78.0489 72.329H76.0807V20.1302C76.0807 19.0543 75.2056 18.1791 74.1296 18.1791H62.2295C61.1536 18.1791 60.2784 19.0543 60.2784 20.1302V72.329H57.2945V65.7027C57.2945 65.0562 56.7705 64.532 56.1238 64.532C55.4771 64.532 54.9531 65.0562 54.9531 65.7027V72.329H43.8335V34.9319H54.9531V60.2527C54.9531 60.8992 55.4771 61.4234 56.1238 61.4234C56.7705 61.4234 57.2945 60.8992 57.2945 60.2527V34.5416C57.2945 33.4657 56.4193 32.5905 55.3433 32.5905H43.4433C42.3673 32.5905 41.4921 33.4657 41.4921 34.5416V72.329H38.5082V43.1687C38.5082 42.0928 37.633 41.2176 36.5571 41.2176H24.657C23.581 41.2176 22.7058 42.0928 22.7058 43.1687V72.329H19.7219V57.5633C19.7219 56.4873 18.8467 55.6121 17.7708 55.6121H5.87036C4.79444 55.6121 3.91925 56.4873 3.91925 57.5633V72.329H1.95112C0.875193 72.329 0 73.2042 0 74.2801V78.0131C0 79.0891 0.875193 79.9643 1.95112 79.9643H78.0489C79.1248 79.9643 80 79.0891 80 78.0131V74.2801C80 73.2042 79.1248 72.329 78.0489 72.329ZM62.6198 20.5204H73.7394V72.329H62.6198V20.5204ZM25.047 43.5589H36.1667V72.329H25.047V43.5589ZM6.26059 57.9535H17.3802V72.329H6.26059V57.9535ZM77.6587 77.6229H2.34134V74.6703H77.6587V77.6229Z" fill="#FCAD37"></path><path d="M17.2871 34.8482C17.9629 35.2768 18.7296 35.4978 19.511 35.4978C19.8165 35.4978 20.1243 35.464 20.4296 35.3958C21.5097 35.154 22.4318 34.5084 23.0282 33.5772L31.0242 21.7795C31.0309 21.7696 31.0374 21.7598 31.0437 21.7498C31.2294 21.457 31.619 21.37 31.9114 21.5555C31.9392 21.5729 31.9674 21.5893 31.9966 21.6045L43.583 27.6537C44.5387 28.244 45.6664 28.4337 46.7644 28.1877C47.8796 27.938 48.8308 27.269 49.443 26.3039L57.1684 14.1223C57.8904 15.7088 59.62 16.6739 61.4137 16.3568C62.4437 16.1749 63.3414 15.6028 63.9411 14.7459C64.5408 13.889 64.7708 12.8497 64.589 11.8195L63.0793 3.27132C62.7039 1.14538 60.6704 -0.279717 58.5427 0.0959898L50.0004 1.6035C47.9588 1.96375 46.5221 3.92861 46.7976 5.98368C46.9417 7.05633 47.4972 7.99536 48.3623 8.62783C48.9434 9.05271 49.6138 9.30261 50.3143 9.36395L49.2974 10.9675C48.9512 11.5135 49.113 12.2368 49.659 12.5831C50.2047 12.9292 50.9282 12.7675 51.2747 12.2215L53.6148 8.53137C53.8632 8.13974 53.8569 7.63823 53.5987 7.253C53.3406 6.86777 52.8789 6.67094 52.4226 6.75164L50.9494 7.01168C50.5177 7.0877 50.0897 6.99077 49.744 6.73821C49.3985 6.48566 49.1761 6.1073 49.1179 5.67275C49.0088 4.85968 49.5991 4.05223 50.407 3.90972L58.9493 2.40221C59.8052 2.25205 60.6225 2.82412 60.7734 3.67886L62.2831 12.2273C62.3563 12.6415 62.2637 13.0594 62.0226 13.4039C61.7814 13.7483 61.4205 13.9784 61.0063 14.0515C60.1517 14.2023 59.333 13.6296 59.1821 12.7747L58.8508 10.8977C58.7669 10.4218 58.3991 10.0464 57.9251 9.95272C57.4506 9.85907 56.9679 10.0662 56.7093 10.4742L47.4651 25.0505C47.188 25.4875 46.7572 25.7905 46.2521 25.9035C45.7473 26.0165 45.2283 25.9261 44.7914 25.6491C44.7638 25.6314 44.7354 25.615 44.7062 25.5999L33.1176 19.5496C31.7462 18.7146 29.9481 19.1255 29.0766 20.4794L21.0803 32.2777C21.0736 32.2875 21.0671 32.2975 21.0607 32.3077C20.7994 32.7196 20.3935 33.0051 19.9175 33.1117C19.4412 33.2183 18.9521 33.1331 18.5403 32.8718C18.1281 32.6105 17.8426 32.2043 17.7361 31.7281C17.6305 31.2558 17.7135 30.7707 17.9701 30.3608L28.4823 14.6081C28.4873 14.6006 28.4921 14.5931 28.4969 14.5856C29.0691 13.6839 30.2685 13.4156 31.1704 13.9875C31.1982 14.005 31.2265 14.0213 31.2557 14.0365L42.8378 20.0828C44.215 20.9213 46.0222 20.5034 46.8896 19.1361L48.3468 16.8381C48.693 16.2921 48.5311 15.5688 47.9851 15.2225C47.4391 14.8761 46.7158 15.038 46.3695 15.5841L44.9124 17.8821C44.7268 18.1747 44.3378 18.262 44.0447 18.0764C44.017 18.0588 43.9886 18.0424 43.9594 18.0272L32.3793 11.9819C30.3968 10.7588 27.7853 11.3519 26.5279 13.3186L16.0145 29.0735C16.0095 29.081 16.0046 29.0885 15.9998 29.096C15.4031 30.0361 15.2084 31.1523 15.4513 32.239C15.6949 33.3251 16.3468 34.2519 17.2871 34.8482Z" fill="#B1B834"></path></svg> 