<?xml version="1.0" encoding="UTF-8"?> <svg xmlns="http://www.w3.org/2000/svg" width="88" height="88" viewBox="0 0 88 88" fill="none"><path d="M26 61L60.5 27L63.5 26L66 27L68 29V31.5L65 35.5L31 69L21 73L21.5 71L26 61Z" fill="#FEEBCD"></path><path d="M32.5 46.5L41 38L28 26L20.5 34L32.5 46.5Z" fill="#FEEBCD"></path><path d="M55.5 52.5L47 61L60 73L68 65L55.5 52.5Z" fill="#FEEBCD"></path><path d="M86.5957 4.21289H1.40426C0.628732 4.21289 0 4.84162 0 5.61715V82.3831C0 83.1586 0.628732 83.7874 1.40426 83.7874H86.5957C87.3715 83.7874 88 83.1586 88 82.3831V67.4044C88 66.6289 87.3715 66.0001 86.5957 66.0001C85.82 66.0001 85.1915 66.6289 85.1915 67.4044V80.9789H2.80851V18.2554H85.1915V61.7874C85.1915 62.5629 85.82 63.1916 86.5957 63.1916C87.3715 63.1916 88 62.5629 88 61.7874V5.61715C88 4.84162 87.3715 4.21289 86.5957 4.21289ZM2.80851 7.0214H54.766V15.4469H2.80851V7.0214ZM57.5745 15.4469V7.0214H85.1915V15.4469H57.5745Z" fill="#C4C967"></path><path d="M71.4298 9.73633C70.6039 9.73633 69.9319 10.4083 69.9319 11.2342C69.9319 12.0601 70.6039 12.7321 71.4298 12.7321C72.2557 12.7321 72.9277 12.0601 72.9277 11.2342C72.9277 10.4083 72.2557 9.73633 71.4298 9.73633Z" fill="#C4C967"></path><path d="M63.7532 9.73633C62.9273 9.73633 62.2553 10.4083 62.2553 11.2342C62.2553 12.0601 62.9273 12.7321 63.7532 12.7321C64.5791 12.7321 65.2511 12.0601 65.2511 11.2342C65.2511 10.4083 64.5791 9.73633 63.7532 9.73633Z" fill="#C4C967"></path><path d="M79.1064 9.73633C78.2805 9.73633 77.6085 10.4083 77.6085 11.2342C77.6085 12.0601 78.2805 12.7321 79.1064 12.7321C79.9323 12.7321 80.6043 12.0601 80.6043 11.2342C80.6043 10.4083 79.9323 9.73633 79.1064 9.73633Z" fill="#C4C967"></path><path d="M28.3381 27.6664L39.6455 38.9739C40.1939 39.5223 41.0831 39.5223 41.6313 38.9739C42.1797 38.4255 42.1797 37.5363 41.6313 36.9881L29.3343 24.6911C28.7872 24.144 27.9007 24.1425 27.3519 24.6877L19.0634 32.9202C18.7985 33.1833 18.6495 33.5409 18.6487 33.9142C18.648 34.2876 18.7961 34.6456 19.0601 34.9096L24.4915 40.341C24.4934 40.3429 31.3853 47.2348 31.3853 47.2348C31.6594 47.5089 32.0189 47.6462 32.3782 47.6462C32.7375 47.6462 33.097 47.5091 33.3711 47.2348C33.9195 46.6864 33.9195 45.7972 33.3711 45.249L32.9036 44.7815L36.1171 41.568C36.6655 41.0196 36.6655 40.1304 36.1171 39.5822C35.5687 39.0338 34.6795 39.0338 34.1313 39.5822L30.9178 42.7957L27.4714 39.3493L30.6849 36.1358C31.2333 35.5874 31.2333 34.6982 30.6849 34.15C30.1365 33.6016 29.2473 33.6016 28.6991 34.15L25.4856 37.3635L22.0425 33.9204L28.3381 27.6664Z" fill="#FCAD37"></path><path d="M47.8381 63.688C47.8383 63.6881 58.6936 74.5434 58.6936 74.5434C58.957 74.8068 59.3141 74.9548 59.6867 74.9548C60.0593 74.9548 60.4161 74.8068 60.6797 74.5434L68.9401 66.2828C69.4885 65.7344 69.4885 64.8453 68.9401 64.297L56.6291 51.986C56.0805 51.4376 55.1915 51.4376 54.6431 51.986C54.0947 52.5344 54.0947 53.4236 54.6431 53.9718L65.9612 65.2899L59.6867 71.5645L56.2449 68.1228L59.4584 64.9091C60.0068 64.3607 60.0068 63.4715 59.4584 62.9233C58.9098 62.3749 58.0208 62.3749 57.4724 62.9233L54.2589 66.1368L50.8172 62.6951L54.0309 59.4816C54.5793 58.9331 54.5793 58.044 54.0309 57.4958C53.4825 56.9473 52.5935 56.9473 52.0449 57.4958L48.8314 60.7092L48.3685 60.2464C47.82 59.698 46.931 59.698 46.3826 60.2464C45.8342 60.7948 45.8342 61.684 46.3826 62.2322L47.8381 63.688Z" fill="#FCAD37"></path><path d="M20.1576 74.8642C20.3434 74.8642 20.531 74.8273 20.7087 74.7513L32.9953 69.5044C33.0008 69.502 33.0202 69.4938 33.0202 69.4938C33.0322 69.4887 33.0436 69.4822 33.0554 69.4767C33.082 69.4646 33.1086 69.4524 33.1344 69.4383C33.1498 69.4301 33.1646 69.4206 33.1796 69.4116C33.2032 69.3977 33.2269 69.3842 33.25 69.3687C33.2694 69.3556 33.2878 69.341 33.3067 69.3271C33.3241 69.314 33.3421 69.3019 33.3589 69.288C33.3945 69.2588 33.429 69.2279 33.4615 69.1951L63.8045 38.8524C63.8047 38.8522 67.3773 35.2796 67.3773 35.2796C68.5829 34.0738 69.247 32.4684 69.247 30.7596C69.2472 29.0507 68.5831 27.4453 67.3773 26.2395C66.1715 25.0337 64.5662 24.3696 62.8573 24.3696C61.1482 24.3696 59.5431 25.0337 58.3371 26.2395L54.7656 29.8112C54.7635 29.8133 24.4217 60.1551 24.4217 60.1551C24.3889 60.1877 24.3582 60.2221 24.329 60.2577C24.3148 60.2751 24.3022 60.2935 24.2889 60.3113C24.2753 60.3296 24.261 60.3474 24.2483 60.3665C24.2326 60.3901 24.2185 60.4144 24.2043 60.4388C24.1959 60.4532 24.1867 60.4672 24.1788 60.482C24.1646 60.5084 24.1521 60.5356 24.1397 60.5627C24.1345 60.5741 24.1283 60.585 24.1232 60.5966L24.1152 60.6153C24.1124 60.6217 18.8657 72.9082 18.8657 72.9082C18.6405 73.4356 18.7586 74.0471 19.1642 74.4527C19.433 74.7217 19.7921 74.8642 20.1576 74.8642ZM55.7576 32.7916L60.8256 37.8596L32.4686 66.2166L27.4006 61.1486L55.7576 32.7916ZM60.3233 28.2259C60.9984 27.5505 61.8985 27.1785 62.8573 27.1785C63.8159 27.1785 64.716 27.5504 65.3913 28.2259C66.0665 28.9011 66.4385 29.8011 66.4385 30.7597C66.4385 31.7186 66.0667 32.6184 65.3911 33.294L62.8116 35.8735L57.7435 30.8054L60.3233 28.2259ZM25.8904 63.6101L30.0071 67.7268L22.8221 70.795L25.8904 63.6101Z" fill="#FCAD37"></path></svg> 