<?xml version="1.0" encoding="UTF-8"?> <svg xmlns="http://www.w3.org/2000/svg" width="80" height="80" viewBox="0 0 80 80" fill="none"><g clip-path="url(#clip0)"><circle cx="12" cy="12" r="11" fill="#FEEBCD"></circle><circle cx="14.5" cy="46.5" r="6.5" fill="#FEEBCD"></circle><circle cx="5.5" cy="74.5" r="3.5" fill="#FEEBCD"></circle><circle cx="68.5" cy="5.5" r="3.5" fill="#FEEBCD"></circle><circle cx="74.5" cy="23.5" r="3.5" fill="#FEEBCD"></circle><circle cx="45.5" cy="19.5" r="6.5" fill="#FEEBCD"></circle><path d="M79.9201 21.7856C79.4941 19.2151 77.2693 17.3311 74.6638 17.3346C72.4187 17.3413 70.4193 18.7565 69.6666 20.8717L53.3175 19.3849C53.2519 18.5072 53.0407 17.6464 52.6927 16.8377L64.4163 9.25468C66.5887 11.225 69.9469 11.0613 71.9173 8.88898C73.8876 6.71661 73.7239 3.3584 71.5516 1.38803C69.3792 -0.582332 66.021 -0.418635 64.0506 1.75373C63.1592 2.73658 62.6679 4.01769 62.6738 5.34459C62.6809 5.91378 62.7803 6.47798 62.9682 7.0152L51.2446 14.6089C48.2747 11.3556 43.2297 11.1258 39.9764 14.0957C39.1288 14.8695 38.4582 15.8171 38.0102 16.8737L23.9379 13.4885C24.7647 6.91845 20.1089 0.92192 13.5388 0.0951058C6.96861 -0.731709 0.972246 3.9241 0.145432 10.4941C-0.681383 17.0642 3.97442 23.0607 10.5445 23.8875C10.906 23.933 11.2692 23.962 11.6334 23.9745L12.7818 38.8954C8.50217 39.9577 5.894 44.2881 6.95612 48.5677C7.50217 50.7676 8.95746 52.6317 10.9593 53.6952L5.74762 69.3275C5.62639 69.3195 5.51182 69.2916 5.38792 69.2916C2.43087 69.2776 0.0225335 71.6634 0.00854508 74.6205C-0.00544332 77.5775 2.38041 79.9859 5.33746 79.9999C8.29451 80.0138 10.7028 77.628 10.7168 74.6709C10.7253 72.8494 9.80742 71.1487 8.28019 70.1562L13.4879 54.5331C14.299 54.6717 15.128 54.6717 15.9392 54.5331L21.1482 70.1562C18.6907 71.7608 17.9995 75.054 19.6041 77.5114C21.2088 79.9689 24.5019 80.6601 26.9594 79.0555C29.4168 77.4508 30.1081 74.1577 28.5034 71.7002C27.5192 70.1932 25.8391 69.2866 24.0391 69.2916C23.9152 69.2916 23.8006 69.3195 23.6794 69.3275L18.4677 53.6965C22.3612 51.6156 23.8303 46.7724 21.7494 42.879C20.4831 40.5099 18.1117 38.9352 15.4369 38.6876L14.2912 23.7786C18.4434 22.9778 21.8693 20.0536 23.3117 16.0784L37.3894 19.4569C37.3761 19.6367 37.3614 19.8166 37.3614 19.9991C37.3816 24.4136 40.9767 27.976 45.3913 27.9558C48.9926 27.9394 52.1382 25.5165 53.0737 22.0387L69.4215 23.5255C69.9019 26.4246 72.6417 28.3853 75.5408 27.9049C78.4398 27.4244 80.4006 24.6847 79.9201 21.7856ZM68.0027 2.68013C69.4743 2.68013 70.6671 3.87297 70.6671 5.34459C70.6671 6.8162 69.4743 8.00904 68.0027 8.00904C66.5311 8.00904 65.3382 6.8162 65.3382 5.34459C65.3382 3.87297 66.5311 2.68013 68.0027 2.68013ZM5.38792 77.2849C3.91631 77.2849 2.72346 76.0921 2.72346 74.6205C2.72346 73.1489 3.91631 71.956 5.38792 71.956C6.85953 71.956 8.05238 73.1489 8.05238 74.6205C8.05238 76.0921 6.85953 77.2849 5.38792 77.2849ZM24.0391 71.956C25.5107 71.956 26.7036 73.1489 26.7036 74.6205C26.7036 76.0921 25.5107 77.2849 24.0391 77.2849C22.5675 77.2849 21.3747 76.0921 21.3747 74.6205C21.3747 73.1489 22.5675 71.956 24.0391 71.956ZM14.7135 41.3148C17.6566 41.3148 20.0424 43.7006 20.0424 46.6437C20.0424 49.5867 17.6566 51.9726 14.7135 51.9726C11.7705 51.9726 9.3846 49.5867 9.3846 46.6437C9.3846 43.7006 11.7705 41.3148 14.7135 41.3148ZM12.0491 21.3313C6.89867 21.3313 2.72346 17.1561 2.72346 12.0057C2.72346 6.85533 6.89867 2.68013 12.0491 2.68013C17.1995 2.68013 21.3747 6.85533 21.3747 12.0057C21.3688 17.1536 17.197 21.3255 12.0491 21.3313ZM45.3548 25.328C42.4117 25.328 40.0259 22.9422 40.0259 19.9991C40.0259 17.056 42.4117 14.6702 45.3548 14.6702C48.2978 14.6702 50.6837 17.056 50.6837 19.9991C50.6837 22.9422 48.2978 25.328 45.3548 25.328ZM74.6638 25.328C73.1922 25.328 71.9994 24.1352 71.9994 22.6636C71.9994 21.1919 73.1922 19.9991 74.6638 19.9991C76.1354 19.9991 77.3283 21.1919 77.3283 22.6636C77.3283 24.1352 76.1354 25.328 74.6638 25.328Z" fill="#FCAD37"></path><path d="M69.7129 56.0916C69.1463 56.01 68.5745 55.969 68.0021 55.9692C63.0427 55.9773 58.5993 59.0358 56.8207 63.6655L45.3183 60.6653C45.3396 60.4335 45.3542 60.2017 45.3542 59.9659C45.3557 58.0964 44.6988 56.2861 43.4984 54.8528L51.0162 46.0827C51.7398 46.4469 52.5376 46.6387 53.3476 46.6436C56.3047 46.6574 58.713 44.2714 58.7268 41.3143C58.7406 38.3573 56.3546 35.9489 53.3976 35.9351C50.4405 35.9213 48.0322 38.3073 48.0184 41.2644C48.0132 42.3704 48.3507 43.4509 48.9846 44.3575L41.4721 53.1235C40.2326 52.3713 38.8107 51.9731 37.3609 51.9725C37.2276 51.9725 37.0944 51.9858 36.9612 51.9925L34.4526 40.7098C37.0609 39.3673 38.0871 36.1646 36.7445 33.5563C35.402 30.9479 32.1993 29.9218 29.591 31.2643C26.9826 32.6069 25.9565 35.8096 27.299 38.4179C28.1818 40.1331 29.9252 41.2349 31.8534 41.296L34.358 52.5653C30.2654 54.2206 28.2897 58.8803 29.945 62.9727C31.6003 67.0653 36.2599 69.041 40.3524 67.3857C42.2666 66.6115 43.807 65.1264 44.6507 63.2418L56.1451 66.2433C55.2019 72.7932 59.747 78.8677 66.2969 79.8109C72.8468 80.7541 78.9212 76.209 79.8645 69.6591C80.808 63.1092 76.2629 57.0348 69.7129 56.0916ZM53.3476 38.6502C54.8192 38.6502 56.0121 39.843 56.0121 41.3147C56.0121 42.7863 54.8192 43.9791 53.3476 43.9791C51.876 43.9791 50.6832 42.7863 50.6832 41.3147C50.6832 39.843 51.876 38.6502 53.3476 38.6502ZM32.0319 38.6502C30.5603 38.6502 29.3675 37.4574 29.3675 35.9857C29.3675 34.5141 30.5603 33.3213 32.0319 33.3213C33.5036 33.3213 34.6964 34.5141 34.6964 35.9857C34.6964 37.4574 33.5036 38.6502 32.0319 38.6502ZM37.3609 65.2948C34.4178 65.2948 32.0319 62.9089 32.0319 59.9659C32.0319 57.0228 34.4178 54.6369 37.3609 54.6369C40.3039 54.6369 42.6898 57.0228 42.6898 59.9659C42.6898 62.9089 40.3039 65.2948 37.3609 65.2948ZM68.0021 77.2848C62.8517 77.2848 58.6765 73.1096 58.6765 67.9592C58.6765 62.8088 62.8517 58.6336 68.0021 58.6336C73.1525 58.6336 77.3277 62.8088 77.3277 67.9592C77.3219 73.1071 73.15 77.279 68.0021 77.2848Z" fill="#B1B834"></path></g><defs><clipPath id="clip0"><rect width="80" height="80" fill="white"></rect></clipPath></defs></svg> 