<?xml version="1.0" encoding="UTF-8"?> <svg xmlns="http://www.w3.org/2000/svg" width="80" height="80" viewBox="0 0 80 80" fill="none"><path d="M6 56V49H38.5L38 56L35.5 57V64H38.5V71.5H35.5V78.5L3.5 79V71.5H5.5V70V64L3.5 63.5V56H6Z" fill="#FDD69B" fill-opacity="0.5"></path><path d="M15.5 14.4923L22 14H24L26 14.4923L28.5 15.9692L31 17.9385L34 20.4L36 24.8308L37 27.7846V30.7385L36 35.6615L34 38.6154L31.5 41.5692L27.5 44.0308L22.5 45.5077L18.5 46L13.5 44.0308L9.5 41.5692L7.5 38.6154L5.5 34.6769L5 27.7846L6.5 23.3538L10.5 17.4462L15.5 14.4923Z" fill="#FEEBCD"></path><path d="M20.5889 12.5189C10.963 12.5189 3.13159 20.3503 3.13159 29.9763C3.13159 39.6022 10.9628 47.4336 20.5889 47.4336C30.2149 47.4336 38.0463 39.6022 38.0463 29.9763C38.0463 20.3503 30.215 12.5189 20.5889 12.5189ZM20.5889 45.0852C12.258 45.0852 5.48003 38.3074 5.48003 29.9763C5.48003 21.6452 12.2577 14.8674 20.5889 14.8674C28.92 14.8674 35.6978 21.6452 35.6978 29.9763C35.6978 38.3074 28.92 45.0852 20.5889 45.0852Z" fill="#FCAD37"></path><path d="M25.8182 27.393C26.4667 27.393 26.9925 26.8672 26.9925 26.2188V24.9663C26.9925 22.2469 24.78 20.0344 22.0606 20.0344H21.9823V17.451C21.9823 16.8025 21.4565 16.2767 20.8081 16.2767C20.1597 16.2767 19.6339 16.8025 19.6339 17.451V20.0616C16.8253 20.3378 14.6237 22.7125 14.6237 25.5925C14.6237 28.6574 17.117 31.1506 20.1818 31.1506H21.4343C23.2042 31.1506 24.644 32.5905 24.644 34.3603C24.644 36.1302 23.2042 37.57 21.4343 37.57H19.5556C18.1311 37.57 16.9722 36.4111 16.9722 34.9866C16.9722 34.3381 16.4464 33.8124 15.7979 33.8124C15.1495 33.8124 14.6237 34.3381 14.6237 34.9866C14.6237 37.706 16.8362 39.9185 19.5556 39.9185H19.6339V42.5019C19.6339 43.1503 20.1597 43.6761 20.8081 43.6761C21.4565 43.6761 21.9823 43.1503 21.9823 42.5019V39.8913C24.7909 39.615 26.9925 37.2403 26.9925 34.3603C26.9925 31.2955 24.4992 28.8022 21.4343 28.8022H20.1818C18.412 28.8022 16.9722 27.3624 16.9722 25.5925C16.9722 23.8227 18.412 22.3828 20.1818 22.3828H22.0606C23.4851 22.3828 24.644 23.5417 24.644 24.9663V26.2188C24.644 26.8672 25.1698 27.393 25.8182 27.393Z" fill="#FCAD37"></path><path d="M39.3772 57.4542C40.0256 57.4542 40.5514 56.9284 40.5514 56.28V48.7647C40.5514 48.1162 40.0256 47.5905 39.3772 47.5905H6.81093C6.1625 47.5905 5.63671 48.1162 5.63671 48.7647V55.1058H4.30593C3.6575 55.1058 3.13171 55.6315 3.13171 56.28V63.7953C3.13171 64.4437 3.6575 64.9695 4.30593 64.9695H5.63671V70.1362H4.30593C3.6575 70.1362 3.13171 70.662 3.13171 71.3105V78.8258C3.13171 79.4742 3.6575 80 4.30593 80H36.8722C37.5206 80 38.0464 79.4742 38.0464 78.8258V72.4847H39.3772C40.0256 72.4847 40.5514 71.9589 40.5514 71.3105V63.7951C40.5514 63.1467 40.0256 62.6209 39.3772 62.6209H38.0464V57.4542H39.3772ZM5.48 62.6209V57.4542H35.6978V62.6209H5.48ZM35.6978 77.6515H5.48V72.4848H35.6978V77.6515ZM38.203 64.9695V70.1362H7.98515V64.9695H38.203ZM7.98515 55.1056V49.9389H38.203V55.1056H7.98515Z" fill="#FCAD37"></path><path d="M76.6075 21.7146L59.0717 0.421264C58.6092 -0.140299 57.7213 -0.140299 57.2588 0.421264L39.7232 21.7146C39.1042 22.4661 39.658 23.6353 40.6297 23.6353H48.2233V60.0375C48.2233 60.686 48.7491 61.2118 49.3975 61.2118H66.9331C67.5816 61.2118 68.1074 60.686 68.1074 60.0375V55.1057C68.1074 54.4572 67.5816 53.9314 66.9331 53.9314C66.2847 53.9314 65.7589 54.4572 65.7589 55.1057V58.8633H50.5719V22.4611C50.5719 21.8127 50.0461 21.2869 49.3977 21.2869H43.1182L58.1655 3.01501L73.2128 21.2869H66.9333C66.2849 21.2869 65.7591 21.8127 65.7591 22.4611V49.5475C65.7591 50.196 66.2849 50.7217 66.9333 50.7217C67.5817 50.7217 68.1075 50.196 68.1075 49.5475V23.6353H75.7011C76.6725 23.6353 77.2266 22.4663 76.6075 21.7146Z" fill="#B1B834"></path><path d="M66.9333 65.1261H49.3975C48.749 65.1261 48.2233 65.6519 48.2233 66.3003C48.2233 66.9487 48.749 67.4745 49.3975 67.4745H66.9331C67.5815 67.4745 68.1073 66.9487 68.1073 66.3003C68.1073 65.6519 67.5817 65.1261 66.9333 65.1261Z" fill="#B1B834"></path><path d="M66.9333 71.3887H49.3975C48.749 71.3887 48.2233 71.9145 48.2233 72.563C48.2233 73.2114 48.749 73.7372 49.3975 73.7372H66.9331C67.5815 73.7372 68.1073 73.2114 68.1073 72.563C68.1073 71.9145 67.5817 71.3887 66.9333 71.3887Z" fill="#B1B834"></path><path d="M66.9333 77.6516H49.3975C48.749 77.6516 48.2233 78.1773 48.2233 78.8258C48.2233 79.4742 48.749 80 49.3975 80H66.9331C67.5815 80 68.1073 79.4742 68.1073 78.8258C68.1075 78.1773 67.5817 77.6516 66.9333 77.6516Z" fill="#B1B834"></path></svg> 