<?xml version="1.0" encoding="UTF-8"?> <svg xmlns="http://www.w3.org/2000/svg" width="80" height="80" viewBox="0 0 80 80" fill="none"><path d="M29 33.5L20 31L19.5 42L16.5 48.5V58L20 66L23 79L27 72.5L33.5 75.5L44 76L53.5 72.5L57 79L60.5 65L63.5 58V50L60.5 42L60 31L50.5 33.5L43 31H37.5L29 33.5Z" fill="#FDD69B" fill-opacity="0.5"></path><path d="M61.6382 41.934L61.2108 31.184C61.1818 30.4496 60.4607 29.9112 59.7477 30.0929L50.7812 32.3767C47.403 30.8367 43.7785 30.0565 40.0001 30.0565C36.2218 30.0565 32.5971 30.8367 29.219 32.3767L20.2523 30.0928C19.5395 29.9109 18.8186 30.4496 18.7892 31.1839L18.3618 41.9339C16.182 45.522 15.0314 49.6085 15.0314 53.7729C15.0314 58.3565 16.409 62.6398 18.7892 66.271C18.7875 66.3552 18.794 66.4407 18.8111 66.5266L21.3157 79.0502C21.4057 79.5 21.7612 79.8647 22.209 79.9655C22.4471 80.0191 22.7114 79.9941 22.9535 79.9941C23.2057 79.9941 23.4582 79.9982 23.7104 79.9941C24.1564 79.9869 24.5676 79.749 24.7696 79.3451L27.339 74.2063C31.0535 76.2907 35.3818 77.4891 39.9999 77.4891C44.618 77.4891 48.9465 76.2907 52.661 74.2062L55.2304 79.3449C55.4322 79.7488 55.8435 79.9868 56.2896 79.994C56.5418 79.998 56.7943 79.994 57.0465 79.994C57.2886 79.994 57.5529 80.019 57.791 79.9654C58.2386 79.8647 58.5943 79.4999 58.6843 79.05L61.1889 66.5265C61.2061 66.4405 61.2127 66.3551 61.2108 66.2708C63.5913 62.6394 64.9686 58.3563 64.9686 53.7727C64.9689 49.6087 63.8182 45.5221 61.6382 41.934ZM23.3051 77.0233L21.9239 70.1176C22.9681 71.159 24.1115 72.1091 25.3381 72.9572L23.3051 77.0233ZM56.6949 77.0233L54.6619 72.9572C55.8886 72.1091 57.0321 71.1588 58.0761 70.1176L56.6949 77.0233ZM40.0001 75.1413C27.527 75.1413 17.3795 65.5555 17.3795 53.7731C17.3795 49.9457 18.4648 46.1899 20.5179 42.9115C20.6264 42.7382 20.6879 42.5395 20.6961 42.3349L21.0781 32.7264L29.0454 34.7556C29.3112 34.8234 29.5923 34.7957 29.8398 34.6779C33.0098 33.1695 36.4284 32.4046 40.0002 32.4046C43.5721 32.4046 46.9905 33.1695 50.1607 34.6779C50.4082 34.7954 50.6893 34.8231 50.9551 34.7556L58.9224 32.7264L59.3044 42.3349C59.3125 42.5393 59.374 42.7382 59.4825 42.9115C61.5357 46.1896 62.621 49.9457 62.621 53.7731C62.6207 65.5554 52.4732 75.1413 40.0001 75.1413Z" fill="#FCAD37"></path><path d="M48.416 55.4041C48.0365 54.8783 47.3032 54.7593 46.7768 55.1385C46.2509 55.5177 46.1318 56.2513 46.511 56.7776C47.2187 57.7591 47.5924 58.8854 47.5924 60.0347C47.5924 63.5307 44.1865 66.3747 40.0001 66.3747C35.8137 66.3747 32.4078 63.5307 32.4078 60.0347C32.4078 56.5388 35.8137 53.6947 40.0001 53.6947C40.7662 53.6947 41.522 53.7899 42.2465 53.9776C42.8749 54.1407 43.5149 53.763 43.6774 53.1355C43.8401 52.5077 43.463 51.8671 42.8354 51.7044C41.9188 51.4669 40.9649 51.3465 40.0002 51.3465C34.519 51.3465 30.0596 55.244 30.0596 60.0347C30.0596 64.8255 34.519 68.723 40.0002 68.723C45.4815 68.723 49.9408 64.8255 49.9408 60.0347C49.9408 58.3893 49.4135 56.7882 48.416 55.4041Z" fill="#FCAD37"></path><path d="M36.2432 61.2088C36.8916 61.2088 37.4173 60.6831 37.4173 60.0347C37.4173 59.3863 36.8916 58.8607 36.2432 58.8607C35.5948 58.8607 35.0692 59.3863 35.0692 60.0347C35.0692 60.6831 35.5948 61.2088 36.2432 61.2088Z" fill="#FCAD37"></path><path d="M43.8355 61.2088C44.484 61.2088 45.0096 60.6831 45.0096 60.0347C45.0096 59.3863 44.484 58.8607 43.8355 58.8607C43.1871 58.8607 42.6615 59.3863 42.6615 60.0347C42.6615 60.6831 43.1871 61.2088 43.8355 61.2088Z" fill="#FCAD37"></path><path d="M50.019 46.3371C47.9905 46.3371 46.3402 47.9874 46.3402 50.0158C46.3402 50.6643 46.8657 51.1899 47.5143 51.1899C48.1629 51.1899 48.6883 50.6643 48.6883 50.0158C48.6883 49.2946 49.2977 48.6852 50.019 48.6852C50.7402 48.6852 51.3496 49.2946 51.3496 50.0158C51.3496 50.6643 51.8751 51.1899 52.5237 51.1899C53.1722 51.1899 53.6977 50.6643 53.6977 50.0158C53.6977 47.9874 52.0474 46.3371 50.019 46.3371Z" fill="#FCAD37"></path><path d="M29.9812 46.3371C27.9528 46.3371 26.3024 47.9874 26.3024 50.0158C26.3024 50.6643 26.8279 51.1899 27.4765 51.1899C28.1251 51.1899 28.6506 50.6643 28.6506 50.0158C28.6506 49.2946 29.2599 48.6852 29.9812 48.6852C30.7024 48.6852 31.3118 49.2946 31.3118 50.0158C31.3118 50.6643 31.8373 51.1899 32.4859 51.1899C33.1345 51.1899 33.6599 50.6643 33.6599 50.0158C33.6601 47.9874 32.0098 46.3371 29.9812 46.3371Z" fill="#FCAD37"></path><path d="M40.0001 0C32.4471 0 26.3024 6.14468 26.3024 13.6976C26.3024 21.2506 32.4471 27.3953 40.0001 27.3953C47.553 27.3953 53.6977 21.2506 53.6977 13.6976C53.6977 6.14468 47.553 0 40.0001 0ZM40.0001 25.0471C33.742 25.0471 28.6506 19.9559 28.6506 13.6976C28.6506 7.43952 33.7418 2.34812 40.0001 2.34812C46.2582 2.34812 51.3496 7.43936 51.3496 13.6976C51.3496 19.9557 46.2582 25.0471 40.0001 25.0471Z" fill="#B1B834"></path><path d="M43.2562 12.4297C43.9048 12.4297 44.4302 11.904 44.4302 11.2556V10.4415C44.4302 8.56904 42.9998 7.02467 41.1741 6.84342V5.55748C41.1741 4.90905 40.6487 4.38342 40.0001 4.38342C39.3515 4.38342 38.826 4.90905 38.826 5.55748V6.89967C36.9735 7.25889 35.5699 8.89248 35.5699 10.8487C35.5699 13.0672 37.3748 14.8718 39.5931 14.8718H40.407C41.3305 14.8718 42.082 15.6232 42.082 16.5468C42.082 17.4704 41.3307 18.2218 40.407 18.2218H39.1859C38.4868 18.2218 37.9179 17.6529 37.9179 16.9539C37.9179 16.3054 37.3924 15.7798 36.7438 15.7798C36.0952 15.7798 35.5698 16.3054 35.5698 16.9539C35.5698 18.8264 37.0002 20.3707 38.8259 20.552V21.8379C38.8259 22.4864 39.3513 23.012 39.9999 23.012C40.6485 23.012 41.174 22.4864 41.174 21.8379V20.4957C43.0265 20.1365 44.4301 18.5029 44.4301 16.5467C44.4301 14.3282 42.6252 12.5236 40.407 12.5236H39.5931C38.6695 12.5236 37.9181 11.7722 37.9181 10.8486C37.9181 9.92497 38.6695 9.17357 39.5931 9.17357H40.8141C41.5132 9.17357 42.0821 9.74247 42.0821 10.4415V11.2556C42.0821 11.9039 42.6076 12.4297 43.2562 12.4297Z" fill="#B1B834"></path><path d="M66.024 11.7939C65.6643 11.2545 64.9354 11.1089 64.3957 11.4684L62.464 12.7562V4.93108C62.464 4.28264 61.9385 3.75702 61.2899 3.75702C60.6413 3.75702 60.1158 4.28264 60.1158 4.93108V12.7561L58.1841 11.4681C57.6446 11.1086 56.9157 11.254 56.556 11.7937C56.1963 12.3333 56.3421 13.0622 56.8816 13.4218L60.6313 15.9215C61.0186 16.1884 61.5613 16.1884 61.9486 15.9215L65.6983 13.4218C66.2379 13.0623 66.3838 12.3333 66.024 11.7939Z" fill="#B1B834"></path><path d="M12.1728 30.5792C11.8131 30.0399 11.0842 29.8942 10.5445 30.2537L8.6128 31.5415V23.7164C8.6128 23.0679 8.08733 22.5423 7.43874 22.5423C6.79014 22.5423 6.26468 23.0679 6.26468 23.7164V31.5413L4.33296 30.2535C3.79374 29.894 3.06468 30.0395 2.70484 30.5792C2.34515 31.1187 2.49093 31.8476 3.03046 32.2073L6.78014 34.707C7.16749 34.9738 7.71014 34.9738 8.09749 34.707L11.8472 32.2073C12.3867 31.8476 12.5325 31.1187 12.1728 30.5792Z" fill="#B1B834"></path><path d="M77.2952 45.6076C76.9356 45.068 76.2066 44.9224 75.6671 45.2819L73.7353 46.5698V38.7446C73.7353 38.0962 73.2099 37.5706 72.5613 37.5706C71.9127 37.5706 71.3872 38.0962 71.3872 38.7446V46.5696L69.4555 45.2818C68.9161 44.9221 68.1871 45.0679 67.8274 45.6074C67.4677 46.1469 67.6135 46.8759 68.153 47.2355L71.9027 49.7352C72.29 50.0021 72.8327 50.0021 73.22 49.7352L76.9697 47.2355C77.5089 46.876 77.6549 46.1471 77.2952 45.6076Z" fill="#B1B834"></path></svg> 