<?xml version="1.0" encoding="UTF-8"?> <svg xmlns="http://www.w3.org/2000/svg" width="80" height="80" viewBox="0 0 80 80" fill="none"><g clip-path="url(#clip0)"><path d="M2.5 45L6 22L7 21.5L9 22L10 24V26V36L13.5 37L16.5 41L18.5 45L20.5 49L22 50.5L24.5 53L26.5 55.5L27.5 58.5V63.5L31 63L34.5 70L17.5 78.5L13.5 71L15 70L15.5 66.5L14.5 63.5L7 55L3.5 49L2.5 45Z" fill="#FDD69B" fill-opacity="0.5"></path><path d="M78 45.5L74.5 22.5L73.5 22L71.5 22.5L70.5 24.5V26.5V36.5L67 37.5L64 41.5L62 45.5L60 49.5L58.5 51L56 53.5L54 56L53 59V64L49.5 63.5L46 70.5L63 79L67 71.5L65.5 70.5L65 67L66 64L73.5 55.5L77 49.5L78 45.5Z" fill="#FDD69B" fill-opacity="0.5"></path><path d="M40.0356 5.58264C29.8494 5.58264 21.5912 13.8402 21.5912 24.027C21.5912 34.2137 29.8488 42.4713 40.0356 42.4713C50.2223 42.4713 58.4799 34.2137 58.4799 24.027C58.4687 13.8452 50.2173 5.59447 40.0356 5.58264ZM40.0356 39.9215C31.2576 39.9215 24.141 32.8056 24.141 24.027C24.141 15.249 31.2576 8.13244 40.0356 8.13244C48.8142 8.13244 55.9301 15.249 55.9301 24.027C55.9202 32.8013 48.8098 39.9116 40.0356 39.9215Z" fill="#B1B834"></path><path d="M46.7175 24.2231H40.3542V15.4363C40.3542 14.7323 39.7834 14.1614 39.0793 14.1614C38.3753 14.1614 37.8044 14.7323 37.8044 15.4363V25.4594C37.8026 26.1715 38.3697 26.7548 39.0812 26.7729H46.7175C47.4222 26.7729 47.9924 26.202 47.9924 25.498C47.9924 24.7939 47.4222 24.2231 46.7175 24.2231Z" fill="#B1B834"></path><path d="M64.063 24.0269C64.063 10.7787 53.2843 0 40.0355 0C26.7873 0 16.0086 10.7787 16.0086 24.0269C16.0086 37.2758 26.7873 48.0539 40.0355 48.0539C53.2843 48.0539 64.063 37.2758 64.063 24.0269ZM40.0355 45.5041C28.1929 45.5041 18.5584 35.8695 18.5584 24.0269C18.5584 12.185 28.1929 2.54979 40.0355 2.54979C51.8781 2.54979 61.5133 12.1843 61.5133 24.0269C61.5133 35.8701 51.8781 45.5041 40.0355 45.5041Z" fill="#B1B834"></path><path d="M75.1094 21.0426C75.0042 20.3765 74.3979 19.9072 73.7262 19.9738C70.6734 20.2682 68.3907 22.9083 68.5401 25.9716L68.7692 35.3634C66.258 35.6136 64.0599 37.1581 62.9736 39.4358L59.5418 46.6426C59.0077 47.7594 58.2295 48.7423 57.2646 49.5186L56.5506 50.0907C52.9226 52.9853 50.9014 57.4431 51.1136 62.0802L49.7111 61.4122C49.0755 61.1097 48.3148 61.3799 48.0123 62.0154L44.2486 69.9175C43.9461 70.5531 44.2163 71.3138 44.8518 71.617L62.193 79.8758C62.4981 80.0215 62.8485 80.0395 63.1672 79.9268C63.486 79.8136 63.7468 79.5782 63.8918 79.2726L67.6555 71.3705C67.9581 70.7349 67.6885 69.9742 67.0529 69.671L66.3128 69.3187L66.1279 66.8473C66.0538 65.8812 66.3582 64.9244 66.9764 64.1793L75.9567 53.3122C75.9747 53.2904 75.9921 53.268 76.009 53.2443C77.8603 50.6603 78.8364 47.5515 78.7947 44.3723C78.7934 44.3119 78.7878 44.2522 78.7785 44.1924L75.1094 21.0426ZM62.1376 77.026L47.0985 69.8628L49.7659 64.2627L64.8057 71.4259L62.1376 77.026ZM73.964 51.7217L65.0117 62.5552C63.9728 63.8076 63.4611 65.415 63.5856 67.0372L63.6621 68.0563L53.8047 63.3625C53.1032 59.0928 54.7634 54.7775 58.1455 52.0796L58.8595 51.5075C60.1238 50.4903 61.1441 49.2024 61.8438 47.7382L65.2757 40.5315C66.1733 38.6533 68.2058 37.5957 70.2595 37.94L65.2421 48.4753C65.0398 48.8874 65.0746 49.376 65.3336 49.7551C65.5919 50.1343 66.0345 50.3453 66.4921 50.3073C66.9496 50.2693 67.3511 49.988 67.5441 49.5715L73.1853 37.7252C73.4878 37.0896 73.2176 36.3289 72.5821 36.0264C72.178 35.834 71.7572 35.6803 71.3246 35.5663L71.088 25.8932C71.088 25.882 71.088 25.8708 71.0874 25.8596C71.0227 24.6052 71.6981 23.4287 72.8142 22.8522L76.2461 44.4999C76.2611 47.0871 75.463 49.6132 73.964 51.7217Z" fill="#FCAD37"></path><path d="M32.0593 62.0155C31.7561 61.3799 30.9954 61.1097 30.3598 61.4122L28.9573 62.0802C29.1702 57.4431 27.1483 52.9854 23.5203 50.0907L22.8069 49.5186C21.8421 48.743 21.0639 47.76 20.5298 46.6426L17.0973 39.4359C16.011 37.1575 13.813 35.6137 11.3018 35.3634L11.5315 25.9716C11.6809 22.9083 9.39751 20.2682 6.34536 19.9738C5.67367 19.9078 5.06735 20.3765 4.96214 21.0426L1.29246 44.1924C1.2825 44.2522 1.27752 44.312 1.27628 44.3723C1.23457 47.5515 2.21066 50.6603 4.062 53.2443C4.07881 53.268 4.09561 53.2904 4.11429 53.3122L13.094 64.1793C13.7127 64.9251 14.0171 65.8812 13.9431 66.8474L13.7582 69.3187L13.018 69.6711C12.3824 69.9742 12.1129 70.7349 12.4154 71.3705L16.1791 79.2726C16.3242 79.5783 16.585 79.8136 16.9037 79.9269C17.2224 80.0395 17.5729 80.0215 17.8786 79.8758L35.2198 71.617C35.8553 71.3145 36.1249 70.5538 35.8223 69.9182L32.0593 62.0155ZM15.0605 62.5552L6.10756 51.7217C4.60856 49.6132 3.80988 47.0871 3.82482 44.5L7.25671 22.8523C8.37349 23.4287 9.04891 24.6059 8.98354 25.8602C8.98354 25.8714 8.98292 25.8826 8.9823 25.8938L8.74637 35.567C8.31373 35.6809 7.89291 35.8347 7.4889 36.027C6.8527 36.3295 6.58316 37.0903 6.88569 37.7258L12.5269 49.5721C12.7198 49.9886 13.1214 50.27 13.5789 50.308C14.0358 50.3459 14.479 50.1349 14.7374 49.7558C14.9963 49.3767 15.0312 48.888 14.8289 48.4759L9.8121 37.9406C11.8651 37.597 13.8976 38.654 14.7959 40.5321L18.2278 47.7389C18.9275 49.203 19.9478 50.491 21.2121 51.5081L21.9255 52.0802C25.3076 54.7782 26.9678 59.0928 26.2668 63.3626L16.4101 68.0569L16.486 67.0378C16.6105 65.415 16.0994 63.8077 15.0605 62.5552ZM17.9333 77.0254L15.2659 71.4259L30.3051 64.2633L32.9725 69.864L17.9333 77.0254Z" fill="#FCAD37"></path></g><defs><clipPath id="clip0"><rect width="80" height="80" fill="white"></rect></clipPath></defs></svg> 