<?xml version="1.0" encoding="UTF-8"?> <svg xmlns="http://www.w3.org/2000/svg" width="58" height="53" viewBox="0 0 58 53" fill="none"><path d="M0.999992 4C0.999992 2.34315 2.34314 1 3.99999 1H53C54.6568 1 56 2.34315 56 4V37C56 38.6569 54.6568 40 53 40H3.99999C2.34314 40 0.999992 38.6569 0.999992 37V4Z" fill="#FEEBCD"></path><path d="M14 49C14 47.8954 14.8954 47 16 47H42C43.1046 47 44 47.8954 44 49C44 50.1046 43.1046 51 42 51H16C14.8954 51 14 50.1046 14 49Z" fill="#FEEBCD"></path><path d="M29.5 38C30.8807 38 32 39.1193 32 40.5L32 47.5C32 48.8807 30.8807 50 29.5 50C28.1193 50 27 48.8807 27 47.5L27 40.5C27 39.1193 28.1193 38 29.5 38Z" fill="#FEEBCD"></path><path fill-rule="evenodd" clip-rule="evenodd" d="M0.180023 36.9051C0.180023 39.268 2.09991 41.2078 4.45631 41.2078H53.0705C55.427 41.2078 57.3468 39.2679 57.3468 36.9051V4.48254C57.3468 2.11967 55.4269 0.180023 53.0705 0.180023H4.45631C2.09995 0.180023 0.180023 2.11964 0.180023 4.48254V36.9051ZM4.45631 39.5678C3.01647 39.5678 1.81996 38.3732 1.81996 36.9051V4.48254C1.81996 3.01454 3.01643 1.81996 4.45631 1.81996H53.0705C54.5104 1.81996 55.7068 3.01452 55.7068 4.48254V36.9051C55.7068 38.3732 54.5103 39.5678 53.0705 39.5678H4.45631Z" fill="#FCAD37"></path><path fill-rule="evenodd" clip-rule="evenodd" d="M13.5328 26.5793C14.0104 26.8151 14.6127 26.9387 15.232 26.9387H41.854C42.4733 26.9387 43.0756 26.8151 43.5532 26.5793C43.9762 26.3704 44.5667 25.9265 44.5667 25.1836V16.4777C44.5667 15.7348 43.9762 15.2909 43.5532 15.082C43.0756 14.8462 42.4733 14.7226 41.854 14.7226H15.232C14.6127 14.7226 14.0104 14.8462 13.5328 15.082C13.1099 15.2909 12.5193 15.7348 12.5193 16.4777V25.1836C12.5193 25.9265 13.1099 26.3704 13.5328 26.5793ZM14.1592 25.0515V16.6098C14.1825 16.5939 14.2149 16.5742 14.2589 16.5525C14.4678 16.4493 14.8119 16.3625 15.232 16.3625H41.854C42.2742 16.3625 42.6183 16.4493 42.8272 16.5525C42.8711 16.5742 42.9036 16.5939 42.9268 16.6098V25.0515C42.9036 25.0674 42.8711 25.0871 42.8271 25.1088C42.6182 25.212 42.2742 25.2988 41.854 25.2988H15.232C14.8119 25.2988 14.4678 25.212 14.2589 25.1088C14.2149 25.0871 14.1825 25.0674 14.1592 25.0515Z" fill="#FCAD37"></path><path fill-rule="evenodd" clip-rule="evenodd" d="M0.180023 33.3766C0.180023 33.8294 0.547135 34.1965 0.999991 34.1965H56.5268C56.9796 34.1965 57.3468 33.8294 57.3468 33.3766C57.3468 32.9237 56.9796 32.5566 56.5268 32.5566H0.999991C0.547135 32.5566 0.180023 32.9237 0.180023 33.3766Z" fill="#FCAD37"></path><path fill-rule="evenodd" clip-rule="evenodd" d="M25.3151 5.77228C25.3151 6.22273 25.6803 6.58789 26.1307 6.58789H31.992C32.4424 6.58789 32.8076 6.22273 32.8076 5.77228C32.8076 5.32183 32.4424 4.95667 31.992 4.95667H26.1307C25.6803 4.95667 25.3151 5.32183 25.3151 5.77228Z" fill="#FCAD37"></path><path fill-rule="evenodd" clip-rule="evenodd" d="M15.9171 50.4206C15.2765 50.4206 14.7572 49.9025 14.7572 49.2427C14.7572 48.583 15.2765 48.065 15.9171 48.065H26.1438C26.5954 48.065 26.9615 47.6989 26.9615 47.2473V41.2076H31.1741V47.2473C31.1741 47.6989 31.5402 48.065 31.9918 48.065H41.5969C42.2375 48.065 42.7568 48.583 42.7568 49.2427C42.7568 49.9025 42.2374 50.4206 41.5969 50.4206H15.9171ZM13.1218 49.2427C13.1218 50.7862 14.354 52.0559 15.9171 52.0559H41.5969C43.1599 52.0559 44.3921 50.7862 44.3921 49.2427C44.3921 47.6992 43.1599 46.4296 41.5969 46.4296H32.8094V40.3899C32.8094 39.9383 32.4434 39.5722 31.9918 39.5722H26.1438C25.6922 39.5722 25.3261 39.9383 25.3261 40.3899V46.4296H15.9171C14.3541 46.4296 13.1218 47.6991 13.1218 49.2427Z" fill="#FCAD37"></path></svg> 