<?xml version="1.0" encoding="UTF-8"?> <svg xmlns="http://www.w3.org/2000/svg" width="56" height="52" viewBox="0 0 56 52" fill="none"><path d="M1 4C1 2.34315 2.34315 1 4 1H52C53.6569 1 55 2.34315 55 4V36C55 37.6569 53.6569 39 52 39H4C2.34315 39 1 37.6569 1 36V4Z" fill="#FEEBCD"></path><path d="M13 49C13 47.8954 13.8954 47 15 47H41C42.1046 47 43 47.8954 43 49C43 50.1046 42.1046 51 41 51H15C13.8954 51 13 50.1046 13 49Z" fill="#FEEBCD"></path><path d="M28.5 38C29.8807 38 31 39.1193 31 40.5L31 47.5C31 48.8807 29.8807 50 28.5 50C27.1193 50 26 48.8807 26 47.5L26 40.5C26 39.1193 27.1193 38 28.5 38Z" fill="#FEEBCD"></path><path fill-rule="evenodd" clip-rule="evenodd" d="M0.180023 35.6399C0.180023 37.9414 2.06323 39.8198 4.36127 39.8198H51.6388C53.9368 39.8198 55.82 37.9414 55.82 35.6399V4.3597C55.82 2.05813 53.9368 0.17989 51.6388 0.17989H4.36127C2.06327 0.17989 0.180023 2.05811 0.180023 4.3597V35.6399ZM4.36127 38.1799C2.96746 38.1799 1.81996 37.0342 1.81996 35.6399V4.3597C1.81996 2.96538 2.96742 1.81982 4.36127 1.81982H51.6388C53.0326 1.81982 54.18 2.96536 54.18 4.3597V35.6399C54.18 37.0343 53.0326 38.1799 51.6388 38.1799H4.36127Z" fill="#FCAD37"></path><path fill-rule="evenodd" clip-rule="evenodd" d="M0.180023 32.9999C0.180023 33.4527 0.547135 33.8198 0.999991 33.8198H55C55.4528 33.8198 55.82 33.4527 55.82 32.9999C55.82 32.547 55.4528 32.1799 55 32.1799H0.999991C0.547135 32.1799 0.180023 32.547 0.180023 32.9999Z" fill="#FCAD37"></path><path fill-rule="evenodd" clip-rule="evenodd" d="M25.1844 5.99982C25.1844 6.45027 25.5495 6.81543 26 6.81543H31C31.4504 6.81543 31.8156 6.45027 31.8156 5.99982C31.8156 5.54937 31.4504 5.18421 31 5.18421H26C25.5495 5.18421 25.1844 5.54937 25.1844 5.99982Z" fill="#FCAD37"></path><path fill-rule="evenodd" clip-rule="evenodd" d="M15.0019 50.1823C14.414 50.1823 13.8176 49.6394 13.8176 48.7926C13.8176 47.9458 14.414 47.403 15.0019 47.403H25.3546C25.8062 47.403 26.1723 47.0369 26.1723 46.5853V39.8176H30.457V46.5853C30.457 47.0369 30.823 47.403 31.2746 47.403H40.9981C41.586 47.403 42.1823 47.9458 42.1823 48.7926C42.1823 49.6394 41.5859 50.1823 40.9981 50.1823H15.0019ZM12.1823 48.7926C12.1823 50.3829 13.359 51.8176 15.0019 51.8176H40.9981C42.6409 51.8176 43.8176 50.3829 43.8176 48.7926C43.8176 47.2022 42.6409 45.7677 40.9981 45.7677H32.0923V39C32.0923 38.5484 31.7262 38.1823 31.2746 38.1823H25.3546C24.903 38.1823 24.537 38.5484 24.537 39V45.7677H15.0019C13.3591 45.7677 12.1823 47.2022 12.1823 48.7926Z" fill="#FCAD37"></path></svg> 