<?xml version="1.0" encoding="UTF-8"?> <!-- Generator: Adobe Illustrator 22.1.0, SVG Export Plug-In . SVG Version: 6.00 Build 0) --> <svg xmlns="http://www.w3.org/2000/svg" xmlns:xlink="http://www.w3.org/1999/xlink" id="Слой_1" x="0px" y="0px" width="55px" height="53px" viewBox="0 0 55 53" style="enable-background:new 0 0 55 53;" xml:space="preserve"> <style type="text/css"> .st0{fill:#FEEBCD;} .st1{fill:none;stroke:#FCAD37;stroke-width:2;stroke-linecap:round;stroke-linejoin:round;stroke-miterlimit:10;} </style> <path class="st0" d="M15,2h4h22l4,2.5l7.5,12l1,2.5l-2,3.5L45,26l-3-1v24l-2.5,2H15l-2.5-3V25.5L10,26l-2-0.5L2.5,21L2,18l9.5-14.5 L15,2z"></path> <path class="st1" d="M52.4,16.1L44.7,4.2C43.5,2.4,38.7,2,38.4,2h-22c0,0-4.8,0.5-5.9,2.2L2.8,16.1c-1.4,2.2-0.8,5.2,1.4,6.6 l3.5,2.2c1.6,1,3.5,1,5.1,0.1v22.4c0,2,1.6,3.6,3.7,3.6h22c2,0,3.7-1.6,3.7-3.6V24.7c1.6,1.1,3.7,1.3,5.4,0.2l3.5-2.2 C53.2,21.3,53.8,18.3,52.4,16.1z"></path> <path class="st1" d="M35.4,2c0,4.2-3.5,7.7-7.8,7.7S19.8,6.2,19.8,2H35.4z"></path> <path class="st1" d="M27.6,35.3c0,0-8.3-6.6-9.5-10.4c-1-2.7,0-6.8,3.7-7.2c3.7-0.5,5.8,2.8,5.8,2.8s2.1-3.3,5.8-2.8 c3.7,0.5,4.7,4.5,3.7,7.2C35.9,28.7,27.6,35.3,27.6,35.3z"></path> </svg> 