<?xml version="1.0" encoding="UTF-8"?> <svg xmlns="http://www.w3.org/2000/svg" width="58" height="52" viewBox="0 0 58 52" fill="none"><path d="M1.00002 4C1.00002 2.34315 2.34316 1 4.00002 1H53C54.6569 1 56 2.34315 56 4V37C56 38.6569 54.6569 40 53 40H4.00002C2.34316 40 1.00002 38.6569 1.00002 37V4Z" fill="#FEEBCD"></path><path d="M14 49C14 47.8954 14.8954 47 16 47H42C43.1046 47 44 47.8954 44 49C44 50.1046 43.1046 51 42 51H16C14.8954 51 14 50.1046 14 49Z" fill="#FEEBCD"></path><path d="M29.5 38C30.8807 38 32 39.1193 32 40.5L32 47.5C32 48.8807 30.8807 50 29.5 50C28.1193 50 27 48.8807 27 47.5L27 40.5C27 39.1193 28.1193 38 29.5 38Z" fill="#FEEBCD"></path><path fill-rule="evenodd" clip-rule="evenodd" d="M0.180054 36.7349C0.180054 39.0886 2.09254 41.021 4.43993 41.021H52.8234C55.1708 41.021 57.0832 39.0886 57.0832 36.7349V4.46622C57.0832 2.11244 55.1707 0.180238 52.8234 0.180238H4.43993C2.09258 0.180238 0.180054 2.11242 0.180054 4.46622V36.7349ZM4.43993 39.3811C3.00911 39.3811 1.81999 38.1938 1.81999 36.7349V4.46622C1.81999 3.00732 3.00907 1.82017 4.43993 1.82017H52.8234C54.2542 1.82017 55.4433 3.00729 55.4433 4.46622V36.7349C55.4433 38.1938 54.2542 39.3811 52.8234 39.3811H4.43993Z" fill="#FCAD37"></path><path fill-rule="evenodd" clip-rule="evenodd" d="M0.180054 33.2232C0.180054 33.6761 0.547166 34.0432 1.00002 34.0432H56.2632C56.7161 34.0432 57.0832 33.6761 57.0832 33.2232C57.0832 32.7704 56.7161 32.4033 56.2632 32.4033H1.00002C0.547166 32.4033 0.180054 32.7704 0.180054 33.2232Z" fill="#FCAD37"></path><path fill-rule="evenodd" clip-rule="evenodd" d="M25.1958 5.75006C25.1958 6.20051 25.561 6.56567 26.0114 6.56567H31.8449C32.2953 6.56567 32.6605 6.20051 32.6605 5.75006C32.6605 5.29961 32.2953 4.93445 31.8449 4.93445H26.0114C25.561 4.93445 25.1958 5.29961 25.1958 5.75006Z" fill="#FCAD37"></path><path fill-rule="evenodd" clip-rule="evenodd" d="M37.3029 10.3966C37.6363 10.6995 37.661 11.2153 37.3581 11.5487L35.6037 13.4794C35.3007 13.8128 34.7849 13.8374 34.4515 13.5345C34.1182 13.2316 34.0935 12.7157 34.3964 12.3824L36.1508 10.4517C36.4537 10.1183 36.9696 10.0936 37.3029 10.3966Z" fill="#FCAD37"></path><path fill-rule="evenodd" clip-rule="evenodd" d="M39.9414 24.7535C39.7108 25.1404 39.2101 25.2671 38.8232 25.0365L36.5824 23.7007C36.1955 23.47 36.0688 22.9694 36.2995 22.5825C36.5301 22.1956 37.0307 22.0689 37.4177 22.2995L39.6585 23.6353C40.0454 23.866 40.172 24.3666 39.9414 24.7535Z" fill="#FCAD37"></path><path fill-rule="evenodd" clip-rule="evenodd" d="M24.9414 13.7535C24.7107 14.1404 24.2101 14.2671 23.8232 14.0365L21.5824 12.7007C21.1955 12.47 21.0688 11.9694 21.2994 11.5825C21.5301 11.1956 22.0307 11.0689 22.4176 11.2995L24.6584 12.6353C25.0454 12.866 25.172 13.3666 24.9414 13.7535Z" fill="#FCAD37"></path><path fill-rule="evenodd" clip-rule="evenodd" d="M16.2547 25.0856C16.0718 24.674 16.2572 24.192 16.6688 24.0091L20.6161 22.2548C21.0278 22.0718 21.5098 22.2572 21.6927 22.6688C21.8756 23.0805 21.6903 23.5625 21.2786 23.7454L17.3313 25.4997C16.9196 25.6827 16.4376 25.4973 16.2547 25.0856Z" fill="#FCAD37"></path><path fill-rule="evenodd" clip-rule="evenodd" d="M15.8463 50.1825C15.211 50.1825 14.6958 49.6687 14.6958 49.0141C14.6958 48.3597 15.2109 47.8459 15.8463 47.8459H26.0245C26.4761 47.8459 26.8421 47.4798 26.8421 47.0282V41.021H31.027V47.0282C31.027 47.4798 31.3931 47.8459 31.8447 47.8459H41.4042C42.0396 47.8459 42.5547 48.3597 42.5547 49.0141C42.5547 49.6687 42.0395 50.1825 41.4042 50.1825H15.8463ZM13.0605 49.0141C13.0605 50.5524 14.2885 51.8179 15.8463 51.8179H41.4042C42.962 51.8179 44.19 50.5524 44.19 49.0141C44.19 47.4758 42.9619 46.2106 41.4042 46.2106H32.6623V40.2034C32.6623 39.7518 32.2963 39.3857 31.8447 39.3857H26.0245C25.5729 39.3857 25.2068 39.7518 25.2068 40.2034V46.2106H15.8463C14.2885 46.2106 13.0605 47.4758 13.0605 49.0141Z" fill="#FCAD37"></path><path fill-rule="evenodd" clip-rule="evenodd" d="M33.943 26.9268C34.1548 26.7756 34.245 26.5051 34.1662 26.2571L32.4857 20.9675L36.8836 17.706C37.0914 17.5519 37.1769 17.2819 37.0958 17.0362C37.0146 16.7906 36.7851 16.6247 36.5264 16.6247H31.1016L29.4243 11.345C29.3453 11.0961 29.1142 10.927 28.853 10.9269C28.5919 10.9268 28.3607 11.0958 28.2814 11.3447L26.6005 16.6247H21.1755C20.9167 16.6247 20.6871 16.7906 20.606 17.0363C20.5249 17.282 20.6105 17.5521 20.8184 17.7061L25.2197 20.9675L23.5358 26.2568C23.4568 26.5047 23.5468 26.7753 23.7586 26.9266C23.9703 27.0779 24.2554 27.0753 24.4644 26.9203L28.8527 23.6648L33.2372 26.9201C33.4461 27.0752 33.7312 27.0779 33.943 26.9268ZM25.2423 24.85L26.4925 20.9229C26.5703 20.6785 26.4841 20.4118 26.2781 20.2592L22.9919 17.824H27.0389C27.3 17.824 27.5311 17.655 27.6103 17.4062L28.8522 13.5052L30.0914 17.4059C30.1705 17.6549 30.4017 17.824 30.663 17.824H34.7112L31.4274 20.2593C31.2216 20.4119 31.1355 20.6784 31.2131 20.9225L32.4608 24.8499L29.2103 22.4366C28.9981 22.2791 28.7078 22.279 28.4956 22.4365L25.2423 24.85Z" fill="#FCAD37"></path></svg> 