<?xml version="1.0" encoding="UTF-8"?> <svg xmlns="http://www.w3.org/2000/svg" width="89" height="89" viewBox="0 0 89 89" fill="none"><g clip-path="url(#clip0)"><path d="M66.3399 65.3634V52.3521C71.3734 52.0751 76.2338 50.2058 80.1483 47.0144C80.7065 46.5595 80.79 45.7385 80.3351 45.1804C79.8801 44.6222 79.0599 44.5387 78.5011 44.9936C75.0503 47.8068 70.7745 49.4677 66.3399 49.7413V41.4207L74.1207 33.6405C74.63 33.1312 74.63 32.3055 74.1207 31.797C73.6115 31.2877 72.7865 31.287 72.2772 31.797L66.3399 37.7336V18.8121C66.3399 18.0924 65.7566 17.5084 65.0362 17.5084C64.3164 17.5084 63.7325 18.0924 63.7325 18.8121V31.0344L57.6899 24.9919C57.1806 24.4826 56.3549 24.4826 55.8464 24.9919C55.3371 25.5011 55.3371 26.3261 55.8464 26.8354L63.7325 34.7222V49.742C62.5578 49.6707 61.3932 49.503 60.2525 49.2422C60.2593 48.9503 60.2668 48.659 60.2668 48.3656C60.2668 44.0064 59.456 39.7462 57.9214 36.0449C57.6458 35.3795 56.8825 35.0644 56.2178 35.3394C55.5523 35.6151 55.2366 36.3783 55.5123 37.043C56.9172 40.4313 57.6593 44.3459 57.6593 48.3656C57.6593 54.1081 56.1777 59.4886 53.4861 63.5172C51.1258 67.0508 48.0988 69.132 44.8809 69.4654V59.5816L53.5479 50.9147C54.0572 50.4054 54.0572 49.5804 53.5479 49.0711C53.0386 48.5619 52.2129 48.5619 51.7037 49.0711L44.8809 55.8939V40.0728C44.8809 39.3531 44.2977 38.7691 43.5772 38.7691C42.8575 38.7691 42.2735 39.3531 42.2735 40.0728V49.1981L38.801 45.7249C39.8433 42.1126 40.3913 38.1926 40.3913 34.1518C40.3913 32.1093 40.2507 30.0981 39.9778 28.1418C41.2672 27.528 42.6055 27.217 43.9649 27.217C47.14 27.217 50.2458 28.9641 52.71 32.1365C52.9667 32.4672 53.3517 32.6403 53.7401 32.6403C54.0198 32.6403 54.3016 32.5507 54.5393 32.366C55.1076 31.9246 55.2108 31.1057 54.7688 30.5367C51.8225 26.7437 48.0214 24.6429 44.0559 24.6109C45.8811 14.5615 54.6927 7.12695 65.0368 7.12695C76.7967 7.12695 86.3641 16.6943 86.3641 28.4542C86.3641 32.9425 84.9857 37.2366 82.3769 40.872C81.9572 41.4566 82.0917 42.2715 82.6763 42.6911C82.9065 42.8561 83.172 42.9355 83.4355 42.9355C83.8408 42.9355 84.2408 42.7468 84.4961 42.3917C87.424 38.3108 88.9715 33.4918 88.9715 28.4542C88.9715 15.2568 78.2342 4.51953 65.0368 4.51953C53.1676 4.51953 43.0958 13.2422 41.3636 24.907C40.7416 25.0503 40.1271 25.2465 39.5215 25.4937C38.5912 20.9959 36.9351 16.8668 34.6386 13.4303C30.8212 7.71498 25.6919 4.56774 20.196 4.56774C14.7007 4.56774 9.57073 7.71566 5.7533 13.4303C2.04316 18.9839 0 26.3431 0 34.1518C0 42.0569 2.08797 49.4806 5.87824 55.0567C6.28294 55.6515 7.09368 55.8063 7.68918 55.4016C8.28468 54.9969 8.43949 54.1855 8.0348 53.5907C4.53515 48.443 2.60742 41.5395 2.60742 34.1518C2.60742 19.2766 10.4976 7.17516 20.196 7.17516C29.8937 7.17516 37.7839 19.2766 37.7839 34.1518C37.7839 48.6067 30.3323 60.4419 21.0122 61.0979V48.1388L32.0272 37.1232C32.5364 36.6146 32.5364 35.7889 32.0272 35.2796C31.5186 34.7704 30.6929 34.7704 30.1836 35.2796L21.0122 44.4511V23.7072C21.0122 22.9867 20.4282 22.4035 19.7084 22.4035C18.988 22.4035 18.4047 22.9867 18.4047 23.7072V36.0177L11.4027 29.0164C10.8935 28.5071 10.0685 28.5071 9.55919 29.0164C9.04993 29.525 9.04993 30.3507 9.55919 30.8599L18.4047 39.7055V60.9831C16.0927 60.6144 13.835 59.5409 11.7898 57.8196C11.2384 57.3558 10.4161 57.4264 9.95302 57.9771C9.48925 58.5278 9.55919 59.3508 10.1105 59.8145C12.6433 61.946 15.4802 63.2395 18.4047 63.617V69.4226V81.264V83.041C18.4047 83.7607 18.988 84.3447 19.7084 84.3447C20.4289 84.3447 21.0122 83.7607 21.0122 83.041V81.264V69.003V63.71C24.1424 63.5315 27.1362 62.3289 29.8156 60.2077C31.0847 63.4391 32.8583 66.1959 35.0033 68.2459C37.187 70.3325 39.6729 71.6077 42.2742 71.9947V83.041C42.2742 83.7607 42.8575 84.3447 43.5779 84.3447C44.2977 84.3447 44.8816 83.7607 44.8816 83.041V72.0844C48.9876 71.7598 52.7847 69.2624 55.6549 64.9655C58.0654 61.3573 59.5972 56.8004 60.0922 51.8748C61.288 52.1254 62.5061 52.2856 63.7331 52.3515V65.8734V81.264V83.041C63.7331 83.7607 64.3164 84.3447 65.0368 84.3447C65.7566 84.3447 66.3406 83.7607 66.3406 83.041V81.264L66.3399 65.3634ZM31.8927 58.3125C32.8657 57.2981 33.7851 56.1506 34.6386 54.8733C35.9261 52.9456 37.0125 50.8006 37.8823 48.4947L42.2735 52.8858V69.3438C37.9298 68.4828 34.0024 64.3599 31.8927 58.3125Z" fill="#B1B834"></path><path d="M21.5 73.5C15 73 11.9622 79.0055 11.9622 83H31.0943C30.6038 73.0126 21.5 73.5 21.5 73.5Z" fill="#FEEBCD"></path><path d="M68 69.5C58.5 69.5 54.5 77.5 54.7169 82.9994H81.2075C80.5283 69.3745 68 69.5 68 69.5Z" fill="#FEEBCD"></path><path d="M79.4444 76C74.4306 76 72.3194 80.1483 72.4339 83H86.4151C86.0566 75.9349 79.4444 76 79.4444 76Z" fill="#FEEBCD"></path><path d="M11.9622 83C11.9622 79.0055 15 73 21.5 73.5C21.5 73.5 30.6038 73.0126 31.0943 83M36 83H10" stroke="#FCAD37" stroke-width="2.5" stroke-linecap="round"></path><path d="M54.7169 82.9994C54.5 77.5 58.5 69.5 68 69.5C68 69.5 80.5283 69.3745 81.2075 82.9994M88 82.9994H52" stroke="#FCAD37" stroke-width="2.5" stroke-linecap="round"></path><path d="M72.4339 83C72.3194 80.1483 74.4306 76 79.4444 76C79.4444 76 86.0566 75.9349 86.4151 83M90 83H71" stroke="#FCAD37" stroke-width="2.5" stroke-linecap="round"></path></g><defs><clipPath id="clip0"><rect width="89" height="89" fill="white"></rect></clipPath></defs></svg> 