<svg width="1043" height="745" viewBox="0 0 1043 745" fill="none" xmlns="http://www.w3.org/2000/svg">
<g clip-path="url(#clip0)">
<path opacity="0.1" d="M1043 413.767C1042.98 449.101 1035.3 484.009 1020.49 516.083C1005.68 548.157 984.097 576.633 957.225 599.547C930.353 622.461 898.834 639.267 864.843 648.805C830.852 658.343 795.199 660.386 760.342 654.793H373.703C358.769 656.844 343.714 657.873 328.64 657.873C181.753 657.873 57.3527 561.415 15.2758 428.337C5.12023 396.184 -0.0320042 362.658 -4.44346e-06 328.936C-4.44346e-06 147.265 147.142 0 328.64 0C474.817 0 598.68 95.5009 641.367 227.622C685.398 190.124 741.347 169.573 799.16 169.662C933.811 169.662 1043 278.949 1043 413.767Z" fill="#B1B834"/>
<path opacity="0.1" d="M949.315 606.09C922.851 626.772 892.413 641.771 859.899 650.15C827.385 658.53 793.494 660.11 760.342 654.793H373.703C358.769 656.844 343.714 657.873 328.64 657.873C181.753 657.873 57.3527 561.415 15.2758 428.337C46.747 361.01 127.623 313.1 222.447 313.1C314.848 313.1 394.004 358.604 427.105 423.235C443.382 420.272 459.893 418.787 476.437 418.797C572.207 418.797 653.748 467.682 684.536 536.075C710.04 528.338 736.551 524.435 763.201 524.494C841.31 524.494 909.96 557.005 949.315 606.09Z" fill="#B1B834"/>
<path opacity="0.1" d="M521.955 745C778.372 745 986.239 734.597 986.239 721.765C986.239 708.932 778.372 698.53 521.955 698.53C265.538 698.53 57.6713 708.932 57.6713 721.765C57.6713 734.597 265.538 745 521.955 745Z" fill="#B1B834"/>
<path d="M490.611 722.567C491.022 721.124 491.903 719.86 493.115 718.977C493.261 718.877 493.415 718.786 493.57 718.694C494.836 718.104 496.2 717.755 497.594 717.665C502.819 716.991 508.309 715.979 512.278 712.553C513.416 711.56 514.39 710.403 515.446 709.337C517.688 707.195 520.103 705.241 522.665 703.496C522.916 703.262 523.211 703.08 523.533 702.961C523.855 702.842 524.198 702.789 524.541 702.803C525.528 702.023 526.344 701.045 526.935 699.933C527.501 698.518 527.768 697.001 527.718 695.478C528.246 679.987 531.532 664.06 527.882 649.007C527.491 647.309 527.599 645.534 528.191 643.896C527.454 643.558 526.716 643.212 525.997 642.839C519.816 639.595 514.32 635.186 509.811 629.854C507.707 627.588 506.038 624.953 504.886 622.082C503.511 618.218 503.712 613.991 504.203 609.927C505.218 602.763 506.65 595.665 508.491 588.669L512.669 571.356C513.58 567.548 514.59 563.639 516.611 560.313H516.42C516.557 558.39 516.702 556.468 516.985 554.563C517.581 551.097 518.402 547.673 519.443 544.313C519.807 543.037 520.089 541.26 520.508 539.547C519.752 531.775 516.73 524.23 516.22 516.485C516.056 516.704 515.901 516.922 515.728 517.141C514.472 518.708 512.742 519.875 511.468 521.396C509.083 524.294 508.546 528.212 508.045 531.902C507.891 533.827 507.414 535.713 506.634 537.479C506.196 538.207 505.81 538.965 505.478 539.748C504.95 541.324 505.341 543.037 505.66 544.677C506.115 547.01 506.279 549.725 504.604 551.429C503.688 552.282 502.503 552.788 501.254 552.859C500.043 552.945 498.829 552.733 497.719 552.242C496.608 551.752 495.634 550.997 494.881 550.044C493.16 547.811 492.915 544.814 492.987 542.016C492.977 539.908 493.322 537.814 494.007 535.82C494.956 533.728 496.125 531.743 497.494 529.898C499.934 526.125 501.727 521.998 503.739 517.989C505.333 514.714 507.187 511.572 509.283 508.594C510.421 507.009 511.659 505.487 512.679 503.838C513.015 503.291 514.681 499.218 516.238 495.145C515.437 494.981 514.609 494.653 514.417 493.906C514.341 493.467 514.388 493.016 514.554 492.603C517.99 480.841 518.629 468.437 516.42 456.384C515.819 453.122 515.009 449.869 515.018 446.561C515.027 443.254 515.929 439.773 518.359 437.449C519.852 436.019 521.8 435.117 523.348 433.75C526.334 431.107 527.517 427.053 528.282 423.171C528.516 421.35 529.081 419.586 529.948 417.968C530.187 417.607 530.455 417.265 530.749 416.948C528.603 411.141 527.512 404.997 527.527 398.806C527.528 394.16 528.14 389.534 529.347 385.047C528.856 386.268 528.437 387.517 527.991 388.792C531.796 368.91 546.699 354.076 564.496 354.076H564.988C585.171 354.076 601.63 373.147 602.413 397.029C606.401 399.591 609.565 403.252 611.522 407.572C613.48 411.891 614.148 416.685 613.446 421.376C618.033 425.968 620.61 432.195 620.611 438.688C620.563 445.313 617.888 451.648 613.174 456.299C608.461 460.95 602.095 463.537 595.476 463.491C591.241 463.491 587.075 462.425 583.359 460.393C583.147 462.447 582.779 464.482 582.257 466.479C581.42 469.65 580.127 472.712 579.481 475.928C578.835 479.145 578.916 482.68 580.664 485.468C582.077 487.625 583.137 489.994 583.805 492.485C584.402 495.483 584.589 498.548 584.36 501.596C584.278 504.385 584.206 507.164 584.124 509.952C583.814 520.886 583.514 531.82 585.726 542.554C586.727 547.42 589.258 552.039 588.685 556.978C588.399 558.77 587.879 560.516 587.137 562.172C586.227 564.559 585.043 567.129 582.731 568.286C581.602 568.789 580.38 569.053 579.144 569.06C577.624 569.132 576.1 569.065 574.592 568.86C573.682 568.732 572.453 568.122 572.772 567.247C572.921 566.952 573.147 566.703 573.427 566.527C574.612 565.59 575.57 564.399 576.232 563.041C576.894 561.683 577.242 560.193 577.25 558.682C577.25 554.363 574.383 550.199 575.266 545.925C575.821 543.301 577.788 540.759 576.959 538.208C575.138 532.44 574.865 526.253 573.318 520.403C572.799 518.499 572.28 516.585 571.752 514.681C570.842 511.273 569.931 507.856 569.139 504.412C567.312 496.184 566.433 487.774 566.517 479.345C565.042 482.061 564.036 485.006 563.54 488.056C563.267 490.27 563.413 492.612 562.375 494.589C561.337 496.567 559.28 498.015 558.051 499.92C558.555 501.075 559.129 502.198 559.772 503.282C561.062 504.938 562.239 506.679 563.295 508.494C564.205 510.316 564.842 512.193 565.616 514.043C568.211 520.257 572.662 525.889 573.309 532.586C573.837 537.971 571.797 543.237 569.731 548.24C568.517 551.228 567.258 554.205 565.953 557.169C565.871 557.361 565.78 557.57 565.68 557.762C565.525 559.283 565.325 560.796 565.124 562.318H561.783C560.418 564.14 558.898 565.962 558.078 568.085C557.539 569.732 557.232 571.447 557.168 573.179C556.503 581.379 556.631 589.79 553.526 597.416C552.616 599.685 551.706 601.972 551.615 604.277C551.517 606.2 551.211 608.106 550.704 609.963C550.243 611.972 549.999 614.025 549.976 616.086C549.876 619.627 549.967 623.171 550.249 626.702C557.532 631.257 563.595 637.836 570.15 643.531C579.185 651.365 589.441 657.665 600.51 662.183L600.456 661.655C603.569 661.509 606.537 662.566 609.359 664.014C610.351 664.507 611.316 665.035 612.272 665.554C612.799 665.801 613.277 666.141 613.683 666.557C614.958 668.042 614.029 670.292 613.055 672.024C609.814 677.703 606.573 683.377 603.332 689.045C602.586 690.357 601.83 691.678 601.211 693.054C600.155 695.396 599.481 697.883 598.298 700.161C596.896 702.592 595.209 704.846 593.273 706.876C591.161 709.306 589.037 711.709 586.9 714.084C586.234 714.952 585.405 715.682 584.461 716.234C583.981 716.501 583.437 716.629 582.889 716.605C582.341 716.581 581.81 716.405 581.356 716.098C581.008 715.795 580.731 715.418 580.546 714.995C580.053 713.972 579.828 712.84 579.891 711.706C579.934 710.781 580.16 709.874 580.555 709.038C580.95 708.201 581.507 707.451 582.194 706.831C583.104 706.075 584.197 705.455 584.57 704.371C584.732 703.777 584.769 703.157 584.679 702.548C584.233 697.181 583.769 691.76 582.166 686.621C580.965 682.776 579.099 678.821 579.991 674.894C580.585 674.712 581.195 674.581 581.811 674.502C581.188 673.775 580.525 673.081 579.827 672.425C576.604 669.4 572.68 667.204 568.802 665.044L551.688 655.495C550.899 659.881 550.101 664.257 549.293 668.625C549.011 670.138 548.738 671.65 548.465 673.181C547.184 680.197 545.904 687.207 544.623 694.211C544.275 695.899 544.026 697.606 543.877 699.323C543.767 701.018 543.831 702.712 543.877 704.398C543.847 706.29 543.96 708.181 544.214 710.056C544.414 711.109 544.684 712.147 545.024 713.164H545.151C545.504 713.429 545.76 713.804 545.879 714.23C546.966 716.737 547.684 719.389 548.01 722.102C548.269 724.253 547.825 726.43 546.744 728.307C546.525 728.729 546.19 729.08 545.779 729.319C545.318 729.507 544.818 729.579 544.323 729.528L521.828 729.055C519.06 728.922 516.285 729.023 513.534 729.355C511.349 729.683 509.201 730.266 506.998 730.44C501.873 730.749 496.984 728.435 492.432 726.184C491.69 725.926 491.051 725.433 490.611 724.781C490.322 724.072 490.322 723.277 490.611 722.567Z" fill="url(#paint0_linear)"/>
<path d="M610.834 423.59C611.002 422.413 611.087 421.226 611.089 420.037C611.089 415.949 610.073 411.926 608.13 408.331C606.188 404.736 603.381 401.681 599.964 399.444C599.199 375.753 583.095 356.792 563.34 356.792C543.094 356.792 526.68 376.683 526.68 401.212C526.68 425.741 543.066 445.623 563.34 445.623C565.249 445.622 567.154 445.445 569.03 445.094C569.708 448.881 571.264 452.457 573.573 455.533C575.883 458.609 578.88 461.1 582.326 462.806C585.772 464.512 589.569 465.385 593.413 465.355C597.257 465.326 601.041 464.394 604.46 462.635C607.879 460.877 610.838 458.34 613.1 455.228C615.361 452.117 616.862 448.519 617.482 444.721C618.102 440.924 617.824 437.034 616.669 433.364C615.514 429.694 613.516 426.347 610.834 423.59Z" fill="#3F3D56"/>
<path opacity="0.1" d="M561.41 362.587C581.165 362.587 597.269 381.521 598.034 405.23C601.453 407.468 604.26 410.524 606.202 414.121C608.145 417.718 609.161 421.743 609.159 425.832C609.161 427.021 609.076 428.209 608.904 429.385C613.403 433.978 615.92 440.156 615.914 446.588C615.91 447.609 615.846 448.628 615.722 449.641C617.416 445.24 617.81 440.445 616.858 435.826C615.905 431.208 613.647 426.96 610.351 423.59C610.52 422.413 610.605 421.226 610.606 420.037C610.607 415.949 609.59 411.926 607.648 408.331C605.706 404.736 602.899 401.681 599.481 399.444C598.717 375.753 582.613 356.792 562.858 356.792C545.433 356.792 530.849 371.525 527.126 391.271C532.361 374.505 545.734 362.587 561.41 362.587Z" fill="black"/>
<path d="M540.772 410.46C540.951 411.911 540.789 413.384 540.299 414.761C539.452 416.72 537.377 418.469 537.987 420.51C538.378 421.831 539.807 422.56 541.064 422.998C547.218 425.084 553.936 423.845 560.427 424.128C562.591 424.317 564.764 424.393 566.936 424.355C569.126 424.307 571.245 423.567 572.99 422.241C569.608 420.591 566.415 418.577 563.468 416.237C562.758 415.71 562.116 415.098 561.556 414.414C560.172 412.592 559.963 410.159 559.881 407.872C559.799 405.585 559.817 403.316 559.881 401.075C555.232 401.02 550.586 400.999 545.943 401.011C544.45 401.011 539.898 400.646 539.38 402.259C539.116 403.061 540.117 405.412 540.29 406.314C540.527 407.69 540.681 409.075 540.772 410.46Z" fill="#FBBEBE"/>
<path opacity="0.1" d="M540.772 410.46C540.951 411.911 540.789 413.384 540.299 414.761C539.452 416.72 537.377 418.469 537.987 420.51C538.378 421.831 539.807 422.56 541.064 422.998C547.218 425.084 553.936 423.845 560.427 424.128C562.591 424.317 564.764 424.393 566.936 424.355C569.126 424.307 571.245 423.567 572.99 422.241C569.608 420.591 566.415 418.577 563.468 416.237C562.758 415.71 562.116 415.098 561.556 414.414C560.172 412.592 559.963 410.159 559.881 407.872C559.799 405.585 559.817 403.316 559.881 401.075C555.232 401.02 550.586 400.999 545.943 401.011C544.45 401.011 539.898 400.646 539.38 402.259C539.116 403.061 540.117 405.412 540.29 406.314C540.527 407.69 540.681 409.075 540.772 410.46Z" fill="black"/>
<path d="M517.64 494.78C516.963 499.958 517.589 505.223 519.461 510.097C529.459 509.05 539.504 508.521 549.557 508.512C547.824 506.186 546.717 503.453 546.344 500.576C546.093 497.878 546.093 495.163 546.344 492.466L526.826 492.402C525.395 492.339 523.962 492.446 522.556 492.721C520.59 493.168 519.552 494.425 517.64 494.78Z" fill="#FBBEBE"/>
<path d="M512.169 505.532C511.167 507.182 509.957 508.685 508.846 510.261C506.779 513.22 504.952 516.341 503.384 519.592C501.417 523.565 499.66 527.665 497.275 531.437C495.93 533.273 494.783 535.246 493.852 537.324C493.185 539.305 492.85 541.383 492.86 543.474C492.787 546.253 493.033 549.233 494.681 551.447C495.417 552.395 496.375 553.146 497.471 553.634C498.567 554.122 499.766 554.332 500.962 554.244C502.189 554.174 503.35 553.67 504.24 552.823C505.878 551.137 505.714 548.431 505.277 546.116C504.968 544.494 504.576 542.791 505.095 541.223C505.416 540.447 505.794 539.695 506.224 538.973C506.991 537.216 507.458 535.344 507.608 533.433C508.099 529.788 508.618 525.879 510.958 523.009C512.205 521.46 513.898 520.33 515.127 518.772C515.774 517.952 516.284 517.032 516.948 516.257C517.931 515.145 519.279 514.298 519.843 512.931C520.108 512.04 520.279 511.124 520.353 510.198C520.724 508.722 521.265 507.294 521.964 505.942C524.186 500.831 524.786 495.172 525.351 489.623C522.959 489.529 520.597 489.062 518.35 488.238C519.069 488.375 512.852 504.366 512.169 505.532Z" fill="#FBBEBE"/>
<path opacity="0.1" d="M512.169 505.532C511.167 507.182 509.957 508.685 508.846 510.261C506.779 513.22 504.952 516.341 503.384 519.592C501.417 523.565 499.66 527.665 497.275 531.437C495.93 533.273 494.783 535.246 493.852 537.324C493.185 539.305 492.85 541.383 492.86 543.474C492.787 546.253 493.033 549.233 494.681 551.447C495.417 552.395 496.375 553.146 497.471 553.634C498.567 554.122 499.766 554.332 500.962 554.244C502.189 554.174 503.35 553.67 504.24 552.823C505.878 551.137 505.714 548.431 505.277 546.116C504.968 544.494 504.576 542.791 505.095 541.223C505.416 540.447 505.794 539.695 506.224 538.973C506.991 537.216 507.458 535.344 507.608 533.433C508.099 529.788 508.618 525.879 510.958 523.009C512.205 521.46 513.898 520.33 515.127 518.772C515.774 517.952 516.284 517.032 516.948 516.257C517.931 515.145 519.279 514.298 519.843 512.931C520.108 512.04 520.279 511.124 520.353 510.198C520.724 508.722 521.265 507.294 521.964 505.942C524.186 500.831 524.786 495.172 525.351 489.623C522.959 489.529 520.597 489.062 518.35 488.238C519.069 488.375 512.852 504.366 512.169 505.532Z" fill="black"/>
<path d="M550.313 408.446C559.368 408.446 566.709 401.099 566.709 392.035C566.709 382.972 559.368 375.625 550.313 375.625C541.258 375.625 533.917 382.972 533.917 392.035C533.917 401.099 541.258 408.446 550.313 408.446Z" fill="#FBBEBE"/>
<path d="M517.613 559.374C514.527 563.019 513.316 567.903 512.205 572.568L508.109 589.717C506.306 596.668 504.905 603.717 503.912 610.829C503.429 614.865 503.229 619.029 504.576 622.902C505.7 625.748 507.335 628.364 509.401 630.62C513.8 635.9 519.179 640.279 525.242 643.513C528.455 645.18 531.851 646.456 535.146 647.941C540.071 650.155 544.778 652.816 549.484 655.477L567.164 665.5C570.96 667.65 574.793 669.828 577.951 672.835C580.888 675.629 583.148 679.057 584.561 682.858C584.803 683.857 585.346 684.757 586.117 685.436C587.119 686.129 588.484 685.901 589.65 685.546C593.938 684.118 597.639 681.321 600.187 677.585C602.734 673.848 603.986 669.379 603.751 664.862C590.755 660.308 578.759 653.288 568.42 644.187C560.527 637.235 553.408 628.943 543.777 624.715C539.571 622.893 534.509 621.462 532.543 617.298C531.79 615.367 531.44 613.302 531.514 611.23C531.341 605.517 531.168 599.74 532.26 594.127C533.171 589.389 534.992 584.86 536.33 580.222C539.061 570.937 539.971 561.233 540.882 551.593C534.588 550.846 528.256 550.472 521.919 550.472C521.362 550.403 520.801 550.553 520.353 550.891C520.071 551.25 519.903 551.685 519.87 552.14C519.37 554.618 519.251 557.47 517.613 559.374Z" fill="#FBBEBE"/>
<path opacity="0.1" d="M517.613 559.374C514.527 563.019 513.316 567.903 512.205 572.568L508.109 589.717C506.306 596.668 504.905 603.717 503.912 610.829C503.429 614.865 503.229 619.029 504.576 622.902C505.7 625.748 507.335 628.364 509.401 630.62C513.8 635.9 519.179 640.279 525.242 643.513C528.455 645.18 531.851 646.456 535.146 647.941C540.071 650.155 544.778 652.816 549.484 655.477L567.164 665.5C570.96 667.65 574.793 669.828 577.951 672.835C580.888 675.629 583.148 679.057 584.561 682.858C584.803 683.857 585.346 684.757 586.117 685.436C587.119 686.129 588.484 685.901 589.65 685.546C593.938 684.118 597.639 681.321 600.187 677.585C602.734 673.848 603.986 669.379 603.751 664.862C590.755 660.308 578.759 653.288 568.42 644.187C560.527 637.235 553.408 628.943 543.777 624.715C539.571 622.893 534.509 621.462 532.543 617.298C531.79 615.367 531.44 613.302 531.514 611.23C531.341 605.517 531.168 599.74 532.26 594.127C533.171 589.389 534.992 584.86 536.33 580.222C539.061 570.937 539.971 561.233 540.882 551.593C534.588 550.846 528.256 550.472 521.919 550.472C521.362 550.403 520.801 550.553 520.353 550.891C520.071 551.25 519.903 551.685 519.87 552.14C519.37 554.618 519.251 557.47 517.613 559.374Z" fill="black"/>
<path d="M610.415 672.424L600.902 689.327C600.164 690.63 599.427 691.942 598.817 693.308C597.788 695.632 597.133 698.101 595.968 700.361C594.598 702.771 592.948 705.01 591.052 707.031L584.843 714.193C584.19 715.051 583.377 715.775 582.449 716.325C581.98 716.591 581.447 716.719 580.909 716.695C580.371 716.671 579.851 716.495 579.408 716.188C579.071 715.879 578.801 715.504 578.616 715.086C578.132 714.07 577.913 712.947 577.979 711.824C578.064 709.976 578.875 708.237 580.236 706.985C581.092 706.238 582.194 705.618 582.558 704.543C582.717 703.949 582.754 703.33 582.667 702.721C582.221 697.391 581.757 692.015 580.2 686.912C579.026 683.094 577.205 679.167 578.079 675.267C579.736 674.766 581.893 674.42 582.886 675.841C584.816 678.575 584.934 677.572 587.911 677.153C590.888 676.734 593.683 676.552 595.858 674.219C598.753 671.139 598.507 666.365 598.08 662.164C601.129 662.019 604.033 663.121 606.792 664.506C607.766 664.998 608.713 665.517 609.65 666.037C610.168 666.281 610.637 666.617 611.034 667.03C612.281 668.506 611.371 670.738 610.415 672.424Z" fill="#3F3D56"/>
<path d="M518.833 545.679C517.807 549.015 517.004 552.415 516.429 555.857C516.147 557.752 516.011 559.666 515.865 561.57C522.338 563.11 529.056 563.183 535.711 563.256L563.449 563.557C564.06 559.817 564.313 556.027 564.205 552.24C563.814 546.016 561.474 539.939 561.865 533.715C554.253 532.359 546.558 531.519 538.833 531.201C537.428 531.058 536.008 531.194 534.655 531.601C533.398 532.057 532.352 532.959 531.141 533.533C528.41 534.827 524.349 534.189 522.037 536.267C519.934 538.208 519.579 543.019 518.833 545.679Z" fill="#3F3D56"/>
<path opacity="0.1" d="M518.833 545.679C517.807 549.015 517.004 552.415 516.429 555.857C516.147 557.752 516.011 559.666 515.865 561.57C522.338 563.11 529.056 563.183 535.711 563.256L563.449 563.557C564.06 559.817 564.313 556.027 564.205 552.24C563.814 546.016 561.474 539.939 561.865 533.715C554.253 532.359 546.558 531.519 538.833 531.201C537.428 531.058 536.008 531.194 534.655 531.601C533.398 532.057 532.352 532.959 531.141 533.533C528.41 534.827 524.349 534.189 522.037 536.267C519.934 538.208 519.579 543.019 518.833 545.679Z" fill="black"/>
<path d="M520.408 554.864C518.314 564.741 520.526 574.955 521.045 585.042C521.409 592.259 520.899 599.493 520.69 606.719C520.569 608.795 520.664 610.877 520.972 612.933C521.362 614.756 521.913 616.539 522.62 618.264L525.142 624.897C527.481 631.148 529.866 637.845 527.481 644.36C526.845 646.038 526.718 647.867 527.117 649.618C530.686 664.552 527.472 680.406 526.962 695.751C527.006 697.261 526.743 698.765 526.188 700.17C524.914 702.903 521.773 704.179 520.125 706.667C518.123 709.683 518.842 713.956 521.2 716.69C523.557 719.423 527.226 720.781 530.831 721.081C535.338 721.455 539.853 720.362 544.277 719.642L544.769 719.168C545.324 716.097 543.64 713.254 543.112 710.111C542.863 708.248 542.75 706.369 542.775 704.489C542.775 702.812 542.684 701.127 542.775 699.45C542.924 697.747 543.164 696.052 543.494 694.375L547.263 673.49L548.073 668.989L551.451 650.237C552.088 646.693 550.541 642.729 550.122 639.157C549.275 631.749 548.428 624.305 548.674 616.861C548.703 614.815 548.944 612.778 549.393 610.783C549.875 608.935 550.159 607.041 550.24 605.134C550.295 602.837 551.214 600.578 552.115 598.318C555.111 590.746 554.992 582.372 555.639 574.254C555.707 572.534 556.014 570.832 556.549 569.197C557.459 566.718 559.353 564.732 560.828 562.536C562.302 560.34 563.422 557.597 562.594 555.082C561.255 551.064 555.811 549.779 552.498 548.604C546.832 546.535 540.655 546.328 534.864 548.012C529.765 549.648 524.904 551.952 520.408 554.864Z" fill="#FBBEBE"/>
<path d="M545.552 728.325C545.35 728.739 545.034 729.087 544.641 729.328C544.186 729.512 543.692 729.584 543.203 729.537L521.19 729.063C518.48 728.931 515.763 729.031 513.07 729.364C510.931 729.683 508.837 730.275 506.698 730.439C501.691 730.749 496.929 728.453 492.432 726.211C491.718 725.941 491.107 725.454 490.684 724.817C490.411 724.127 490.411 723.357 490.684 722.667C491.074 721.236 491.938 719.98 493.133 719.104C493.276 719.001 493.425 718.907 493.579 718.822C494.814 718.235 496.148 717.889 497.512 717.801C502.628 717.127 508.008 716.125 511.887 712.717C513.006 711.742 513.953 710.594 514.991 709.528C517.178 707.4 519.541 705.461 522.055 703.733C522.297 703.5 522.582 703.319 522.895 703.2C523.208 703.081 523.542 703.027 523.876 703.04C524.257 703.145 524.605 703.346 524.887 703.623C525.943 704.369 526.772 705.395 527.281 706.585C527.503 707.187 527.507 707.849 527.29 708.454C527.074 709.059 526.651 709.568 526.097 709.892C525.187 710.247 524.277 710.065 523.53 710.557C525.114 711.705 527.563 712.279 529.347 713.473C531.111 714.828 533.09 715.875 535.201 716.571C537.349 717.127 539.908 716.744 541.309 715.022C542.065 714.111 543.021 712.68 544.041 713.291C544.39 713.55 544.644 713.919 544.76 714.339C545.825 716.834 546.527 719.47 546.844 722.166C547.086 724.305 546.632 726.464 545.552 728.325Z" fill="#3F3D56"/>
<path d="M539.625 497.651C538.353 497.624 537.083 497.765 535.847 498.07C534.669 498.454 533.538 498.974 532.479 499.619L520.417 506.307C519.531 506.749 518.708 507.307 517.968 507.965C516.229 509.633 515.728 512.211 515.628 514.626C515.218 524.011 519.452 533.014 519.989 542.399C520.223 546.585 519.718 550.78 518.496 554.791C518.195 555.784 517.895 556.996 518.623 557.743C518.888 557.983 519.197 558.169 519.534 558.29C523.348 559.775 527.508 560.112 531.587 560.413C541.601 561.178 551.669 561.944 561.629 560.604C562.125 560.574 562.61 560.438 563.049 560.203C563.617 559.754 564.039 559.144 564.26 558.454C565.516 555.508 566.73 552.555 567.901 549.597C569.931 544.622 571.925 539.392 571.415 534.043C570.778 527.41 566.426 521.806 563.886 515.637C563.122 513.815 562.521 511.883 561.601 510.125C560.573 508.323 559.424 506.594 558.16 504.949C557.186 503.555 556.248 500.393 555.056 499.482C553.599 498.288 549.485 498.316 547.636 498.097C544.978 497.777 542.302 497.628 539.625 497.651Z" fill="#3F3D56"/>
<path opacity="0.1" d="M610.415 672.425L600.902 689.327C600.164 690.63 599.427 691.942 598.817 693.309C597.788 695.632 597.133 698.102 595.967 700.361C594.598 702.771 592.948 705.01 591.052 707.031L584.843 714.193C584.19 715.052 583.377 715.776 582.449 716.325C581.98 716.592 581.447 716.72 580.909 716.696C580.371 716.672 579.85 716.496 579.408 716.189C579.071 715.88 578.801 715.504 578.616 715.086C578.132 714.07 577.913 712.948 577.979 711.824C580.24 710.719 582.282 709.213 584.005 707.378C585.358 705.747 586.536 703.979 587.519 702.102C588.369 700.601 589.222 699.083 590.077 697.546C594.471 689.807 598.872 682.068 603.278 674.329C605.097 671.308 606.292 667.953 606.792 664.461C607.766 664.953 608.713 665.472 609.65 665.992C610.168 666.236 610.637 666.572 611.034 666.985C612.281 668.507 611.371 670.739 610.415 672.425Z" fill="black"/>
<path opacity="0.1" d="M545.552 728.325C545.35 728.739 545.034 729.087 544.641 729.327C544.186 729.512 543.692 729.583 543.203 729.537L521.19 729.063C518.48 728.931 515.763 729.031 513.07 729.364C510.931 729.683 508.837 730.275 506.698 730.439C501.691 730.749 496.929 728.453 492.432 726.211C491.718 725.941 491.107 725.454 490.684 724.817C490.411 724.126 490.411 723.357 490.684 722.667C491.074 721.236 491.938 719.98 493.133 719.104C493.452 719.304 493.752 719.523 494.044 719.733C497.018 721.949 500.433 723.503 504.058 724.289C507.619 724.928 511.238 725.191 514.854 725.072C523.166 725.072 531.541 725.127 539.753 723.633C541.41 723.332 544.769 721.81 546.854 722.202C547.084 724.33 546.628 726.476 545.552 728.325Z" fill="black"/>
<path d="M570.031 418.059C562.057 419.418 553.994 420.182 545.907 420.346C543.913 420.346 541.501 420.146 540.618 418.36C540.208 417.522 540.235 416.483 539.653 415.745C538.569 414.369 536.394 415.052 534.828 415.845C532.643 416.957 530.358 418.16 529.056 420.237C528.197 421.843 527.644 423.595 527.426 425.403C526.662 429.258 525.506 433.285 522.583 435.909C521.072 437.267 519.17 438.151 517.713 439.554C515.355 441.85 514.436 445.295 514.436 448.584C514.436 451.873 515.219 455.108 515.81 458.352C517.97 470.318 517.347 482.621 513.99 494.307C513.831 494.722 513.787 495.172 513.862 495.61C514.09 496.448 515.109 496.749 515.974 496.886C529.329 499.091 543.667 497.004 555.957 502.681C556.986 500.148 559.517 498.717 560.773 496.302C561.783 494.343 561.683 492.011 561.911 489.815C562.648 483.883 566.463 478.826 568.575 473.24C570.459 468.347 571.115 462.962 573.746 458.425C574.656 456.821 575.849 455.354 576.768 453.732C577.611 452.13 578.332 450.467 578.926 448.757C580.171 445.833 581.011 442.752 581.42 439.6C581.948 433.221 578.989 427.126 575.493 421.804C574.137 419.763 572.48 417.649 570.031 418.059Z" fill="#FF6F61"/>
<path opacity="0.1" d="M531.35 440.738C529.821 441.075 528.929 442.615 528.218 444.009C527.74 444.884 527.338 445.799 527.017 446.743C526.595 448.338 526.426 449.989 526.516 451.636C526.483 452.682 526.593 453.727 526.844 454.743C527.112 455.767 527.764 456.648 528.665 457.203" stroke="black" stroke-miterlimit="10"/>
<path d="M572.255 384.764C573.493 379.918 566.548 373.956 556.742 371.447C546.937 368.938 537.984 370.832 536.746 375.679C535.509 380.525 542.454 386.488 552.26 388.996C562.065 391.505 571.018 389.611 572.255 384.764Z" fill="#3F3D56"/>
<path opacity="0.1" d="M553.19 385.575C544.468 383.343 538.023 378.386 537.559 373.912C537.161 374.423 536.87 375.009 536.703 375.634C535.465 380.482 542.411 386.441 552.179 388.956C561.947 391.471 570.942 389.566 572.207 384.719C572.339 384.18 572.376 383.621 572.316 383.069C569.622 386.605 561.729 387.762 553.19 385.575Z" fill="black"/>
<path d="M562.776 445.568C563.221 440.974 564.784 436.56 567.328 432.711C568.329 431.034 569.755 429.652 571.461 428.702C572.318 428.248 573.287 428.047 574.254 428.123C575.221 428.198 576.147 428.548 576.923 429.13C577.889 430.15 578.567 431.407 578.889 432.775C581.177 438.659 582.164 444.969 581.784 451.272C581.784 457.012 581.702 462.826 580.255 468.384C579.426 471.537 578.161 474.571 577.524 477.769C576.886 480.967 576.968 484.475 578.689 487.245C580.07 489.393 581.102 491.745 581.748 494.216C582.334 497.185 582.52 500.218 582.303 503.237L582.066 511.537C581.766 522.362 581.465 533.296 583.632 543.903C584.615 548.75 587.092 553.324 586.527 558.235C586.25 560.01 585.742 561.741 585.016 563.384C584.106 565.753 582.968 568.313 580.701 569.461C579.6 569.962 578.405 570.222 577.196 570.227C575.694 570.304 574.188 570.24 572.699 570.035C571.788 569.908 570.614 569.297 570.923 568.422C571.067 568.132 571.287 567.886 571.561 567.712C572.724 566.776 573.664 565.591 574.312 564.245C574.959 562.899 575.298 561.424 575.302 559.93C575.302 555.629 572.498 551.502 573.363 547.292C573.9 544.686 575.83 542.162 575.02 539.629C573.199 533.907 572.963 527.784 571.379 521.952L569.849 516.266C568.939 512.877 568.029 509.496 567.291 506.07C565.223 496.596 564.397 486.892 564.833 477.204C564.897 475.692 564.059 473.969 563.923 472.466C563.777 470.644 563.923 468.894 563.923 467.117C563.923 459.773 562.066 452.876 562.776 445.568Z" fill="#FBBEBE"/>
<path opacity="0.1" d="M286.627 123.693C281.486 122.717 276.17 123.297 271.36 125.36C268.472 126.642 265.347 127.3 262.188 127.292C259.029 127.284 255.907 126.611 253.026 125.315C249.616 123.82 245.923 123.083 242.201 123.155C238.479 123.227 234.817 124.107 231.468 125.734C229.556 126.75 227.425 127.285 225.26 127.292C216.52 127.292 209.246 118.481 207.735 106.854C209.48 105.575 210.963 103.973 212.105 102.134C217.23 93.87 225.169 88.5669 234.081 88.5669C242.993 88.5669 250.832 93.8062 255.93 101.989C257.46 104.457 259.6 106.488 262.143 107.886C264.687 109.285 267.548 110.003 270.45 109.971H270.678C277.624 109.971 283.65 115.547 286.627 123.693Z" fill="#B1B834"/>
<path opacity="0.1" d="M313.21 87.1999L299.081 96.175L307.656 80.5574C305.224 78.6193 302.217 77.5455 299.108 77.5049H298.88C297.899 77.5223 296.918 77.4521 295.949 77.2953L291.179 80.3296L293.236 76.5937C289.841 75.4075 286.909 73.1744 284.861 70.2154L276.285 75.6825L281.702 65.8327C276.686 59.8098 269.931 56.1104 262.502 56.1104C253.59 56.1104 245.652 61.4225 240.526 69.687C239.011 72.1685 236.863 74.2019 234.303 75.5789C231.744 76.9559 228.865 77.6269 225.961 77.5231H225.478C215.637 77.5231 207.662 88.6942 207.662 102.462C207.662 116.23 215.619 127.392 225.496 127.392C227.66 127.385 229.791 126.854 231.705 125.843C235.053 124.213 238.714 123.33 242.437 123.256C246.159 123.182 249.853 123.919 253.262 125.415C256.144 126.711 259.266 127.384 262.425 127.392C265.584 127.4 268.709 126.742 271.597 125.46C274.981 123.993 278.641 123.27 282.329 123.341C286.017 123.411 289.646 124.274 292.972 125.87C294.866 126.862 296.97 127.384 299.108 127.392C308.949 127.392 316.924 116.23 316.924 102.453C316.984 97.1372 315.707 91.8917 313.21 87.1999Z" fill="#B1B834"/>
<path d="M781.408 609.507V616.797C781.408 624.047 784.285 630.999 789.407 636.126C794.529 641.252 801.476 644.132 808.719 644.132C815.962 644.132 822.909 641.252 828.03 636.126C833.152 630.999 836.03 624.047 836.03 616.797V609.507C836.03 602.258 833.152 595.305 828.03 590.178C822.909 585.052 815.962 582.172 808.719 582.172C801.476 582.172 794.529 585.052 789.407 590.178C784.285 595.305 781.408 602.258 781.408 609.507Z" fill="#3F3D56"/>
<path d="M836.03 492.876V485.587C836.03 478.337 833.152 471.384 828.03 466.258C822.909 461.131 815.962 458.251 808.719 458.251C801.476 458.251 794.529 461.131 789.407 466.258C784.285 471.384 781.408 478.337 781.408 485.587V492.876C781.406 495.553 781.802 498.216 782.582 500.776C784.482 507.047 788.568 512.427 794.098 515.935C799.627 519.443 806.232 520.846 812.709 519.889C819.185 518.932 825.103 515.677 829.383 510.719C833.664 505.761 836.022 499.429 836.03 492.876Z" fill="#3F3D56"/>
<path d="M781.408 547.547V554.837C781.408 562.087 784.285 569.039 789.407 574.166C794.529 579.292 801.476 582.172 808.719 582.172C815.962 582.172 822.909 579.292 828.03 574.166C833.152 569.039 836.03 562.087 836.03 554.837V547.547C836.03 540.298 833.152 533.345 828.03 528.218C822.909 523.092 815.962 520.212 808.719 520.212C801.476 520.212 794.529 523.092 789.407 528.218C784.285 533.345 781.408 540.298 781.408 547.547Z" fill="#3F3D56"/>
<path d="M808.719 644.132C801.482 644.154 794.548 647.041 789.431 652.163C784.314 657.284 781.43 664.225 781.408 671.468V678.757C781.408 686.007 784.285 692.96 789.407 698.086C794.529 703.213 801.476 706.093 808.719 706.093C815.962 706.093 822.909 703.213 828.03 698.086C833.152 692.96 836.03 686.007 836.03 678.757V671.468C836.008 664.225 833.124 657.284 828.007 652.163C822.889 647.041 815.955 644.154 808.719 644.132Z" fill="#3F3D56"/>
<path opacity="0.1" d="M836.03 486.289V492.876C836.022 499.429 833.664 505.761 829.383 510.719C825.103 515.677 819.185 518.932 812.709 519.889C806.232 520.846 799.627 519.443 794.098 515.935C788.568 512.427 784.481 507.047 782.582 500.776L836.03 486.289Z" fill="black"/>
<path opacity="0.1" d="M836.03 548.249V554.836C836.022 561.389 833.664 567.721 829.383 572.679C825.103 577.637 819.185 580.892 812.709 581.849C806.232 582.806 799.627 581.403 794.098 577.895C788.568 574.387 784.481 569.007 782.582 562.736L836.03 548.249Z" fill="black"/>
<path opacity="0.1" d="M836.03 610.209V616.797C836.022 623.35 833.664 629.682 829.383 634.64C825.103 639.598 819.185 642.852 812.709 643.809C806.232 644.767 799.627 643.363 794.098 639.855C788.568 636.347 784.481 630.968 782.582 624.697L836.03 610.209Z" fill="black"/>
<path opacity="0.1" d="M836.03 672.169V678.757C836.022 685.31 833.664 691.642 829.383 696.6C825.103 701.558 819.185 704.812 812.709 705.77C806.232 706.727 799.627 705.324 794.098 701.816C788.568 698.308 784.481 692.928 782.582 686.657L836.03 672.169Z" fill="black"/>
<path d="M893.045 555.301L890.87 556.987C888.91 558.508 886.469 559.271 883.993 559.137C881.518 559.003 879.173 557.981 877.388 556.258C875.604 554.535 874.499 552.227 874.277 549.755C874.054 547.284 874.729 544.814 876.176 542.8C876.76 541.978 877.463 541.247 878.261 540.631L880.446 538.946C882.619 537.273 885.367 536.534 888.085 536.889C890.803 537.244 893.268 538.666 894.939 540.841C896.61 543.016 897.349 545.766 896.994 548.486C896.639 551.207 895.218 553.675 893.045 555.347V555.301Z" fill="#3F3D56"/>
<path d="M861.92 553.242L859.744 554.928C857.658 556.629 856.318 559.078 856.009 561.753C855.7 564.429 856.447 567.119 858.091 569.251C859.735 571.384 862.145 572.789 864.809 573.169C867.473 573.548 870.18 572.872 872.353 571.283L874.529 569.598C876.615 567.897 877.955 565.448 878.264 562.772C878.573 560.097 877.826 557.406 876.182 555.274C874.538 553.142 872.128 551.736 869.464 551.357C866.8 550.977 864.093 551.654 861.92 553.242Z" fill="#3F3D56"/>
<path d="M843.403 567.547L841.228 569.224C839.055 570.898 837.635 573.367 837.281 576.088C836.926 578.809 837.667 581.56 839.339 583.735C841.011 585.91 843.477 587.331 846.196 587.685C848.915 588.04 851.663 587.299 853.836 585.625L856.012 583.949C857.088 583.12 857.99 582.088 858.668 580.91C859.345 579.732 859.784 578.432 859.959 577.085C860.135 575.738 860.043 574.369 859.69 573.057C859.337 571.745 858.729 570.515 857.901 569.438C857.073 568.361 856.041 567.458 854.865 566.78C853.688 566.102 852.39 565.663 851.044 565.488C849.697 565.312 848.33 565.404 847.019 565.757C845.708 566.11 844.479 566.719 843.403 567.547Z" fill="#3F3D56"/>
<path d="M824.887 581.844L822.711 583.53C820.544 585.202 819.13 587.667 818.779 590.384C818.428 593.1 819.169 595.844 820.84 598.013C822.511 600.182 824.974 601.598 827.688 601.949C830.402 602.3 833.144 601.558 835.31 599.885L837.495 598.2C839.668 596.526 841.088 594.057 841.442 591.336C841.797 588.615 841.056 585.864 839.384 583.689C837.712 581.514 835.246 580.093 832.527 579.739C829.808 579.384 827.06 580.125 824.887 581.799V581.844Z" fill="#3F3D56"/>
<path opacity="0.1" d="M892.836 555.465L890.87 556.987C888.91 558.508 886.469 559.271 883.993 559.137C881.518 559.003 879.173 557.981 877.388 556.258C875.604 554.535 874.499 552.227 874.277 549.755C874.054 547.284 874.729 544.814 876.176 542.8L892.836 555.465Z" fill="black"/>
<path opacity="0.1" d="M874.319 569.762L872.353 571.283C870.394 572.798 867.956 573.557 865.484 573.422C863.012 573.286 860.671 572.265 858.889 570.546C857.107 568.826 856.002 566.522 855.776 564.054C855.55 561.587 856.219 559.12 857.66 557.105L874.319 569.762Z" fill="black"/>
<path opacity="0.1" d="M855.803 584.058L853.836 585.579C851.878 587.101 849.437 587.866 846.961 587.734C844.485 587.602 842.139 586.582 840.354 584.86C838.568 583.138 837.462 580.83 837.238 578.358C837.014 575.887 837.687 573.417 839.134 571.401L855.803 584.058Z" fill="black"/>
<path d="M883.368 215.877C891.577 215.877 899.45 219.141 905.255 224.951C911.06 230.761 914.321 238.641 914.321 246.857C914.321 255.074 911.06 262.954 905.255 268.764C899.45 274.574 891.577 277.838 883.368 277.838C891.577 277.838 899.45 281.102 905.255 286.911C911.06 292.721 914.321 300.601 914.321 308.818C914.321 317.034 911.06 324.914 905.255 330.724C899.45 336.534 891.577 339.798 883.368 339.798C891.577 339.798 899.45 343.062 905.255 348.872C911.06 354.682 914.321 362.562 914.321 370.778C914.321 378.995 911.06 386.874 905.255 392.684C899.45 398.494 891.577 401.758 883.368 401.758C891.577 401.758 899.45 405.022 905.255 410.832C911.06 416.642 914.321 424.522 914.321 432.738C914.321 440.955 911.06 448.835 905.255 454.645C899.45 460.455 891.577 463.719 883.368 463.719H734.069C725.86 463.719 717.987 460.455 712.183 454.645C706.378 448.835 703.117 440.955 703.117 432.738C703.117 424.522 706.378 416.642 712.183 410.832C717.987 405.022 725.86 401.758 734.069 401.758C725.86 401.758 717.987 398.494 712.183 392.684C706.378 386.874 703.117 378.995 703.117 370.778C703.117 362.562 706.378 354.682 712.183 348.872C717.987 343.062 725.86 339.798 734.069 339.798C725.86 339.798 717.987 336.534 712.183 330.724C706.378 324.914 703.117 317.034 703.117 308.818C703.117 300.601 706.378 292.721 712.183 286.911C717.987 281.102 725.86 277.838 734.069 277.838C725.86 277.838 717.987 274.574 712.183 268.764C706.378 262.954 703.117 255.074 703.117 246.857C703.117 238.641 706.378 230.761 712.183 224.951C717.987 219.141 725.86 215.877 734.069 215.877C725.86 215.877 717.987 212.613 712.183 206.803C706.378 200.993 703.117 193.114 703.117 184.897C703.117 176.681 706.378 168.801 712.183 162.991C717.987 157.181 725.86 153.917 734.069 153.917C725.86 153.917 717.987 150.653 712.183 144.843C706.378 139.033 703.117 131.153 703.117 122.937C703.117 114.72 706.378 106.84 712.183 101.031C717.987 95.2206 725.86 91.9566 734.069 91.9566H740.897C744.821 65.3046 774.908 44.5752 811.459 44.5752C848.01 44.5752 878.097 65.3046 882.021 91.9566H883.377C891.587 91.9566 899.459 95.2206 905.264 101.031C911.069 106.84 914.33 114.72 914.33 122.937C914.33 131.153 911.069 139.033 905.264 144.843C899.459 150.653 891.587 153.917 883.377 153.917C891.587 153.917 899.459 157.181 905.264 162.991C911.069 168.801 914.33 176.681 914.33 184.897C914.33 193.114 911.069 200.993 905.264 206.803C899.459 212.613 891.587 215.877 883.377 215.877H883.368Z" fill="#B1B834"/>
<path opacity="0.1" d="M914.321 122.937C914.297 131.146 911.028 139.012 905.228 144.816C899.429 150.621 891.57 153.893 883.368 153.917H734.069L882.458 91.9565H883.368C891.57 91.9806 899.429 95.2523 905.228 101.057C911.028 106.862 914.297 114.728 914.321 122.937Z" fill="black"/>
<path opacity="0.1" d="M704.027 184.897C704.051 193.106 707.32 200.972 713.119 206.777C718.919 212.582 726.778 215.853 734.979 215.877H884.279L735.89 153.917H734.979C726.778 153.941 718.919 157.213 713.119 163.017C707.32 168.822 704.051 176.688 704.027 184.897Z" fill="black"/>
<path opacity="0.1" d="M704.027 308.818C704.051 317.027 707.32 324.893 713.119 330.697C718.919 336.502 726.778 339.774 734.979 339.798H884.279L735.89 277.837H734.979C726.778 277.861 718.919 281.133 713.119 286.938C707.32 292.743 704.051 300.609 704.027 308.818Z" fill="black"/>
<path opacity="0.1" d="M704.027 432.738C704.051 440.947 707.32 448.813 713.119 454.618C718.919 460.422 726.778 463.694 734.979 463.718H884.279L735.89 401.758H734.979C726.778 401.782 718.919 405.054 713.119 410.858C707.32 416.663 704.051 424.529 704.027 432.738Z" fill="black"/>
<path opacity="0.1" d="M914.321 246.857C914.297 255.066 911.028 262.932 905.228 268.737C899.429 274.542 891.57 277.813 883.368 277.837H734.069L882.458 215.877H883.368C891.57 215.901 899.429 219.173 905.228 224.977C911.028 230.782 914.297 238.648 914.321 246.857Z" fill="black"/>
<path opacity="0.1" d="M914.321 370.778C914.297 378.987 911.028 386.853 905.228 392.658C899.429 398.462 891.57 401.734 883.368 401.758H734.069L882.458 339.798H883.368C891.57 339.822 899.429 343.094 905.228 348.898C911.028 354.703 914.297 362.569 914.321 370.778Z" fill="black"/>
<path d="M897.215 587.275L848.056 560.787C845.469 559.275 843.569 556.818 842.755 553.932C841.941 551.047 842.277 547.958 843.692 545.316C845.107 542.673 847.491 540.683 850.342 539.763C853.193 538.844 856.29 539.067 858.98 540.386C857.6 539.687 856.374 538.72 855.374 537.54C854.374 536.36 853.62 534.991 853.156 533.515C852.693 532.039 852.53 530.484 852.676 528.944C852.823 527.403 853.276 525.908 854.009 524.546C854.742 523.183 855.741 521.982 856.945 521.012C858.15 520.042 859.536 519.323 861.023 518.898C862.509 518.472 864.066 518.35 865.601 518.536C867.135 518.723 868.617 519.215 869.959 519.984L872.198 521.187C878.216 513.114 891.789 511.62 903.833 518.107C915.877 524.595 922.104 536.759 918.672 546.226L919.118 546.472C920.515 547.157 921.759 548.116 922.777 549.293C923.795 550.47 924.565 551.84 925.042 553.321C925.519 554.803 925.693 556.365 925.553 557.916C925.413 559.466 924.962 560.972 924.227 562.344C923.493 563.716 922.489 564.925 921.277 565.9C920.065 566.875 918.669 567.596 917.172 568.019C915.676 568.441 914.109 568.558 912.567 568.361C911.024 568.164 909.537 567.659 908.194 566.874C910.814 568.375 912.744 570.842 913.573 573.747C914.403 576.652 914.066 579.767 912.634 582.428C911.202 585.088 908.789 587.083 905.909 587.989C903.029 588.894 899.909 588.638 897.215 587.275Z" fill="#B1B834"/>
<path opacity="0.1" d="M923.879 562.162C922.418 564.861 919.949 566.871 917.012 567.754C914.075 568.636 910.908 568.32 908.203 566.873L859.044 540.385L918.881 546.307L919.182 546.471C921.877 547.935 923.883 550.407 924.763 553.347C925.643 556.287 925.326 559.456 923.879 562.162Z" fill="black"/>
<path opacity="0.1" d="M843.649 545.251C842.2 547.955 841.878 551.123 842.753 554.064C843.628 557.004 845.629 559.48 848.319 560.95L897.479 587.438L859.626 540.704L859.326 540.54C856.62 539.095 853.454 538.78 850.518 539.662C847.581 540.545 845.112 542.554 843.649 545.251Z" fill="black"/>
<path d="M311.48 704.389L238.068 704.462C234.031 704.462 230.16 702.856 227.305 699.999C224.451 697.142 222.847 693.267 222.847 689.227C222.847 685.186 224.451 681.311 227.305 678.454C230.16 675.597 234.031 673.992 238.068 673.992C236.039 674.041 234.02 673.684 232.13 672.941C230.241 672.198 228.519 671.084 227.066 669.665C225.613 668.246 224.458 666.55 223.669 664.677C222.881 662.805 222.475 660.793 222.475 658.761C222.475 656.729 222.881 654.718 223.669 652.845C224.458 650.973 225.613 649.277 227.066 647.858C228.519 646.438 230.241 645.324 232.13 644.581C234.02 643.838 236.039 643.481 238.068 643.531H241.428C243.339 630.428 258.124 620.223 276.094 620.205C294.065 620.186 308.867 630.364 310.815 643.467H311.48C313.509 643.417 315.528 643.775 317.418 644.518C319.308 645.261 321.03 646.375 322.483 647.794C323.936 649.213 325.09 650.909 325.879 652.781C326.667 654.654 327.073 656.665 327.073 658.697C327.073 660.729 326.667 662.741 325.879 664.614C325.09 666.486 323.936 668.182 322.483 669.601C321.03 671.02 319.308 672.134 317.418 672.877C315.528 673.62 313.509 673.978 311.48 673.928C315.517 673.928 319.388 675.533 322.243 678.39C325.097 681.247 326.701 685.122 326.701 689.163C326.701 693.203 325.097 697.078 322.243 699.936C319.388 702.793 315.517 704.398 311.48 704.398V704.389Z" fill="#B1B834"/>
<path opacity="0.1" d="M326.683 658.675C326.676 662.711 325.073 666.58 322.224 669.436C319.375 672.293 315.512 673.904 311.48 673.919L238.068 673.992L310.997 643.458H311.443C315.477 643.465 319.343 645.07 322.199 647.921C325.054 650.772 326.666 654.638 326.683 658.675Z" fill="black"/>
<path opacity="0.1" d="M223.284 689.245C223.301 693.28 224.912 697.145 227.765 699.996C230.619 702.847 234.483 704.452 238.514 704.462L311.926 704.389L238.933 673.992H238.487C234.453 674.006 230.589 675.619 227.74 678.477C224.891 681.336 223.289 685.207 223.284 689.245Z" fill="black"/>
<path opacity="0.1" d="M570.659 205.225C567.06 204.546 563.34 204.952 559.972 206.392C557.953 207.295 555.766 207.762 553.554 207.762C551.342 207.762 549.155 207.295 547.136 206.392C544.748 205.345 542.163 204.829 539.557 204.88C536.951 204.93 534.387 205.545 532.042 206.683C530.704 207.394 529.214 207.769 527.7 207.777C521.582 207.777 516.493 201.608 515.437 193.462C516.659 192.569 517.697 191.449 518.496 190.163C522.083 184.377 527.599 180.669 533.872 180.669C540.144 180.669 545.606 184.314 549.193 190.063C550.266 191.788 551.764 193.208 553.543 194.186C555.322 195.164 557.323 195.668 559.353 195.649H559.517C564.342 195.621 568.557 199.53 570.659 205.225Z" fill="#B1B834"/>
<path opacity="0.1" d="M589.249 179.685L579.363 185.963L585.362 175.029C583.664 173.666 581.558 172.912 579.381 172.888H579.226C578.54 172.904 577.854 172.855 577.178 172.742L573.818 174.865L575.257 172.25C572.883 171.419 570.831 169.86 569.394 167.794L563.377 171.612L567.164 164.714C563.659 160.505 558.971 157.917 553.727 157.917C547.491 157.917 541.892 161.625 538.342 167.411C537.277 169.138 535.777 170.552 533.991 171.512C532.206 172.472 530.199 172.944 528.173 172.879H527.873C520.99 172.879 515.401 180.697 515.401 190.337C515.401 199.977 520.99 207.795 527.873 207.795C529.388 207.792 530.879 207.416 532.215 206.702C534.56 205.564 537.124 204.948 539.73 204.898C542.336 204.848 544.921 205.364 547.309 206.41C549.34 207.318 551.539 207.789 553.763 207.795C555.959 207.792 558.129 207.33 560.136 206.437C562.504 205.411 565.065 204.906 567.646 204.956C570.227 205.006 572.766 205.611 575.093 206.729C576.419 207.425 577.893 207.79 579.39 207.795C586.281 207.795 591.862 199.977 591.862 190.337C591.895 186.623 590.997 182.961 589.249 179.685Z" fill="#B1B834"/>
<path opacity="0.1" d="M374.586 260.807C378.185 260.129 381.905 260.535 385.274 261.974C387.291 262.878 389.477 263.345 391.687 263.345C393.898 263.345 396.083 262.878 398.101 261.974C400.483 260.929 403.063 260.412 405.664 260.459C408.264 260.506 410.824 261.116 413.167 262.247C414.505 262.957 415.995 263.332 417.51 263.341C423.627 263.341 428.725 257.172 429.781 249.026C428.557 248.136 427.518 247.015 426.722 245.727C423.136 239.941 417.573 236.233 411.337 236.233C405.101 236.233 399.612 239.878 396.025 245.627C394.95 247.352 393.451 248.771 391.67 249.747C389.889 250.724 387.887 251.225 385.856 251.204H385.702C380.858 251.204 376.634 255.113 374.586 260.807Z" fill="#B1B834"/>
<path opacity="0.1" d="M355.942 235.267L365.828 241.545L359.82 230.611C361.519 229.249 363.625 228.495 365.801 228.469H365.965C366.651 228.485 367.337 228.436 368.013 228.324L371.363 230.447L369.925 227.832C372.302 227.001 374.356 225.442 375.797 223.376L381.796 227.185L378.009 220.333C381.523 216.123 386.248 213.535 391.455 213.535C397.691 213.535 403.29 217.244 406.84 223.03C407.904 224.757 409.404 226.172 411.19 227.132C412.976 228.092 414.983 228.563 417.009 228.497H417.337C424.228 228.497 429.809 236.315 429.809 245.955C429.809 255.595 424.228 263.413 417.337 263.413C415.822 263.408 414.331 263.032 412.994 262.32C410.649 261.182 408.085 260.567 405.479 260.516C402.873 260.466 400.288 260.982 397.9 262.028C395.872 262.936 393.677 263.408 391.455 263.413C389.259 263.412 387.088 262.95 385.083 262.056C382.712 261.029 380.15 260.523 377.568 260.574C374.986 260.624 372.445 261.229 370.116 262.347C368.791 263.044 367.316 263.409 365.819 263.413C358.937 263.413 353.347 255.595 353.347 245.955C353.302 242.231 354.195 238.555 355.942 235.267Z" fill="#B1B834"/>
</g>
<defs>
<linearGradient id="paint0_linear" x1="555.511" y1="730.421" x2="555.511" y2="354.103" gradientUnits="userSpaceOnUse">
<stop stop-color="#808080" stop-opacity="0.25"/>
<stop offset="0.54" stop-color="#808080" stop-opacity="0.12"/>
<stop offset="1" stop-color="#808080" stop-opacity="0.1"/>
</linearGradient>
<clipPath id="clip0">
<rect width="1043" height="745" fill="white"/>
</clipPath>
</defs>
</svg>
