<svg width="881" height="669" viewBox="0 0 881 669" fill="none" xmlns="http://www.w3.org/2000/svg">
<g clip-path="url(#clip0)">
<path opacity="0.1" d="M209.285 558.294C201.867 557.543 194.118 556.741 187.093 558.704C180.068 560.668 174.247 566.401 176.333 571.881C180.993 584.099 208.342 575.59 220.952 583.941C225.455 586.926 227.21 591.621 230.726 595.286C236.416 601.238 246.199 604.013 255.641 605.54C312.365 614.711 377.03 591.106 426.747 613.839C442.848 621.204 455.545 632.924 473.199 637.837C496.587 644.347 522.2 637.392 546.399 632.933C576.579 627.418 607.343 625.805 637.934 628.133C660.562 629.878 690.661 630.463 697.904 614.031C702.564 603.463 692.703 591.699 679.613 586.699C666.523 581.699 651.199 581.856 636.581 582.336C608.368 583.348 580.145 585.39 551.932 584.395C497.372 582.458 445.832 560.833 392.704 560.118C330.831 559.367 271.445 564.56 209.285 558.294Z" fill="#A0C23C"/>
<path opacity="0.1" d="M151.924 284.758C143.197 293.581 142.665 307.107 142.665 307.107C142.665 307.107 156.183 306.339 164.874 297.508C173.566 288.677 174.142 275.159 174.142 275.159C174.142 275.159 160.616 275.953 151.924 284.758Z" fill="#A0C23C"/>
<path opacity="0.1" d="M187.049 66.8021C190.13 78.8012 201.431 86.2624 201.431 86.2624C201.431 86.2624 207.74 74.2808 204.66 62.2817C201.579 50.2826 190.278 42.8301 190.278 42.8301C190.278 42.8301 183.934 54.8117 187.049 66.8021Z" fill="#A0C23C"/>
<path opacity="0.1" d="M697.424 99.8062C688.697 108.629 688.156 122.155 688.156 122.155C688.156 122.155 701.683 121.387 710.375 112.556C719.067 103.724 719.634 90.1982 719.634 90.1982C719.634 90.1982 706.116 91.0273 697.424 99.8062Z" fill="#A0C23C"/>
<path opacity="0.1" d="M431.442 223.445C430.429 235.785 438.659 246.536 438.659 246.536C438.659 246.536 448.546 237.277 449.558 224.929C450.571 212.58 442.341 201.855 442.341 201.855C442.341 201.855 432.454 211.097 431.442 223.445Z" fill="#A0C23C"/>
<path opacity="0.1" d="M717.731 396.503C716.719 408.842 724.948 419.593 724.948 419.593C724.948 419.593 734.836 410.334 735.848 397.995C736.86 385.656 728.631 374.904 728.631 374.904C728.631 374.904 718.744 384.163 717.731 396.503Z" fill="#A0C23C"/>
<path opacity="0.1" d="M511.867 84.1067C455.387 82.405 401.596 66.6534 350.23 49.3747C298.864 32.096 247.987 12.9934 192.861 3.84793C157.404 -2.03381 116.851 -2.86283 88.288 13.5868C60.79 29.4082 51.9062 56.7313 47.1327 82.0821C43.5372 101.15 41.4254 121.221 51.2691 139.076C58.1109 151.476 70.2411 161.896 78.6362 173.764C107.845 215.084 87.1972 266.03 55.554 306.409C40.7185 325.337 23.4832 343.383 12.025 363.533C0.566735 383.683 -4.7304 406.756 5.29663 427.298C15.2277 447.666 38.9033 462.964 64.5512 473.724C116.641 495.541 177.999 501.832 237.873 505.375C370.371 513.229 503.568 509.826 636.415 506.423C685.581 505.166 734.957 503.892 783.321 497.312C810.182 493.664 837.907 487.87 857.411 473.872C882.16 456.105 888.295 426.024 871.706 403.745C843.885 366.387 766.985 357.102 747.515 317.003C736.816 294.933 747.803 270.35 763.363 249.878C796.734 205.965 852.664 167.437 855.605 117.233C857.629 82.7628 830.742 48.2402 789.168 31.9302C745.595 14.826 685.163 16.9815 653.031 45.2819C619.913 74.3852 561.74 85.5989 511.867 84.1067Z" fill="#A0C23C"/>
<path d="M699.091 248.386C697.888 248.693 696.775 249.281 695.844 250.102C694.913 250.923 694.189 251.952 693.733 253.107L692.86 252.967L689.605 252.444C689.605 252.444 672.361 251.021 669.141 251.239C665.92 251.457 663.905 248.281 663.905 248.281L651.085 237.434L650.09 236.561C651.478 236.038 652.342 235.767 652.342 235.767C652.342 235.767 617.941 193.007 610.523 192.178C603.105 191.349 590.844 181.365 590.722 181.269L590.591 180.589C590.321 179.149 590.12 177.691 589.972 176.225L591.795 177.342C591.795 176.836 591.795 176.33 591.848 175.824C592.12 170.547 593.901 165.458 596.979 161.163C600.566 156.189 605.872 152.279 607.992 146.546C608.838 144.08 609.219 141.48 609.118 138.875C609.172 134.184 607.934 129.567 605.54 125.532C604.32 123.515 602.685 121.78 600.745 120.441C598.804 119.102 596.602 118.19 594.283 117.766C593.061 117.574 591.813 117.548 590.609 117.268C583.444 115.584 580.809 105.976 573.845 103.62C570.598 102.52 566.985 103.245 563.852 104.606C560.72 105.967 557.883 107.922 554.82 109.432C551.757 110.941 548.284 112.05 545.5 114.188C545.212 114.406 544.907 114.668 544.627 114.938L544.078 115.471C542.929 116.637 541.929 117.941 541.102 119.354L540.971 119.572C540.884 119.72 540.805 119.878 540.727 120.035C540.648 120.192 540.596 120.279 540.543 120.401C540.491 120.523 540.404 120.68 540.343 120.82L540.159 121.239L540.002 121.64C539.95 121.789 539.889 121.937 539.845 122.094C539.802 122.251 539.758 122.347 539.723 122.478L539.592 122.941L539.514 123.316C539.514 123.473 539.452 123.639 539.426 123.796C539.4 123.953 539.426 124.031 539.426 124.145C539.426 124.258 539.426 124.476 539.426 124.642C539.426 124.808 539.426 124.86 539.426 124.965C539.426 125.07 539.426 125.314 539.426 125.497C539.426 125.681 539.426 125.672 539.426 125.759C539.46 126.016 539.513 126.27 539.583 126.518C540.055 128.124 541.678 129.765 542.917 131.196C542.777 131.327 542.638 131.449 542.498 131.589C539.552 134.427 537.21 137.831 535.61 141.596C534.01 145.361 533.186 149.41 533.187 153.501C533.188 155.319 533.355 157.133 533.684 158.92C532.098 157.722 530.393 156.69 528.596 155.84C522.686 153.007 516.222 151.516 509.668 151.477C498.978 151.354 483.959 147.34 483.959 147.34C484.343 148.073 484.636 148.849 484.832 149.653C484.177 149.277 483.47 148.876 482.694 148.457C476.433 145.096 469.645 142.823 462.622 141.738C462.622 141.738 458.172 142.357 457.578 133.011C457.374 130.091 456.848 127.202 456.007 124.398C453.453 115.85 451.683 107.087 450.719 98.218L449.227 84.4998C449.227 84.4998 455.946 48.7207 451.906 33.4665C453.206 28.6843 452.473 24.3036 448.188 21.1533C431.285 8.70911 414.232 57.1418 414.232 57.1418L407.897 63.2941C406.272 62.2349 404.439 61.5356 402.521 61.2434C402.521 61.2434 399.109 64.734 396.735 74.2635C395.479 79.3162 386.892 87.7548 379.125 94.5528C373.609 99.3787 368.286 104.396 362.972 109.432C359.045 113.167 350.292 118.507 331.197 121.527C328.204 121.998 325.481 122.443 322.994 122.853C323.63 120.598 323.953 118.267 323.954 115.924C323.925 110.028 321.89 104.317 318.186 99.7287C314.481 95.1409 309.327 91.9494 303.569 90.6782C303.656 90.0676 303.656 89.4476 303.569 88.8369C303.247 87.5229 302.581 86.3182 301.64 85.3463C297.617 80.3721 293.254 75.2583 287.267 72.9021C284.798 71.9419 282.154 71.5166 279.509 71.6542H278.183C277.912 71.6542 277.65 71.6542 277.38 71.6542C274.557 71.8105 271.8 72.5669 269.293 73.8731C266.786 75.1793 264.586 77.0052 262.841 79.2289C260.694 82.1 259.403 85.5033 257.552 88.5664C254.114 94.2387 248.826 98.6107 243.092 102.066C239.645 104.152 236.024 105.95 232.769 108.315C220.961 116.893 215.516 132.749 218.483 146.921C219.792 153.143 222.558 159.269 221.816 165.579C221.232 170.474 218.596 174.873 215.908 179.027C213.221 183.18 210.376 187.404 209.311 192.212C208.246 197.021 209.363 202.684 213.395 205.599C214.879 206.664 216.676 207.344 217.942 208.636C218.784 209.631 219.488 210.735 220.036 211.917C222.177 215.785 225.081 219.177 228.571 221.889C232.062 224.601 236.067 226.576 240.343 227.695C241.7 228.041 243.098 228.194 244.497 228.149H244.646H244.916C248.119 228.349 251.4 227.494 252.474 224.658C252.636 224.013 252.88 223.392 253.198 222.808C253.499 222.373 253.949 222.062 254.463 221.935C255.496 222.171 256.491 222.547 257.422 223.052C261.892 225.371 266.783 226.769 271.803 227.163C272.642 227.23 273.485 227.244 274.325 227.206C276.072 227.37 277.834 227.118 279.465 226.473C281.035 225.677 282.39 224.516 283.419 223.087C283.645 222.799 283.855 222.494 284.073 222.215C282.92 229.184 280.75 235.947 277.633 242.286C277.633 242.286 272.397 251.012 272.772 259.809C272.57 263.014 273.249 266.212 274.735 269.059C274.735 269.059 274.884 268.675 275.189 268.073C276.69 270.586 281.612 278.623 284.841 281.442C284.998 289.741 284.963 300.135 283.925 302.273C282.179 305.929 276.664 331.943 300.383 349.684L305.855 361.666L283.331 363.263C281.054 362.949 251.601 358.987 251.452 364.755C251.304 370.75 255.903 429.131 271.175 425.178C285.408 421.496 280.713 404.47 280.006 402.184L280.513 402.044L279.954 401.887L291.342 391.092C291.557 389.778 291.243 388.432 290.47 387.348L290.583 387.287L318.09 388.518L324.556 402.568C324.556 402.568 335.526 419.253 326.633 433.294C317.741 447.335 308.543 469.291 307.059 482.608C305.846 493.499 297.783 504.198 294.894 507.723C289.737 509.469 269.953 517.235 277.851 528.99C286.892 542.447 316.249 568.059 328.117 567.178C339.985 566.296 335.229 557.666 335.229 557.666L325.307 548.049C325.307 548.049 323.562 527.559 324.268 521.564C324.652 518.448 322.357 516.206 319.905 515.254C320.839 508.579 323.204 495.925 328.283 488.935C335.395 479.126 358.233 435.964 358.233 435.964C358.233 435.964 365.494 429.524 363.862 410.36C363.207 402.629 362.841 395.839 362.631 390.472L388.48 391.633C388.48 391.633 416.205 388.849 397.372 359.144C378.54 329.439 338.51 300.327 338.51 300.327L338.153 281.94C339.968 282.393 341.033 282.62 341.033 282.62C341.033 282.62 340.875 281.957 340.614 280.77L341.033 280.866C341.033 280.866 335.247 255.829 333.466 235.924L335.098 236.675C352.299 256.58 363.897 239.755 363.897 239.755C363.897 239.755 400.226 188.687 396.666 191.026C396.297 191.208 395.896 191.316 395.485 191.341C395.074 191.367 394.663 191.31 394.274 191.174L396.892 182.831C396.892 182.831 407.618 166.443 392.049 157.227C379.343 149.705 379.675 173.284 380.224 182.194L379.596 181.662C379.596 181.662 367.44 199.988 360.912 210.198C354.384 220.408 348.904 213.689 348.904 213.689L340.657 204.395C342.012 200.671 342.677 196.733 342.621 192.771C342.801 190.007 342.397 187.236 341.437 184.638C340.476 182.04 338.979 179.673 337.044 177.691C330.752 171.277 328.911 165.064 328.719 160.282C328.781 157.804 329.342 155.364 330.368 153.108L373.225 130.419C373.225 130.419 382.266 130.559 394.423 111.832C402.301 99.8542 410.971 88.4172 420.376 77.597C420.376 77.597 420.123 77.2305 419.687 76.6284C420.123 76.1135 420.376 75.8343 420.376 75.8343C420.376 75.8343 419.879 75.11 419.032 73.9929L425.638 66.3746C425.43 69.8178 425.403 73.2697 425.56 76.7157L428.981 88.2784L430.901 152.655C430.901 152.655 428.824 158.763 442.175 164.951C453.468 170.186 471.358 178.913 476.576 181.487C476.384 181.959 476.271 182.212 476.271 182.212L477.824 182.107L478.051 182.212C504.135 179.873 503.245 205.913 503.245 205.913C503.245 205.913 504.991 258.884 497.023 277.323C489.056 295.762 490.199 318.583 490.199 318.583C490.199 318.583 490.993 314.691 495.435 319.778C495.348 320.223 495.252 320.703 495.147 321.201C492.599 333.968 487.293 361.125 486.307 372.138C485.221 382.174 483.285 392.1 480.521 401.808L477.903 450.529L494.58 451.341L494.396 453.086C494.305 453.971 494 454.82 493.508 455.56C493.015 456.301 492.35 456.91 491.569 457.336C485.862 460.434 472.37 471.298 473.452 504.826L472.876 510.219C471.953 519.353 469.182 528.203 464.734 536.233C464.35 536.914 464.01 537.568 463.722 538.197C463.765 537.844 463.925 537.515 464.176 537.263C464.176 537.263 455.51 539.061 457.29 562.474C459.07 585.888 461.741 589.98 465.301 590.268C468.862 590.556 486.246 594.806 485.312 586.176C484.378 577.545 483.566 558.373 484.718 555.449C485.87 552.526 490.6 544.637 486.115 542.735C487.415 537.364 488.046 531.854 487.991 526.328C487.991 526.328 496.718 512.575 502.957 507.453C509.197 502.33 512.557 493.63 514.817 482.434C514.974 481.701 533.204 469.553 530.525 459.465C530.054 457.72 529.713 456.175 529.452 454.779C529.338 454.159 529.242 453.575 529.155 453.034H529.478L533.187 430.789V452.449L535.386 452.737L535.307 454.482L534.374 475.252C534.204 479.297 533.318 483.28 531.755 487.015C527.828 496.309 520.585 517 522.558 539.375L522.348 559.324C521.72 559.446 512.661 561.584 514.381 584.195C516.126 607.599 518.822 611.701 522.383 611.989C525.944 612.277 543.327 616.527 542.402 607.896C541.477 599.266 540.657 580.093 541.809 577.17C542.961 574.246 545.038 566.515 540.552 564.612C540.575 561.99 541.215 559.41 542.42 557.081C544.374 553.756 550.902 537.952 555.815 525.796C560.838 513.493 563.63 500.393 564.062 487.111C564.062 486.963 564.062 486.814 564.062 486.666C564.194 482.185 565.156 477.768 566.898 473.637C568.907 469.016 570.496 464.223 571.645 459.317C571.768 458.732 571.864 458.165 571.951 457.571L576.21 458.139L590.748 395.22C590.748 395.22 594.728 361.116 592.782 345.714C592.703 345.077 592.616 344.492 592.511 343.925L593.384 344.003C593.384 344.003 596.351 336.402 595.461 303.913C594.571 271.424 601.395 261.153 601.395 261.153C605.078 249.477 609.144 245.567 611.518 244.258C612.129 243.869 612.828 243.64 613.551 243.595L624.556 256.187L626.58 258.509C626.585 258.462 626.585 258.415 626.58 258.369L627.453 259.39C627.386 258.872 627.363 258.35 627.383 257.828C633.256 261.24 646.826 269.216 654.925 274.941C665.484 282.402 668.381 281.529 677.614 280.753C683.217 280.29 690.792 277.149 695.871 274.758L696.333 274.539C697.7 275.269 699.139 275.854 700.627 276.285C700.627 276.285 715.532 288.912 716.972 265.865C718.412 242.818 699.091 248.386 699.091 248.386ZM312.496 516.782C310.978 516.33 309.515 515.712 308.133 514.94L312.496 516.782ZM289.161 267.305L289.213 270.577L288.986 270.682C289.056 269.53 289.108 268.396 289.161 267.305ZM522.287 559.402V560.676C522.126 560.504 522.036 560.276 522.036 560.039C522.036 559.803 522.126 559.575 522.287 559.402Z" fill="url(#paint0_linear)"/>
<path d="M569.865 175.955H544.558V202.571H569.865V175.955Z" fill="#FF7590"/>
<path d="M513.805 483.28C511.579 494.407 508.281 503.055 502.172 508.151C496.063 513.247 487.485 526.913 487.485 526.913C487.337 545.091 482.537 550.615 482.537 550.615L477.589 551.924H465.371C465.371 551.924 463.19 545.815 462.753 542.185C462.605 540.972 463.469 538.939 464.673 536.757C469.04 528.76 471.756 519.967 472.658 510.9L473.225 505.533C472.196 472.224 485.443 461.411 491.002 458.331C491.77 457.902 492.422 457.295 492.904 456.559C493.386 455.823 493.682 454.982 493.768 454.107L494.754 444.586L527.619 446.201C527.619 446.201 526.921 449.098 528.169 455.8C528.422 457.188 528.762 458.732 529.216 460.451C531.834 470.478 513.944 482.547 513.805 483.28Z" fill="#8E5362"/>
<path d="M569.534 460.277C568.406 465.149 566.85 469.912 564.882 474.51C563.17 478.621 562.224 483.009 562.09 487.46C562.09 487.609 562.09 487.757 562.09 487.905C561.665 501.097 558.927 514.111 554 526.355C549.174 538.432 542.777 554.149 540.858 557.456C537.664 562.98 539.549 572.292 539.549 572.292L521.048 570.983L521.371 539.855C519.442 517.628 526.546 497.094 530.394 487.818C531.949 484.108 532.836 480.152 533.012 476.133L533.885 455.486L534.155 449.377C534.155 449.377 566.863 444.726 569.621 452.144C570.38 454.107 570.197 457.031 569.534 460.277Z" fill="#8E5362"/>
<path opacity="0.1" d="M528.169 455.8L493.733 454.107L494.719 444.586L527.619 446.201C527.619 446.201 526.895 449.089 528.169 455.8Z" fill="black"/>
<path opacity="0.1" d="M569.534 460.277L533.876 455.486L534.147 449.377C534.147 449.377 566.855 444.726 569.612 452.144C570.38 454.107 570.197 457.03 569.534 460.277Z" fill="black"/>
<path d="M588.27 396.59L574.019 459.133L531.843 453.461V431.933L528.195 454.055L477.58 451.576L480.198 403.143C482.91 393.478 484.808 383.603 485.87 373.621C486.857 362.678 492.04 335.687 494.545 323.007C495.417 318.827 495.906 316.191 495.906 316.191C495.906 316.191 582.598 334.221 588.27 340.766C589.239 341.883 589.876 344.256 590.268 347.407C592.171 362.696 588.27 396.59 588.27 396.59Z" fill="#BDD2E8"/>
<path opacity="0.1" d="M487.04 400.665C487.04 400.665 521.161 382.776 529.478 386.554L487.04 400.665Z" fill="black"/>
<path opacity="0.1" d="M505.654 342.197C505.654 342.197 534.016 363.725 534.888 369.537L505.654 342.197Z" fill="black"/>
<path opacity="0.1" d="M497.948 416.373C497.948 416.373 518.456 415.5 525.001 420.736L497.948 416.373Z" fill="black"/>
<path opacity="0.1" d="M534.889 393.352C534.889 393.352 544.636 425.257 540.413 433.983C536.189 442.71 531.834 431.941 531.834 431.941L534.889 393.352Z" fill="black"/>
<path d="M521.196 559.646C521.196 559.646 511.597 561.104 513.342 584.369C515.087 607.634 517.706 611.718 521.196 612.006C524.687 612.294 541.704 616.518 540.832 607.931C539.959 599.344 539.086 580.302 540.247 577.388C541.408 574.473 543.415 566.802 539.016 564.909L538.065 569.394C538.065 569.394 528.754 560.807 523.23 567.064C522.992 565.539 522.61 564.04 522.086 562.587C521.537 561.226 520.332 560.519 521.196 559.646Z" fill="#494457"/>
<path d="M696.874 274.129C696.874 274.129 694.675 275.36 691.446 276.896C686.463 279.269 679.037 282.394 673.539 282.856C664.481 283.624 661.645 284.497 651.286 277.079C643.336 271.389 630.028 263.457 624.233 260.071L621.711 258.579L621.458 258.43V258.326L626.266 245.113L643.283 236.064L647.507 239.686L660.082 250.463C660.082 250.463 662.046 253.622 665.214 253.404C668.382 253.186 685.285 254.599 685.285 254.599L688.479 255.123L695.208 256.24L696.874 274.129Z" fill="#8E5362"/>
<path opacity="0.1" d="M696.874 274.129C696.874 274.129 694.675 275.36 691.446 276.896C688.034 275.15 683.793 271.878 685.425 266.494C686.9 261.65 687.301 257.872 688.514 255.149L695.242 256.266L696.874 274.129Z" fill="black"/>
<path d="M694.588 250.568C694.588 250.568 713.569 245.113 712.155 268.021C710.741 290.928 696.115 278.388 696.115 278.388C696.115 278.388 683.679 275.116 686.297 266.494C688.916 257.872 688.156 252.644 694.588 250.568Z" fill="#8E5362"/>
<path d="M497.8 176.391L478.025 184.699L477.72 184.829L477.501 184.725L476.271 184.105C471.157 181.557 453.581 172.839 442.525 167.664C429.435 161.556 431.468 155.447 431.468 155.447L429.583 91.4547L426.232 79.9617C426.232 79.9617 423.867 41.0061 442.813 31.241C461.758 21.4759 449.506 87.6673 449.506 87.6673L450.972 101.42C451.919 110.219 453.657 118.913 456.165 127.4C456.983 130.19 457.498 133.06 457.7 135.96C458.285 145.263 462.648 144.643 462.648 144.643C469.54 145.726 476.194 147.987 482.319 151.328C484.593 152.529 486.77 153.906 488.829 155.447L497.8 176.391Z" fill="#8E5362"/>
<path d="M568.199 206.934L551.321 205.189C551.321 205.189 556.295 197.789 558.486 190.589C558.795 189.602 559.043 188.597 559.227 187.578C559.734 184.725 559.603 182.081 558.302 180.17C553.363 172.9 587.685 162.716 587.685 162.716C587.268 166.739 587.143 170.788 587.31 174.829C587.408 177.641 587.7 180.443 588.183 183.215C589.221 188.861 591.289 194.176 595.234 196.898C606.011 204.316 568.199 206.934 568.199 206.934Z" fill="#8E5362"/>
<path opacity="0.1" d="M568.199 206.934L551.321 205.189C551.321 205.189 556.295 197.789 558.486 190.589C560.432 193.356 561.104 193.295 563.835 193.844C563.835 193.844 580.87 196.366 588.2 183.215C589.239 188.861 591.307 194.176 595.251 196.899C606.012 204.316 568.199 206.934 568.199 206.934Z" fill="black"/>
<path opacity="0.1" d="M624.268 260.071C624.248 260.59 624.271 261.109 624.338 261.624L621.72 258.579L621.501 258.326L626.31 245.113L643.327 236.064L647.551 239.686C641.503 241.998 624.538 249.337 624.268 260.071Z" fill="black"/>
<path opacity="0.1" d="M497.8 176.391L478.025 184.699H477.501L475.974 184.804C475.974 184.804 476.088 184.551 476.271 184.079C477.92 180.074 485.574 160.518 482.266 151.302C484.541 152.503 486.717 153.88 488.776 155.421L497.8 176.391Z" fill="black"/>
<path opacity="0.1" d="M590.268 347.38C582.571 346.691 505.567 339.57 498.385 328.234C497.249 326.387 495.965 324.636 494.545 322.998C495.417 318.818 495.906 316.183 495.906 316.183C495.906 316.183 582.598 334.212 588.27 340.757C589.239 341.856 589.876 344.221 590.268 347.38Z" fill="black"/>
<path d="M563.835 194.717C563.835 194.717 581.053 197.265 588.331 183.887C588.331 183.887 600.487 193.871 607.757 194.726C615.026 195.581 648.773 238.062 648.773 238.062C648.773 238.062 621.72 246.789 623.465 260.751L610.663 245.916C610.663 245.916 604.266 245.62 598.742 263.369C598.742 263.369 592.049 273.545 592.921 305.833C593.794 338.122 590.888 345.688 590.888 345.688C590.888 345.688 505.942 338.418 498.385 326.489C490.827 314.56 489.658 320.38 489.658 320.38C489.658 320.38 488.488 297.691 496.342 279.365C504.197 261.039 502.451 208.392 502.451 208.392C502.451 208.392 503.324 182.5 477.728 184.83C477.728 184.83 488.488 159.811 483.549 150.211C483.549 150.211 498.271 154.208 508.761 154.33C515.199 154.38 521.544 155.871 527.331 158.694C530.482 160.238 533.388 162.184 535.037 164.506C539.976 171.487 548.127 168.293 548.127 168.293C550.181 174.681 552.72 180.904 555.719 186.907C556.06 187.544 556.4 188.172 556.749 188.774C557.255 189.647 557.779 190.52 558.302 191.235C560.397 194.228 560.99 194.15 563.835 194.717Z" fill="#FF7590"/>
<path opacity="0.1" d="M587.31 174.803C586.382 176.121 585.349 177.361 584.221 178.512C581.383 181.424 577.99 183.738 574.243 185.318C570.496 186.898 566.47 187.711 562.404 187.71C561.352 187.71 560.3 187.658 559.254 187.553C559.76 184.699 559.629 182.055 558.329 180.144C553.389 172.874 587.712 162.69 587.712 162.69C587.286 166.713 587.152 170.761 587.31 174.803Z" fill="black"/>
<path d="M592.921 156.32C592.921 162.361 591.13 168.266 587.774 173.289C584.418 178.311 579.647 182.226 574.066 184.538C568.485 186.85 562.344 187.455 556.419 186.276C550.494 185.098 545.052 182.189 540.78 177.917C536.509 173.645 533.6 168.203 532.421 162.278C531.243 156.354 531.847 150.212 534.159 144.631C536.471 139.05 540.386 134.28 545.409 130.924C550.432 127.568 556.337 125.777 562.378 125.777C566.393 125.762 570.372 126.541 574.084 128.071C577.797 129.601 581.17 131.85 584.009 134.689C586.848 137.528 589.097 140.901 590.627 144.614C592.157 148.326 592.936 152.305 592.921 156.32Z" fill="#8E5362"/>
<path opacity="0.1" d="M608.054 226.133L608.682 246.571C608.682 246.571 617.801 239.223 618.089 232.242C618.377 225.26 608.054 226.133 608.054 226.133Z" fill="black"/>
<path opacity="0.1" d="M534.452 246.57C534.452 246.57 558.451 279.513 572.414 282.856C586.376 286.198 539.688 257.252 534.452 246.57Z" fill="black"/>
<path opacity="0.1" d="M559.908 250C559.908 250 573.286 265.114 582.886 266.999L559.908 250Z" fill="black"/>
<path opacity="0.1" d="M512.784 288.092C512.784 288.092 537.219 312.09 551.181 313.547L512.784 288.092Z" fill="black"/>
<path opacity="0.1" d="M592.921 156.32C592.926 164.304 589.791 171.971 584.195 177.665L580.844 175.58C579.547 174.905 578.429 173.933 577.58 172.743C576.471 170.893 576.794 168.572 576.882 166.417C577.065 161.853 575.808 156.913 572.239 154.06C566.453 149.426 557.177 151.991 551.295 147.445C549.878 146.242 548.631 144.854 547.586 143.317L542.071 135.926C541.739 135.489 541.338 135.053 540.91 134.538C545.204 130.316 550.651 127.457 556.565 126.321C562.479 125.185 568.597 125.823 574.15 128.155C579.703 130.486 584.443 134.407 587.773 139.425C591.104 144.442 592.877 150.332 592.869 156.355L592.921 156.32Z" fill="black"/>
<path d="M543.973 117.207C546.705 115.121 550.038 114.022 553.11 112.486C556.182 110.95 558.896 108.995 561.968 107.686C565.039 106.377 568.591 105.609 571.776 106.7C578.61 109.048 581.193 118.595 588.218 120.27C589.405 120.549 590.626 120.576 591.822 120.759C594.104 121.191 596.268 122.104 598.171 123.435C600.074 124.766 601.673 126.487 602.861 128.482C605.206 132.508 606.413 137.096 606.352 141.755C606.449 144.341 606.073 146.923 605.244 149.373C603.167 155.072 597.957 158.973 594.44 163.903C591.111 168.622 589.344 174.264 589.387 180.039L580.87 174.742C579.572 174.07 578.453 173.097 577.606 171.906C576.498 170.055 576.821 167.734 576.908 165.579C577.091 161.015 575.834 156.075 572.274 153.222C566.479 148.588 557.203 151.154 551.33 146.607C549.913 145.404 548.666 144.016 547.621 142.479L542.106 135.088C540.91 133.482 538.615 131.484 538.091 129.529C536.931 125.323 540.901 119.572 543.973 117.207Z" fill="#362133"/>
<path opacity="0.1" d="M581.821 173.756C580.523 173.084 579.404 172.111 578.557 170.919C577.449 169.069 577.772 166.748 577.859 164.593C578.042 160.029 576.786 155.089 573.216 152.236C567.431 147.602 558.154 150.168 552.272 145.621C550.856 144.418 549.608 143.03 548.563 141.493L543.048 134.102C541.844 132.496 539.557 130.498 539.034 128.543C538.083 125.175 540.491 120.785 543.066 117.975C540.177 120.645 537.009 125.716 538.083 129.494C538.641 131.449 540.901 133.447 542.097 135.053L547.612 142.445C548.657 143.981 549.905 145.369 551.321 146.572C557.177 151.119 566.453 148.553 572.265 153.187C575.826 156.041 577.082 160.98 576.899 165.544C576.812 167.699 576.489 170.021 577.597 171.871C578.444 173.062 579.563 174.035 580.861 174.707L589.378 180.004C589.378 179.498 589.378 178.992 589.431 178.494L581.821 173.756Z" fill="black"/>
<path d="M464.123 537.778C464.123 537.778 455.624 539.523 457.369 562.832C459.114 586.141 461.732 590.181 465.223 590.469C468.714 590.757 485.731 594.981 484.858 586.394C483.985 577.807 483.113 558.765 484.273 555.851C485.434 552.936 490.042 545.108 485.644 543.214L482.092 547.857C482.092 547.857 472.78 539.27 467.256 545.527C467.256 545.527 462.09 539.811 464.123 537.778Z" fill="#494457"/>
<path opacity="0.1" d="M469.499 552.229C471.34 553.102 473.06 554.166 474.892 555.039C476.697 555.984 478.711 556.458 480.748 556.418C481.613 556.402 482.45 556.111 483.139 555.589" fill="black"/>
<path opacity="0.1" d="M525.437 575.023C526.528 576.027 527.375 577.309 528.605 578.138C530.351 579.308 532.585 579.378 534.714 579.404C535.068 579.436 535.426 579.391 535.761 579.273C536.141 579.066 536.463 578.766 536.695 578.4L537.838 576.925" fill="black"/>
<path d="M382.031 188.024C382.031 188.024 378.104 150.796 393.376 159.959C408.647 169.122 398.132 185.406 398.132 185.406L394.545 196.899L382.031 188.024Z" fill="#FFC1C7"/>
<path d="M406.466 69.0538L415.192 60.4843C415.192 60.4843 431.922 12.3395 448.502 24.7052C465.083 37.0708 427.488 68.3383 427.488 68.3383L417.522 79.9708L406.466 69.0538Z" fill="#FFC1C7"/>
<path d="M278.758 259.451L278.322 269.338C278.322 269.338 286.325 283.301 289.667 284.322C293.009 285.343 292.721 254.791 292.721 254.791L278.758 259.451Z" fill="#FF5374"/>
<path opacity="0.1" d="M278.758 259.451L278.322 269.338C278.322 269.338 286.325 283.301 289.667 284.322C293.009 285.343 292.721 254.791 292.721 254.791L278.758 259.451Z" fill="black"/>
<path d="M292.137 248.595L292.73 285.038H333.301L330.246 263.806L292.137 248.595Z" fill="#FFC1C7"/>
<path d="M301.596 339.579L303.49 351.212L327.201 403.868C327.201 403.868 337.961 420.449 329.234 434.411C320.507 448.374 311.492 470.19 310.035 483.42C308.578 496.65 297.093 509.6 297.093 509.6L322.113 520.22C322.113 520.22 323.858 499.425 330.84 489.677C337.821 479.929 360.214 437.029 360.214 437.029C360.214 437.029 367.344 430.624 365.747 411.574C364.15 392.524 364.289 379.137 364.289 379.137L361.82 348.742L301.596 339.579Z" fill="#575988"/>
<path opacity="0.1" d="M301.596 339.579L303.49 351.212L327.201 403.868C327.201 403.868 337.961 420.449 329.234 434.411C320.507 448.374 311.492 470.19 310.035 483.42C308.578 496.65 297.093 509.6 297.093 509.6L322.113 520.22C322.113 520.22 323.858 499.425 330.84 489.677C337.821 479.929 360.214 437.029 360.214 437.029C360.214 437.029 367.344 430.624 365.747 411.574C364.15 392.524 364.289 379.137 364.289 379.137L361.82 348.742L301.596 339.579Z" fill="black"/>
<path d="M299.266 508.003C299.266 508.003 272.501 516.145 281.376 529.531C290.252 542.918 319.05 568.365 330.683 567.492C342.315 566.62 337.664 558.033 337.664 558.033L327.916 548.433C327.916 548.433 326.171 528.074 326.904 522.114C327.637 516.154 318.613 513.387 317.444 516.878C316.275 520.369 299.266 508.003 299.266 508.003Z" fill="#C4747B"/>
<path d="M316.135 269.557L294.92 271.904C293.025 272.113 291.277 273.027 290.023 274.464C288.769 275.9 288.1 277.756 288.148 279.662C288.375 288.144 288.524 301.636 287.337 304.097C285.592 307.736 280.216 333.627 303.481 351.22L335.046 361.256L284.431 364.895L286.037 392.968L293.891 388.605L389.885 392.968C389.885 392.968 417.086 390.202 398.612 360.68C380.137 331.158 340.875 302.212 340.875 302.212L340.439 279.226L337.524 272.541L316.135 269.557Z" fill="#575988"/>
<path opacity="0.1" d="M342.464 360.811C345.904 359.309 349.618 358.533 353.372 358.533C357.126 358.533 360.84 359.309 364.281 360.811H342.464Z" fill="black"/>
<path d="M286.909 364.738C286.909 364.738 255.641 360.235 255.493 366.195C255.345 372.156 259.856 430.188 274.84 426.261C289.824 422.334 283.419 403.135 283.419 403.135L294.624 392.375C294.624 392.375 295.784 386.415 288.367 386.991L286.909 364.738Z" fill="#C4747B"/>
<path d="M338.685 201.986L351.042 216.097C351.042 216.097 356.426 222.791 362.823 212.607C369.22 202.423 381.149 184.245 381.149 184.245C381.149 184.245 394.388 195.878 397.879 193.556C401.369 191.235 365.738 241.998 365.738 241.998C365.738 241.998 354.393 258.718 337.516 238.944L332.576 236.614L338.685 201.986Z" fill="#FF5374"/>
<path opacity="0.1" d="M338.685 201.986L351.042 216.097C351.042 216.097 356.426 222.791 362.823 212.607C369.22 202.423 381.149 184.245 381.149 184.245C381.149 184.245 394.388 195.878 397.879 193.556C401.369 191.235 365.738 241.998 365.738 241.998C365.738 241.998 354.393 258.718 337.516 238.944L332.576 236.614L338.685 201.986Z" fill="black"/>
<path d="M300.881 144.644C315.099 144.644 326.625 133.118 326.625 118.9C326.625 104.683 315.099 93.1567 300.881 93.1567C286.663 93.1567 275.137 104.683 275.137 118.9C275.137 133.118 286.663 144.644 300.881 144.644Z" fill="#FFC1C7"/>
<path opacity="0.1" d="M300.872 132.758C300.872 132.758 278.75 143.23 281.368 161.556C283.986 179.882 284.422 203.008 284.422 203.008C284.422 203.008 294.467 217.843 281.15 246.204C281.15 246.204 272.641 260.603 278.313 271.075C278.313 271.075 284.605 254.495 300.872 266.712C317.139 278.929 343.328 284.601 343.328 284.601C343.328 284.601 329.801 225.26 338.092 216.97C338.092 216.97 352.491 195.59 339.401 182.064C326.311 168.537 332.856 155.884 332.856 155.884L374.892 133.343C374.892 133.343 383.759 133.483 395.688 114.869C403.411 102.973 411.915 91.6039 421.144 80.8349C421.144 80.8349 412.121 67.3086 403.691 66.2876C403.691 66.2876 400.34 69.7783 398.018 79.2379C396.779 84.2557 388.358 92.642 380.739 99.4051C375.329 104.205 370.11 109.188 364.9 114.24C361.043 117.949 352.456 123.255 333.728 126.257C302.905 131.17 300.872 132.758 300.872 132.758Z" fill="black"/>
<path d="M300.872 131.013C300.872 131.013 278.75 141.485 281.368 159.81C283.986 178.136 284.422 201.262 284.422 201.262C284.422 201.262 294.467 216.097 281.15 244.459C281.15 244.459 272.641 258.858 278.313 269.33C278.313 269.33 284.605 252.749 300.872 264.966C317.139 277.183 343.328 282.856 343.328 282.856C343.328 282.856 329.801 223.515 338.092 215.224C338.092 215.224 352.491 193.844 339.401 180.318C326.311 166.792 332.856 154.138 332.856 154.138L374.892 131.597C374.892 131.597 383.759 131.737 395.688 113.123C403.411 101.228 411.915 89.8583 421.144 79.0893C421.144 79.0893 412.121 65.563 403.691 64.542C403.691 64.542 400.34 68.0326 398.018 77.4923C396.779 82.5101 388.358 90.8964 380.739 97.6595C375.329 102.459 370.11 107.442 364.9 112.495C361.043 116.204 352.456 121.509 333.728 124.511C302.905 129.424 300.872 131.013 300.872 131.013Z" fill="#FF5374"/>
<path opacity="0.1" d="M319.922 240.68C319.922 240.68 337.079 265.987 337.516 270.351C337.524 270.351 334.906 243.15 319.922 240.68Z" fill="black"/>
<path opacity="0.1" d="M297.381 155.447C297.381 155.447 309.346 169.846 326.633 157.777C321.856 159.4 316.797 160.03 311.767 159.629C306.737 159.228 301.842 157.805 297.381 155.447Z" fill="black"/>
<path opacity="0.1" d="M306.658 91.9788C306.344 90.6709 305.695 89.4677 304.773 88.4881C300.828 83.5401 296.544 78.4612 290.671 76.1138C286.772 74.6573 282.51 74.4866 278.507 75.6265C274.505 76.7665 270.972 79.1573 268.426 82.4493C266.314 85.2942 265.058 88.6801 263.234 91.7257C259.865 97.3631 254.655 101.709 249.053 105.147C245.675 107.215 242.115 109.004 238.93 111.352C227.349 119.878 222 135.638 224.914 149.749C226.197 155.927 228.911 162.019 228.178 168.293C227.611 173.162 225.019 177.526 222.392 181.662C219.766 185.799 216.964 189.987 215.917 194.752C214.87 199.517 215.97 205.163 219.923 208.052C221.38 209.116 223.134 209.797 224.382 211.071C225.208 212.063 225.898 213.16 226.433 214.335C228.512 218.17 231.351 221.54 234.776 224.241C238.202 226.942 242.142 228.916 246.356 230.043C250.109 231.029 255.144 230.671 256.514 227.041C256.671 226.4 256.909 225.781 257.221 225.199C258.46 223.454 261.192 224.431 263.111 225.435C267.482 227.72 272.271 229.094 277.188 229.475C279.138 229.733 281.121 229.495 282.956 228.786C284.505 227.999 285.838 226.846 286.84 225.426C291.43 219.448 292.747 211.638 293.533 204.142C294.048 199.264 294.406 194.298 293.472 189.481C291.988 181.749 287.285 174.524 287.983 166.687C288.724 158.31 295.523 151.459 296.561 143.125C297.089 138.762 295.999 134.357 293.498 130.742C292.575 129.626 291.793 128.401 291.168 127.095C290.87 126.434 290.777 125.699 290.902 124.985C291.026 124.271 291.362 123.61 291.866 123.089C292.419 122.7 293.032 122.405 293.681 122.216C299.293 120.061 302.286 114.441 302.687 108.69C302.844 106.509 302.687 104.501 303.289 102.372C304.249 99.0822 307.155 95.4869 306.658 91.9788Z" fill="black"/>
<path d="M304.913 91.9788C304.599 90.6709 303.949 89.4677 303.028 88.4881C299.083 83.5401 294.798 78.4612 288.925 76.1138C285.027 74.6573 280.764 74.4866 276.762 75.6265C272.759 76.7665 269.227 79.1573 266.681 82.4493C264.569 85.2942 263.312 88.6801 261.488 91.7257C258.12 97.3631 252.91 101.709 247.307 105.147C243.93 107.215 240.37 109.004 237.184 111.352C225.604 119.878 220.254 135.638 223.169 149.749C224.452 155.927 227.166 162.019 226.433 168.293C225.866 173.162 223.274 177.526 220.647 181.662C218.02 185.799 215.219 189.987 214.172 194.752C213.125 199.517 214.224 205.163 218.177 208.052C219.635 209.116 221.389 209.797 222.637 211.071C223.463 212.063 224.152 213.16 224.688 214.335C226.766 218.17 229.605 221.54 233.031 224.241C236.456 226.942 240.397 228.916 244.611 230.043C248.363 231.029 253.399 230.671 254.769 227.041C254.926 226.4 255.163 225.781 255.476 225.199C256.715 223.454 259.446 224.431 261.366 225.435C265.737 227.72 270.525 229.094 275.442 229.475C277.393 229.733 279.376 229.495 281.211 228.786C282.76 227.999 284.093 226.846 285.094 225.426C289.684 219.448 291.002 211.638 291.788 204.142C292.302 199.264 292.66 194.298 291.726 189.481C290.243 181.749 285.539 174.524 286.237 166.687C286.979 158.31 293.777 151.459 294.816 143.125C295.344 138.762 294.254 134.357 291.753 130.742C290.83 129.626 290.047 128.401 289.423 127.095C289.125 126.434 289.032 125.699 289.156 124.985C289.281 124.271 289.617 123.61 290.121 123.089C290.673 122.7 291.287 122.405 291.936 122.216C297.547 120.061 300.54 114.441 300.942 108.69C301.099 106.509 300.942 104.501 301.544 102.372C302.504 99.0822 305.41 95.4869 304.913 91.9788Z" fill="#BB7684"/>
<g opacity="0.1">
<path opacity="0.1" d="M252.875 225.155C252.563 225.738 252.323 226.356 252.159 226.997C251.348 229.161 249.227 230.156 246.862 230.4C250.152 230.732 253.669 229.937 254.777 226.997C254.941 226.356 255.181 225.738 255.493 225.155C255.713 224.835 256.014 224.579 256.366 224.413C255.039 224.03 253.678 224.047 252.875 225.155Z" fill="black"/>
<path opacity="0.1" d="M304.956 91.9697C304.651 90.6586 304 89.4532 303.071 88.479C299.127 83.531 294.842 78.4521 288.969 76.1047C286.416 75.1081 283.673 74.6965 280.94 74.9004C282.795 75.0171 284.621 75.4235 286.351 76.1047C292.224 78.4521 296.509 83.531 300.453 88.479C301.382 89.4532 302.033 90.6586 302.338 91.9697C302.836 95.4603 299.938 99.0818 298.978 102.311C298.341 104.44 298.525 106.438 298.376 108.629C297.966 114.371 294.981 119.973 289.361 122.155C288.712 122.343 288.099 122.638 287.546 123.028C287.042 123.55 286.707 124.213 286.584 124.929C286.461 125.645 286.556 126.381 286.857 127.042C287.478 128.348 288.258 129.573 289.178 130.69C291.682 134.3 292.775 138.702 292.25 143.064C291.203 151.415 284.396 158.257 283.663 166.626C282.965 174.48 287.677 181.688 289.152 189.411C290.077 194.228 289.728 199.194 289.213 204.072C288.428 211.568 287.119 219.387 282.52 225.356C281.522 226.776 280.192 227.929 278.645 228.716C277.741 229.112 276.776 229.351 275.791 229.423C277.646 229.643 279.526 229.4 281.263 228.716C282.812 227.95 284.151 226.818 285.164 225.417C289.763 219.448 291.072 211.629 291.857 204.133C292.372 199.255 292.73 194.289 291.796 189.472C290.321 181.749 285.609 174.515 286.307 166.687C287.058 158.301 293.847 151.459 294.894 143.125C295.419 138.763 294.326 134.361 291.822 130.751C290.902 129.634 290.123 128.409 289.501 127.103C289.2 126.442 289.105 125.706 289.228 124.99C289.351 124.274 289.686 123.612 290.19 123.089C290.743 122.699 291.356 122.405 292.006 122.216C297.626 120.052 300.61 114.432 301.02 108.69C301.169 106.499 301.02 104.501 301.623 102.372C302.556 99.0818 305.454 95.4865 304.956 91.9697Z" fill="black"/>
</g>
<path opacity="0.1" d="M271.917 399.95C273.412 401.583 275.338 402.761 277.472 403.351C279.607 403.941 281.864 403.917 283.986 403.283" fill="black"/>
<path opacity="0.1" d="M327.838 549.175C327.004 549.848 326.033 550.333 324.994 550.595C323.954 550.857 322.87 550.891 321.816 550.693" fill="black"/>
<path opacity="0.1" d="M91.7617 576.262C104.741 576.262 115.263 574.484 115.263 572.291C115.263 570.098 104.741 568.321 91.7617 568.321C78.7824 568.321 68.2606 570.098 68.2606 572.291C68.2606 574.484 78.7824 576.262 91.7617 576.262Z" fill="#A0C23C"/>
<path d="M735.167 655.325C748.147 655.325 758.668 653.548 758.668 651.355C758.668 649.162 748.147 647.384 735.167 647.384C722.188 647.384 711.666 649.162 711.666 651.355C711.666 653.548 722.188 655.325 735.167 655.325Z" fill="#A0C23C"/>
<path opacity="0.1" d="M735.167 578.898C748.147 578.898 758.668 577.12 758.668 574.927C758.668 572.734 748.147 570.957 735.167 570.957C722.188 570.957 711.666 572.734 711.666 574.927C711.666 577.12 722.188 578.898 735.167 578.898Z" fill="#A0C23C"/>
<path opacity="0.1" d="M158.399 613.132C171.378 613.132 181.9 611.354 181.9 609.162C181.9 606.969 171.378 605.191 158.399 605.191C145.42 605.191 134.898 606.969 134.898 609.162C134.898 611.354 145.42 613.132 158.399 613.132Z" fill="#A0C23C"/>
<path d="M809.493 615.096C828.873 615.096 844.583 612.439 844.583 609.162C844.583 605.884 828.873 603.228 809.493 603.228C790.113 603.228 774.403 605.884 774.403 609.162C774.403 612.439 790.113 615.096 809.493 615.096Z" fill="#A0C23C"/>
<path opacity="0.1" d="M304.965 669C348.708 669 384.169 663.006 384.169 655.613C384.169 648.22 348.708 642.227 304.965 642.227C261.222 642.227 225.761 648.22 225.761 655.613C225.761 663.006 261.222 669 304.965 669Z" fill="#A0C23C"/>
<path d="M823.997 599.458C825.599 598.15 826.767 596.389 827.348 594.405C827.776 592.398 826.92 589.998 825.009 589.265C822.862 588.445 820.567 589.928 818.831 591.438C817.094 592.948 815.096 594.649 812.818 594.335C813.989 593.274 814.866 591.928 815.361 590.428C815.857 588.927 815.955 587.324 815.645 585.774C815.547 585.132 815.275 584.529 814.86 584.029C813.664 582.755 811.509 583.305 810.078 584.308C805.54 587.502 804.274 593.663 804.248 599.213C803.795 597.215 804.178 595.129 804.17 593.105C804.161 591.08 803.594 588.741 801.866 587.668C800.798 587.08 799.595 586.779 798.375 586.795C796.333 586.725 794.064 586.926 792.668 588.418C790.923 590.277 791.385 593.384 792.895 595.4C794.405 597.416 796.691 598.716 798.794 600.13C800.487 601.136 801.93 602.511 803.018 604.153C803.143 604.381 803.249 604.621 803.332 604.868H816.117C818.975 603.428 821.626 601.608 823.997 599.458Z" fill="#A0C23C"/>
<path d="M749.68 641.86C751.279 640.552 752.445 638.791 753.022 636.807C753.45 634.8 752.603 632.444 750.684 631.667C748.537 630.847 746.242 632.33 744.505 633.84C742.768 635.35 740.77 637.052 738.492 636.737C739.664 635.677 740.54 634.33 741.035 632.83C741.531 631.33 741.629 629.726 741.32 628.177C741.226 627.533 740.954 626.929 740.534 626.431C739.348 625.157 737.183 625.707 735.761 626.71C731.223 629.904 729.957 636.065 729.931 641.616C729.469 639.617 729.853 637.531 729.844 635.507C729.835 633.482 729.268 631.144 727.54 630.07C726.469 629.495 725.265 629.209 724.049 629.241C722.007 629.171 719.739 629.372 718.342 630.864C716.597 632.723 717.059 635.83 718.569 637.846C720.079 639.861 722.365 641.162 724.477 642.575C726.167 643.583 727.607 644.958 728.692 646.598C728.818 646.827 728.923 647.067 729.006 647.314H741.791C744.654 645.858 747.307 644.024 749.68 641.86Z" fill="#A0C23C"/>
<path d="M185.016 563.137C185.016 563.137 172.755 521.503 187.32 490.863C193.522 478.046 195.396 463.561 192.66 449.587C191.311 442.967 189.356 436.485 186.822 430.222" stroke="#535461" stroke-width="2" stroke-miterlimit="10"/>
<path d="M195.854 410.858C195.854 415.963 186.613 430.755 186.613 430.755C186.613 430.755 177.38 415.963 177.38 410.858C177.342 409.621 177.553 408.389 178 407.235C178.447 406.081 179.121 405.029 179.983 404.14C180.844 403.252 181.875 402.546 183.015 402.063C184.155 401.581 185.38 401.333 186.617 401.333C187.855 401.333 189.08 401.581 190.219 402.063C191.359 402.546 192.39 403.252 193.252 404.14C194.113 405.029 194.787 406.081 195.234 407.235C195.682 408.389 195.892 409.621 195.854 410.858Z" fill="#A0C23C"/>
<path d="M211.126 439.124C208.351 443.4 192.556 450.8 192.556 450.8C192.556 450.8 192.844 433.347 195.619 429.079C196.982 427.096 199.066 425.723 201.427 425.252C203.787 424.781 206.238 425.25 208.258 426.558C210.279 427.867 211.709 429.912 212.244 432.258C212.78 434.605 212.379 437.068 211.126 439.124Z" fill="#A0C23C"/>
<path d="M210.463 487.416C205.908 489.72 188.533 488.132 188.533 488.132C188.533 488.132 197.582 473.218 202.138 470.923C204.315 469.901 206.805 469.769 209.078 470.553C211.352 471.338 213.23 472.978 214.313 475.125C215.397 477.272 215.601 479.757 214.882 482.052C214.163 484.347 212.578 486.271 210.463 487.416Z" fill="#A0C23C"/>
<path d="M201.728 523.868C197.626 526.896 180.234 528.231 180.234 528.231C180.234 528.231 186.639 511.999 190.706 508.963C192.679 507.646 195.083 507.139 197.421 507.546C199.758 507.954 201.849 509.244 203.261 511.151C204.673 513.057 205.297 515.433 205.005 517.788C204.713 520.142 203.527 522.294 201.693 523.798L201.728 523.868Z" fill="#A0C23C"/>
<path d="M173.156 451.794C176.821 455.346 193.865 459.029 193.865 459.029C193.865 459.029 189.693 442.09 186.011 438.539C184.239 436.905 181.899 436.027 179.49 436.093C177.081 436.16 174.793 437.164 173.114 438.893C171.435 440.622 170.498 442.939 170.503 445.349C170.507 447.759 171.453 450.072 173.139 451.794H173.156Z" fill="#A0C23C"/>
<path d="M163.487 494.528C168.042 496.824 185.408 495.235 185.408 495.235C185.408 495.235 176.359 480.322 171.804 478.026C169.622 476.982 167.118 476.834 164.829 477.615C162.54 478.396 160.648 480.043 159.559 482.203C158.471 484.362 158.272 486.863 159.007 489.167C159.741 491.472 161.349 493.397 163.487 494.528Z" fill="#A0C23C"/>
<path d="M159.778 537.35C163.88 540.387 181.272 541.713 181.272 541.713C181.272 541.713 174.867 525.482 170.8 522.454C168.826 521.137 166.422 520.63 164.085 521.038C161.748 521.445 159.657 522.735 158.245 524.642C156.833 526.548 156.208 528.925 156.5 531.279C156.792 533.633 157.978 535.785 159.813 537.289L159.778 537.35Z" fill="#A0C23C"/>
<path d="M156.008 560.52C156.008 560.52 170.94 557.553 174.928 553.599C178.916 549.646 196.823 542.735 198.813 547.674C200.802 552.613 225.691 569.412 208.77 572.379C191.849 575.346 168.95 576.332 163.976 574.36C159.001 572.388 156.008 560.52 156.008 560.52Z" fill="#A8A8A8"/>
<path opacity="0.2" d="M208.796 570.52C191.875 573.487 168.976 574.473 164.002 572.492C160.206 570.991 157.57 563.766 156.532 560.389L156.008 560.52C156.008 560.52 158.993 572.379 163.976 574.36C168.959 576.341 191.849 575.346 208.77 572.379C213.657 571.506 215.053 569.517 214.53 566.969C214.137 568.6 212.435 569.883 208.796 570.52Z" fill="black"/>
<path d="M739.976 517.681C739.976 517.681 744.776 523.955 737.768 533.389C730.76 542.822 724.983 550.842 727.296 556.75C727.296 556.75 737.873 539.166 746.495 538.921C755.117 538.677 749.427 528.231 739.976 517.681Z" fill="#A0C23C"/>
<path opacity="0.1" d="M739.976 517.681C740.396 518.288 740.728 518.952 740.962 519.653C749.357 529.514 753.825 538.721 745.753 538.947C738.239 539.166 729.224 552.605 727.06 555.999C727.131 556.262 727.216 556.521 727.313 556.776C727.313 556.776 737.89 539.192 746.512 538.947C755.134 538.703 749.427 528.231 739.976 517.681Z" fill="black"/>
<path d="M748.895 525.674C748.895 527.882 748.641 529.671 748.336 529.671C748.031 529.671 747.786 527.925 747.786 525.674C747.786 523.422 748.092 524.505 748.397 524.505C748.703 524.505 748.895 523.466 748.895 525.674Z" fill="#FFD037"/>
<path d="M751.949 528.31C750.012 529.365 748.319 530.002 748.179 529.732C748.039 529.461 749.479 528.397 751.417 527.341C753.354 526.285 752.595 527.053 752.743 527.341C752.891 527.629 753.886 527.254 751.949 528.31Z" fill="#FFD037"/>
<path d="M714.66 517.681C714.66 517.681 709.86 523.955 716.867 533.389C723.875 542.822 729.652 550.842 727.339 556.75C727.339 556.75 716.771 539.166 708.141 538.921C699.51 538.677 705.191 528.231 714.66 517.681Z" fill="#A0C23C"/>
<path opacity="0.1" d="M714.66 517.681C714.24 518.288 713.908 518.952 713.673 519.653C705.278 529.514 700.81 538.721 708.882 538.947C716.396 539.166 725.411 552.605 727.575 555.999C727.505 556.264 727.417 556.523 727.313 556.776C727.313 556.776 716.745 539.192 708.114 538.947C699.484 538.703 705.191 528.231 714.66 517.681Z" fill="black"/>
<path d="M705.741 525.674C705.741 527.882 705.994 529.671 706.299 529.671C706.605 529.671 706.849 527.925 706.849 525.674C706.849 523.422 706.544 524.505 706.238 524.505C705.933 524.505 705.741 523.466 705.741 525.674Z" fill="#FFD037"/>
<path d="M702.686 528.31C704.624 529.365 706.308 530.002 706.456 529.732C706.605 529.461 705.156 528.397 703.219 527.341C701.281 526.285 702.041 527.053 701.892 527.341C701.744 527.629 700.749 527.254 702.686 528.31Z" fill="#FFD037"/>
<path d="M707.268 555.955C707.268 555.955 720.672 555.536 724.721 552.665C728.771 549.794 745.343 546.356 746.346 550.92C747.35 555.484 766.488 573.862 751.356 573.984C736.223 574.107 716.195 571.628 712.164 569.176C708.132 566.724 707.268 555.955 707.268 555.955Z" fill="#A8A8A8"/>
<path opacity="0.2" d="M751.617 572.423C736.485 572.545 716.457 570.066 712.425 567.614C709.354 565.747 708.123 559.036 707.722 555.938H707.268C707.268 555.938 708.141 566.75 712.155 569.202C716.169 571.655 736.215 574.133 751.347 574.011C755.71 574.011 757.22 572.423 757.141 570.127C756.53 571.532 754.864 572.396 751.617 572.423Z" fill="black"/>
</g>
<defs>
<linearGradient id="paint0_linear" x1="463.015" y1="613.324" x2="463.015" y2="19.1112" gradientUnits="userSpaceOnUse">
<stop stop-color="#808080" stop-opacity="0.25"/>
<stop offset="0.54" stop-color="#808080" stop-opacity="0.12"/>
<stop offset="1" stop-color="#808080" stop-opacity="0.1"/>
</linearGradient>
<clipPath id="clip0">
<rect width="881" height="669" fill="white"/>
</clipPath>
</defs>
</svg>
