<svg width="443" height="312" viewBox="0 0 443 312" fill="none" xmlns="http://www.w3.org/2000/svg">
<path d="M109.416 267.645C96.4366 267.645 85.9148 265.867 85.9148 263.674C85.9148 261.481 96.4366 259.704 109.416 259.704C122.395 259.704 132.917 261.481 132.917 263.674C132.917 265.867 122.395 267.645 109.416 267.645Z" fill="#A0C23C"/>
<path opacity="0.1" d="M187.416 228.217C174.437 228.217 163.915 226.439 163.915 224.247C163.915 222.054 174.437 220.276 187.416 220.276C200.395 220.276 210.917 222.054 210.917 224.247C210.917 226.439 200.395 228.217 187.416 228.217Z" fill="#A0C23C"/>
<path opacity="0.1" d="M409 312C390.222 312 375 309.314 375 306C375 302.686 390.222 300 409 300C427.778 300 443 302.686 443 306C443 309.314 427.778 312 409 312Z" fill="#A0C23C"/>
<path d="M35.0902 227.415C15.7104 227.415 0 224.758 0 221.481C0 218.204 15.7104 215.547 35.0902 215.547C54.47 215.547 70.1804 218.204 70.1804 221.481C70.1804 224.758 54.47 227.415 35.0902 227.415Z" fill="#A0C23C"/>
<path opacity="0.1" d="M309.5 278C245.159 278 193 269.046 193 258C193 246.954 245.159 238 309.5 238C373.841 238 426 246.954 426 258C426 269.046 373.841 278 309.5 278Z" fill="#A0C23C"/>
<path d="M20.5864 211.777C18.9848 210.47 17.8164 208.708 17.2353 206.724C16.8077 204.717 17.6629 202.317 19.5741 201.584C21.7209 200.764 24.016 202.247 25.7526 203.757C27.4892 205.267 29.4877 206.969 31.7653 206.654C30.594 205.594 29.7178 204.248 29.2222 202.747C28.7266 201.247 28.6286 199.643 28.9379 198.094C29.0368 197.451 29.3083 196.848 29.7233 196.348C30.9189 195.074 33.0744 195.624 34.5055 196.628C39.0435 199.821 40.3088 205.983 40.335 211.533C40.7888 209.534 40.4048 207.449 40.4136 205.424C40.4223 203.399 40.9895 201.061 42.7174 199.987C43.7858 199.399 44.9886 199.098 46.2081 199.115C48.2501 199.045 50.5191 199.245 51.9154 200.738C53.6608 202.597 53.1982 205.703 51.6885 207.719C50.1788 209.735 47.8924 211.035 45.7892 212.449C44.0966 213.455 42.6529 214.83 41.5655 216.472C41.4399 216.701 41.3348 216.94 41.2513 217.188H28.4666C25.6082 215.747 22.9576 213.927 20.5864 211.777Z" fill="#A0C23C"/>
<path d="M94.9034 254.179C93.3041 252.872 92.1388 251.11 91.561 249.127C91.1334 247.119 91.9799 244.763 93.8998 243.987C96.0465 243.166 98.3417 244.65 100.078 246.159C101.815 247.669 103.813 249.371 106.091 249.057C104.92 247.996 104.043 246.65 103.548 245.149C103.052 243.649 102.954 242.046 103.264 240.496C103.358 239.852 103.63 239.248 104.049 238.751C105.236 237.477 107.4 238.026 108.822 239.03C113.36 242.224 114.626 248.385 114.652 253.935C115.115 251.936 114.731 249.851 114.739 247.826C114.748 245.802 115.315 243.463 117.043 242.39C118.115 241.814 119.318 241.528 120.534 241.561C122.576 241.491 124.845 241.691 126.241 243.184C127.986 245.042 127.524 248.149 126.014 250.165C124.504 252.181 122.218 253.481 120.106 254.895C118.417 255.902 116.976 257.277 115.891 258.918C115.766 259.147 115.66 259.386 115.577 259.633H102.792C99.9298 258.178 97.2763 256.343 94.9034 254.179Z" fill="#A0C23C"/>
<path d="M369.6 238C369.6 238 388.401 176.918 366.068 131.967C356.558 113.162 353.684 91.9112 357.878 71.4095C359.948 61.6976 362.944 52.1879 366.83 43" stroke="#535461" stroke-width="2" stroke-miterlimit="10"/>
<path d="M353.007 14.2451C353.007 21.8796 367.007 44 367.007 44C367.007 44 380.993 21.8796 380.993 14.2451C381.051 12.3953 380.732 10.5529 380.054 8.82727C379.377 7.10162 378.356 5.52782 377.05 4.19925C375.745 2.87068 374.183 1.81442 372.457 1.09308C370.73 0.371752 368.875 0 367 0C365.125 0 363.27 0.371752 361.543 1.09308C359.817 1.81442 358.255 2.87068 356.95 4.19925C355.644 5.52782 354.623 7.10162 353.946 8.82727C353.268 10.5529 352.949 12.3953 353.007 14.2451Z" fill="#A0C23C"/>
<path d="M331.965 55.7534C336.005 62.0694 359 73 359 73C359 73 358.581 47.2203 354.541 40.9171C352.556 37.9874 349.522 35.9592 346.086 35.2637C342.649 34.5683 339.081 35.2606 336.14 37.1934C333.199 39.1262 331.117 42.147 330.337 45.6131C329.558 49.0793 330.142 52.7173 331.965 55.7534Z" fill="#A0C23C"/>
<path d="M332.234 126.256C339.04 129.473 365 127.255 365 127.255C365 127.255 351.479 106.427 344.673 103.222C341.42 101.796 337.7 101.61 334.303 102.706C330.906 103.802 328.101 106.092 326.481 109.09C324.862 112.089 324.557 115.559 325.631 118.764C326.706 121.969 329.074 124.656 332.234 126.256Z" fill="#A0C23C"/>
<path d="M344.987 180.504C351.096 185.012 377 187 377 187C377 187 367.46 162.834 361.403 158.313C358.463 156.353 354.882 155.598 351.401 156.204C347.92 156.811 344.806 158.732 342.703 161.57C340.6 164.409 339.67 167.947 340.105 171.452C340.539 174.957 342.306 178.161 345.039 180.4L344.987 180.504Z" fill="#A0C23C"/>
<path d="M387.025 73.5926C381.534 78.7021 356 84 356 84C356 84 362.249 59.6324 367.767 54.5229C370.421 52.1721 373.926 50.9097 377.535 51.005C381.144 51.1003 384.572 52.5458 387.088 55.0332C389.603 57.5205 391.007 60.853 391 64.3201C390.993 67.7872 389.576 71.1144 387.051 73.5926H387.025Z" fill="#A0C23C"/>
<path d="M401.672 137.135C394.883 140.581 369 138.196 369 138.196C369 138.196 382.488 115.806 389.277 112.361C392.528 110.792 396.261 110.571 399.672 111.743C403.084 112.915 405.904 115.388 407.526 118.63C409.149 121.873 409.444 125.627 408.35 129.086C407.255 132.546 404.858 135.436 401.672 137.135Z" fill="#A0C23C"/>
<path d="M407.148 199.711C401.204 204.088 376 206 376 206C376 206 385.282 182.604 391.176 178.239C394.036 176.342 397.52 175.611 400.907 176.198C404.294 176.785 407.324 178.645 409.37 181.393C411.416 184.141 412.321 187.566 411.898 190.96C411.475 194.353 409.756 197.455 407.097 199.623L407.148 199.711Z" fill="#A0C23C"/>
<path d="M412 234.276C412 234.276 390.351 229.94 384.568 224.164C378.786 218.387 352.822 208.287 349.937 215.505C347.052 222.723 310.966 247.271 335.5 251.606C360.034 255.942 393.236 257.383 400.448 254.501C407.66 251.619 412 234.276 412 234.276Z" fill="#A8A8A8"/>
<path opacity="0.2" d="M335.463 248.859C359.997 253.21 393.198 254.656 400.41 251.751C405.914 249.55 409.735 238.953 411.241 234L412 234.192C412 234.192 407.673 251.585 400.448 254.49C393.223 257.395 360.035 255.936 335.501 251.585C328.415 250.305 326.391 247.387 327.15 243.65C327.719 246.043 330.187 247.925 335.463 248.859Z" fill="black"/>
<path d="M182.607 167C182.607 167 177.808 173.274 184.815 182.708C191.823 192.141 197.6 200.161 195.287 206.069C195.287 206.069 184.711 188.485 176.089 188.241C167.467 187.996 173.156 177.55 182.607 167Z" fill="#A0C23C"/>
<path opacity="0.1" d="M182.607 167C182.188 167.608 181.856 168.272 181.621 168.972C173.226 178.833 168.758 188.04 176.83 188.267C184.344 188.485 193.359 201.924 195.523 205.319C195.452 205.582 195.367 205.841 195.27 206.095C195.27 206.095 184.693 188.511 176.071 188.267C167.449 188.022 173.156 177.55 182.607 167Z" fill="black"/>
<path d="M173.689 174.993C173.689 177.201 173.942 178.99 174.247 178.99C174.553 178.99 174.797 177.245 174.797 174.993C174.797 172.742 174.492 173.824 174.186 173.824C173.881 173.824 173.689 172.785 173.689 174.993Z" fill="#FFD037"/>
<path d="M170.634 177.629C172.572 178.685 174.265 179.322 174.404 179.051C174.544 178.781 173.104 177.716 171.167 176.66C169.229 175.604 169.989 176.372 169.84 176.66C169.692 176.948 168.697 176.573 170.634 177.629Z" fill="#FFD037"/>
<path d="M207.924 167C207.924 167 212.723 173.274 205.716 182.708C198.708 192.141 192.931 200.161 195.244 206.069C195.244 206.069 205.812 188.485 214.443 188.241C223.073 187.996 217.392 177.55 207.924 167Z" fill="#A0C23C"/>
<path opacity="0.1" d="M207.924 167C208.344 167.608 208.675 168.272 208.91 168.972C217.305 178.833 221.773 188.04 213.701 188.267C206.187 188.485 197.172 201.924 195.008 205.319C195.078 205.583 195.166 205.842 195.27 206.095C195.27 206.095 205.838 188.511 214.469 188.267C223.1 188.022 217.392 177.55 207.924 167Z" fill="black"/>
<path d="M216.843 174.993C216.843 177.201 216.589 178.99 216.284 178.99C215.979 178.99 215.734 177.245 215.734 174.993C215.734 172.742 216.04 173.824 216.345 173.824C216.651 173.824 216.843 172.785 216.843 174.993Z" fill="#FFD037"/>
<path d="M219.897 177.629C217.96 178.685 216.275 179.322 216.127 179.051C215.978 178.781 217.427 177.716 219.365 176.66C221.302 175.604 220.543 176.372 220.691 176.66C220.839 176.948 221.834 176.573 219.897 177.629Z" fill="#FFD037"/>
<path d="M215.315 205.275C215.315 205.275 201.911 204.856 197.862 201.985C193.813 199.114 177.24 195.675 176.237 200.239C175.233 204.803 156.096 223.182 171.228 223.304C186.36 223.426 206.388 220.948 210.42 218.495C214.451 216.043 215.315 205.275 215.315 205.275Z" fill="#A8A8A8"/>
<path opacity="0.2" d="M170.966 221.742C186.098 221.864 206.126 219.386 210.158 216.934C213.23 215.066 214.46 208.355 214.862 205.257H215.315C215.315 205.257 214.443 216.07 210.428 218.522C206.414 220.974 186.369 223.452 171.237 223.33C166.873 223.33 165.363 221.742 165.442 219.447C166.053 220.852 167.72 221.716 170.966 221.742Z" fill="black"/>
</svg>
