<svg width="1440" height="149" viewBox="0 0 1440 149" fill="none" xmlns="http://www.w3.org/2000/svg">
<path opacity="0.1" d="M-4.56164e-06 149.001L-6.65825e-06 26.7774C-6.65825e-06 26.7774 95.2624 2.71203 146.706 1.15529C210.502 -0.77523 269.144 7.14482 321.089 17.9217C386.076 31.3948 446.724 49.9256 525.06 50.8583C578.409 51.4954 633.793 43.7905 688.264 38.0524C779.325 28.4695 870.883 24.2499 961.92 20.3727C1006.28 18.5004 1050.8 16.7113 1094.86 15.8946C1104.74 15.7088 1114.62 15.5756 1124.51 15.495C1129.46 15.4584 1134.42 15.4355 1139.34 15.4289C1143.2 15.4185 1147.05 15.4505 1150.89 15.4413C1156.96 15.4624 1163.01 15.5126 1169.04 15.5919C1186.36 15.8142 1203.54 16.277 1220.57 17.0228C1279.78 19.6259 1327.92 29.5165 1384.05 34.4679C1402.3 36.0786 1440 37.1008 1440 37.1008L1440 149.001C1440 149.001 351 149.001 -4.56164e-06 149.001Z" fill="#B1B834"/>
</svg>
