<svg version="1.1" id="Слой_1" xmlns="http://www.w3.org/2000/svg" xmlns:xlink="http://www.w3.org/1999/xlink" x="0" y="0" width="1111" height="759" xml:space="preserve"><style>.st1{opacity:.1;enable-background:new}.st1,.st2{fill:#b1b834}.st3,.st4{opacity:.1}.st4{enable-background:new}.st5{fill:#67647e}.st7{fill:#a8a8a8}.st8{opacity:.2;enable-background:new}.st9{fill:none;stroke:#535461;stroke-miterlimit:10}.st10{fill:#ffd037}.st12{opacity:5.000000e-02;enable-background:new}</style><defs><path id="SVGID_1_" d="M0 0h1111v759H0z"/></defs><clipPath id="SVGID_2_"><use xlink:href="#SVGID_1_" overflow="visible"/></clipPath><g clip-path="url(#SVGID_2_)"><path class="st1" d="M1109.8 318.5c-6.8 27.4-41.5 41.1-60.9 61.5-36.6 38.5-22.4 94.6.9 139.6 7.8 15.1 16.6 31 13.3 47.2-4 19.8-25.4 34.2-47.8 41.9-40.9 13.9-89.8 10.6-127.3-8.7-32.4-16.7-55.7-43.7-88.7-59.7-55.2-26.6-125.5-16.5-185.5 1.8-42.4 13-88.8 29.8-131 16.3-29.7-9.5-50.2-32.8-61.4-57.3-5.4-11.9-9.3-24.7-19.6-34.2-6.1-5.6-14.1-9.6-22.3-12.9-74.8-30.6-169.2-14.2-241.8-48.2-49-22.9-80.4-66.2-94.3-111.3-13.9-45.1-12.3-92.4-8.8-138.8 2.5-33 7-68.2 32.6-93.7 26.9-27 73.3-37 115.2-31.9 41.9 5.1 79.9 23.4 113.3 44.9 41.8 26.9 80.5 60.3 131.8 71.2 34.9 7.4 71.7 3.4 107.7 1.9 60.2-2.3 120.5 2.9 180.4 8.6 29.2 2.8 58.5 5.7 87.4 9.9 6.5.9 13 2 19.5 3.1 3.2.6 6.5 1.1 9.7 1.7 2.5.5 5 1 7.6 1.4 4 .8 7.9 1.6 11.9 2.4 11.3 2.4 22.6 5.2 33.7 8.3 38.7 10.9 69.6 30.7 106.1 44.5 23.8 9 49.7 11.5 72.3 23 27.6 14.1 53.1 38.7 46 67.5z"/><path class="st2" d="M914.3 464.2c54.9 0 99.4-44.5 99.4-99.3 0-54.9-44.5-99.3-99.4-99.3-54.9 0-99.4 44.5-99.4 99.3-.1 54.9 44.4 99.3 99.4 99.3z"/><path class="st2" d="M808.5 437.1c54.9 0 99.4-44.5 99.4-99.3s-44.5-99.3-99.4-99.3-99.4 44.5-99.4 99.3 44.5 99.3 99.4 99.3z"/><path class="st2" d="M692.1 438.1c54.9 0 99.4-44.5 99.4-99.3s-44.5-99.3-99.4-99.3c-54.9 0-99.4 44.5-99.4 99.3s44.5 99.3 99.4 99.3z"/><path class="st2" d="M654.3 464.2c54.9 0 99.4-44.5 99.4-99.3 0-54.9-44.5-99.3-99.4-99.3-54.9 0-99.4 44.5-99.4 99.3-.1 54.9 44.4 99.3 99.4 99.3z"/><path class="st2" d="M590.2 473c54.9 0 99.4-44.5 99.4-99.3s-44.5-99.3-99.4-99.3c-54.9 0-99.4 44.5-99.4 99.3s44.5 99.3 99.4 99.3z"/><path class="st2" d="M564 394.5c54.9 0 99.4-44.5 99.4-99.3S619 195.8 564 195.8s-99.4 44.5-99.4 99.3 44.5 99.4 99.4 99.4z"/><path class="st2" d="M593.1 303.3c54.9 0 99.4-44.5 99.4-99.3s-44.5-99.3-99.4-99.3c-54.9 0-99.4 44.5-99.4 99.3s44.5 99.3 99.4 99.3z"/><path class="st2" d="M648.4 303.3c54.9 0 99.4-44.5 99.4-99.3s-44.5-99.3-99.4-99.3c-54.9 0-99.4 44.5-99.4 99.3s44.5 99.3 99.4 99.3z"/><path class="st2" d="M680.5 262.6c54.9 0 99.4-44.5 99.4-99.3S735.4 64 680.5 64c-54.9 0-99.4 44.5-99.4 99.3s44.4 99.3 99.4 99.3z"/><path class="st2" d="M761.9 307.2c54.9 0 99.4-44.5 99.4-99.3s-44.5-99.3-99.4-99.3c-54.9 0-99.4 44.5-99.4 99.3s44.5 99.3 99.4 99.3zM952.1 394.5c54.9 0 99.4-44.5 99.4-99.3s-44.5-99.3-99.4-99.3c-54.9 0-99.4 44.5-99.4 99.3s44.5 99.3 99.4 99.3z"/><path class="st2" d="M894.8 345c54.9 0 99.4-44.5 99.4-99.3s-44.5-99.3-99.4-99.3-99.4 44.5-99.4 99.3 44.5 99.3 99.4 99.3z"/><path class="st2" d="M858 295.6c54.9 0 99.4-44.5 99.4-99.3S912.9 96.9 858 96.9c-54.9 0-99.4 44.5-99.4 99.3s44.5 99.4 99.4 99.4z"/><path class="st2" d="M788.1 221c54.9 0 99.4-44.5 99.4-99.3S843 22.4 788.1 22.4c-54.9 0-99.4 44.5-99.4 99.3s44.5 99.3 99.4 99.3z"/><path class="st2" d="M918.1 303.3c54.9 0 99.4-44.5 99.4-99.3s-44.5-99.3-99.4-99.3c-54.9 0-99.4 44.5-99.4 99.3s44.5 99.3 99.4 99.3z"/><g class="st3"><path class="st4" d="M914.3 464.2c54.9 0 99.4-44.5 99.4-99.3 0-54.9-44.5-99.3-99.4-99.3-54.9 0-99.4 44.5-99.4 99.3-.1 54.9 44.4 99.3 99.4 99.3z"/><path class="st4" d="M808.5 437.1c54.9 0 99.4-44.5 99.4-99.3s-44.5-99.3-99.4-99.3-99.4 44.5-99.4 99.3 44.5 99.3 99.4 99.3z"/><path class="st4" d="M692.1 438.1c54.9 0 99.4-44.5 99.4-99.3s-44.5-99.3-99.4-99.3c-54.9 0-99.4 44.5-99.4 99.3s44.5 99.3 99.4 99.3z"/><path class="st4" d="M654.3 464.2c54.9 0 99.4-44.5 99.4-99.3 0-54.9-44.5-99.3-99.4-99.3-54.9 0-99.4 44.5-99.4 99.3-.1 54.9 44.4 99.3 99.4 99.3z"/><path class="st4" d="M590.2 473c54.9 0 99.4-44.5 99.4-99.3s-44.5-99.3-99.4-99.3c-54.9 0-99.4 44.5-99.4 99.3s44.5 99.3 99.4 99.3z"/><path class="st4" d="M564 394.5c54.9 0 99.4-44.5 99.4-99.3S619 195.8 564 195.8s-99.4 44.5-99.4 99.3 44.5 99.4 99.4 99.4z"/><path class="st4" d="M593.1 303.3c54.9 0 99.4-44.5 99.4-99.3s-44.5-99.3-99.4-99.3c-54.9 0-99.4 44.5-99.4 99.3s44.5 99.3 99.4 99.3z"/><path class="st4" d="M648.4 303.3c54.9 0 99.4-44.5 99.4-99.3s-44.5-99.3-99.4-99.3c-54.9 0-99.4 44.5-99.4 99.3s44.5 99.3 99.4 99.3z"/><path class="st4" d="M680.5 262.6c54.9 0 99.4-44.5 99.4-99.3S735.4 64 680.5 64c-54.9 0-99.4 44.5-99.4 99.3s44.4 99.3 99.4 99.3z"/><path class="st4" d="M761.9 307.2c54.9 0 99.4-44.5 99.4-99.3s-44.5-99.3-99.4-99.3c-54.9 0-99.4 44.5-99.4 99.3s44.5 99.3 99.4 99.3zM952.1 394.5c54.9 0 99.4-44.5 99.4-99.3s-44.5-99.3-99.4-99.3c-54.9 0-99.4 44.5-99.4 99.3s44.5 99.3 99.4 99.3z"/><path class="st4" d="M894.8 345c54.9 0 99.4-44.5 99.4-99.3s-44.5-99.3-99.4-99.3-99.4 44.5-99.4 99.3 44.5 99.3 99.4 99.3z"/><path class="st4" d="M858 295.6c54.9 0 99.4-44.5 99.4-99.3S912.9 96.9 858 96.9c-54.9 0-99.4 44.5-99.4 99.3s44.5 99.4 99.4 99.4z"/><path class="st4" d="M788.1 221c54.9 0 99.4-44.5 99.4-99.3S843 22.4 788.1 22.4c-54.9 0-99.4 44.5-99.4 99.3s44.5 99.3 99.4 99.3z"/><path class="st4" d="M918.1 303.3c54.9 0 99.4-44.5 99.4-99.3s-44.5-99.3-99.4-99.3c-54.9 0-99.4 44.5-99.4 99.3s44.5 99.3 99.4 99.3z"/></g><path class="st5" d="M865.1 539s60.8-51 30.7-123.7l-30-11.3-32.6 100.4 31.9 34.6z"/><path class="st4" d="M868.4 400.5l7.2 2.7-32 98.5 28 30.2c-2.3 2.3-3.8 3.5-3.8 3.5l-32-34.6 32.6-100.3z"/><path class="st1" d="M563.7 759c298.9 0 541.3-40.5 541.3-90.5S862.7 578 563.7 578 22.4 618.5 22.4 668.5 264.7 759 563.7 759z"/><path class="st5" d="M590.6 432.7l7.9 31.6s55.8 7.3 93 2.7c6.6-.9 12.9-3.2 18.5-6.7 3.1-1.9 8.1-2.7 14.9 2.4 11.6 8.7 68.6 78.7 59.4 151.3-.7 5.5-3.2 10.5-7.1 14.5-3.9 3.9-9 6.4-14.4 7.2-11.4 1.5-22.2 5.7-31.8 12l-28.2 18.8L992 660l-30-36.3s-20.5-17.4-36.3-18.9c-4.6-.5-8.4-4.7-11.5-10.4-18-33.7-39.5-65.3-62.9-95.6-17-22-31.3-45.2-29.9-59.8 3.2-34.7 0-91.6 0-91.6l-60.1-7.9s7.9 75.8-64.8 94.7c-72.7 19-105.9-1.5-105.9-1.5z"/><g class="st3"><path class="st4" d="M639.6 446.9s33.2 20.5 105.9 1.6 64.8-94.7 64.8-94.7l11.4 1.5c-.2-4.9-.4-7.8-.4-7.8l-60.1-7.9s7.9 75.8-64.8 94.7c-72.7 18.9-105.9-1.6-105.9-1.6l7.9 31.6s21.3 2.8 46.4 3.8l-5.2-21.2zM780 661.8c9.5-6.4 20.4-10.5 31.8-12 5.5-.7 10.5-3.2 14.4-7.1 3.9-3.9 6.4-9 7.1-14.4 9.3-72.6-47.7-142.7-59.3-151.4-12.6-9.5-19 1.6-19 1.6-4.5 1.2-9 2-13.6 2.6 20.5 27.2 49.8 79.4 42.9 133-.7 5.5-3.2 10.5-7.1 14.4-3.9 3.9-9 6.4-14.4 7.1-11.4 1.5-22.2 5.7-31.8 12l-28.2 18.8 72.7-1.6 4.5-3z"/></g><path d="M639 585.8s-6-20.5 1.1-35.6c3-6.3 4-13.4 2.6-20.3-.7-3.3-1.7-6.5-2.9-9.5" fill="none" stroke="#535461" stroke-width="2" stroke-miterlimit="10"/><path class="st2" d="M644.3 510.9c0 2.5-4.6 9.8-4.6 9.8s-4.5-7.3-4.5-9.8c0-1.2.5-2.4 1.3-3.2s2-1.3 3.2-1.3c1.2 0 2.4.5 3.2 1.3 1 .9 1.5 2 1.4 3.2zM651.9 524.8c-1.4 2.1-9.1 5.8-9.1 5.8s.1-8.6 1.5-10.7c.3-.5.7-1 1.2-1.3s1.1-.6 1.6-.7c.6-.1 1.2-.2 1.8 0 .6.1 1.2.3 1.7.7.5.3 1 .8 1.3 1.3.3.5.6 1.1.7 1.7.1.6.1 1.2 0 1.8-.1.4-.4.9-.7 1.4zM651.5 548.6c-2.2 1.1-10.8.3-10.8.3s4.5-7.3 6.7-8.5c.5-.3 1.1-.4 1.7-.5.6 0 1.2 0 1.8.2.6.2 1.1.5 1.5.9.5.4.8.9 1.1 1.4.3.5.4 1.1.5 1.7 0 .6 0 1.2-.2 1.8-.2.6-.5 1.1-.9 1.5-.4.5-.8.9-1.4 1.2zM647.2 566.5c-2 1.5-10.6 2.2-10.6 2.2s3.2-8 5.2-9.5c1-.7 2.2-.9 3.3-.7 1.2.2 2.2.8 2.9 1.8.7.9 1 2.1.9 3.3-.2 1.1-.7 2.2-1.7 2.9zM633.2 531.1c1.8 1.7 10.2 3.6 10.2 3.6s-2.1-8.3-3.9-10.1c-.9-.8-2-1.2-3.2-1.2-1.2 0-2.3.5-3.1 1.4-.8.8-1.3 2-1.3 3.2-.1 1.1.4 2.2 1.3 3.1zM628.4 552.1c2.2 1.1 10.8.4 10.8.4s-4.5-7.3-6.7-8.5c-1.1-.5-2.3-.6-3.5-.3-1.1.4-2.1 1.2-2.6 2.3-.5 1.1-.6 2.3-.3 3.5.4 1.1 1.2 2.1 2.3 2.6zM626.6 573.2c2 1.5 10.6 2.2 10.6 2.2s-3.2-8-5.2-9.5c-1-.7-2.2-.9-3.3-.7-1.2.2-2.2.8-2.9 1.8-.7.9-1 2.1-.9 3.3.2 1.1.8 2.1 1.7 2.9z"/><path class="st7" d="M625.9 583.8s11-2.2 14-5.1c2.9-2.9 16.2-8.1 17.7-4.4 1.5 3.7 19.9 16.2 7.4 18.4-12.5 2.2-29.4 2.9-33.1 1.5-3.8-1.5-6-10.4-6-10.4z"/><path class="st8" d="M664.9 591.3c-12.5 2.2-29.4 2.9-33.1 1.5-2.8-1.1-4.7-6.5-5.5-9l-.4.1s2.2 8.8 5.9 10.3 20.6.7 33.1-1.5c3.6-.6 4.6-2.1 4.3-4-.4 1.2-1.7 2.1-4.3 2.6z"/><path class="st7" d="M808.9 653s33.5-6.7 42.4-15.6c8.9-8.9 49.1-24.5 53.6-13.4 4.5 11.2 60.3 49.1 22.4 55.8-37.9 6.7-89.3 8.9-100.5 4.5-11.2-4.5-17.9-31.3-17.9-31.3z"/><path class="st8" d="M927.2 675.6c-37.9 6.7-89.3 8.9-100.5 4.5-8.5-3.4-14.4-19.7-16.7-27.3l-1.1.2s6.7 26.8 17.9 31.2c11.2 4.5 62.5 2.2 100.5-4.5 11-1.9 14.1-6.5 12.9-12.2-1 3.8-4.8 6.7-13 8.1z"/><path class="st2" d="M761 457.4c-.1 4-1.4 7.9-3.6 11.2-2.2-3.3-3.5-7.2-3.6-11.2 0-6.2 1.6-11.2 3.6-11.2 2 .1 3.6 5.1 3.6 11.2zM876.1 471.9c-.1 4-1.4 7.9-3.6 11.2-2.2-3.3-3.5-7.2-3.6-11.2 0-6.2 1.6-11.2 3.6-11.2 1.9.1 3.6 5.1 3.6 11.2zM833.9 494.6c1.9 3.5 2.7 7.5 2.4 11.5-3.6-1.8-6.6-4.5-8.8-7.9-3.1-5.4-4.1-10.5-2.4-11.5 1.8-1 5.7 2.5 8.8 7.9zM802.4 597.2c-3 2.6-6.7 4.4-10.7 5 .9-3.9 2.8-7.5 5.7-10.3 4.5-4.2 9.3-6.5 10.7-5 1.3 1.5-1.2 6.1-5.7 10.3z"/><path class="st4" d="M802.4 597.2c-3 2.6-6.7 4.4-10.7 5 .9-3.9 2.8-7.5 5.7-10.3 4.5-4.2 9.3-6.5 10.7-5 1.3 1.5-1.2 6.1-5.7 10.3z"/><path class="st2" d="M868.5 590.9c-3 2.6-6.7 4.4-10.6 5 .9-3.9 2.8-7.5 5.7-10.3 4.5-4.2 9.3-6.5 10.7-5 1.3 1.4-1.3 6.1-5.8 10.3z"/><path class="st4" d="M868.5 590.9c-3 2.6-6.7 4.4-10.6 5 .9-3.9 2.8-7.5 5.7-10.3 4.5-4.2 9.3-6.5 10.7-5 1.3 1.4-1.3 6.1-5.8 10.3z"/><path class="st2" d="M881.2 657.9c-3 2.6-6.7 4.4-10.7 5 .9-3.9 2.8-7.5 5.7-10.3 4.5-4.2 9.3-6.5 10.7-5 1.4 1.4-1.2 6-5.7 10.3z"/><path class="st4" d="M881.2 657.9c-3 2.6-6.7 4.4-10.7 5 .9-3.9 2.8-7.5 5.7-10.3 4.5-4.2 9.3-6.5 10.7-5 1.4 1.4-1.2 6-5.7 10.3z"/><path class="st2" d="M88 550.8c14.9 22 10.2 100.7 10.2 100.7s-74.9-24.8-89.9-46.8c-7.2-10.6-9.8-23.5-7.4-36.1 2.4-12.5 9.7-23.6 20.3-30.7 10.6-7.2 23.6-9.8 36.1-7.4 12.5 2.4 23.5 9.7 30.7 20.3z"/><path class="st4" d="M88 550.8c14.9 22 10.2 100.7 10.2 100.7s-74.9-24.8-89.9-46.8c-7.2-10.6-9.8-23.5-7.4-36.1 2.4-12.5 9.7-23.6 20.3-30.7 10.6-7.2 23.6-9.8 36.1-7.4 12.5 2.4 23.5 9.7 30.7 20.3z"/><path class="st9" d="M21.4 538s56.2 43.3 77 113.6"/><path class="st2" d="M112.6 591.9s-39.9-6.8-12.6 59.2c0 0 27.7-10.6 29.9-36.8.4-5.1-1-10.2-4.1-14.3-3.1-4.1-7.5-6.9-12.6-8l-.6-.1z"/><path class="st9" d="M113.2 591.8s7.6 36.5-13.2 59.3"/><path class="st2" d="M914.3 441.9c54.9 0 99.4-44.5 99.4-99.3s-44.5-99.3-99.4-99.3c-54.9 0-99.4 44.5-99.4 99.3s44.4 99.3 99.4 99.3z"/><path class="st2" d="M808.5 414.8c54.9 0 99.4-44.5 99.4-99.3 0-54.9-44.5-99.3-99.4-99.3s-99.4 44.5-99.4 99.3 44.5 99.3 99.4 99.3z"/><path class="st2" d="M692.1 415.8c54.9 0 99.4-44.5 99.4-99.3s-44.5-99.3-99.4-99.3c-54.9 0-99.4 44.5-99.4 99.3s44.5 99.3 99.4 99.3z"/><path class="st2" d="M654.3 441.9c54.9 0 99.4-44.5 99.4-99.3s-44.5-99.3-99.4-99.3c-54.9 0-99.4 44.5-99.4 99.3s44.4 99.3 99.4 99.3z"/><path class="st2" d="M590.2 450.7c54.9 0 99.4-44.5 99.4-99.3S645.1 252 590.2 252c-54.9 0-99.4 44.5-99.4 99.3s44.5 99.4 99.4 99.4z"/><path class="st2" d="M564 372.2c54.9 0 99.4-44.5 99.4-99.3 0-54.9-44.5-99.3-99.4-99.3s-99.4 44.5-99.4 99.3 44.5 99.3 99.4 99.3z"/><path class="st2" d="M593.1 281.1c54.9 0 99.4-44.5 99.4-99.3 0-54.9-44.5-99.3-99.4-99.3-54.9 0-99.4 44.5-99.4 99.3s44.5 99.3 99.4 99.3z"/><path class="st2" d="M648.4 281.1c54.9 0 99.4-44.5 99.4-99.3 0-54.9-44.5-99.3-99.4-99.3-54.9 0-99.4 44.5-99.4 99.3s44.5 99.3 99.4 99.3z"/><path class="st2" d="M680.5 240.3c54.9 0 99.4-44.5 99.4-99.3 0-54.9-44.5-99.3-99.4-99.3-54.9 0-99.4 44.5-99.4 99.3-.1 54.9 44.4 99.3 99.4 99.3z"/><path class="st2" d="M761.9 284.9c54.9 0 99.4-44.5 99.4-99.3s-44.5-99.3-99.4-99.3c-54.9 0-99.4 44.5-99.4 99.3s44.5 99.3 99.4 99.3zM952.1 372.2c54.9 0 99.4-44.5 99.4-99.3 0-54.9-44.5-99.3-99.4-99.3-54.9 0-99.4 44.5-99.4 99.3s44.5 99.3 99.4 99.3z"/><path class="st2" d="M894.8 322.7c54.9 0 99.4-44.5 99.4-99.3 0-54.9-44.5-99.3-99.4-99.3s-99.4 44.5-99.4 99.3c0 54.9 44.5 99.3 99.4 99.3z"/><path class="st2" d="M858 273.3c54.9 0 99.4-44.5 99.4-99.3S912.9 74.6 858 74.6c-54.9 0-99.4 44.5-99.4 99.3s44.5 99.4 99.4 99.4z"/><path class="st2" d="M788.1 198.7c54.9 0 99.4-44.5 99.4-99.3C887.5 44.5 843 .1 788.1.1c-54.9 0-99.4 44.5-99.4 99.3s44.5 99.3 99.4 99.3z"/><path class="st2" d="M918.1 281.1c54.9 0 99.4-44.5 99.4-99.3 0-54.9-44.5-99.3-99.4-99.3-54.9 0-99.4 44.5-99.4 99.3s44.5 99.3 99.4 99.3z"/><path class="st4" d="M1013.3 197.3s-92.6-43.9-148.6 33.9l148.6-33.9zM770 108.4s-102.4-3.1-122.6 90.6L770 108.4zM642.7 311.6s-92.6-43.9-148.6 33.9l148.6-33.9z"/><path class="st2" d="M237.4 559.3s5.3 7-2.5 17.5-14.2 19.4-11.7 26c0 0 11.8-19.6 21.4-19.8 9.6-.4 3.3-12-7.2-23.7z"/><path class="st4" d="M237.4 559.3c.5.7.8 1.4 1.1 2.2 9.4 11 14.3 21.2 5.4 21.5-8.4.2-18.4 15.2-20.8 19l.3.9s11.8-19.6 21.4-19.8c9.5-.4 3.1-12.1-7.4-23.8z"/><path class="st10" d="M247.3 568.2c0 2.5-.3 4.5-.6 4.5s-.6-1.9-.6-4.5.3-1.3.7-1.3c.3 0 .5-1.2.5 1.3z"/><path class="st10" d="M250.7 571.1c-2.2 1.2-4 1.9-4.2 1.6-.2-.3 1.5-1.5 3.6-2.7 2.2-1.2 1.3-.3 1.5 0 .2.3 1.3-.1-.9 1.1z"/><path class="st2" d="M209.1 559.3s-5.3 7 2.5 17.5 14.2 19.4 11.7 26c0 0-11.8-19.6-21.4-19.8-9.6-.4-3.3-12 7.2-23.7z"/><path class="st4" d="M209.1 559.3c-.5.7-.8 1.4-1.1 2.2-9.4 11-14.3 21.2-5.4 21.5 8.4.2 18.4 15.2 20.8 19l-.3.9s-11.8-19.6-21.4-19.8c-9.5-.4-3.1-12.1 7.4-23.8z"/><path class="st10" d="M199.2 568.2c0 2.5.3 4.5.6 4.5s.6-1.9.6-4.5-.3-1.3-.7-1.3c-.3 0-.5-1.2-.5 1.3z"/><path class="st10" d="M195.8 571.1c2.2 1.2 4 1.9 4.2 1.6.2-.3-1.5-1.5-3.6-2.7-2.2-1.2-1.3-.3-1.5 0-.2.3-1.2-.1.9 1.1z"/><path class="st7" d="M200.9 601.9s14.9-.5 19.5-3.7c4.5-3.2 23-7 24.1-1.9 1.1 5.1 22.4 25.5 5.6 25.7-16.9.1-39.2-2.6-43.7-5.4-4.5-2.7-5.5-14.7-5.5-14.7z"/><path class="st8" d="M250.3 620.2c-16.9.1-39.2-2.6-43.7-5.4-3.4-2.1-4.8-9.6-5.2-13h-.5s1 12 5.4 14.8c4.5 2.7 26.8 5.5 43.7 5.4 4.9 0 6.5-1.8 6.5-4.3-.7 1.5-2.5 2.5-6.2 2.5z"/><path class="st2" d="M116.3 698c1.8-1.5 3.1-3.4 3.7-5.6.5-2.2-.5-4.9-2.6-5.7-2.4-.9-5 .7-6.9 2.4-1.9 1.7-4.2 3.6-6.7 3.2 1.3-1.2 2.3-2.7 2.8-4.4.6-1.7.7-3.5.3-5.2-.1-.7-.4-1.4-.9-1.9-1.3-1.4-3.7-.8-5.3.3-5.1 3.6-6.5 10.4-6.5 16.6-.5-2.2-.1-4.5-.1-6.8s-.6-4.9-2.6-6c-1.2-.6-2.5-1-3.9-.9-2.3-.1-4.8.1-6.4 1.8-1.9 2.1-1.4 5.5.3 7.8 1.7 2.2 4.2 3.7 6.6 5.3 1.9 1.1 3.5 2.7 4.7 4.5.1.3.3.5.4.8h14.2c3.3-1.8 6.2-3.8 8.9-6.2z"/><g opacity=".05"><path class="st12" d="M806.5 566.9l-1.7-.6-7.7-8.8c.2-.4.2-.9 0-1.3l9.4 10.7zM817.2 583.3c-2.2-.9-4-2.5-5.2-4.5-1.2-2-1.8-4.3-1.7-6.7v-.9l.2.2 6.1 2c-.5 1.2-.7 2.4-.7 3.7-.2 2.2.3 4.3 1.3 6.2z"/></g><path class="st4" d="M729 676.1c-3.4-2.6-7.2-4.7-11.2-6.1-3.8-1.3-7.4-3.2-10.7-5.6"/><path d="M660.6 716.4c-.1.3-.2.6-.2.9-.5-.3-1.2-.9.2-.9z" opacity=".05" fill="#0f0"/><path d="M620.7 728.1c5.2 2.4 44.3-4.5 49.6-5.5.1.5.3 1 .6 1.4 0 0-44.7 8.1-50.2 5.6-2.9-1.3-3.6-3-3.2-4.6.3 1.1 1.2 2.2 3.2 3.1z" opacity=".2" fill="#fff"/></g></svg>