<svg width="100" height="62" viewBox="0 0 100 62" fill="none" xmlns="http://www.w3.org/2000/svg">
<g clip-path="url(#clip0)">
<path fill-rule="evenodd" clip-rule="evenodd" d="M14.8765 43.6043C17.8044 43.4909 26.0252 37.8132 26.0252 29.2967C26.0252 22.1793 22.973 16.6923 19.9325 11.9231C19.5144 11.2675 17.2298 6.47253 15.5522 0C13.863 1.7033 0.349473 13.6264 0.0116348 24.1868C-0.326203 34.7473 6.7684 42.5825 11.4981 43.6043H14.8765ZM23.6604 33.044C21.4981 39.5846 16.9036 41.9011 14.8765 42.2417L11.4981 41.9011C2.7027 37.8132 0.337838 26.9121 2.36486 20.7802C4.39189 14.6484 11.836 5.45054 14.8765 2.38462C15.9577 8.10769 19.3811 14.3077 20.9577 16.6923C22.7595 19.4175 25.8225 26.5033 23.6604 33.044Z" fill="#A0C23C"/>
<path d="M14.8766 42.2417C16.9036 41.9011 21.4982 39.5846 23.6604 33.044C25.8225 26.5033 22.7595 19.4175 20.9577 16.6923C19.3811 14.3077 15.9577 8.10768 14.8766 2.38461C11.8361 5.45054 4.39192 14.6484 2.36489 20.7802C0.337866 26.9121 2.70273 37.8132 11.4982 41.9011L14.8766 42.2417Z" fill="#A0C23C"/>
<path fill-rule="evenodd" clip-rule="evenodd" d="M14.8765 43.6043C17.8044 43.4909 26.0252 37.8132 26.0252 29.2967C26.0252 22.1793 22.973 16.6923 19.9325 11.9231C19.5144 11.2675 17.2298 6.47253 15.5522 0C13.863 1.7033 0.349473 13.6264 0.0116348 24.1868C-0.326203 34.7473 6.7684 42.5825 11.4981 43.6043H14.8765ZM23.6604 33.044C21.4981 39.5846 16.9036 41.9011 14.8765 42.2417L11.4981 41.9011C2.7027 37.8132 0.337838 26.9121 2.36486 20.7802C4.39189 14.6484 11.836 5.45054 14.8765 2.38462C15.9577 8.10769 19.3811 14.3077 20.9577 16.6923C22.7595 19.4175 25.8225 26.5033 23.6604 33.044Z" fill="#6A8617"/>
<path d="M13.8513 58.934L9.45939 62L10.473 58.2527L4.72974 57.5715L11.4864 56.2087V44.6264L11.8243 38.1538L11.1486 37.4725L5.06757 34.7472L9.45946 35.4285L6.41892 31L7.0946 30.6593L11.8243 35.7692H12.5L14.1892 27.2527H14.527L14.1892 36.2802L16.2162 33.0439L16.5541 33.7252L14.8649 37.4725V39.8571L16.8919 38.8351L17.2297 39.5165L14.8649 41.5605L14.8648 56.5495L19.9323 58.5933L13.8513 58.934Z" fill="#6A8617"/>
<path d="M8.81787 15.3296C8.36742 13.6263 12.5341 8.17578 12.5341 8.17578C13.8854 9.19776 16.2503 14.3077 13.2098 17.3736C10.7773 19.8263 9.26832 17.0329 8.81787 15.3296Z" fill="#B9EA28"/>
<path d="M40.8275 30.2165C41.3812 30.2369 41.9143 30.1552 42.427 30.0531C42.9396 29.9509 43.4318 29.7875 43.9444 29.5629C44.4366 29.3382 44.9082 29.0931 45.3389 28.7867C45.7695 28.4804 46.1796 28.1127 46.5282 27.7042L46.8973 27.2753L44.9082 25.1511L44.6211 25.4575L44.4161 25.6822C44.17 25.9477 43.9034 26.1519 43.6368 26.3358C43.3703 26.5196 43.0832 26.6421 42.7756 26.7443C42.468 26.8464 42.1399 26.9281 41.8323 26.9894C41.5042 27.0506 41.1761 27.0711 40.8275 27.0711C40.1918 27.0711 39.5971 26.9689 39.0435 26.7443C38.5103 26.54 38.0182 26.2132 37.5875 25.7843C37.1569 25.3554 36.8288 24.8856 36.6032 24.3546C36.3777 23.8235 36.2751 23.2516 36.2751 22.6184C36.2751 21.9853 36.3777 21.393 36.6032 20.8619C36.8288 20.3309 37.1569 19.8611 37.5875 19.4322C38.0182 19.0033 38.5103 18.6969 39.0435 18.4926C39.5971 18.268 40.1918 18.1658 40.8275 18.1658C41.1556 18.1658 41.4632 18.1863 41.7708 18.2271C42.0784 18.268 42.3655 18.3292 42.632 18.4314C42.8986 18.5131 43.1652 18.6356 43.4318 18.7786C43.6984 18.942 43.9649 19.1462 44.2315 19.3709L44.7032 19.7998L46.5487 17.5735L46.1591 17.1855C45.8105 16.8382 45.4209 16.5114 45.0108 16.2459C44.6211 15.9804 44.1905 15.7353 43.7189 15.5515C43.2472 15.3676 42.7756 15.2247 42.3039 15.143C41.8323 15.0408 41.3402 15 40.8275 15C40.4789 15 40.1098 15.0204 39.7612 15.0817C39.4126 15.143 39.064 15.2042 38.7154 15.3064C38.3668 15.4085 38.0387 15.5106 37.7311 15.6536C37.4235 15.7966 37.1159 15.96 36.8288 16.1438C36.2751 16.491 35.8035 16.8791 35.3729 17.3284C34.9422 17.7778 34.5526 18.2884 34.204 18.8603C33.8759 19.4118 33.6298 20.0041 33.4658 20.6372C33.3017 21.2704 33.2197 21.924 33.2197 22.598C33.2197 23.272 33.3017 23.9256 33.4658 24.5588C33.6298 25.192 33.8759 25.7843 34.204 26.3358C34.5526 26.9077 34.9422 27.4183 35.3729 27.8676C35.8035 28.317 36.2751 28.705 36.8288 29.0523C37.1159 29.2361 37.4235 29.3995 37.7311 29.5425C38.0387 29.6854 38.3668 29.808 38.7154 29.9101C39.064 30.0122 39.4126 30.0735 39.7612 30.1143C40.1098 30.1756 40.4789 30.2165 40.8275 30.2165Z" fill="#31383E"/>
<path d="M56.9043 24.3546C56.1866 24.2524 55.4484 24.1912 54.7307 24.1299C54.013 24.0686 53.4593 24.0073 53.1107 23.9665L54.136 21.3725C54.4846 20.5147 54.7307 19.8611 54.9152 19.4322L56.0431 22.2508L56.9043 24.3546ZM62.2975 29.8897L56.4122 15.3064H53.3978C52.1059 18.5539 50.9575 21.393 49.9733 23.8235L47.5125 29.9101H50.732L52.1674 26.3562L57.9707 27.0098L59.16 29.8897H62.2975Z" fill="#31383E"/>
<path d="M79.3791 29.9101V15.2859H76.5698C75.811 16.3685 74.2731 18.5539 71.9559 21.8015L67.3625 15.2859H64.5531V29.9101H67.5265V20.3513C68.4903 21.6585 69.3516 22.8023 70.1103 23.7622C70.869 24.7222 71.4842 25.5188 71.9559 26.1724C72.9402 24.8856 74.4166 22.9248 76.3647 20.3309V29.9101H79.3791Z" fill="#31383E"/>
<path d="M86.8023 21.7198V18.4518H89.181C89.4066 18.4518 89.6117 18.4926 89.8167 18.5743C90.0013 18.6356 90.1858 18.7582 90.3499 18.9216C90.514 19.085 90.637 19.2688 90.6985 19.4526C90.7805 19.6364 90.8215 19.8611 90.8215 20.0858C90.8215 20.3104 90.7805 20.5147 90.6985 20.7189C90.637 20.9028 90.514 21.0866 90.3499 21.25C90.1858 21.4134 90.0013 21.5359 89.8167 21.6176C89.6117 21.6789 89.4066 21.7198 89.181 21.7198H86.8023ZM86.8023 29.9101V24.906H89.181C89.4066 24.906 89.6322 24.8856 89.8578 24.8652C90.0833 24.8243 90.2884 24.7631 90.514 24.7018C90.7395 24.6405 90.9446 24.5792 91.1496 24.4771L91.7238 24.1707C92.0929 23.9665 92.38 23.701 92.6466 23.4354C92.9132 23.1495 93.1592 22.8227 93.3643 22.4755C93.5899 22.1283 93.7334 21.7402 93.8359 21.3521C93.9385 20.9436 94 20.5351 94 20.1062C94 19.8815 93.9795 19.6569 93.959 19.4322C93.918 19.2075 93.8565 19.0033 93.7949 18.7786C93.7334 18.5539 93.6719 18.3497 93.5694 18.1658C93.4873 17.9616 93.3848 17.7573 93.2618 17.5735C93.0567 17.2263 92.8106 16.9199 92.5236 16.6544C92.2365 16.3889 91.9084 16.1438 91.5598 15.9191C91.2112 15.6944 90.8215 15.5515 90.4319 15.4493C90.0423 15.3472 89.6117 15.2859 89.181 15.2859H83.6239V29.8897C84.157 29.8897 85.2234 29.8897 86.8023 29.9101Z" fill="#31383E"/>
<path d="M41.8352 52.3231V39.2279H47.0848V35.6331H33V39.2279H38.2261V52.3231H41.8352Z" fill="#31383E"/>
<path d="M53.5296 39.2279H56.3653C56.6231 39.2279 56.8809 39.2745 57.0918 39.3679C57.3027 39.4613 57.5137 39.6013 57.6777 39.8114C57.8652 40.0215 58.0058 40.2316 58.0996 40.4417C58.1933 40.6518 58.2402 40.9085 58.2402 41.1653C58.2402 41.4221 58.1933 41.6555 58.0996 41.8656C58.0058 42.0757 57.8652 42.2857 57.6777 42.4958C57.5137 42.7059 57.3027 42.846 57.0918 42.9393C56.8809 43.0327 56.6231 43.0794 56.3653 43.0794H53.5296V39.2279ZM53.9983 46.5574L57.5371 50.3156L60.0916 53L61.5446 51.6461L62.5758 50.6657C61.6149 49.662 60.7478 48.7983 60.0213 48.0514L58.1933 46.184C58.7792 45.9272 59.3182 45.6471 59.7635 45.2969C60.2088 44.9468 60.5603 44.55 60.865 44.1065C61.1696 43.663 61.3805 43.1728 61.5212 42.6826C61.6618 42.1924 61.7321 41.6555 61.7321 41.0719C61.7321 40.3016 61.6149 39.6013 61.3571 38.9711C61.0993 38.3408 60.7243 37.7339 60.2088 37.197C59.6932 36.6602 59.1073 36.2633 58.4745 36.0066C57.8418 35.7498 57.1621 35.6097 56.3888 35.6097H49.9674V52.3231H53.553V46.5574H53.9983Z" fill="#31383E"/>
<path d="M77.9261 52.3231V48.7283H69.7939V45.6704H76.9652V42.2391H69.7939V39.2279H77.7855V35.6331H66.302V52.3231H77.9261Z" fill="#31383E"/>
<path d="M93.628 52.3231V48.7283H85.4958V45.6704H92.6671V42.2391H85.4958V39.2279H93.4873V35.6331H82.0039V52.3231H93.628Z" fill="#31383E"/>
</g>
<defs>
<clipPath id="clip0">
<rect width="100" height="62" fill="white"/>
</clipPath>
</defs>
</svg>
