<svg width="100" height="80" viewBox="0 0 100 80" fill="none" xmlns="http://www.w3.org/2000/svg">
<path d="M91.5162 68.54C84.5034 76.145 73.8918 80 59.9811 80L54.9827 80L54.9827 65.905L59.0015 65.1C65.8493 63.73 70.6128 61.035 73.162 57.08C74.7265 54.645 75.2413 52.045 75.3513 50L59.9811 50C57.217 50 54.9827 47.765 54.9827 45L54.9827 10C54.9827 4.485 59.4663 -3.54357e-06 64.9796 -3.06158e-06L94.9701 -4.39724e-07C97.7343 -1.98076e-07 99.9686 2.235 99.9686 5L99.9686 30L99.9536 44.595C99.9986 45.15 100.948 58.3 91.5162 68.54ZM9.99686 -7.86832e-06L39.9874 -5.24647e-06C42.7516 -5.00482e-06 44.9859 2.235 44.9859 5L44.9859 30L44.9709 44.595C45.0159 45.15 45.9656 58.3 36.5335 68.54C29.5207 76.145 18.9091 80 4.99843 80L0 80L1.23222e-06 65.905L4.01874 65.1C10.8666 63.73 15.6301 61.035 18.1793 57.08C19.7438 54.645 20.2586 52.045 20.3686 50L4.99843 50C2.2343 50 2.81807e-06 47.765 3.0598e-06 45L6.11959e-06 9.99999C6.60173e-06 4.48499 4.4836 -8.35031e-06 9.99686 -7.86832e-06Z" fill="#F7F8EB"/>
</svg>
