<svg width="616" height="405" viewBox="0 0 616 405" fill="none" xmlns="http://www.w3.org/2000/svg">
<g clip-path="url(#clip0)">
<path d="M17.24 230.559L128.78 325.564L153.185 346.349L221.476 345.932L279.758 345.578L284.599 345.549L296.426 331.653L343.45 276.412L367.055 248.678L374.153 240.342L379.287 234.309L390.729 220.868L409.253 199.107L390.491 183.128L372.573 167.864L359.693 156.895L197.525 18.7688L17.24 230.559Z" fill="#F2F2F2"/>
<path d="M102.846 374.299H304.231V375.376H102.846V374.299Z" fill="#3F3D56"/>
<path d="M5.42557 345.752H166.616C166.616 345.752 169.883 297.816 150.551 297.272C131.219 296.727 133.398 318.516 109.165 288.556C84.9317 258.597 55.5254 260.231 51.7134 277.934C47.9015 295.638 59.065 309.8 38.6439 305.443C18.2228 301.085 -11.1836 312.524 5.42557 345.752Z" fill="#B1B834"/>
<path d="M88.7418 345.763L89.2858 345.741C88.0171 314.181 81.4092 293.903 76.0894 282.45C70.3132 270.014 64.7472 264.979 64.6916 264.93L64.3297 265.337C64.3845 265.386 69.8857 270.37 75.6156 282.722C80.906 294.127 87.4777 314.321 88.7418 345.763Z" fill="#F2F2F2"/>
<path d="M30.4028 345.828L30.9257 345.676C24.6307 324.063 9.80708 310.417 9.65791 310.282L9.29199 310.685C9.43983 310.82 24.1526 324.369 30.4028 345.828Z" fill="#F2F2F2"/>
<path d="M141.228 345.789L141.767 345.715C139.632 330.307 143.489 318.353 147.102 311.038C151.013 303.118 155.476 298.792 155.521 298.749L155.144 298.356C155.099 298.399 150.567 302.792 146.614 310.797C142.967 318.18 139.073 330.245 141.228 345.789Z" fill="#F2F2F2"/>
<path d="M2.28882e-05 345.752H592.846V346.829H2.28882e-05V345.752Z" fill="#3F3D56"/>
<path d="M174.768 21.2288H225.758V84.5979H174.768V21.2288Z" fill="#2F2E41"/>
<path d="M267.863 316.823L274.816 342.325L263.227 350.826L260.137 348.507L254.729 322.232L267.863 316.823Z" fill="#FFB8B8"/>
<path d="M180.563 314.504L182.88 345.416H168.201V316.823L180.563 314.504Z" fill="#FFB8B8"/>
<path d="M226.917 118.987V137.534L198.332 142.171L173.61 132.125L178.245 120.533L226.917 118.987Z" fill="#FFB8B8"/>
<path d="M203.74 134.443L228.462 129.806L234.642 180.038L250.094 242.634C250.094 242.634 273.271 295.957 270.181 308.322L268.635 312.186L270.181 319.141L254.729 325.323L248.549 315.277C248.549 315.277 243.913 322.232 236.188 307.549C228.462 292.866 196.014 201.676 196.014 201.676L190.606 217.132C192.005 221.899 192.269 226.927 191.379 231.815C189.833 239.543 188.288 263.5 188.288 263.5C188.288 263.5 196.787 305.231 185.198 308.322L182.88 317.595L166.656 319.141L163.566 309.867C163.566 309.867 148.115 304.458 151.978 277.41C155.84 250.362 157.386 161.491 157.386 161.491L172.606 123.953L203.74 134.443Z" fill="#31383E"/>
<path d="M270.181 340.779C270.181 340.779 274.044 337.688 275.589 338.461C277.134 339.234 293.358 360.099 293.358 360.099C293.358 360.099 310.354 373.237 297.993 374.782C285.632 376.328 251.639 359.326 251.639 355.462C251.639 351.598 258.782 341.921 258.782 341.921C258.782 341.921 264 346.189 270.181 340.779Z" fill="#31383E"/>
<path d="M184.425 338.461C184.425 338.461 170.519 337.597 168.202 339.961C165.884 342.325 166.656 353.917 166.656 353.917C166.656 353.917 165.111 374.782 177.472 374.782C189.833 374.782 186.743 360.872 186.743 360.872L184.425 338.461Z" fill="#31383E"/>
<path d="M198.332 50.9813C187.665 50.9813 179.017 42.3315 179.017 31.6614C179.017 20.9914 187.665 12.3416 198.332 12.3416C208.999 12.3416 217.646 20.9914 217.646 31.6614C217.646 42.3315 208.999 50.9813 198.332 50.9813Z" fill="#FFB8B8"/>
<path d="M211.079 43.6399C211.079 43.6399 200.263 56.7774 221.895 66.8237C243.527 76.8701 206.444 118.601 206.444 118.601C206.444 118.601 163.18 102.372 167.043 70.6877C167.043 70.6877 193.31 66.0509 187.129 44.4127L211.079 43.6399Z" fill="#FFB8B8"/>
<path d="M222.668 66.0508C222.668 66.0508 240.437 63.7324 241.209 78.4155C241.982 93.0986 241.209 128.647 241.209 128.647C241.209 128.647 248.935 159.559 245.072 186.607C245.072 186.607 249.708 218.291 237.346 216.746C224.985 215.2 234.256 184.288 234.256 184.288L228.848 134.057L231.166 96.9626L221.123 74.5515L222.668 66.0508Z" fill="#FFB8B8"/>
<path d="M171.529 69.4649C171.529 69.4649 154.682 69.142 153.909 81.5067C153.136 93.8714 159.317 131.738 159.317 131.738L168.588 136.375L177.086 110.1L171.529 69.4649Z" fill="#FFB8B8"/>
<path d="M166.656 132.897L168.201 136.761L163.566 148.353C163.566 148.353 182.108 163.036 180.563 166.128C179.017 169.219 170.519 162.264 170.519 162.264L158.158 168.446C158.158 168.446 148.115 157.627 152.75 147.581C157.386 137.534 159.176 130.862 159.176 130.862C159.176 130.862 165.884 130.579 166.656 132.897Z" fill="#FFB8B8"/>
<path d="M226.144 63.3459L228.462 88.8482C228.462 88.8482 239.278 99.6673 226.917 114.35L228.462 125.942C228.462 125.942 199.877 124.397 194.469 125.942C189.061 127.488 172.359 124.698 172.359 124.698L172.064 115.896C172.064 115.896 164.339 105.077 166.656 88.8482C168.974 72.6195 166.656 67.2099 166.656 67.2099L172.064 66.4371C172.064 66.4371 175.541 90.0074 199.491 92.3257C199.491 92.3257 229.234 95.0305 220.736 63.3459H226.144Z" fill="#B1B834"/>
<path d="M196.4 0.363298C196.4 0.363298 216.487 -0.882294 221.123 11.6122C225.758 24.1068 233.87 30.6664 233.87 30.6664C233.87 30.6664 246.648 39.5514 240.259 55.4125C240.259 55.4125 260.137 68.7747 247.004 80.6445C247.004 80.6445 247.776 92.5143 240.05 100.636C240.05 100.636 233.87 103.759 236.188 105.633C238.505 107.508 220.736 106.258 222.281 89.3906C223.827 72.523 213.397 60.6413 213.397 60.6413C213.397 60.6413 223.44 38.7718 218.805 31.2751C215.99 26.7235 214.782 23.3293 212.446 21.3649C211.145 20.297 209.938 19.119 208.839 17.844C207.8 16.53 206.389 15.5602 204.79 15.0614C203.191 14.5626 201.478 14.558 199.877 15.0482C192.924 16.9224 191.379 22.5449 191.379 22.5449C191.379 22.5449 186.357 35.9765 177.859 42.2238C169.36 48.4711 184.426 59.4038 184.426 59.4038C184.426 59.4038 181.807 72.2754 175.004 79.8959C168.202 87.5164 176.965 94.159 177.472 95.0132C178.631 96.9626 183.259 109.273 164.142 109.327C164.142 109.327 159.703 100.011 153.523 94.3884C147.342 88.7659 151.978 72.523 151.978 72.523C151.978 72.523 142.707 66.9005 152.75 53.1565C152.75 53.1565 149.66 40.662 158.158 32.5405C158.158 32.5405 170.133 -4.00978 196.4 0.363298Z" fill="#2F2E41"/>
<path d="M219.191 34.3662C218.124 34.3662 217.26 32.9822 217.26 31.275C217.26 29.5678 218.124 28.1838 219.191 28.1838C220.258 28.1838 221.123 29.5678 221.123 31.275C221.123 32.9822 220.258 34.3662 219.191 34.3662Z" fill="#FFB8B8"/>
<path d="M296.692 404.461H615.462C615.462 404.461 621.923 309.665 583.692 308.587C545.462 307.51 549.769 350.6 501.846 291.352C453.923 232.103 395.769 235.335 388.231 270.345C380.692 305.356 402.769 333.364 362.385 324.746C322 316.128 263.846 338.75 296.692 404.461Z" fill="#B1B834"/>
<path d="M461.458 404.483L462.534 404.44C460.025 342.026 446.957 301.925 436.436 279.275C425.014 254.682 414.006 244.726 413.896 244.628L413.181 245.433C413.289 245.53 424.168 255.387 435.499 279.814C445.962 302.368 458.958 342.305 461.458 404.483Z" fill="#F2F2F2"/>
<path d="M346.087 404.612L347.121 404.311C334.672 361.57 305.357 334.584 305.062 334.316L304.339 335.114C304.631 335.379 333.727 362.174 346.087 404.612Z" fill="#F2F2F2"/>
<path d="M565.254 404.536L566.321 404.387C562.097 373.917 569.726 350.277 576.871 335.811C584.606 320.148 593.432 311.593 593.52 311.509L592.775 310.731C592.686 310.817 583.723 319.503 575.905 335.334C568.694 349.936 560.993 373.794 565.254 404.536Z" fill="#F2F2F2"/>
<path d="M165.308 403.923H616V405H165.308V403.923Z" fill="#3F3D56"/>
</g>
<defs>
<clipPath id="clip0">
<rect width="616" height="405" transform="matrix(-1 0 0 1 616 0)" fill="white"/>
</clipPath>
</defs>
</svg>
