<svg width="222" height="101" viewBox="0 0 222 101" fill="none" xmlns="http://www.w3.org/2000/svg">
<path d="M109.416 100.645C96.4366 100.645 85.9148 98.8671 85.9148 96.6742C85.9148 94.4813 96.4366 92.7036 109.416 92.7036C122.395 92.7036 132.917 94.4813 132.917 96.6742C132.917 98.8671 122.395 100.645 109.416 100.645Z" fill="#A0C23C"/>
<path opacity="0.1" d="M187.416 61.2172C174.437 61.2172 163.915 59.4395 163.915 57.2465C163.915 55.0536 174.437 53.2759 187.416 53.2759C200.395 53.2759 210.917 55.0536 210.917 57.2465C210.917 59.4395 200.395 61.2172 187.416 61.2172Z" fill="#A0C23C"/>
<path d="M35.0902 60.4151C15.7104 60.4151 0 57.7583 0 54.481C0 51.2037 15.7104 48.5469 35.0902 48.5469C54.47 48.5469 70.1804 51.2037 70.1804 54.481C70.1804 57.7583 54.47 60.4151 35.0902 60.4151Z" fill="#A0C23C"/>
<path d="M20.5864 44.777C18.9848 43.4698 17.8164 41.7083 17.2353 39.7243C16.8077 37.7171 17.6629 35.3173 19.5741 34.5843C21.7209 33.764 24.016 35.2475 25.7526 36.7572C27.4892 38.2669 29.4877 39.9686 31.7653 39.6544C30.594 38.5938 29.7178 37.2475 29.2222 35.747C28.7266 34.2466 28.6286 32.6432 28.9379 31.0936C29.0368 30.4514 29.3083 29.8482 29.7233 29.3483C30.9189 28.0742 33.0744 28.624 34.5055 29.6275C39.0435 32.8215 40.3088 38.9825 40.335 44.5327C40.7888 42.5343 40.4048 40.4486 40.4136 38.424C40.4223 36.3994 40.9895 34.0606 42.7174 32.9873C43.7858 32.399 44.9886 32.0983 46.2081 32.1146C48.2501 32.0448 50.5191 32.2455 51.9154 33.7377C53.6608 35.5965 53.1982 38.7032 51.6885 40.7191C50.1788 42.7349 47.8924 44.0352 45.7892 45.4489C44.0966 46.4552 42.6529 47.8303 41.5655 49.4719C41.4399 49.7007 41.3348 49.9402 41.2513 50.1875H28.4666C25.6082 48.747 22.9576 46.9271 20.5864 44.777Z" fill="#A0C23C"/>
<path d="M94.9034 87.1792C93.3041 85.8716 92.1388 84.1099 91.561 82.1265C91.1334 80.1194 91.9799 77.7633 93.8998 76.9866C96.0465 76.1663 98.3417 77.6498 100.078 79.1595C101.815 80.6692 103.813 82.3709 106.091 82.0567C104.92 80.9961 104.043 79.6498 103.548 78.1493C103.052 76.6489 102.954 75.0456 103.264 73.4959C103.358 72.8524 103.63 72.2479 104.049 71.7506C105.236 70.4765 107.4 71.0263 108.822 72.0298C113.36 75.2238 114.626 81.3848 114.652 86.9349C115.115 84.9365 114.731 82.8508 114.739 80.8263C114.748 78.8017 115.315 76.463 117.043 75.3896C118.115 74.8139 119.318 74.5281 120.534 74.5606C122.576 74.4908 124.845 74.6915 126.241 76.1837C127.986 78.0425 127.524 81.1491 126.014 83.165C124.504 85.1808 122.218 86.4811 120.106 87.8948C118.417 88.9021 116.976 90.2772 115.891 91.9178C115.766 92.1466 115.66 92.3861 115.577 92.6334H102.792C99.9298 91.1776 97.2763 89.3431 94.9034 87.1792Z" fill="#A0C23C"/>
<path d="M182.607 0C182.607 0 177.808 6.27444 184.815 15.7079C191.823 25.1414 197.6 33.1612 195.287 39.0691C195.287 39.0691 184.711 21.485 176.089 21.2406C167.467 20.9963 173.156 10.5505 182.607 0Z" fill="#A0C23C"/>
<path opacity="0.1" d="M182.607 0C182.188 0.607763 181.856 1.27172 181.621 1.97222C173.226 11.8333 168.758 21.0399 176.83 21.2668C184.344 21.485 193.359 34.9239 195.523 38.3186C195.452 38.5816 195.367 38.8408 195.27 39.0953C195.27 39.0953 184.693 21.5112 176.071 21.2668C167.449 21.0225 173.156 10.5505 182.607 0Z" fill="black"/>
<path d="M173.689 7.99327C173.689 10.2011 173.942 11.9901 174.247 11.9901C174.553 11.9901 174.797 10.2447 174.797 7.99327C174.797 5.74182 174.492 6.82389 174.186 6.82389C173.881 6.82389 173.689 5.78545 173.689 7.99327Z" fill="#FFD037"/>
<path d="M170.634 10.6288C172.572 11.6847 174.265 12.3217 174.404 12.0512C174.544 11.7807 173.104 10.7161 171.167 9.66018C169.229 8.60428 169.989 9.3722 169.84 9.66018C169.692 9.94815 168.697 9.57295 170.634 10.6288Z" fill="#FFD037"/>
<path d="M207.924 0C207.924 0 212.723 6.27444 205.716 15.7079C198.708 25.1414 192.931 33.1612 195.244 39.0691C195.244 39.0691 205.812 21.485 214.443 21.2406C223.073 20.9963 217.392 10.5505 207.924 0Z" fill="#A0C23C"/>
<path opacity="0.1" d="M207.924 0C208.344 0.607763 208.675 1.27172 208.91 1.97222C217.305 11.8333 221.773 21.0399 213.701 21.2668C206.187 21.485 197.172 34.9239 195.008 38.3186C195.078 38.5829 195.166 38.8424 195.27 39.0953C195.27 39.0953 205.838 21.5112 214.469 21.2668C223.1 21.0225 217.392 10.5505 207.924 0Z" fill="black"/>
<path d="M216.843 7.99327C216.843 10.2011 216.589 11.9901 216.284 11.9901C215.979 11.9901 215.734 10.2447 215.734 7.99327C215.734 5.74182 216.04 6.82389 216.345 6.82389C216.651 6.82389 216.843 5.78545 216.843 7.99327Z" fill="#FFD037"/>
<path d="M219.897 10.6288C217.96 11.6847 216.275 12.3217 216.127 12.0512C215.978 11.7807 217.427 10.7161 219.365 9.66018C221.302 8.60428 220.543 9.3722 220.691 9.66018C220.839 9.94815 221.834 9.57295 219.897 10.6288Z" fill="#FFD037"/>
<path d="M215.315 38.2746C215.315 38.2746 201.911 37.8557 197.862 34.9846C193.813 32.1136 177.24 28.6753 176.237 33.2393C175.233 37.8033 156.096 56.1816 171.228 56.3038C186.36 56.4259 206.388 53.9476 210.42 51.4954C214.451 49.0432 215.315 38.2746 215.315 38.2746Z" fill="#A8A8A8"/>
<path opacity="0.2" d="M170.966 54.7419C186.098 54.8641 206.126 52.3857 210.158 49.9335C213.23 48.066 214.46 41.3553 214.862 38.2573H215.315C215.315 38.2573 214.443 49.0696 210.428 51.5218C206.414 53.9739 186.369 56.4523 171.237 56.3301C166.873 56.3301 165.363 54.7419 165.442 52.4468C166.053 53.8518 167.72 54.7157 170.966 54.7419Z" fill="black"/>
</svg>
