<svg width="728" height="497" viewBox="0 0 728 497" fill="none" xmlns="http://www.w3.org/2000/svg">
<g clip-path="url(#clip0)">
<path opacity="0.1" d="M0.579697 208.582C3.82726 226.484 20.4996 235.458 29.8404 248.813C47.4427 273.984 40.5878 310.742 29.4199 340.18C25.6817 350.037 21.4389 360.473 23.0229 371.042C24.9527 383.971 35.2094 393.422 45.9801 398.433C65.6057 407.559 89.1096 405.384 107.151 392.76C122.739 381.854 133.907 364.142 149.762 353.7C176.298 336.281 210.073 342.889 238.89 354.864C259.272 363.354 281.561 374.4 301.818 365.535C316.07 359.29 325.924 344.091 331.293 328.014C333.882 320.236 335.765 311.816 340.714 305.654C343.658 301.984 347.499 299.383 351.428 297.196C387.352 277.163 432.734 287.892 467.607 265.672C491.167 250.67 506.255 222.37 512.933 192.855C519.61 163.341 518.834 132.395 517.138 101.997C515.932 80.3745 513.769 57.3403 501.498 40.6657C488.517 23.0308 466.242 16.4995 446.103 19.8256C425.963 23.1516 407.716 35.1265 391.656 49.1938C371.563 66.7842 352.975 88.68 328.336 95.8027C311.556 100.655 293.907 97.9967 276.599 97.0746C247.665 95.5419 218.722 98.9824 189.952 102.696C175.934 104.522 161.869 106.436 147.972 109.209C144.857 109.828 141.742 110.495 138.627 111.212C137.066 111.574 135.505 111.949 133.954 112.337C132.739 112.636 131.529 112.973 130.319 113.272C128.409 113.777 126.506 114.307 124.608 114.862C119.16 116.452 113.763 118.252 108.422 120.3C89.8525 127.429 74.9652 140.377 57.4284 149.42C45.9988 155.315 33.5366 156.943 22.7145 164.447C9.39717 173.662 -2.83607 189.758 0.579697 208.582Z" fill="#B1B834"/>
<path d="M128.923 303.98C92.9383 303.98 63.7668 274.858 63.7668 238.933C63.7668 203.009 92.9383 173.887 128.923 173.887C164.908 173.887 194.079 203.009 194.079 238.933C194.079 274.858 164.908 303.98 128.923 303.98Z" fill="#B1B834"/>
<path d="M198.216 286.209C162.231 286.209 133.06 257.087 133.06 221.163C133.06 185.238 162.231 156.116 198.216 156.116C234.201 156.116 263.372 185.238 263.372 221.163C263.372 257.087 234.201 286.209 198.216 286.209Z" fill="#B1B834"/>
<path d="M274.494 286.845C238.509 286.845 209.338 257.723 209.338 221.799C209.338 185.875 238.509 156.752 274.494 156.752C310.479 156.752 339.65 185.875 339.65 221.799C339.65 257.723 310.479 286.845 274.494 286.845Z" fill="#B1B834"/>
<path d="M299.287 303.98C263.302 303.98 234.13 274.858 234.13 238.933C234.13 203.009 263.302 173.887 299.287 173.887C335.271 173.887 364.443 203.009 364.443 238.933C364.443 274.858 335.271 303.98 299.287 303.98Z" fill="#B1B834"/>
<path d="M341.243 309.694C305.259 309.694 276.087 280.571 276.087 244.647C276.087 208.723 305.259 179.601 341.243 179.601C377.228 179.601 406.4 208.723 406.4 244.647C406.4 280.571 377.228 309.694 341.243 309.694Z" fill="#B1B834"/>
<path d="M358.407 258.289C322.422 258.289 293.251 229.167 293.251 193.243C293.251 157.319 322.422 128.196 358.407 128.196C394.392 128.196 423.564 157.319 423.564 193.243C423.564 229.167 394.392 258.289 358.407 258.289Z" fill="#B1B834"/>
<path d="M339.338 198.632C303.353 198.632 274.182 169.51 274.182 133.586C274.182 97.6618 303.353 68.5396 339.338 68.5396C375.323 68.5396 404.494 97.6618 404.494 133.586C404.494 169.51 375.323 198.632 339.338 198.632Z" fill="#B1B834"/>
<path d="M303.104 198.632C267.12 198.632 237.948 169.51 237.948 133.586C237.948 97.6618 267.12 68.5396 303.104 68.5396C339.089 68.5396 368.261 97.6618 368.261 133.586C368.261 169.51 339.089 198.632 303.104 198.632Z" fill="#B1B834"/>
<path d="M282.123 171.978C246.138 171.978 216.967 142.856 216.967 106.932C216.967 71.008 246.138 41.8857 282.123 41.8857C318.108 41.8857 347.279 71.008 347.279 106.932C347.279 142.856 318.108 171.978 282.123 171.978Z" fill="#B1B834"/>
<path d="M228.726 201.171C192.741 201.171 163.57 172.049 163.57 136.124C163.57 100.2 192.741 71.0781 228.726 71.0781C264.711 71.0781 293.882 100.2 293.882 136.124C293.882 172.049 264.711 201.171 228.726 201.171Z" fill="#B1B834"/>
<path d="M104.13 258.289C68.1455 258.289 38.974 229.167 38.974 193.243C38.974 157.319 68.1455 128.196 104.13 128.196C140.115 128.196 169.287 157.319 169.287 193.243C169.287 229.167 140.115 258.289 104.13 258.289Z" fill="#B1B834"/>
<path d="M141.638 225.922C105.653 225.922 76.4819 196.799 76.4819 160.875C76.4819 124.951 105.653 95.8291 141.638 95.8291C177.623 95.8291 206.794 124.951 206.794 160.875C206.794 196.799 177.623 225.922 141.638 225.922Z" fill="#B1B834"/>
<path d="M165.794 193.555C129.809 193.555 100.638 164.432 100.638 128.508C100.638 92.5841 129.809 63.4619 165.794 63.4619C201.779 63.4619 230.95 92.5841 230.95 128.508C230.95 164.432 201.779 193.555 165.794 193.555Z" fill="#B1B834"/>
<path d="M211.562 144.689C175.577 144.689 146.406 115.567 146.406 79.6425C146.406 43.7184 175.577 14.5962 211.562 14.5962C247.547 14.5962 276.718 43.7184 276.718 79.6425C276.718 115.567 247.547 144.689 211.562 144.689Z" fill="#B1B834"/>
<path d="M126.38 198.632C90.3953 198.632 61.2238 169.51 61.2238 133.586C61.2238 97.6618 90.3953 68.5396 126.38 68.5396C162.365 68.5396 191.536 97.6618 191.536 133.586C191.536 169.51 162.365 198.632 126.38 198.632Z" fill="#B1B834"/>
<g opacity="0.1">
<path opacity="0.1" d="M128.923 303.98C92.9383 303.98 63.7668 274.858 63.7668 238.933C63.7668 203.009 92.9383 173.887 128.923 173.887C164.908 173.887 194.079 203.009 194.079 238.933C194.079 274.858 164.908 303.98 128.923 303.98Z" fill="black"/>
<path opacity="0.1" d="M198.216 286.209C162.231 286.209 133.059 257.087 133.059 221.162C133.059 185.238 162.231 156.116 198.216 156.116C234.2 156.116 263.372 185.238 263.372 221.162C263.372 257.087 234.2 286.209 198.216 286.209Z" fill="black"/>
<path opacity="0.1" d="M274.494 286.845C238.509 286.845 209.337 257.723 209.337 221.799C209.337 185.875 238.509 156.752 274.494 156.752C310.479 156.752 339.65 185.875 339.65 221.799C339.65 257.723 310.479 286.845 274.494 286.845Z" fill="black"/>
<path opacity="0.1" d="M299.287 303.98C263.302 303.98 234.13 274.858 234.13 238.933C234.13 203.009 263.302 173.887 299.287 173.887C335.271 173.887 364.443 203.009 364.443 238.933C364.443 274.858 335.271 303.98 299.287 303.98Z" fill="black"/>
<path opacity="0.1" d="M341.243 309.694C305.259 309.694 276.087 280.571 276.087 244.647C276.087 208.723 305.259 179.601 341.243 179.601C377.228 179.601 406.4 208.723 406.4 244.647C406.4 280.571 377.228 309.694 341.243 309.694Z" fill="black"/>
<path opacity="0.1" d="M358.407 258.289C322.422 258.289 293.251 229.167 293.251 193.243C293.251 157.319 322.422 128.197 358.407 128.197C394.392 128.197 423.564 157.319 423.564 193.243C423.564 229.167 394.392 258.289 358.407 258.289Z" fill="black"/>
<path opacity="0.1" d="M339.338 198.632C303.353 198.632 274.182 169.51 274.182 133.586C274.182 97.6618 303.353 68.5396 339.338 68.5396C375.323 68.5396 404.494 97.6618 404.494 133.586C404.494 169.51 375.323 198.632 339.338 198.632Z" fill="black"/>
<path opacity="0.1" d="M303.104 198.632C267.12 198.632 237.948 169.51 237.948 133.586C237.948 97.6618 267.12 68.5396 303.104 68.5396C339.089 68.5396 368.261 97.6618 368.261 133.586C368.261 169.51 339.089 198.632 303.104 198.632Z" fill="black"/>
<path opacity="0.1" d="M282.123 171.979C246.138 171.979 216.967 142.857 216.967 106.933C216.967 71.0085 246.138 41.8862 282.123 41.8862C318.108 41.8862 347.279 71.0085 347.279 106.933C347.279 142.857 318.108 171.979 282.123 171.979Z" fill="black"/>
<path opacity="0.1" d="M228.726 201.171C192.741 201.171 163.569 172.049 163.569 136.124C163.569 100.2 192.741 71.0781 228.726 71.0781C264.71 71.0781 293.882 100.2 293.882 136.124C293.882 172.049 264.71 201.171 228.726 201.171Z" fill="black"/>
<path opacity="0.1" d="M104.13 258.289C68.1453 258.289 38.9739 229.167 38.9739 193.243C38.9739 157.319 68.1453 128.197 104.13 128.197C140.115 128.197 169.286 157.319 169.286 193.243C169.286 229.167 140.115 258.289 104.13 258.289Z" fill="black"/>
<path opacity="0.1" d="M141.638 225.922C105.653 225.922 76.4819 196.799 76.4819 160.875C76.4819 124.951 105.653 95.8291 141.638 95.8291C177.623 95.8291 206.794 124.951 206.794 160.875C206.794 196.799 177.623 225.922 141.638 225.922Z" fill="black"/>
<path opacity="0.1" d="M165.794 193.555C129.809 193.555 100.638 164.432 100.638 128.508C100.638 92.5841 129.809 63.4619 165.794 63.4619C201.779 63.4619 230.95 92.5841 230.95 128.508C230.95 164.432 201.779 193.555 165.794 193.555Z" fill="black"/>
<path opacity="0.1" d="M211.562 144.689C175.577 144.689 146.406 115.567 146.406 79.6425C146.406 43.7184 175.577 14.5962 211.562 14.5962C247.547 14.5962 276.718 43.7184 276.718 79.6425C276.718 115.567 247.547 144.689 211.562 144.689Z" fill="black"/>
<path opacity="0.1" d="M126.38 198.632C90.3952 198.632 61.2237 169.51 61.2237 133.586C61.2237 97.6618 90.3952 68.5396 126.38 68.5396C162.365 68.5396 191.536 97.6618 191.536 133.586C191.536 169.51 162.365 198.632 126.38 198.632Z" fill="black"/>
</g>
<path d="M161.103 352.922C161.103 352.922 121.269 319.499 140.975 271.906L160.682 264.538L182.065 330.258L161.103 352.922Z" fill="#67647E"/>
<path opacity="0.1" d="M158.98 262.272L154.264 264.034L175.258 328.559L156.941 348.36C158.458 349.868 159.401 350.657 159.401 350.657L180.37 327.993L158.98 262.272Z" fill="black"/>
<path d="M220.169 497C101.106 497 4.58679 470.468 4.58679 437.74C4.58679 405.011 101.106 378.479 220.169 378.479C339.232 378.479 435.752 405.011 435.752 437.74C435.752 470.468 339.232 497 220.169 497Z" fill="#F7F8EB"/>
<path d="M85.6534 345.91C85.6534 345.91 98.6108 358.846 91.294 378.042C83.9772 397.238 103.831 429.154 103.831 429.154L103.193 429.052C76.5839 424.363 63.3588 393.981 78.1581 371.406C83.6904 363.026 88.2092 353.176 85.6534 345.91Z" fill="#B1B834"/>
<path d="M85.6535 345.91C85.6535 345.91 92.9702 361.766 85.6535 374.702C78.3368 387.637 84.3788 423.937 103.837 429.154" stroke="#535461" stroke-miterlimit="10"/>
<path d="M62.575 398.231C62.575 398.231 77.3616 395.883 78.7064 409.111C80.0512 422.339 107.145 424.172 107.145 424.172L106.635 424.509C84.2705 439.143 62.8937 433.843 66.1187 414.386C67.3106 407.152 67.2149 399.885 62.575 398.231Z" fill="#B1B834"/>
<path opacity="0.2" d="M62.575 398.231C62.575 398.231 77.3616 395.883 78.7064 409.111C80.0512 422.339 107.145 424.172 107.145 424.172L106.635 424.509C84.2705 439.143 62.8937 433.843 66.1187 414.386C67.3106 407.152 67.2149 399.885 62.575 398.231Z" fill="#F5F5F5"/>
<path d="M62.575 398.231C62.575 398.231 74.0473 400.776 73.1104 411.166C72.1735 421.557 90.1531 434.072 107.138 424.172" stroke="#535461" stroke-miterlimit="10"/>
<path d="M341.001 283.307L335.826 303.986C335.826 303.986 299.261 308.745 274.883 305.755C270.573 305.145 266.436 303.654 262.728 301.377C260.67 300.162 257.419 299.634 252.977 302.955C245.367 308.682 208.018 354.494 214.067 402.023C214.536 405.605 216.175 408.932 218.729 411.49C221.283 414.048 224.611 415.694 228.197 416.174C235.644 417.187 242.764 419.876 249.019 424.038L267.502 436.325L77.986 432.189L97.661 408.411C97.661 408.411 111.122 397.041 121.479 396.004C124.5 395.705 126.992 392.937 129.006 389.177C140.803 367.13 154.914 346.4 170.211 326.606C181.351 312.188 190.701 296.993 189.828 287.449C187.757 264.703 189.828 227.487 189.828 227.487L229.178 222.32C229.178 222.32 224.003 271.95 271.638 284.351C319.274 296.752 341.001 283.307 341.001 283.307Z" fill="#67647E"/>
<g opacity="0.1">
<path opacity="0.1" d="M308.898 292.616C308.898 292.616 287.151 306.054 239.51 293.647C191.868 281.24 197.049 231.617 197.049 231.617L189.56 232.59C189.701 229.409 189.809 227.5 189.809 227.5L229.159 222.333C229.159 222.333 223.984 271.963 271.619 284.364C319.255 296.765 341.008 283.333 341.008 283.333L335.832 304.012C335.832 304.012 321.862 305.832 305.431 306.513L308.898 292.616Z" fill="black"/>
<path opacity="0.1" d="M216.915 433.341C210.661 429.179 203.541 426.49 196.093 425.477C192.515 425.002 189.193 423.365 186.641 420.818C184.088 418.271 182.446 414.955 181.97 411.383C175.889 363.854 213.257 317.959 220.848 312.258C229.134 306.055 233.276 313.289 233.276 313.289C236.208 314.057 239.19 314.625 242.199 314.988C228.777 332.804 209.573 366.978 214.067 402.075C214.543 405.646 216.185 408.962 218.738 411.509C221.29 414.057 224.612 415.694 228.19 416.168C235.638 417.181 242.758 419.871 249.012 424.033L267.496 436.319L219.847 435.282L216.915 433.341Z" fill="black"/>
</g>
<path d="M309.287 383.616C309.287 383.616 313.245 370.203 308.547 360.328C306.55 356.199 305.949 351.535 306.833 347.036C307.278 344.902 307.918 342.812 308.745 340.794" stroke="#535461" stroke-width="2" stroke-miterlimit="10"/>
<path d="M305.788 334.553C305.788 336.195 308.771 340.967 308.771 340.967C308.771 340.967 311.734 336.195 311.734 334.553C311.734 333.763 311.42 333.006 310.861 332.447C310.301 331.889 309.543 331.575 308.751 331.575C307.96 331.575 307.202 331.889 306.642 332.447C306.083 333.006 305.769 333.763 305.769 334.553H305.788Z" fill="#B1B834"/>
<path d="M300.855 343.658C301.747 345.039 306.846 347.425 306.846 347.425C306.846 347.425 306.75 341.806 305.858 340.426C305.651 340.085 305.377 339.789 305.054 339.556C304.73 339.322 304.363 339.156 303.973 339.067C303.584 338.978 303.181 338.968 302.788 339.038C302.395 339.107 302.02 339.255 301.685 339.471C301.35 339.688 301.062 339.97 300.838 340.3C300.614 340.63 300.459 341.002 300.381 341.393C300.304 341.784 300.306 342.186 300.387 342.576C300.468 342.967 300.627 343.337 300.855 343.664V343.658Z" fill="#B1B834"/>
<path d="M301.071 359.209C302.544 359.947 308.146 359.438 308.146 359.438C308.146 359.438 305.227 354.634 303.755 353.896C303.405 353.72 303.024 353.615 302.633 353.586C302.242 353.557 301.85 353.605 301.478 353.728C301.106 353.85 300.762 354.045 300.465 354.3C300.168 354.556 299.925 354.867 299.749 355.216C299.573 355.565 299.467 355.946 299.438 356.336C299.409 356.726 299.458 357.118 299.58 357.489C299.703 357.86 299.898 358.204 300.154 358.5C300.41 358.796 300.721 359.039 301.071 359.215V359.209Z" fill="#B1B834"/>
<path d="M303.888 370.96C305.214 371.94 310.823 372.379 310.823 372.379C310.823 372.379 308.758 367.149 307.432 366.175C306.795 365.744 306.015 365.575 305.256 365.705C304.497 365.834 303.817 366.251 303.36 366.87C302.902 367.488 302.701 368.259 302.8 369.021C302.898 369.784 303.288 370.478 303.888 370.96Z" fill="#B1B834"/>
<path d="M313.111 347.756C311.932 348.901 306.425 350.091 306.425 350.091C306.425 350.091 307.77 344.632 308.974 343.486C309.546 342.963 310.3 342.683 311.076 342.705C311.852 342.728 312.588 343.051 313.129 343.607C313.669 344.162 313.972 344.906 313.972 345.681C313.972 346.456 313.67 347.2 313.13 347.756H313.111Z" fill="#B1B834"/>
<path d="M316.234 361.512C314.762 362.25 309.159 361.741 309.159 361.741C309.159 361.741 312.078 356.937 313.551 356.199C314.257 355.844 315.076 355.783 315.827 356.031C316.579 356.279 317.2 356.814 317.556 357.519C317.912 358.225 317.973 359.042 317.725 359.792C317.477 360.542 316.94 361.163 316.234 361.518V361.512Z" fill="#B1B834"/>
<path d="M317.432 375.313C316.106 376.293 310.498 376.732 310.498 376.732C310.498 376.732 312.563 371.501 313.888 370.528C314.526 370.096 315.305 369.928 316.065 370.057C316.824 370.187 317.503 370.604 317.961 371.222C318.419 371.84 318.619 372.611 318.521 373.374C318.422 374.136 318.032 374.831 317.432 375.313Z" fill="#B1B834"/>
<path d="M317.897 382.306C317.897 382.306 310.663 380.861 308.739 378.933C306.814 377.005 298.133 373.639 297.164 376.045C296.196 378.45 284.143 386.632 292.346 388.077C300.549 389.521 311.632 389.985 314.016 389.037C316.4 388.089 317.897 382.306 317.897 382.306Z" fill="#A8A8A8"/>
<path opacity="0.2" d="M292.34 387.205C300.536 388.649 311.626 389.113 314.009 388.165C315.845 387.434 317.12 383.909 317.623 382.273L317.865 382.324C317.865 382.324 316.419 388.102 314.009 389.062C311.6 390.023 300.51 389.546 292.34 388.102C289.975 387.682 289.299 386.708 289.554 385.468C289.758 386.257 290.58 386.88 292.34 387.205Z" fill="black"/>
<path d="M197.967 427.582C197.967 427.582 176.023 423.198 170.166 417.357C164.309 411.516 137.98 401.292 135.054 408.596C132.129 415.9 95.5387 440.728 120.395 445.112C145.252 449.496 178.917 450.953 186.234 448.032C193.55 445.112 197.967 427.582 197.967 427.582Z" fill="#A8A8A8"/>
<path opacity="0.2" d="M120.421 442.395C145.278 446.779 178.942 448.236 186.259 445.315C191.83 443.088 195.705 432.399 197.234 427.43L197.967 427.582C197.967 427.582 193.576 445.112 186.266 448.032C178.955 450.953 145.297 449.496 120.427 445.112C113.244 443.839 111.192 440.874 111.97 437.12C112.575 439.57 115.08 441.459 120.421 442.395Z" fill="black"/>
<path d="M49.4393 303.089C49.5206 305.704 50.3403 308.243 51.8039 310.413C53.2788 308.25 54.1116 305.716 54.2067 303.102C54.2067 299.062 53.1614 295.785 51.8421 295.778C50.5228 295.772 49.452 299.049 49.4393 303.089Z" fill="#B1B834"/>
<path d="M229.357 299.539C229.445 302.153 230.271 304.69 231.74 306.856C233.21 304.69 234.036 302.153 234.124 299.539C234.124 295.498 233.06 292.222 231.74 292.222C230.421 292.222 229.357 295.498 229.357 299.539Z" fill="#B1B834"/>
<path d="M33.2695 371.641C31.8003 373.808 30.974 376.344 30.8858 378.959C33.3506 378.07 35.5136 376.504 37.1256 374.441C39.5094 371.171 40.5738 367.894 39.5094 367.124C38.445 366.354 35.6469 368.377 33.2695 371.641Z" fill="#B1B834"/>
<path d="M109.407 333.331C109.495 335.946 110.322 338.482 111.791 340.649C113.26 338.482 114.087 335.946 114.175 333.331C114.175 329.291 113.11 326.014 111.791 326.014C110.472 326.014 109.407 329.304 109.407 333.331Z" fill="#B1B834"/>
<path d="M153.945 309.026C154.033 311.64 154.86 314.177 156.329 316.343C157.798 314.177 158.625 311.64 158.713 309.026C158.713 304.985 157.648 301.708 156.329 301.708C155.01 301.708 153.945 304.985 153.945 309.026Z" fill="#B1B834"/>
<path d="M181.575 323.844C180.349 326.157 179.804 328.769 180 331.378C182.363 330.231 184.352 328.44 185.736 326.211C187.75 322.705 188.452 319.333 187.311 318.678C186.17 318.022 183.582 320.338 181.575 323.844Z" fill="#B1B834"/>
<path d="M202.218 391.06C204.189 392.785 206.609 393.919 209.197 394.331C208.619 391.78 207.331 389.444 205.482 387.593C202.531 384.831 199.401 383.368 198.503 384.322C197.604 385.276 199.267 388.299 202.218 391.06Z" fill="#B1B834"/>
<path opacity="0.1" d="M202.218 391.06C204.189 392.785 206.609 393.919 209.197 394.331C208.619 391.78 207.331 389.444 205.482 387.593C202.531 384.831 199.401 383.368 198.503 384.322C197.604 385.276 199.267 388.299 202.218 391.06Z" fill="black"/>
<path d="M158.872 386.912C160.843 388.637 163.263 389.77 165.851 390.182C165.273 387.632 163.985 385.296 162.135 383.444C159.185 380.683 156.055 379.219 155.157 380.174C154.258 381.128 155.921 384.144 158.872 386.912Z" fill="#B1B834"/>
<path opacity="0.1" d="M158.872 386.912C160.843 388.637 163.263 389.77 165.851 390.182C165.273 387.632 163.985 385.296 162.135 383.444C159.185 380.683 156.055 379.219 155.157 380.174C154.258 381.128 155.921 384.144 158.872 386.912Z" fill="black"/>
<path d="M150.561 430.777C152.532 432.502 154.952 433.635 157.54 434.047C156.964 431.489 155.673 429.146 153.818 427.29C150.867 424.528 147.738 423.065 146.839 424.019C145.94 424.974 147.604 428.009 150.561 430.777Z" fill="#B1B834"/>
<path opacity="0.1" d="M150.561 430.777C152.532 432.502 154.952 433.635 157.54 434.047C156.964 431.489 155.673 429.146 153.818 427.29C150.867 424.528 147.738 423.065 146.839 424.019C145.94 424.974 147.604 428.009 150.561 430.777Z" fill="black"/>
<path d="M411.756 398.322C406.024 406.714 407.853 436.758 407.853 436.758C407.853 436.758 436.664 427.298 442.396 418.91C445.149 414.88 446.174 409.931 445.247 405.152C444.32 400.372 441.517 396.153 437.453 393.424C433.389 390.694 428.399 389.677 423.579 390.597C418.759 391.516 414.505 394.296 411.753 398.326L411.756 398.322Z" fill="#B1B834"/>
<path opacity="0.1" d="M411.756 398.322C406.024 406.714 407.853 436.758 407.853 436.758C407.853 436.758 436.664 427.298 442.396 418.91C445.149 414.88 446.174 409.931 445.247 405.152C444.32 400.372 441.517 396.153 437.453 393.424C433.389 390.694 428.399 389.677 423.579 390.597C418.759 391.516 414.505 394.296 411.753 398.326L411.756 398.322Z" fill="black"/>
<path d="M437.062 393.54C437.062 393.54 415.557 410.022 407.575 436.757" stroke="#535461" stroke-miterlimit="10"/>
<path d="M402.387 413.916C402.387 413.916 417.619 411.291 407.217 436.758C407.217 436.758 396.633 432.685 395.808 422.552C395.645 420.581 396.203 418.617 397.377 417.033C398.551 415.45 400.26 414.355 402.179 413.957L402.387 413.916Z" fill="#B1B834"/>
<path d="M402.227 413.839C402.227 413.839 399.147 427.951 407.575 436.758" stroke="#535461" stroke-miterlimit="10"/>
<path d="M85.1498 427.665C85.1498 427.665 74.2447 425.502 71.3384 422.619C68.4321 419.737 55.3409 414.692 53.8878 418.293C52.4346 421.894 34.2574 434.149 46.6157 436.306C58.9739 438.463 75.6979 439.188 79.3308 437.75C82.9637 436.312 85.1498 427.665 85.1498 427.665Z" fill="#A8A8A8"/>
<path opacity="0.2" d="M46.5967 434.976C58.9548 437.139 75.6789 437.858 79.3117 436.42C82.0778 435.32 84.0027 430.058 84.7675 427.595L85.1307 427.672C85.1307 427.672 82.951 436.319 79.3117 437.763C75.6725 439.207 58.9548 438.482 46.5967 436.319C43.0275 435.682 42.0078 434.232 42.3902 432.374C42.7152 433.576 43.958 434.512 46.5967 434.976Z" fill="black"/>
<path d="M128.923 289.384C92.9383 289.384 63.7668 260.261 63.7668 224.337C63.7668 188.413 92.9383 159.291 128.923 159.291C164.908 159.291 194.079 188.413 194.079 224.337C194.079 260.261 164.908 289.384 128.923 289.384Z" fill="#B1B834"/>
<path d="M198.216 271.613C162.231 271.613 133.06 242.49 133.06 206.566C133.06 170.642 162.231 141.52 198.216 141.52C234.201 141.52 263.372 170.642 263.372 206.566C263.372 242.49 234.201 271.613 198.216 271.613Z" fill="#B1B834"/>
<path d="M274.494 272.249C238.509 272.249 209.338 243.127 209.338 207.203C209.338 171.278 238.509 142.156 274.494 142.156C310.479 142.156 339.65 171.278 339.65 207.203C339.65 243.127 310.479 272.249 274.494 272.249Z" fill="#B1B834"/>
<path d="M299.287 289.384C263.302 289.384 234.13 260.261 234.13 224.337C234.13 188.413 263.302 159.291 299.287 159.291C335.271 159.291 364.443 188.413 364.443 224.337C364.443 260.261 335.271 289.384 299.287 289.384Z" fill="#B1B834"/>
<path d="M341.243 295.097C305.259 295.097 276.087 265.975 276.087 230.051C276.087 194.127 305.259 165.005 341.243 165.005C377.228 165.005 406.4 194.127 406.4 230.051C406.4 265.975 377.228 295.097 341.243 295.097Z" fill="#B1B834"/>
<path d="M358.407 243.693C322.422 243.693 293.251 214.571 293.251 178.647C293.251 142.723 322.422 113.601 358.407 113.601C394.392 113.601 423.564 142.723 423.564 178.647C423.564 214.571 394.392 243.693 358.407 243.693Z" fill="#B1B834"/>
<path d="M339.338 184.036C303.353 184.036 274.182 154.914 274.182 118.99C274.182 83.0656 303.353 53.9434 339.338 53.9434C375.323 53.9434 404.494 83.0656 404.494 118.99C404.494 154.914 375.323 184.036 339.338 184.036Z" fill="#B1B834"/>
<path d="M303.104 184.036C267.12 184.036 237.948 154.914 237.948 118.99C237.948 83.0656 267.12 53.9434 303.104 53.9434C339.089 53.9434 368.261 83.0656 368.261 118.99C368.261 154.914 339.089 184.036 303.104 184.036Z" fill="#B1B834"/>
<path d="M282.123 157.383C246.138 157.383 216.967 128.26 216.967 92.3363C216.967 56.4123 246.138 27.29 282.123 27.29C318.108 27.29 347.279 56.4123 347.279 92.3363C347.279 128.26 318.108 157.383 282.123 157.383Z" fill="#B1B834"/>
<path d="M228.726 186.575C192.741 186.575 163.57 157.452 163.57 121.528C163.57 85.6042 192.741 56.4819 228.726 56.4819C264.711 56.4819 293.882 85.6042 293.882 121.528C293.882 157.452 264.711 186.575 228.726 186.575Z" fill="#B1B834"/>
<path d="M104.13 243.693C68.1455 243.693 38.974 214.571 38.974 178.647C38.974 142.723 68.1455 113.601 104.13 113.601C140.115 113.601 169.287 142.723 169.287 178.647C169.287 214.571 140.115 243.693 104.13 243.693Z" fill="#B1B834"/>
<path d="M141.638 211.326C105.653 211.326 76.4819 182.203 76.4819 146.279C76.4819 110.355 105.653 81.2329 141.638 81.2329C177.623 81.2329 206.794 110.355 206.794 146.279C206.794 182.203 177.623 211.326 141.638 211.326Z" fill="#B1B834"/>
<path d="M165.794 178.958C129.809 178.958 100.638 149.836 100.638 113.912C100.638 77.9879 129.809 48.8657 165.794 48.8657C201.779 48.8657 230.95 77.9879 230.95 113.912C230.95 149.836 201.779 178.958 165.794 178.958Z" fill="#B1B834"/>
<path d="M211.562 130.093C175.577 130.093 146.406 100.97 146.406 65.0463C146.406 29.1222 175.577 0 211.562 0C247.547 0 276.718 29.1222 276.718 65.0463C276.718 100.97 247.547 130.093 211.562 130.093Z" fill="#B1B834"/>
<path d="M126.38 184.036C90.3953 184.036 61.2238 154.914 61.2238 118.99C61.2238 83.0656 90.3953 53.9434 126.38 53.9434C162.365 53.9434 191.536 83.0656 191.536 118.99C191.536 154.914 162.365 184.036 126.38 184.036Z" fill="#B1B834"/>
<path opacity="0.1" d="M64.0536 129.177C64.0536 129.177 124.736 100.449 161.453 151.364L64.0536 129.177Z" fill="black"/>
<path opacity="0.1" d="M223.442 70.9765C223.442 70.9765 290.568 68.9532 303.748 130.29L223.442 70.9765Z" fill="black"/>
<path opacity="0.1" d="M306.884 204.059C306.884 204.059 367.566 175.325 404.284 226.227L306.884 204.059Z" fill="black"/>
<path d="M354.62 401.398C354.62 401.398 352.525 404.129 355.589 408.244C358.654 412.36 361.181 415.852 360.17 418.423C360.17 418.423 355.547 410.762 351.773 410.656C347.998 410.549 350.483 406.004 354.62 401.398Z" fill="#B1B834"/>
<path opacity="0.1" d="M354.682 401.398C354.498 401.661 354.352 401.949 354.25 402.253C350.536 406.547 348.556 410.556 352.127 410.659C355.451 410.754 359.442 416.606 360.396 418.085C360.365 418.199 360.328 418.312 360.284 418.423C360.284 418.423 355.609 410.769 351.791 410.663C347.973 410.556 350.498 406 354.682 401.398Z" fill="black"/>
<path d="M350.567 405.189C350.567 405.989 350.713 406.636 350.895 406.636C351.077 406.636 351.222 406.004 351.222 405.189C351.222 404.374 351.04 404.766 350.858 404.766C350.676 404.766 350.567 404.39 350.567 405.189Z" fill="#FFD037"/>
<path d="M349.725 405.989C350.492 406.449 351.163 406.727 351.219 406.609C351.274 406.491 350.7 406.023 349.932 405.562C349.164 405.102 349.469 405.437 349.41 405.562C349.351 405.688 348.957 405.543 349.725 405.989Z" fill="#FFD037"/>
<path d="M365.516 401.398C365.516 401.398 367.612 404.129 364.547 408.244C361.482 412.36 358.956 415.852 359.967 418.423C359.967 418.423 364.589 410.762 368.363 410.656C372.138 410.549 369.657 406.004 365.516 401.398Z" fill="#B1B834"/>
<path opacity="0.1" d="M365.454 401.398C365.638 401.661 365.784 401.949 365.886 402.253C369.6 406.547 371.58 410.556 368.009 410.659C364.686 410.754 360.694 416.606 359.741 418.085C359.772 418.199 359.809 418.312 359.853 418.423C359.853 418.423 364.527 410.769 368.345 410.663C372.163 410.556 369.642 406 365.454 401.398Z" fill="black"/>
<path d="M370.416 405.989C369.646 406.449 368.974 406.727 368.918 406.609C368.863 406.491 369.438 406.023 370.208 405.562C370.978 405.102 370.673 405.437 370.732 405.562C370.791 405.688 371.172 405.543 370.416 405.989Z" fill="#FFD037"/>
<path d="M368.259 418.146C368.259 418.146 362.624 417.977 360.922 416.785C359.22 415.594 352.253 414.175 351.835 416.081C351.416 417.987 343.367 425.574 349.729 425.624C356.09 425.675 364.51 424.649 366.205 423.631C367.9 422.613 368.259 418.146 368.259 418.146Z" fill="#A8A8A8"/>
<path opacity="0.2" d="M349.615 424.934C355.978 424.987 364.399 423.91 366.094 422.841C367.386 422.03 367.9 419.114 368.072 417.768H368.259C368.259 417.768 367.892 422.466 366.208 423.531C364.524 424.596 356.091 425.677 349.728 425.624C347.894 425.624 347.259 424.934 347.292 423.933C347.545 424.543 348.239 424.923 349.615 424.934Z" fill="black"/>
<path d="M401.161 454.738C400.49 454.185 400.001 453.44 399.759 452.6C399.576 451.75 399.935 450.733 400.74 450.422C401.641 450.075 402.604 450.703 403.332 451.343C404.061 451.983 404.899 452.708 405.855 452.571C405.364 452.121 404.996 451.551 404.789 450.915C404.581 450.279 404.539 449.6 404.669 448.943C404.71 448.671 404.824 448.415 404.998 448.204C405.5 447.664 406.404 447.897 407.005 448.322C408.909 449.675 409.44 452.286 409.451 454.638C409.641 453.791 409.48 452.907 409.487 452.049C409.494 451.191 409.729 450.2 410.454 449.749C410.903 449.505 411.408 449.384 411.918 449.398C412.775 449.365 413.727 449.453 414.313 450.086C415.045 450.87 414.851 452.19 414.218 453.044C413.584 453.898 412.625 454.449 411.739 455.048C411.029 455.475 410.423 456.058 409.967 456.753C409.913 456.85 409.869 456.951 409.835 457.056H404.471C403.269 456.438 402.156 455.658 401.161 454.738Z" fill="#B1B834"/>
<path d="M71.8103 465.937C70.6421 464.987 69.7908 463.704 69.3692 462.26C69.0505 460.796 69.6751 459.046 71.0773 458.512C72.6452 457.914 74.3214 458.995 75.5897 460.096C76.858 461.197 78.3176 462.444 79.9811 462.209C79.1261 461.435 78.4865 460.453 78.1246 459.359C77.7627 458.265 77.6908 457.097 77.916 455.967C77.988 455.498 78.1863 455.059 78.4897 454.694C79.3628 453.765 80.9371 454.166 81.9823 454.898C85.2966 457.227 86.2207 461.719 86.2398 465.765C86.5712 464.308 86.2908 462.788 86.3036 461.311C86.3163 459.835 86.7242 458.13 87.9861 457.354C88.7687 456.934 89.6475 456.726 90.5355 456.749C92.0269 456.692 93.6841 456.845 94.7038 457.933C95.9785 459.282 95.6407 461.553 94.5381 463.023C93.4355 464.493 91.7656 465.441 90.2232 466.472C88.9871 467.205 87.9327 468.208 87.1385 469.405C87.0451 469.571 86.9682 469.746 86.909 469.927H77.5719C75.4798 468.862 73.5417 467.52 71.8103 465.937Z" fill="#B1B834"/>
<g opacity="0.05">
<path opacity="0.05" d="M199.503 371.209L200.593 370.846L205.615 365.062C205.517 364.788 205.506 364.49 205.583 364.209L199.503 371.209Z" fill="black"/>
<path opacity="0.05" d="M192.505 381.923C193.926 381.319 195.127 380.292 195.945 378.984C196.762 377.675 197.157 376.147 197.075 374.606C197.075 374.409 197.075 374.225 197.075 374.046L196.973 374.167L192.983 375.497C193.298 376.269 193.458 377.094 193.455 377.928C193.495 379.32 193.167 380.698 192.505 381.923Z" fill="black"/>
</g>
<path opacity="0.1" d="M250.319 442.732C252.537 441.032 255.005 439.686 257.636 438.743C260.145 437.887 262.509 436.656 264.647 435.09" fill="black"/>
<path opacity="0.05" d="M295.118 469.086C295.165 469.286 295.218 469.483 295.278 469.678C295.603 469.494 296.068 469.137 295.118 469.086Z" fill="#00FF00"/>
<path opacity="0.2" d="M321.294 476.766C317.885 478.312 292.25 473.808 288.79 473.184C288.72 473.514 288.585 473.828 288.394 474.107C288.394 474.107 317.661 479.42 321.32 477.759C323.232 476.906 323.672 475.786 323.417 474.768C323.206 475.481 322.607 476.187 321.294 476.766Z" fill="white"/>
</g>
<defs>
<clipPath id="clip0">
<rect width="728" height="497" transform="matrix(-1 0 0 1 728 0)" fill="white"/>
</clipPath>
</defs>
</svg>
