<svg width="714" height="782" viewBox="0 0 714 782" fill="none" xmlns="http://www.w3.org/2000/svg">
<g clip-path="url(#clip0)">
<path d="M517.95 477.75C461.49 477.75 415.72 431.98 415.72 375.52C415.72 319.06 461.49 273.29 517.95 273.29C574.41 273.29 620.18 319.06 620.18 375.52C620.18 431.98 574.41 477.75 517.95 477.75Z" fill="#B1B834"/>
<path d="M409.23 449.82C352.77 449.82 307 404.05 307 347.59C307 291.13 352.77 245.36 409.23 245.36C465.69 245.36 511.46 291.13 511.46 347.59C511.46 404.05 465.69 449.82 409.23 449.82Z" fill="#B1B834"/>
<path d="M289.55 450.82C233.09 450.82 187.32 405.05 187.32 348.59C187.32 292.13 233.09 246.36 289.55 246.36C346.01 246.36 391.78 292.13 391.78 348.59C391.78 405.05 346.01 450.82 289.55 450.82Z" fill="#B1B834"/>
<path d="M250.65 477.75C194.19 477.75 148.42 431.98 148.42 375.52C148.42 319.06 194.19 273.29 250.65 273.29C307.11 273.29 352.88 319.06 352.88 375.52C352.88 431.98 307.11 477.75 250.65 477.75Z" fill="#B1B834"/>
<path d="M184.82 486.73C128.36 486.73 82.59 440.96 82.59 384.5C82.59 328.04 128.36 282.27 184.82 282.27C241.28 282.27 287.05 328.04 287.05 384.5C287.05 440.96 241.28 486.73 184.82 486.73Z" fill="#B1B834"/>
<path d="M157.89 405.94C101.43 405.94 55.66 360.17 55.66 303.71C55.66 247.25 101.43 201.48 157.89 201.48C214.35 201.48 260.12 247.25 260.12 303.71C260.12 360.17 214.35 405.94 157.89 405.94Z" fill="#B1B834"/>
<path d="M187.81 312.18C131.35 312.18 85.58 266.41 85.58 209.95C85.58 153.49 131.35 107.72 187.81 107.72C244.27 107.72 290.04 153.49 290.04 209.95C290.04 266.41 244.27 312.18 187.81 312.18Z" fill="#B1B834"/>
<path d="M244.66 312.18C188.2 312.18 142.43 266.41 142.43 209.95C142.43 153.49 188.2 107.72 244.66 107.72C301.12 107.72 346.89 153.49 346.89 209.95C346.89 266.41 301.12 312.18 244.66 312.18Z" fill="#B1B834"/>
<path d="M277.58 270.29C221.12 270.29 175.35 224.52 175.35 168.06C175.35 111.6 221.12 65.8301 277.58 65.8301C334.04 65.8301 379.81 111.6 379.81 168.06C379.81 224.52 334.04 270.29 277.58 270.29Z" fill="#B1B834"/>
<path d="M361.36 316.17C304.9 316.17 259.13 270.4 259.13 213.94C259.13 157.48 304.9 111.71 361.36 111.71C417.82 111.71 463.59 157.48 463.59 213.94C463.59 270.4 417.82 316.17 361.36 316.17Z" fill="#B1B834"/>
<path d="M556.85 405.94C500.39 405.94 454.62 360.17 454.62 303.71C454.62 247.25 500.39 201.48 556.85 201.48C613.31 201.48 659.08 247.25 659.08 303.71C659.08 360.17 613.31 405.94 556.85 405.94Z" fill="#B1B834"/>
<path d="M498 355.07C441.54 355.07 395.77 309.3 395.77 252.84C395.77 196.38 441.54 150.61 498 150.61C554.46 150.61 600.23 196.38 600.23 252.84C600.23 309.3 554.46 355.07 498 355.07Z" fill="#B1B834"/>
<path d="M460.1 304.2C403.64 304.2 357.87 258.43 357.87 201.97C357.87 145.51 403.64 99.7402 460.1 99.7402C516.56 99.7402 562.33 145.51 562.33 201.97C562.33 258.43 516.56 304.2 460.1 304.2Z" fill="#B1B834"/>
<path d="M388.29 227.4C331.83 227.4 286.06 181.63 286.06 125.17C286.06 68.7099 331.83 22.9399 388.29 22.9399C444.75 22.9399 490.52 68.7099 490.52 125.17C490.52 181.63 444.75 227.4 388.29 227.4Z" fill="#B1B834"/>
<path d="M521.94 312.18C465.48 312.18 419.71 266.41 419.71 209.95C419.71 153.49 465.48 107.72 521.94 107.72C578.4 107.72 624.17 153.49 624.17 209.95C624.17 266.41 578.4 312.18 521.94 312.18Z" fill="#B1B834"/>
<g opacity="0.1">
<path opacity="0.1" d="M517.95 477.75C461.49 477.75 415.72 431.98 415.72 375.52C415.72 319.06 461.49 273.29 517.95 273.29C574.41 273.29 620.18 319.06 620.18 375.52C620.18 431.98 574.41 477.75 517.95 477.75Z" fill="black"/>
<path opacity="0.1" d="M409.23 449.82C352.77 449.82 307 404.05 307 347.59C307 291.13 352.77 245.36 409.23 245.36C465.69 245.36 511.46 291.13 511.46 347.59C511.46 404.05 465.69 449.82 409.23 449.82Z" fill="black"/>
<path opacity="0.1" d="M289.55 450.82C233.09 450.82 187.32 405.05 187.32 348.59C187.32 292.13 233.09 246.36 289.55 246.36C346.01 246.36 391.78 292.13 391.78 348.59C391.78 405.05 346.01 450.82 289.55 450.82Z" fill="black"/>
<path opacity="0.1" d="M250.65 477.75C194.19 477.75 148.42 431.98 148.42 375.52C148.42 319.06 194.19 273.29 250.65 273.29C307.11 273.29 352.88 319.06 352.88 375.52C352.88 431.98 307.11 477.75 250.65 477.75Z" fill="black"/>
<path opacity="0.1" d="M184.82 486.73C128.36 486.73 82.59 440.96 82.59 384.5C82.59 328.04 128.36 282.27 184.82 282.27C241.28 282.27 287.05 328.04 287.05 384.5C287.05 440.96 241.28 486.73 184.82 486.73Z" fill="black"/>
<path opacity="0.1" d="M157.89 405.94C101.43 405.94 55.66 360.17 55.66 303.71C55.66 247.25 101.43 201.48 157.89 201.48C214.35 201.48 260.12 247.25 260.12 303.71C260.12 360.17 214.35 405.94 157.89 405.94Z" fill="black"/>
<path opacity="0.1" d="M187.81 312.18C131.35 312.18 85.58 266.41 85.58 209.95C85.58 153.49 131.35 107.72 187.81 107.72C244.27 107.72 290.04 153.49 290.04 209.95C290.04 266.41 244.27 312.18 187.81 312.18Z" fill="black"/>
<path opacity="0.1" d="M244.66 312.18C188.2 312.18 142.43 266.41 142.43 209.95C142.43 153.49 188.2 107.72 244.66 107.72C301.12 107.72 346.89 153.49 346.89 209.95C346.89 266.41 301.12 312.18 244.66 312.18Z" fill="black"/>
<path opacity="0.1" d="M277.58 270.29C221.12 270.29 175.35 224.52 175.35 168.06C175.35 111.6 221.12 65.8301 277.58 65.8301C334.04 65.8301 379.81 111.6 379.81 168.06C379.81 224.52 334.04 270.29 277.58 270.29Z" fill="black"/>
<path opacity="0.1" d="M361.36 316.17C304.9 316.17 259.13 270.4 259.13 213.94C259.13 157.48 304.9 111.71 361.36 111.71C417.82 111.71 463.59 157.48 463.59 213.94C463.59 270.4 417.82 316.17 361.36 316.17Z" fill="black"/>
<path opacity="0.1" d="M556.85 405.94C500.39 405.94 454.62 360.17 454.62 303.71C454.62 247.25 500.39 201.48 556.85 201.48C613.31 201.48 659.08 247.25 659.08 303.71C659.08 360.17 613.31 405.94 556.85 405.94Z" fill="black"/>
<path opacity="0.1" d="M498 355.07C441.54 355.07 395.77 309.3 395.77 252.84C395.77 196.38 441.54 150.61 498 150.61C554.46 150.61 600.23 196.38 600.23 252.84C600.23 309.3 554.46 355.07 498 355.07Z" fill="black"/>
<path opacity="0.1" d="M460.1 304.2C403.64 304.2 357.87 258.43 357.87 201.97C357.87 145.51 403.64 99.7397 460.1 99.7397C516.56 99.7397 562.33 145.51 562.33 201.97C562.33 258.43 516.56 304.2 460.1 304.2Z" fill="black"/>
<path opacity="0.1" d="M388.29 227.4C331.83 227.4 286.06 181.63 286.06 125.17C286.06 68.7099 331.83 22.9399 388.29 22.9399C444.75 22.9399 490.52 68.7099 490.52 125.17C490.52 181.63 444.75 227.4 388.29 227.4Z" fill="black"/>
<path opacity="0.1" d="M521.94 312.18C465.48 312.18 419.71 266.41 419.71 209.95C419.71 153.49 465.48 107.72 521.94 107.72C578.4 107.72 624.17 153.49 624.17 209.95C624.17 266.41 578.4 312.18 521.94 312.18Z" fill="black"/>
</g>
<path d="M467.46 554.67C467.46 554.67 530 502.13 499 427.34L468.08 415.76L434.56 519.05L467.46 554.67Z" fill="#67647E"/>
<path opacity="0.1" d="M470.79 412.2L478.19 414.97L445.25 516.38L474 547.5C471.62 549.87 470.14 551.11 470.14 551.11L437.24 515.49L470.79 412.2Z" fill="black"/>
<path d="M387.93 781.1C207.846 781.1 61.86 739.391 61.86 687.94C61.86 636.489 207.846 594.78 387.93 594.78C568.013 594.78 714 636.489 714 687.94C714 739.391 568.013 781.1 387.93 781.1Z" fill="#F7F8EB"/>
<path d="M585.84 543.65C585.84 543.65 565.51 563.98 576.99 594.15C588.47 624.32 557.32 674.48 557.32 674.48L558.32 674.32C600.07 666.95 620.82 619.2 597.6 583.72C588.91 570.55 581.83 555.07 585.84 543.65Z" fill="#B1B834"/>
<path d="M585.84 543.65C585.84 543.65 574.36 568.57 585.84 588.9C597.32 609.23 587.84 666.28 557.31 674.48" stroke="#535461" stroke-miterlimit="10"/>
<path d="M622 625.88C622 625.88 598.8 622.19 596.69 642.98C594.58 663.77 552.08 666.65 552.08 666.65L552.88 667.18C587.97 690.18 621.51 681.85 616.45 651.27C614.61 639.9 614.77 628.48 622 625.88Z" fill="#B1B834"/>
<path opacity="0.2" d="M622 625.88C622 625.88 598.8 622.19 596.69 642.98C594.58 663.77 552.08 666.65 552.08 666.65L552.88 667.18C587.97 690.18 621.51 681.85 616.45 651.27C614.61 639.9 614.77 628.48 622 625.88Z" fill="#F5F5F5"/>
<path d="M622 625.88C622 625.88 604 629.88 605.47 646.21C606.94 662.54 578.73 682.21 552.08 666.65" stroke="#535461" stroke-miterlimit="10"/>
<path d="M185.19 445.26L193.31 477.76C193.31 477.76 250.68 485.24 288.93 480.54C295.692 479.581 302.183 477.239 308 473.66C311.23 471.75 316.33 470.92 323.3 476.14C335.24 485.14 393.84 557.14 384.35 631.84C383.613 637.468 381.042 642.697 377.035 646.718C373.027 650.738 367.806 653.325 362.18 654.08C350.494 655.672 339.323 659.899 329.51 666.44L300.51 685.75L597.86 679.25L567 641.87C567 641.87 545.88 624 529.63 622.37C524.89 621.9 520.98 617.55 517.82 611.64C499.31 576.99 477.17 544.41 453.17 513.3C435.69 490.64 421.02 466.76 422.39 451.76C425.64 416.01 422.39 357.52 422.39 357.52L360.65 349.4C360.65 349.4 368.77 427.4 294.03 446.89C219.29 466.38 185.19 445.26 185.19 445.26Z" fill="#67647E"/>
<g opacity="0.1">
<path opacity="0.1" d="M235.56 459.89C235.56 459.89 269.69 481.01 344.43 461.55C419.17 442.09 411 364.02 411 364.02L422.81 365.55C422.59 360.55 422.42 357.55 422.42 357.55L360.68 349.43C360.68 349.43 368.8 427.43 294.06 446.92C219.32 466.41 185.19 445.3 185.19 445.3L193.31 477.8C193.31 477.8 215.23 480.66 241.01 481.73L235.56 459.89Z" fill="black"/>
<path opacity="0.1" d="M379.89 681.06C389.703 674.519 400.874 670.293 412.56 668.7C418.174 667.955 423.386 665.382 427.391 661.378C431.396 657.375 433.972 652.164 434.72 646.55C444.26 571.85 385.63 499.72 373.72 490.76C360.72 481.01 354.22 492.38 354.22 492.38C349.619 493.588 344.942 494.48 340.22 495.05C361.28 523.05 391.41 576.76 384.36 631.92C383.612 637.534 381.036 642.745 377.031 646.748C373.026 650.752 367.814 653.325 362.2 654.07C350.514 655.663 339.343 659.889 329.53 666.43L300.53 685.74L375.29 684.11L379.89 681.06Z" fill="black"/>
</g>
<path d="M226.87 682.73C226.87 682.73 214.52 640.8 229.19 609.93C235.425 597.025 237.306 582.445 234.55 568.38C233.19 561.714 231.221 555.187 228.67 548.88" stroke="#535461" stroke-width="2" stroke-miterlimit="10"/>
<path d="M237.78 529.37C237.78 534.51 228.47 549.37 228.47 549.37C228.47 549.37 219.16 534.47 219.16 529.37C219.239 526.955 220.254 524.665 221.991 522.985C223.727 521.305 226.049 520.365 228.465 520.365C230.881 520.365 233.203 521.305 234.939 522.985C236.676 524.665 237.691 526.955 237.77 529.37H237.78Z" fill="#B1B834"/>
<path d="M253.17 557.84C250.38 562.15 234.47 569.61 234.47 569.61C234.47 569.61 234.76 552.04 237.55 547.73C238.935 545.76 241.028 544.404 243.392 543.945C245.755 543.486 248.204 543.96 250.225 545.268C252.246 546.576 253.682 548.617 254.231 550.961C254.78 553.305 254.4 555.77 253.17 557.84Z" fill="#B1B834"/>
<path d="M252.49 606.49C247.9 608.8 230.4 607.21 230.4 607.21C230.4 607.21 239.52 592.21 244.11 589.88C245.205 589.29 246.407 588.925 247.646 588.808C248.884 588.69 250.133 588.822 251.32 589.195C252.506 589.569 253.606 590.176 254.554 590.981C255.502 591.787 256.279 592.774 256.839 593.885C257.399 594.995 257.731 596.207 257.815 597.448C257.898 598.689 257.733 599.934 257.327 601.11C256.922 602.286 256.285 603.369 255.454 604.295C254.623 605.22 253.615 605.97 252.49 606.5V606.49Z" fill="#B1B834"/>
<path d="M243.7 643.18C239.57 646.24 222.05 647.62 222.05 647.62C222.05 647.62 228.5 631.28 232.63 628.22C233.615 627.493 234.733 626.968 235.921 626.673C237.11 626.378 238.344 626.321 239.554 626.503C240.765 626.686 241.928 627.105 242.976 627.736C244.024 628.368 244.938 629.2 245.665 630.185C246.392 631.17 246.918 632.289 247.212 633.477C247.507 634.665 247.565 635.899 247.382 637.11C247.2 638.32 246.781 639.483 246.149 640.531C245.517 641.58 244.685 642.493 243.7 643.22V643.18Z" fill="#B1B834"/>
<path d="M214.92 570.6C218.61 574.18 235.78 577.89 235.78 577.89C235.78 577.89 231.57 560.83 227.89 557.25C226.12 555.526 223.737 554.576 221.266 554.609C218.795 554.642 216.439 555.655 214.715 557.425C212.991 559.195 212.041 561.578 212.074 564.049C212.107 566.519 213.12 568.876 214.89 570.6H214.92Z" fill="#B1B834"/>
<path d="M205.18 613.64C209.77 615.95 227.27 614.36 227.27 614.36C227.27 614.36 218.15 599.36 213.56 597.03C211.365 595.997 208.855 595.861 206.562 596.652C204.269 597.442 202.375 599.096 201.283 601.262C200.191 603.428 199.987 605.934 200.715 608.248C201.443 610.561 203.045 612.499 205.18 613.65V613.64Z" fill="#B1B834"/>
<path d="M201.45 656.78C205.58 659.84 223.1 661.22 223.1 661.22C223.1 661.22 216.65 644.88 212.52 641.82C210.531 640.352 208.04 639.734 205.596 640.103C203.151 640.471 200.953 641.796 199.485 643.785C198.017 645.774 197.399 648.265 197.768 650.709C198.136 653.154 199.461 655.352 201.45 656.82V656.78Z" fill="#B1B834"/>
<path d="M200 678.65C200 678.65 222.57 674.14 228.59 668.12C234.61 662.1 261.69 651.57 264.7 659.12C267.71 666.67 305.32 692.22 279.7 696.74C254.08 701.26 219.52 702.74 211.99 699.74C204.46 696.74 200 678.65 200 678.65Z" fill="#A8A8A8"/>
<path opacity="0.2" d="M279.74 693.91C254.16 698.42 219.56 699.91 212.03 696.91C206.3 694.62 202.32 683.61 200.75 678.48L200 678.64C200 678.64 204.51 696.7 212 699.7C219.49 702.7 254.13 701.2 279.71 696.7C287.09 695.4 289.2 692.34 288.41 688.46C287.81 691 285.24 692.95 279.74 693.91Z" fill="black"/>
<path d="M409.62 672.01C409.62 672.01 444.05 665.12 453.24 655.94C462.43 646.76 503.74 630.69 508.33 642.17C512.92 653.65 570.33 692.67 531.33 699.56C492.33 706.45 439.51 708.74 428.03 704.15C416.55 699.56 409.62 672.01 409.62 672.01Z" fill="#A8A8A8"/>
<path opacity="0.2" d="M531.28 695.29C492.28 702.18 439.46 704.47 427.98 699.88C419.24 696.38 413.16 679.58 410.76 671.77L409.61 672.01C409.61 672.01 416.5 699.55 428 704.15C439.5 708.75 492.28 706.45 531.3 699.56C542.57 697.56 545.79 692.9 544.57 687C543.59 690.85 539.67 693.82 531.28 695.29Z" fill="black"/>
<path d="M642.66 476.35C642.532 480.459 641.246 484.449 638.95 487.86C636.636 484.462 635.329 480.479 635.18 476.37C635.18 470.02 636.82 464.87 638.89 464.86C640.96 464.85 642.64 470 642.66 476.35Z" fill="#B1B834"/>
<path d="M360.37 470.77C360.232 474.879 358.935 478.866 356.63 482.27C354.325 478.866 353.028 474.879 352.89 470.77C352.89 464.42 354.56 459.27 356.63 459.27C358.7 459.27 360.37 464.42 360.37 470.77Z" fill="#B1B834"/>
<path d="M668 584.09C670.305 587.494 671.602 591.481 671.74 595.59C667.873 594.193 664.479 591.732 661.95 588.49C658.21 583.35 656.54 578.2 658.21 576.99C659.88 575.78 664.29 578.96 668 584.09Z" fill="#B1B834"/>
<path d="M548.56 523.88C548.422 527.989 547.125 531.975 544.82 535.38C542.515 531.975 541.218 527.989 541.08 523.88C541.08 517.53 542.75 512.38 544.82 512.38C546.89 512.38 548.56 517.55 548.56 523.88Z" fill="#B1B834"/>
<path d="M478.69 485.68C478.552 489.789 477.255 493.776 474.95 497.18C472.645 493.776 471.348 489.789 471.21 485.68C471.21 479.33 472.88 474.18 474.95 474.18C477.02 474.18 478.69 479.33 478.69 485.68Z" fill="#B1B834"/>
<path d="M435.34 508.97C437.263 512.605 438.119 516.71 437.81 520.81C434.103 519.008 430.983 516.193 428.81 512.69C425.65 507.18 424.55 501.88 426.34 500.85C428.13 499.82 432.18 503.46 435.34 508.97Z" fill="#B1B834"/>
<path d="M95.29 516.43C97.2126 520.065 98.0688 524.169 97.76 528.27C94.0533 526.468 90.9329 523.652 88.76 520.15C85.6 514.64 84.5 509.34 86.29 508.31C88.08 507.28 92.14 510.91 95.29 516.43Z" fill="#B1B834"/>
<path d="M248.08 676.67C250.01 680.317 250.866 684.436 250.55 688.55C246.843 686.748 243.723 683.932 241.55 680.43C238.39 674.92 237.29 669.62 239.08 668.59C240.87 667.56 244.92 671.16 248.08 676.67Z" fill="#B1B834"/>
<path d="M402.95 614.61C399.856 617.317 396.06 619.096 392 619.74C392.907 615.731 394.928 612.06 397.83 609.15C402.46 604.81 407.37 602.51 408.78 604.01C410.19 605.51 407.58 610.27 402.95 614.61Z" fill="#B1B834"/>
<path opacity="0.1" d="M402.95 614.61C399.856 617.317 396.06 619.096 392 619.74C392.907 615.731 394.928 612.06 397.83 609.15C402.46 604.81 407.37 602.51 408.78 604.01C410.19 605.51 407.58 610.27 402.95 614.61Z" fill="black"/>
<path d="M471 608.09C467.892 610.806 464.078 612.585 460 613.22C460.907 609.211 462.928 605.54 465.83 602.63C470.46 598.29 475.37 595.99 476.78 597.49C478.19 598.99 475.59 603.74 471 608.09Z" fill="#B1B834"/>
<path opacity="0.1" d="M471 608.09C467.892 610.806 464.078 612.585 460 613.22C460.907 609.211 462.928 605.54 465.83 602.63C470.46 598.29 475.37 595.99 476.78 597.49C478.19 598.99 475.59 603.74 471 608.09Z" fill="black"/>
<path d="M484 677.03C480.892 679.746 477.078 681.525 473 682.16C473.918 678.138 475.957 674.46 478.88 671.55C483.51 667.21 488.42 664.91 489.83 666.41C491.24 667.91 488.63 672.68 484 677.03Z" fill="#B1B834"/>
<path opacity="0.1" d="M484 677.03C480.892 679.746 477.078 681.525 473 682.16C473.918 678.138 475.957 674.46 478.88 671.55C483.51 667.21 488.42 664.91 489.83 666.41C491.24 667.91 488.63 672.68 484 677.03Z" fill="black"/>
<path d="M350.77 628.55C347.677 631.261 343.881 633.043 339.82 633.69C340.727 629.682 342.748 626.011 345.65 623.1C350.28 618.76 355.19 616.46 356.6 617.96C358.01 619.46 355.41 624.24 350.77 628.55Z" fill="#B1B834"/>
<path opacity="0.1" d="M350.77 628.55C347.677 631.261 343.881 633.043 339.82 633.69C340.727 629.682 342.748 626.011 345.65 623.1C350.28 618.76 355.19 616.46 356.6 617.96C358.01 619.46 355.41 624.24 350.77 628.55Z" fill="black"/>
<path d="M165.66 556.48C165.522 560.589 164.225 564.576 161.92 567.98C159.615 564.576 158.318 560.589 158.18 556.48C158.18 550.13 159.85 544.98 161.92 544.98C163.99 544.98 165.66 550.13 165.66 556.48Z" fill="#B1B834"/>
<path d="M285.56 595.98C282.467 598.691 278.671 600.473 274.61 601.12C275.521 597.118 277.541 593.455 280.44 590.55C285.07 586.21 289.98 583.91 291.39 585.41C292.8 586.91 290.19 591.63 285.56 595.98Z" fill="#B1B834"/>
<path opacity="0.1" d="M285.56 595.98C282.467 598.691 278.671 600.473 274.61 601.12C275.521 597.118 277.541 593.455 280.44 590.55C285.07 586.21 289.98 583.91 291.39 585.41C292.8 586.91 290.19 591.63 285.56 595.98Z" fill="black"/>
<path d="M273.28 520.25C269.74 523.57 264.28 523.53 264.28 523.53C264.28 523.53 264.59 518.11 268.13 514.79C271.67 511.47 275.68 510.01 277.13 511.51C278.58 513.01 276.82 516.94 273.28 520.25Z" fill="#B1B834"/>
<path opacity="0.1" d="M273.28 520.25C269.74 523.57 264.28 523.53 264.28 523.53C264.28 523.53 264.59 518.11 268.13 514.79C271.67 511.47 275.68 510.01 277.13 511.51C278.58 513.01 276.82 516.94 273.28 520.25Z" fill="black"/>
<path d="M159.79 640.69C156.697 643.401 152.901 645.183 148.84 645.83C149.747 641.822 151.768 638.151 154.67 635.24C159.3 630.9 164.21 628.6 165.62 630.1C167.03 631.6 164.42 636.35 159.79 640.69Z" fill="#B1B834"/>
<path opacity="0.1" d="M159.79 640.69C156.697 643.401 152.901 645.183 148.84 645.83C149.747 641.822 151.768 638.151 154.67 635.24C159.3 630.9 164.21 628.6 165.62 630.1C167.03 631.6 164.42 636.35 159.79 640.69Z" fill="black"/>
<path d="M560.67 677.07C558.31 676.29 554.8 675.39 552 675.71C549.36 674.71 543.13 672.23 538.89 668.5C539.013 664.804 538.92 661.105 538.61 657.42C536.44 632.71 541.32 616.42 541.32 616.42C541.32 616.42 545.16 604 544.74 593.69C544.99 594.16 545.13 594.43 545.13 594.43C545.47 585.54 548.5 576.33 550.77 570.6L551 570.55L553.59 564.55C553.793 564.2 553.954 563.827 554.07 563.44L554.48 562.44L554.36 562.39L554.48 561.9C556.1 555.05 557.34 538.79 557.34 538.79C561.68 521.69 551.34 511.1 551.34 511.1L533.83 496.03C533.916 496.224 533.973 496.43 534 496.64L533.85 496.51C533.6 495.8 533.33 494.95 533.07 493.98C533.695 493.538 534.28 493.043 534.82 492.5C536.809 490.62 538.177 488.178 538.74 485.5C539.081 483.401 539.168 481.269 539 479.15L538.71 471.88C538.698 470.456 538.554 469.037 538.28 467.64C536.96 461.86 531.05 457.83 525.12 457.58C523.232 457.569 521.346 457.669 519.47 457.88C517.943 458.006 516.411 458.039 514.88 457.98C514.707 457.989 514.536 457.943 514.39 457.85C514.254 457.719 514.175 457.539 514.17 457.35C514.14 457.013 514.179 456.674 514.283 456.352C514.388 456.031 514.557 455.734 514.78 455.48C515.01 455.276 515.279 455.12 515.57 455.02L515.15 455.12C515.357 454.958 515.591 454.833 515.84 454.75C514.303 455.019 512.824 455.553 511.47 456.33C511.104 456.577 510.769 456.865 510.47 457.19C509.664 457.899 509.142 458.876 509 459.94C508.277 459.333 507.737 458.536 507.44 457.64C507.349 457.272 507.349 456.888 507.44 456.52L507.14 456.91V456.79C506.035 458.161 505.256 459.764 504.86 461.48C504.706 461.293 504.59 461.078 504.52 460.846C504.449 460.614 504.426 460.371 504.45 460.13C504.36 460.4 504.28 460.67 504.21 460.94C504.184 460.761 504.184 460.579 504.21 460.4C503.529 462.48 503.221 464.663 503.3 466.85C503.3 469.03 504.3 472.42 506.6 473.19L506.97 473.29C505.657 475.328 504.87 477.661 504.681 480.078C504.491 482.496 504.904 484.922 505.884 487.14C506.863 489.359 508.377 491.299 510.291 492.788C512.205 494.277 514.459 495.267 516.85 495.67C516.89 495.937 516.927 496.213 516.96 496.5H517.05C517.11 497.09 517.16 497.71 517.2 498.36C516.613 498.939 515.97 499.458 515.28 499.91C513.32 501.068 511.134 501.791 508.87 502.03C506.167 502.237 503.538 503.018 501.16 504.32C498.37 505.88 495.28 508.16 494.31 510.93C492.69 515.55 483.81 522.72 477.85 523.59L475.73 523.47H475.58H475.06H474.89H474.35C474.35 523.47 474.3 523.72 474.22 524.15C471.22 523.15 464.85 520.26 456.56 512.74C447.32 504.36 434.86 506.01 430.06 507.07C429.897 507.106 429.748 507.19 429.635 507.312C429.521 507.434 429.447 507.588 429.423 507.754C429.399 507.919 429.426 508.088 429.501 508.237C429.575 508.387 429.694 508.51 429.84 508.59C431.78 509.66 434.84 511.21 436.2 511.38C436.2 511.38 433.29 514.38 436.38 516C436.752 516.181 437.166 516.256 437.578 516.215C437.989 516.175 438.381 516.021 438.71 515.77C440.2 514.68 444.33 517.15 450.32 518.43C450.32 518.43 467.22 535.92 475.61 538.63C475.804 539.011 476.017 539.382 476.25 539.74H476.77H476.84L476.9 540.29C476.9 540.29 489.9 539.6 494.18 534.87C494.482 534.602 494.76 534.307 495.01 533.99L490.48 591.06V591.6H493.82C494.11 598.613 493.812 605.637 492.93 612.6V649.79C492.93 649.79 492.76 653.07 499.56 657.79C506.693 662.768 513.565 668.108 520.15 673.79L521 674.55C519.75 685.93 517.13 707.14 515 707.94L516.35 708.18C514.03 711.1 507.5 719.12 505.5 719.35C503.06 719.62 501.43 723.42 505.5 724.24C513.631 725.644 521.991 724.818 529.69 721.85C530.461 721.55 531.11 720.999 531.53 720.287C531.951 719.574 532.12 718.74 532.01 717.92L531.22 711.92C531.372 712.004 531.494 712.133 531.57 712.29C532.11 713.92 531.57 710.12 531.57 710.12C533.803 702.941 535.557 695.621 536.82 688.21L544.87 695.21L545.31 694.65C547.31 699.14 550.82 708.31 550.02 715.03C548.93 724.26 559.25 716.12 558.16 710.69C557.28 706.3 561.16 687.69 562.73 680.69C562.9 679.938 562.783 679.15 562.402 678.481C562.021 677.811 561.403 677.308 560.67 677.07Z" fill="url(#paint0_linear)"/>
<path d="M476.37 526.46C476.37 526.46 468.68 525.13 457.28 514.8C448.28 506.62 436.09 508.23 431.4 509.26C431.238 509.292 431.091 509.374 430.977 509.493C430.864 509.613 430.79 509.764 430.766 509.927C430.742 510.091 430.768 510.257 430.843 510.404C430.917 510.551 431.035 510.672 431.18 510.75C433.07 511.75 436.02 513.3 437.39 513.48C437.39 513.48 434.55 516.42 437.57 517.99C437.932 518.168 438.335 518.241 438.736 518.202C439.137 518.163 439.519 518.014 439.84 517.77C441.29 516.71 445.33 519.12 451.17 520.37C451.17 520.37 473.97 543.96 479.27 539.99L476.37 526.46Z" fill="#FEC3BE"/>
<path d="M515.6 494.38C515.6 494.38 517.72 503.38 515.6 509.76L525.14 511.09L533.62 506.85V501.28C531.162 495.515 530.159 489.234 530.7 482.99L515.6 494.38Z" fill="#FEC3BE"/>
<path d="M542.64 689.76C542.64 689.76 549.53 703.28 548.47 712.29C547.41 721.3 557.47 713.35 556.47 708.05C555.61 703.76 559.47 685.59 560.93 678.81C561.096 678.08 560.983 677.313 560.613 676.662C560.243 676.01 559.643 675.521 558.93 675.29C555.74 674.29 550.41 672.95 547.73 674.92C543.7 677.83 542.64 689.76 542.64 689.76Z" fill="#8B416F"/>
<path d="M516.4 704.6C516.4 704.6 507.4 716.26 505 716.53C502.6 716.8 501 720.53 505 721.3C512.939 722.672 521.102 721.867 528.62 718.97C529.374 718.677 530.007 718.139 530.419 717.442C530.831 716.746 530.997 715.932 530.89 715.13L529.39 703.8L516.4 704.6Z" fill="#8B416F"/>
<path d="M501.55 580.8L492.9 581.95C494.088 592.047 494.054 602.251 492.8 612.34V648.66C492.8 648.66 492.63 651.86 499.27 656.51C506.232 661.356 512.941 666.556 519.37 672.09L543.43 692.93C543.43 692.93 552.97 681.27 551.65 674.37C551.65 674.37 535.74 669.37 533.65 661.12C532.44 656.41 526.27 652.49 521.22 650C518.045 648.458 515.494 645.876 513.989 642.684C512.485 639.491 512.118 635.88 512.95 632.45C513.243 631.257 513.697 630.11 514.3 629.04C518.54 621.62 524.64 604.92 524.64 604.92L513 582.66L501.55 580.8Z" fill="#4D4981"/>
<path opacity="0.05" d="M501.55 580.8L492.9 581.95C494.088 592.047 494.054 602.251 492.8 612.34V648.66C492.8 648.66 492.63 651.86 499.27 656.51C506.232 661.356 512.941 666.556 519.37 672.09L543.43 692.93C543.43 692.93 552.97 681.27 551.65 674.37C551.65 674.37 535.74 669.37 533.65 661.12C532.44 656.41 526.27 652.49 521.22 650C518.045 648.458 515.494 645.876 513.989 642.684C512.485 639.491 512.118 635.88 512.95 632.45C513.243 631.257 513.697 630.11 514.3 629.04C518.54 621.62 524.64 604.92 524.64 604.92L513 582.66L501.55 580.8Z" fill="black"/>
<path d="M514.28 705.4C514.28 705.4 529.92 708.05 530.45 709.64C530.98 711.23 530.45 707.52 530.45 707.52C530.45 707.52 539.45 680.22 537.34 656.09C535.23 631.96 539.99 616.09 539.99 616.09C539.99 616.09 545.56 598.09 542.38 587.73C539.2 577.37 505.8 581.9 505.8 581.9C505.8 581.9 517.46 609.2 517.2 622.19C517.2 622.19 518.53 661.42 520.91 665.93C520.9 665.9 517.19 704.34 514.28 705.4Z" fill="#4D4981"/>
<path d="M516.13 501.28C516.13 501.28 517.72 511.09 533.63 506.85L523 587.43C523 587.43 492.25 588.49 492.51 584.78L498.87 536L516.13 501.28Z" fill="white"/>
<path opacity="0.1" d="M516.53 500.75C514.459 502.791 511.76 504.073 508.87 504.39C506.229 504.593 503.662 505.357 501.34 506.63C498.61 508.16 495.6 510.38 494.65 513.08C492.79 518.38 481.13 527.08 475.83 525.27L477.69 541.18C477.69 541.18 492.8 540.38 495.45 534.55L490.94 591.28H494.94C494.94 591.28 497.06 575.9 498.65 572.72C500.24 569.54 503.42 552.04 503.65 547.8C503.88 543.56 507.89 519.17 511.34 514.93L516.51 502.34L516.53 500.75Z" fill="black"/>
<path opacity="0.1" d="M516.53 501.55C514.16 503.403 511.327 504.568 508.34 504.92C505.699 505.123 503.132 505.886 500.81 507.16C498.08 508.69 495.07 510.91 494.12 513.61C492.26 518.91 480.6 527.61 475.3 525.8L477.16 541.71C477.16 541.71 492.27 540.91 494.92 535.08L490.41 591.81H494.41C494.41 591.81 496.53 576.43 498.12 573.25C499.71 570.07 502.89 552.57 503.12 548.33C503.35 544.09 507.36 519.7 510.81 515.46L516.51 503.13L516.53 501.55Z" fill="black"/>
<path d="M516.53 501.01C514.16 502.862 511.327 504.028 508.34 504.38C505.699 504.583 503.132 505.346 500.81 506.62C498.08 508.15 495.07 510.37 494.12 513.07C492.26 518.37 480.6 527.07 475.3 525.26L477.16 541.17C477.16 541.17 492.27 540.37 494.92 534.54L490.41 591.27H494.41C494.41 591.27 496.53 575.89 498.12 572.71C499.71 569.53 502.89 552.03 503.12 547.79C503.35 543.55 507.36 519.16 510.81 514.92L516.51 502.59L516.53 501.01Z" fill="#FD6F8D"/>
<path opacity="0.1" d="M530 490.8C529.65 488.29 530.34 486.72 530.66 483.8L515.55 495.2C515.55 495.2 515.91 496.74 516.19 498.99C516.944 499.11 517.706 499.17 518.47 499.17C523.79 499.15 527.56 495.05 530 490.8Z" fill="black"/>
<path d="M518.52 498.36C510.617 498.36 504.21 491.953 504.21 484.05C504.21 476.147 510.617 469.74 518.52 469.74C526.423 469.74 532.83 476.147 532.83 484.05C532.83 491.953 526.423 498.36 518.52 498.36Z" fill="#FEC3BE"/>
<path opacity="0.1" d="M502.89 470.01C502.801 467.596 503.195 465.189 504.05 462.93C503.818 463.284 503.72 463.71 503.775 464.131C503.83 464.551 504.034 464.937 504.35 465.22C504.813 462.757 506.079 460.517 507.95 458.85C507.465 459.013 507.061 459.356 506.821 459.808C506.581 460.26 506.523 460.787 506.66 461.28C507.004 462.26 507.618 463.123 508.43 463.77C508.441 463.009 508.647 462.263 509.028 461.605C509.41 460.947 509.955 460.397 510.61 460.01C511.929 459.25 513.371 458.725 514.87 458.46C514.354 458.642 513.913 458.99 513.616 459.45C513.319 459.909 513.183 460.455 513.23 461C513.234 461.184 513.309 461.36 513.44 461.49C513.582 461.583 513.75 461.628 513.92 461.62C515.414 461.677 516.91 461.644 518.4 461.52C520.233 461.315 522.076 461.218 523.92 461.23C529.71 461.47 535.48 465.41 536.77 471.06C537.037 472.424 537.178 473.81 537.19 475.2L537.47 482.29C537.635 484.359 537.551 486.441 537.22 488.49C536.82 490.382 536.008 492.162 534.842 493.704C533.675 495.246 532.182 496.511 530.47 497.41C528.39 494.41 528.21 490.52 527.47 486.93C527.358 486.096 527.05 485.301 526.57 484.61C526.326 484.267 525.98 484.01 525.581 483.876C525.183 483.741 524.752 483.736 524.35 483.86C524.165 483.938 524.002 484.058 523.872 484.211C523.743 484.364 523.651 484.545 523.606 484.74C523.56 484.935 523.561 485.138 523.608 485.333C523.656 485.528 523.749 485.708 523.88 485.86C523.32 486.54 522.22 486.03 521.59 485.43C519.778 483.714 518.526 481.49 518 479.05C517.74 477.81 517.48 476.29 516.29 475.88C515.874 475.764 515.438 475.734 515.01 475.79C512.49 475.96 508.54 477.01 506.09 476.21C503.84 475.46 502.89 472.14 502.89 470.01Z" fill="black"/>
<path d="M503.16 469.75C503.071 467.337 503.465 464.929 504.32 462.67C504.088 463.025 503.99 463.451 504.045 463.871C504.1 464.291 504.304 464.678 504.62 464.96C505.083 462.497 506.349 460.257 508.22 458.59C507.735 458.753 507.331 459.096 507.091 459.548C506.851 460 506.793 460.527 506.93 461.02C507.268 462.014 507.882 462.892 508.7 463.55C508.711 462.789 508.917 462.044 509.298 461.385C509.68 460.727 510.225 460.178 510.88 459.79C512.199 459.03 513.641 458.505 515.14 458.24C514.624 458.422 514.183 458.77 513.886 459.23C513.589 459.69 513.453 460.235 513.5 460.78C513.504 460.965 513.579 461.14 513.71 461.27C513.852 461.363 514.02 461.408 514.19 461.4C515.684 461.457 517.18 461.424 518.67 461.3C520.503 461.095 522.346 460.999 524.19 461.01C529.98 461.25 535.75 465.19 537.04 470.84C537.307 472.204 537.448 473.59 537.46 474.98L537.74 482.07C537.905 484.139 537.821 486.221 537.49 488.27C537.091 490.162 536.278 491.942 535.112 493.484C533.945 495.026 532.452 496.292 530.74 497.19C528.66 494.19 528.48 490.3 527.74 486.71C527.628 485.876 527.32 485.081 526.84 484.39C526.596 484.048 526.25 483.791 525.851 483.656C525.453 483.521 525.022 483.516 524.62 483.64C524.435 483.718 524.272 483.838 524.142 483.991C524.013 484.144 523.922 484.325 523.876 484.521C523.83 484.716 523.831 484.919 523.878 485.113C523.926 485.308 524.019 485.488 524.15 485.64C523.59 486.32 522.49 485.81 521.86 485.21C520.042 483.486 518.791 481.251 518.27 478.8C518.01 477.56 517.75 476.04 516.56 475.63C516.144 475.515 515.708 475.484 515.28 475.54C512.76 475.71 508.81 476.76 506.36 475.96C504.1 475.19 503.16 471.88 503.16 469.75Z" fill="#784F69"/>
<path opacity="0.1" d="M474.64 525.27C474.64 525.27 472.52 535.08 476.5 541.18L478.75 541L477.52 525.45L474.64 525.27Z" fill="black"/>
<path d="M475.17 525.27C475.17 525.27 473.05 535.08 477.03 541.18L479.28 541L478.05 525.45L475.17 525.27Z" fill="#FD6F8D"/>
<path opacity="0.1" d="M532.17 498.49L549.27 513.2C549.27 513.2 559.34 523.54 555.1 540.2C555.1 540.2 553.24 564.59 551.1 565.65C551.1 565.65 543.68 580.5 543.1 594.54C543.1 594.54 533.16 574.54 528.65 586.72C524.14 598.9 513.65 600.64 513.65 600.64L519.58 528.55C519.58 528.55 534.29 503 532.17 498.49Z" fill="black"/>
<path d="M532.7 498.49L549.8 513.2C549.8 513.2 559.87 523.54 555.63 540.2C555.63 540.2 553.77 564.59 551.63 565.65C551.63 565.65 544.21 580.5 543.63 594.54C543.63 594.54 533.16 573.47 528.63 585.66C524.1 597.85 514.18 600.66 514.18 600.66L520.11 528.55C520.11 528.55 534.82 503 532.7 498.49Z" fill="#FD6F8D"/>
<path d="M540.52 560.66C540.52 560.66 544.76 557.74 551.65 565.66L534.65 596.41L528.95 587.79C528.95 587.79 541.05 564.1 540.52 560.66Z" fill="#FEC3BE"/>
<path opacity="0.1" d="M536.41 562.38C536.41 562.38 545.79 572.92 549.41 571.23L552.8 563.34L540.08 557.88L536.41 562.38Z" fill="black"/>
<path d="M536.41 561.85C536.41 561.85 545.79 572.39 549.41 570.7L552.8 562.81L540.08 557.35L536.41 561.85Z" fill="#FD6F8D"/>
<path opacity="0.1" d="M529.56 585.83C529.56 585.83 534.02 594.98 536.41 595.51L532.96 599.51L527.96 589.97L529.56 585.83Z" fill="black"/>
<path d="M529.3 586.1C529.3 586.1 533.76 595.25 536.15 595.78L532.7 599.78L527.7 590.24L529.3 586.1Z" fill="#4D4981"/>
<path opacity="0.1" d="M537.74 529.55C537.74 529.55 538.27 548.64 536.15 555.79L537.74 529.55Z" fill="black"/>
<path opacity="0.1" d="M494.79 533.22C494.79 533.22 498 532.16 498 529.55L494.79 533.22Z" fill="black"/>
<path d="M390.52 564.32C389.32 567.49 386.14 569.54 384.38 572.46C385.098 576.93 385.432 581.453 385.38 585.98C385.358 590.922 384.869 595.85 383.92 600.7L381.92 610.77C381.94 611.612 381.684 612.438 381.19 613.12C381.883 616.037 382.963 618.849 384.4 621.48C391.85 635.3 387.59 652.93 386.53 655C386.425 655.218 386.254 655.397 386.04 655.51C385.977 655.688 385.903 655.861 385.82 656.03C384.92 657.79 382.22 655.03 378.59 659.94C378.123 660.687 377.696 661.458 377.31 662.25C377.062 662.745 376.76 663.212 376.41 663.64C371.41 672.5 346.03 673.36 329.54 653.58C328.75 653.976 328.003 654.452 327.31 655C331.21 663.29 322.31 683.68 318.09 694.74C317.229 696.801 316.615 698.956 316.26 701.16C319.65 702.1 321.63 708.91 321.63 708.91L321.58 709.43L321.63 709.6L320.21 724.11H317.37L316.66 714.78L309.21 728.95C309.21 728.95 304.21 729.58 298.93 729.68V734.13L296.8 733.78C296.8 733.78 296.8 733.53 296.88 733.1H296.8C296.8 733.1 297.01 731.58 297.08 729.7C294.538 729.762 291.998 729.483 289.53 728.87C288.283 731.142 287.158 733.479 286.16 735.87C277.65 738.98 268.78 734.49 268.08 734.14C267.96 734.08 268.14 733.91 268.52 733.66L268.08 733.45C267.37 733.1 276.99 728.8 276.99 728.8H277.19C277.69 726.567 277.964 724.289 278.01 722C278.224 717.854 279.442 713.821 281.56 710.25C281.56 710.25 294.68 662.91 296.1 661.18L296.25 660.97L296.3 660.88L296.41 660.69L296.47 660.57L296.58 660.36L296.65 660.22L296.76 659.98L296.83 659.83L297 659.55L297.06 659.41L297.24 658.95L297.43 658.44L297.49 658.26L297.62 657.9L297.69 657.68L297.81 657.33L297.89 657.1L298.01 656.73L298.08 656.5L298.21 656.1L298.27 655.9L298.45 655.31L298.64 654.7L298.7 654.5L298.82 654.08L298.89 653.85L299 653.48L299.07 653.24L299.17 652.88V652.73C299.709 650.73 300.001 648.671 300.04 646.6C300.04 646.54 300.04 646.48 300.04 646.41C300.04 646.34 300.04 646.26 300.04 646.19C300.04 646.12 300.04 645.97 300.04 645.86C300.04 645.75 300.04 645.72 300.04 645.65C300.04 645.58 300.09 645.41 300.12 645.29V645.12C300.221 644.753 300.344 644.392 300.49 644.04L300.57 643.86L300.73 643.5L300.84 643.29L301.01 642.96L301.1 642.79C300.847 643.117 300.6 643.45 300.36 643.79C301.216 641.307 302.407 638.952 303.9 636.79C305.32 634.56 307.2 632.56 309.41 632.56C311.252 632.391 313.062 631.97 314.79 631.31C317.79 628.37 321.79 624.96 321.79 624.96L327.31 618.41H327.11L327.5 617.75H327.11L334.44 605.32C333.821 600.435 333.707 595.499 334.1 590.59C332.711 589.407 331.595 587.937 330.829 586.282C330.062 584.626 329.664 582.825 329.66 581C329.66 578.44 330.53 575.89 330.23 573.35C329.93 570.81 328.61 568.7 327.9 566.35C327.108 563.671 327.108 560.82 327.9 558.14C328.61 555.7 329.97 553.45 330.57 550.98C330.987 548.844 331.118 546.661 330.96 544.49L330.69 534.92C330.527 532.907 330.689 530.881 331.17 528.92C331.891 526.8 333.153 524.904 334.83 523.42C335.844 522.429 336.934 521.52 338.09 520.7C342.264 517.568 347.073 515.387 352.18 514.31C357.337 513.243 362.703 513.948 367.41 516.31C372.99 519.31 376.73 524.78 378.99 530.57C381.25 536.36 382.3 542.87 385.27 548.49C386.62 551.05 388.37 553.41 389.57 556.05C390.77 558.69 391.55 561.62 390.52 564.32ZM351 585L351.3 584.93L351.42 584.48L351 585ZM330.08 624.46C331.87 623.46 333.63 622.38 335.28 621.26C335.084 621.03 334.867 620.819 334.63 620.63C333.38 621.64 331.7 623.03 330.07 624.46H330.08ZM294.47 711.12L294.59 710.8C296.89 710.41 298.01 711.8 298.59 713.52C300.165 709.247 301.961 705.058 303.97 700.97C307.16 695.1 308.58 682.31 308.58 682.31C308.58 682.31 308.58 682.04 308.58 681.54C304.5 689.04 298.58 699.72 296.17 703.39C293.88 706.76 294 709.44 294.46 711.12H294.47Z" fill="url(#paint1_linear)"/>
<path d="M358.63 621.99H335.36V594.34H358.63V621.99Z" fill="#FD6F8D"/>
<path opacity="0.1" d="M358.63 621.99H335.36V594.34H358.63V621.99Z" fill="black"/>
<path d="M330.13 615.41L322.37 624.85C322.37 624.85 307.79 637.7 313.94 634.63C315.94 633.63 323.04 631.63 326.08 628.22C329.281 625 332.66 621.962 336.2 619.12L330.13 615.41Z" fill="#FEC3BE"/>
<path opacity="0.1" d="M336.54 602.55L327.44 618.4C327.44 618.4 334.18 618.74 335.53 622.11C336.88 625.48 340.25 612.33 340.25 612.33L336.54 602.55Z" fill="black"/>
<path d="M336.54 601.92L327.44 617.77C327.44 617.77 334.18 618.11 335.53 621.48C336.88 624.85 340.25 611.7 340.25 611.7L336.54 601.92Z" fill="#FD6F8D"/>
<path opacity="0.05" d="M336.54 601.92L327.44 617.77C327.44 617.77 334.18 618.11 335.53 621.48C336.88 624.85 340.25 611.7 340.25 611.7L336.54 601.92Z" fill="black"/>
<path d="M352.16 522.64C351.203 523.014 350.309 523.533 349.51 524.18L345.74 526.92C343.74 528.4 341.6 529.92 340.47 532.21C338.98 535.21 339.47 538.77 340.47 541.95C341.47 545.13 342.8 548.27 342.92 551.6C343 553.67 342.58 555.79 343.05 557.81C343.664 560.05 345.062 561.994 346.99 563.29C348.908 564.559 350.986 565.568 353.17 566.29C356.53 567.55 360 568.75 363.64 568.55C366.097 568.39 368.473 567.606 370.541 566.27C372.61 564.935 374.303 563.093 375.46 560.92C375.747 560.449 375.902 559.911 375.91 559.36C375.771 558.649 375.466 557.98 375.02 557.41C373.32 554.55 373.86 550.96 374.35 547.68C374.99 543.35 375.43 538.88 374.41 534.63C373.5 530.87 370.94 526.28 367.13 524.78C365.145 524.144 363.107 523.685 361.04 523.41C358.34 522.88 354.87 521.75 352.16 522.64Z" fill="#784F69"/>
<path opacity="0.1" d="M352.16 522.64C351.203 523.014 350.309 523.533 349.51 524.18L345.74 526.92C343.74 528.4 341.6 529.92 340.47 532.21C338.98 535.21 339.47 538.77 340.47 541.95C341.47 545.13 342.8 548.27 342.92 551.6C343 553.67 342.58 555.79 343.05 557.81C343.664 560.05 345.062 561.994 346.99 563.29C348.908 564.559 350.986 565.568 353.17 566.29C356.53 567.55 360 568.75 363.64 568.55C366.097 568.39 368.473 567.606 370.541 566.27C372.61 564.935 374.303 563.093 375.46 560.92C375.747 560.449 375.902 559.911 375.91 559.36C375.771 558.649 375.466 557.98 375.02 557.41C373.32 554.55 373.86 550.96 374.35 547.68C374.99 543.35 375.43 538.88 374.41 534.63C373.5 530.87 370.94 526.28 367.13 524.78C365.145 524.144 363.107 523.685 361.04 523.41C358.34 522.88 354.87 521.75 352.16 522.64Z" fill="black"/>
<path d="M309.22 634.63C309.22 634.63 299.78 642.39 301.8 647.78C301.8 647.78 299.1 658.57 297.8 660.26C296.5 661.95 283.98 708.14 283.98 708.14C281.953 711.619 280.781 715.529 280.56 719.55C280.22 726.29 279.56 730.34 275.17 729.67H284.95L292 724.65L296 715.55L297 710.83C297 710.83 294 707.12 297.67 701.39C301.34 695.66 313.52 672.39 313.52 672.39L320.26 650.47L325.65 641.37L309.22 634.63Z" fill="#FEC3BE"/>
<path opacity="0.05" d="M309.22 634.63C309.22 634.63 301.69 640.81 301.52 645.98C301.484 648.006 301.205 650.02 300.69 651.98C299.79 655.21 298.54 659.29 297.76 660.27C296.41 661.96 283.94 708.15 283.94 708.15C281.929 711.629 280.77 715.536 280.56 719.55C280.22 726.29 279.56 730.34 275.17 729.67H284.95L292 724.65L296 715.55L297 710.83C297 710.83 294 707.12 297.67 701.39C301.34 695.66 313.52 672.39 313.52 672.39L320.26 650.47L325.65 641.37L309.22 634.63Z" fill="black"/>
<path d="M286.3 726C286.3 726 282.69 727.72 279.6 726.86C279.6 726.86 270.45 731.06 271.12 731.4C271.79 731.74 280.22 736.12 288.32 733.09C288.32 733.09 293.47 720.17 296.63 720.73C299.79 721.29 298.44 731.07 298.44 731.07L300.44 731.41V716.55C300.44 716.55 301.23 708.42 296.28 709.28C296.3 709.29 290.34 726.34 286.3 726Z" fill="#4D4981"/>
<path opacity="0.05" d="M286.3 725.33C286.3 725.33 282.69 727.05 279.6 726.19C279.6 726.19 270.45 730.39 271.12 730.73C271.79 731.07 280.22 735.45 288.32 732.42C288.32 732.42 293.47 719.5 296.63 720.06C299.79 720.62 298.44 730.4 298.44 730.4L300.44 730.74V715.89C300.44 715.89 301.23 707.76 296.28 708.62C296.3 708.62 290.34 725.67 286.3 725.33Z" fill="black"/>
<path opacity="0.05" d="M309.22 718.55C309.22 718.55 304.84 723.27 296.07 718.55C296.07 718.55 285.95 723.78 291.52 725.55C297.09 727.32 310.23 725.63 310.23 725.63L317.31 711.81L317.98 720.91H320.68L322 706.78C322 706.78 320.09 700.04 316.83 699.2C316.87 699.2 314.62 717.24 309.22 718.55Z" fill="black"/>
<path opacity="0.05" d="M286.3 726C286.3 726 282.69 727.72 279.6 726.86C279.6 726.86 270.45 731.06 271.12 731.4C271.79 731.74 280.22 736.12 288.32 733.09C288.32 733.09 293.47 720.17 296.63 720.73C299.79 721.29 298.44 731.07 298.44 731.07L300.44 731.41V716.55C300.44 716.55 301.23 708.42 296.28 709.28C296.3 709.29 290.34 726.34 286.3 726Z" fill="black"/>
<path d="M320.69 632.94C320.69 632.94 311.59 629.94 310.57 644.07C309.55 658.2 309.57 680.82 309.57 680.82C309.57 680.82 308.22 693.3 305.19 699.03C302.16 704.76 296.09 722.3 296.09 722.3C296.09 722.3 308.23 726.3 311.94 718.93C314.42 713.909 316.562 708.727 318.35 703.42C318.69 702.42 314.64 703.76 318.69 692.97C322.74 682.18 331.17 662.29 327.46 654.19C327.46 654.19 332.52 649.81 337.91 652.19C343.3 654.57 320.69 632.94 320.69 632.94Z" fill="#FEC3BE"/>
<path d="M309.22 719.26C309.22 719.26 304.84 723.98 296.07 719.26C296.07 719.26 285.95 724.49 291.52 726.26C297.09 728.03 310.23 726.34 310.23 726.34L317.32 712.55L317.99 721.65H320.69L322 707.46C322 707.46 320.09 700.72 316.83 699.88C316.87 699.87 314.62 717.91 309.22 719.26Z" fill="#4D4981"/>
<path d="M346.65 542.91C346.65 542.91 353.06 557.75 350.36 564.83C347.66 571.91 340.24 583.04 340.24 583.04C340.24 583.04 344 594.84 351 584.39C358 573.94 363.81 556.39 363.81 556.39C363.81 556.39 362.12 554.39 363.81 548.63L346.65 542.91Z" fill="#FEC3BE"/>
<path opacity="0.1" d="M337.88 581.35C337.88 581.35 340.5 593.13 357.34 583.49L358.12 583.04C375.65 572.55 379 598.88 379 598.88C379 598.88 373.94 609 381 622.48C388.06 635.96 384 653.16 383 655.19C382 657.22 378.62 653.19 374.23 662.27C369.84 671.35 344.56 672.39 328.71 651.82C312.86 631.25 306.62 636.48 301.9 643.22C301.9 643.22 305.1 633.27 309.82 633.27C314.54 633.27 335.45 624.17 342.19 615.06C343.339 611.026 342.983 606.712 341.19 602.92C338.22 596.86 334.51 581.69 337.88 581.35Z" fill="black"/>
<path d="M338.56 580.34C338.56 580.34 341.18 592.12 358.02 582.48L358.8 582.03C376.32 571.55 379.7 597.87 379.7 597.87C379.7 597.87 374.64 607.99 381.7 621.47C388.76 634.95 384.7 652.15 383.7 654.18C382.7 656.21 379.32 652.18 374.93 661.26C370.54 670.34 345.26 671.38 329.41 650.81C313.56 630.24 307.32 635.47 302.6 642.21C302.6 642.21 305.8 632.26 310.52 632.26C315.24 632.26 336.15 623.16 342.89 614.05C344.039 610.016 343.683 605.702 341.89 601.91C338.9 595.85 335.19 580.68 338.56 580.34Z" fill="#4D4981"/>
<path opacity="0.1" d="M363 555.92C363 555.92 361.48 553.7 357.1 564.83C353.754 573.281 351.049 581.972 349.01 590.83C348.01 595.55 347.01 616.83 349.01 619.83C351.01 622.83 370.25 618.48 372.95 615.11C375.65 611.74 375.65 586.45 375.65 586.45L363 555.92Z" fill="black"/>
<path d="M363.34 555.25C363.34 555.25 361.82 553.03 357.44 564.16C354.094 572.611 351.389 581.302 349.35 590.16C348.35 594.88 347.35 616.16 349.35 619.16C351.35 622.16 370.59 617.81 373.29 614.44C375.99 611.07 375.99 585.78 375.99 585.78L363.34 555.25Z" fill="#FD6F8D"/>
<path d="M350.87 560.28C350.014 559.833 349.069 559.583 348.104 559.548C347.139 559.513 346.179 559.694 345.293 560.077C344.406 560.46 343.617 561.036 342.981 561.763C342.346 562.49 341.881 563.35 341.62 564.28C339.76 570.73 337.14 579.55 335.53 583.76C332.83 590.84 333.84 607.7 335.53 610.06C337.22 612.42 338.53 620.51 338.53 620.51C338.53 620.51 341.53 618.51 341.23 603.99C340.93 589.47 357.42 563.77 350.84 560.32L350.87 560.28Z" fill="#FD6F8D"/>
<path d="M362.16 612.71L340.24 623.16C340.24 623.16 320.01 630.92 330.46 633.95C340.91 636.98 349.69 627.55 349.69 627.55L369.25 620.13L362.16 612.71Z" fill="#FEC3BE"/>
<path opacity="0.1" d="M379.36 563.82L379.61 564.73C382.975 576.596 383.529 589.083 381.23 601.2L379.35 611.03C379.35 611.03 379.69 613.39 375.98 616.09C373.189 618.353 370.696 620.961 368.56 623.85C368.56 623.85 364.18 616.77 358.78 614.07C358.78 614.07 364.17 610.36 366.2 608C368.23 605.64 366.87 580 366.87 580C366.87 580 376.66 554.04 379.36 563.82Z" fill="black"/>
<path d="M363.34 555.22C363.34 555.22 376.66 553.37 379.34 563.14L379.59 564.05C382.969 575.923 383.534 588.421 381.24 600.55L379.36 610.38C379.36 610.38 379.7 612.74 375.99 615.44C373.199 617.703 370.706 620.311 368.57 623.2C368.57 623.2 364.19 616.12 358.79 613.42C358.79 613.42 364.18 609.71 366.21 607.35C368.24 604.99 366.88 579.35 366.88 579.35L363.34 555.22Z" fill="#FD6F8D"/>
<path opacity="0.1" d="M346.65 543.55C347.716 546.107 348.631 548.725 349.39 551.39C351.161 553.136 353.391 554.345 355.821 554.876C358.251 555.407 360.782 555.238 363.12 554.39C363.071 552.657 363.318 550.929 363.85 549.28L346.65 543.55Z" fill="black"/>
<path d="M358.62 554.55C351.357 554.55 345.47 548.663 345.47 541.4C345.47 534.137 351.357 528.25 358.62 528.25C365.883 528.25 371.77 534.137 371.77 541.4C371.77 548.663 365.883 554.55 358.62 554.55Z" fill="#FEC3BE"/>
<path opacity="0.1" d="M357.13 529.93C356.18 530.65 356.06 532 355.91 533.18C355.499 536.329 354.275 539.317 352.36 541.85C350.97 543.68 349.14 545.5 349.15 547.8C349.15 549.36 350.04 550.8 350.72 552.17C353.99 558.97 352.72 566.98 351.31 574.4C350.86 576.81 350.31 579.4 348.49 581.03C347.55 581.86 346.3 582.41 345.7 583.52C344.99 584.82 345.43 586.45 346.13 587.77C346.959 589.009 347.615 590.354 348.08 591.77C348.298 592.955 348.09 594.179 347.494 595.225C346.897 596.272 345.95 597.074 344.82 597.49L345.06 601.36C345.158 601.973 345.067 602.6 344.8 603.16C344.597 603.44 344.331 603.669 344.024 603.829C343.716 603.989 343.376 604.075 343.03 604.08C342.012 604.083 341.014 603.794 340.156 603.246C339.298 602.698 338.616 601.915 338.19 600.99C337.368 599.126 337.001 597.094 337.12 595.06C337.168 594.531 337.082 593.998 336.87 593.51C336.534 593.034 336.083 592.648 335.56 592.39C333.811 591.263 332.374 589.714 331.38 587.887C330.386 586.059 329.866 584.011 329.87 581.93C329.87 579.43 330.7 576.93 330.41 574.46C330.12 571.99 328.87 569.92 328.19 567.61C327.44 564.996 327.44 562.224 328.19 559.61C328.87 557.22 330.19 555.04 330.73 552.61C331.126 550.525 331.251 548.397 331.1 546.28L330.84 536.94C330.681 534.972 330.833 532.991 331.29 531.07C332.29 527.85 334.83 525.39 337.53 523.39C341.478 520.341 346.056 518.21 350.93 517.15C355.836 516.106 360.952 516.792 365.41 519.09C370.71 521.99 374.27 527.36 376.41 533C378.55 538.64 379.56 545 382.41 550.48C383.7 552.98 385.36 555.28 386.5 557.86C387.64 560.44 388.23 563.41 387.25 566.05C386.09 569.18 383.02 571.19 381.36 574.05C380.12 576.2 379.72 578.73 378.65 580.97C377.58 583.21 375.43 585.29 372.97 584.97C372.082 584.833 371.245 584.468 370.54 583.91C367.29 581.47 366.54 576.91 366.67 572.91C366.8 568.91 367.74 564.73 366.84 560.77C366.38 558.77 365.48 556.86 365.3 554.77C364.94 550.71 367.45 547 368.5 543.06C369.42 539.62 368.13 533.97 365.77 530.93C363.94 528.67 359.12 528.43 357.13 529.93Z" fill="black"/>
<path d="M357.47 529.55C356.52 530.27 356.4 531.62 356.25 532.8C355.852 535.977 354.628 538.994 352.7 541.55C351.31 543.38 349.48 545.2 349.49 547.5C349.49 549.06 350.38 550.5 351.06 551.87C354.33 558.67 353.06 566.68 351.65 574.1C351.2 576.51 350.65 579.1 348.83 580.73C347.89 581.56 346.64 582.11 346.04 583.22C345.33 584.52 345.77 586.15 346.47 587.47C347.299 588.708 347.955 590.054 348.42 591.47C348.638 592.655 348.43 593.878 347.834 594.925C347.237 595.971 346.29 596.774 345.16 597.19L345.4 601.06C345.498 601.672 345.407 602.3 345.14 602.86C344.937 603.14 344.671 603.369 344.364 603.529C344.056 603.688 343.716 603.774 343.37 603.78C342.352 603.783 341.354 603.493 340.496 602.945C339.638 602.398 338.956 601.615 338.53 600.69C337.708 598.826 337.341 596.793 337.46 594.76C337.508 594.23 337.422 593.697 337.21 593.21C336.874 592.733 336.423 592.348 335.9 592.09C334.136 590.957 332.688 589.397 331.689 587.554C330.691 585.711 330.175 583.646 330.19 581.55C330.19 579.05 331.02 576.55 330.73 574.08C330.44 571.61 329.19 569.54 328.51 567.23C327.76 564.616 327.76 561.844 328.51 559.23C329.19 556.84 330.51 554.66 331.05 552.23C331.446 550.145 331.571 548.017 331.42 545.9L331.16 536.56C331.001 534.592 331.153 532.611 331.61 530.69C332.61 527.47 335.15 525.01 337.85 523.01C341.798 519.961 346.376 517.829 351.25 516.77C356.156 515.726 361.272 516.411 365.73 518.71C371.03 521.61 374.59 526.98 376.73 532.62C378.87 538.26 379.88 544.62 382.73 550.1C384.02 552.6 385.68 554.9 386.82 557.48C387.96 560.06 388.55 563.03 387.57 565.67C386.41 568.8 383.34 570.81 381.68 573.67C380.44 575.82 380.04 578.35 378.97 580.59C377.9 582.83 375.75 584.91 373.29 584.59C372.402 584.453 371.565 584.088 370.86 583.53C367.61 581.09 366.86 576.53 366.99 572.53C367.12 568.53 368.06 564.35 367.16 560.39C366.7 558.39 365.8 556.48 365.62 554.39C365.26 550.33 367.77 546.62 368.82 542.68C369.74 539.24 368.45 533.59 366.09 530.55C364.28 528.33 359.46 528.09 357.47 529.55Z" fill="#784F69"/>
<path opacity="0.1" d="M365 577.47C365 577.47 368.71 594.67 363.65 604.11L365 577.47Z" fill="black"/>
<path d="M91.4655 627.726C106.795 650.356 101.896 731.375 101.896 731.375C101.896 731.375 24.8455 705.865 9.51552 683.245C2.15443 672.378 -0.588165 659.032 1.89107 646.143C4.3703 633.253 11.8682 621.877 22.7355 614.516C33.6027 607.154 46.9491 604.412 59.8385 606.891C72.7278 609.37 84.1044 616.868 91.4655 627.736V627.726Z" fill="#B1B834"/>
<path opacity="0.1" d="M91.4655 627.726C106.795 650.356 101.896 731.375 101.896 731.375C101.896 731.375 24.8455 705.865 9.51552 683.245C2.15443 672.378 -0.588165 659.032 1.89107 646.143C4.3703 633.253 11.8682 621.877 22.7355 614.516C33.6027 607.154 46.9491 604.412 59.8385 606.891C72.7278 609.37 84.1044 616.868 91.4655 627.736V627.726Z" fill="black"/>
<path d="M22.9955 614.565C22.9955 614.565 80.7755 659.145 102.195 731.455" stroke="#535461" stroke-miterlimit="10"/>
<path d="M116.735 670.025C116.735 670.025 75.7355 663.025 103.735 730.935C103.735 730.935 132.225 720.075 134.445 693.055C134.886 687.798 133.384 682.562 130.223 678.338C127.063 674.114 122.463 671.196 117.295 670.135L116.735 670.025Z" fill="#B1B834"/>
<path d="M117.345 669.955C117.345 669.955 125.155 707.515 103.785 730.955" stroke="#535461" stroke-miterlimit="10"/>
<path d="M586.63 672.14C586.63 672.14 603.74 668.74 608.3 664.21C612.86 659.68 633.4 651.75 635.68 657.41C637.96 663.07 666.48 682.33 647.09 685.72C627.7 689.11 601.46 690.25 595.76 687.99C590.06 685.73 586.63 672.14 586.63 672.14Z" fill="#A8A8A8"/>
<path opacity="0.2" d="M647.09 683.63C627.7 687.03 601.46 688.16 595.76 685.9C591.42 684.17 588.4 675.9 587.2 672.03L586.63 672.15C586.63 672.15 590.05 685.74 595.76 688.01C601.47 690.28 627.7 689.14 647.09 685.74C652.69 684.74 654.29 682.46 653.69 679.54C653.2 681.43 651.25 682.9 647.09 683.63Z" fill="black"/>
<path d="M517.95 454.81C461.49 454.81 415.72 409.04 415.72 352.58C415.72 296.12 461.49 250.35 517.95 250.35C574.41 250.35 620.18 296.12 620.18 352.58C620.18 409.04 574.41 454.81 517.95 454.81Z" fill="#B1B834"/>
<path d="M409.23 426.88C352.77 426.88 307 381.11 307 324.65C307 268.19 352.77 222.42 409.23 222.42C465.69 222.42 511.46 268.19 511.46 324.65C511.46 381.11 465.69 426.88 409.23 426.88Z" fill="#B1B834"/>
<path d="M289.55 427.88C233.09 427.88 187.32 382.11 187.32 325.65C187.32 269.19 233.09 223.42 289.55 223.42C346.01 223.42 391.78 269.19 391.78 325.65C391.78 382.11 346.01 427.88 289.55 427.88Z" fill="#B1B834"/>
<path d="M250.65 454.81C194.19 454.81 148.42 409.04 148.42 352.58C148.42 296.12 194.19 250.35 250.65 250.35C307.11 250.35 352.88 296.12 352.88 352.58C352.88 409.04 307.11 454.81 250.65 454.81Z" fill="#B1B834"/>
<path d="M184.82 463.79C128.36 463.79 82.59 418.02 82.59 361.56C82.59 305.1 128.36 259.33 184.82 259.33C241.28 259.33 287.05 305.1 287.05 361.56C287.05 418.02 241.28 463.79 184.82 463.79Z" fill="#B1B834"/>
<path d="M157.89 383C101.43 383 55.66 337.23 55.66 280.77C55.66 224.31 101.43 178.54 157.89 178.54C214.35 178.54 260.12 224.31 260.12 280.77C260.12 337.23 214.35 383 157.89 383Z" fill="#B1B834"/>
<path d="M187.81 289.24C131.35 289.24 85.58 243.47 85.58 187.01C85.58 130.55 131.35 84.7798 187.81 84.7798C244.27 84.7798 290.04 130.55 290.04 187.01C290.04 243.47 244.27 289.24 187.81 289.24Z" fill="#B1B834"/>
<path d="M244.66 289.24C188.2 289.24 142.43 243.47 142.43 187.01C142.43 130.55 188.2 84.7798 244.66 84.7798C301.12 84.7798 346.89 130.55 346.89 187.01C346.89 243.47 301.12 289.24 244.66 289.24Z" fill="#B1B834"/>
<path d="M277.58 247.35C221.12 247.35 175.35 201.58 175.35 145.12C175.35 88.6601 221.12 42.8901 277.58 42.8901C334.04 42.8901 379.81 88.6601 379.81 145.12C379.81 201.58 334.04 247.35 277.58 247.35Z" fill="#B1B834"/>
<path d="M361.36 293.23C304.9 293.23 259.13 247.46 259.13 191C259.13 134.54 304.9 88.77 361.36 88.77C417.82 88.77 463.59 134.54 463.59 191C463.59 247.46 417.82 293.23 361.36 293.23Z" fill="#B1B834"/>
<path d="M556.85 383C500.39 383 454.62 337.23 454.62 280.77C454.62 224.31 500.39 178.54 556.85 178.54C613.31 178.54 659.08 224.31 659.08 280.77C659.08 337.23 613.31 383 556.85 383Z" fill="#B1B834"/>
<path d="M498 332.13C441.54 332.13 395.77 286.36 395.77 229.9C395.77 173.44 441.54 127.67 498 127.67C554.46 127.67 600.23 173.44 600.23 229.9C600.23 286.36 554.46 332.13 498 332.13Z" fill="#B1B834"/>
<path d="M460.1 281.26C403.64 281.26 357.87 235.49 357.87 179.03C357.87 122.57 403.64 76.7998 460.1 76.7998C516.56 76.7998 562.33 122.57 562.33 179.03C562.33 235.49 516.56 281.26 460.1 281.26Z" fill="#B1B834"/>
<path d="M388.29 204.46C331.83 204.46 286.06 158.69 286.06 102.23C286.06 45.7699 331.83 0 388.29 0C444.75 0 490.52 45.7699 490.52 102.23C490.52 158.69 444.75 204.46 388.29 204.46Z" fill="#B1B834"/>
<path d="M521.94 289.24C465.48 289.24 419.71 243.47 419.71 187.01C419.71 130.55 465.48 84.7798 521.94 84.7798C578.4 84.7798 624.17 130.55 624.17 187.01C624.17 243.47 578.4 289.24 521.94 289.24Z" fill="#B1B834"/>
<path opacity="0.1" d="M619.73 203.02C619.73 203.02 524.52 157.87 466.91 237.89L619.73 203.02Z" fill="black"/>
<path opacity="0.1" d="M369.65 111.55C369.65 111.55 264.33 108.37 243.65 204.77L369.65 111.55Z" fill="black"/>
<path opacity="0.1" d="M238.72 320.71C238.72 320.71 143.51 275.55 85.9 355.55L238.72 320.71Z" fill="black"/>
</g>
<defs>
<linearGradient id="paint0_linear" x1="496.13" y1="724.88" x2="496.13" y2="454.75" gradientUnits="userSpaceOnUse">
<stop stop-color="#808080" stop-opacity="0.25"/>
<stop offset="0.54" stop-color="#808080" stop-opacity="0.12"/>
<stop offset="1" stop-color="#808080" stop-opacity="0.1"/>
</linearGradient>
<linearGradient id="paint1_linear" x1="-50088.5" y1="178222" x2="-50088.5" y2="128413" gradientUnits="userSpaceOnUse">
<stop stop-color="#808080" stop-opacity="0.25"/>
<stop offset="0.54" stop-color="#808080" stop-opacity="0.12"/>
<stop offset="1" stop-color="#808080" stop-opacity="0.1"/>
</linearGradient>
<clipPath id="clip0">
<rect width="714" height="781.11" transform="matrix(-1 0 0 1 714 0)" fill="white"/>
</clipPath>
</defs>
</svg>
