<svg width="784" height="617" viewBox="0 0 784 617" fill="none" xmlns="http://www.w3.org/2000/svg">
<g clip-path="url(#clip0)">
<mask id="mask0" mask-type="alpha" maskUnits="userSpaceOnUse" x="-1" y="0" width="785" height="617">
<path d="M4.18455 405.904C-28.5728 560.103 139.009 609.971 226.895 615.631C325.276 622.954 559.188 604.445 707.795 471.818C837.626 358.965 760.726 180.197 760.726 100.301C760.726 20.4054 479.093 123.272 434.152 40.3794C389.21 -42.5127 129.387 7.97866 40.6641 139.251C-18.1923 226.33 57.59 317.019 4.18455 405.904Z" fill="#C4C4C4"/>
</mask>
<g mask="url(#mask0)">
<path d="M-243 -44H859.566V692.043H-243V-44Z" fill="#B1B834"/>
<path d="M534.771 436.445C533.061 437.153 531.581 438.321 530.493 439.818L530.246 439.821C529.138 439.965 528.216 440.235 527.449 440.707C527.914 439.201 528.773 437.819 528.899 436.25C528.942 435.684 528.361 435.13 527.805 435.159C525.598 435.279 523.956 436.922 522.965 439.101C523.108 438.393 523.282 437.677 523.498 436.951C524.606 433.215 526.591 429.711 528.448 426.305C528.953 425.378 527.914 424.222 526.953 424.814C524.22 426.5 521.94 429.01 520.209 431.934L520.179 431.619C519.661 426.944 518.395 420.205 514.497 417.081C513.694 416.437 512.5 416.826 512.452 417.926C512.354 420.106 513.079 422.321 513.45 424.459C513.7 425.899 513.904 427.321 514.054 428.749C513.867 428.189 513.667 427.634 513.454 427.083C511.182 421.266 507.145 413.639 500.84 411.395C500.327 411.213 499.96 411.835 500.178 412.255C501.587 414.965 503.706 417.323 505.364 419.889C507.181 422.701 508.646 425.686 509.664 428.878C510.108 430.275 510.473 431.694 510.754 433.128C508.948 430.781 506.511 428.528 503.672 428.29C503.257 428.256 502.999 428.707 503.082 429.065C503.8 432.157 506.245 434.945 507.592 437.811C509.153 441.129 509.762 444.455 510.272 448.059C510.67 450.871 514.709 450.713 515.812 448.569C516.1 448.575 516.385 448.542 516.656 448.47C516.692 448.74 516.734 449.006 516.781 449.27C517.349 452.468 522.294 451.615 522.327 448.52C522.33 448.144 522.335 447.77 522.337 447.4C522.637 448.319 523.082 449.12 523.686 449.713C524.578 450.585 525.81 450.527 526.665 449.91L527.048 450.208C528.026 450.891 529.346 450.469 530.085 449.614C531.794 450.812 534.705 449.4 534.198 446.756C533.661 443.961 534.17 440.854 536.016 438.579C536.707 437.725 536.092 435.895 534.771 436.445ZM332.118 500.831C332.124 498.273 332.152 495.755 331.677 493.226C331.252 490.958 330.355 488.779 330.155 486.482C330.028 485.046 331.94 484.63 332.824 485.44C334.33 486.818 335.405 488.817 336.128 491.02C336.717 487.126 338.174 483.397 340.333 480.102C341.092 478.942 342.753 479.983 342.155 481.199C340.423 484.722 339.677 488.399 339.733 492.313C339.738 492.705 339.757 493.088 339.777 493.471C341.292 490.106 343.947 487.101 346.927 485.631C347.779 485.211 348.975 486.173 348.322 487.068C346.846 489.097 345.448 491.018 344.478 493.354C343.496 495.716 343.311 498.151 342.832 500.624C342.51 502.289 340.94 502.504 339.777 501.856C339.531 502.091 339.174 502.226 338.841 502.106C338.16 501.858 337.628 501.42 337.208 500.862L337.201 500.964C336.871 504.177 332.111 504.144 332.118 500.831ZM63.331 377.32C63.325 374.762 63.297 372.244 63.773 369.714C64.197 367.448 65.093 365.269 65.294 362.972C65.421 361.535 63.51 361.12 62.625 361.929C61.118 363.308 60.044 365.305 59.321 367.51C58.732 363.616 57.275 359.886 55.116 356.592C54.357 355.432 52.696 356.472 53.294 357.689C55.026 361.212 55.772 364.889 55.716 368.803C55.711 369.193 55.692 369.578 55.672 369.961C54.157 366.596 51.502 363.589 48.522 362.12C47.67 361.7 46.474 362.662 47.126 363.558C48.603 365.586 50.001 367.506 50.972 369.844C51.953 372.205 52.138 374.64 52.617 377.113C52.939 378.779 54.509 378.992 55.672 378.346C55.918 378.579 56.275 378.716 56.608 378.595C57.289 378.348 57.821 377.91 58.241 377.352L58.249 377.454C58.579 380.666 63.339 380.633 63.331 377.321V377.32ZM267.5 478.61C267.494 476.051 267.466 473.533 267.94 471.003C268.366 468.737 269.263 466.558 269.463 464.261C269.588 462.824 267.679 462.409 266.794 463.218C265.287 464.597 264.212 466.594 263.488 468.799C262.901 464.905 261.444 461.175 259.286 457.881C258.526 456.721 256.866 457.761 257.464 458.978C259.194 462.501 259.941 466.178 259.885 470.092C259.879 470.482 259.862 470.867 259.84 471.25C258.326 467.885 255.67 464.878 252.691 463.41C251.838 462.99 250.644 463.951 251.295 464.847C252.772 466.875 254.17 468.797 255.141 471.133C256.122 473.494 256.307 475.929 256.786 478.403C257.106 480.068 258.678 480.283 259.841 479.635C260.087 479.87 260.444 480.005 260.777 479.885C261.458 479.637 261.99 479.199 262.41 478.641L262.418 478.743C262.748 481.955 267.508 481.922 267.5 478.61ZM509.06 375.772C509.066 373.214 509.094 370.697 508.62 368.167C508.194 365.899 507.299 363.72 507.097 361.424C506.972 359.987 508.883 359.571 509.767 360.381C511.273 361.761 512.348 363.758 513.072 365.961C513.66 362.067 515.118 358.339 517.275 355.043C518.035 353.883 519.695 354.924 519.098 356.14C517.367 359.665 516.618 363.342 516.675 367.256C516.681 367.646 516.698 368.029 516.72 368.412C518.234 365.047 520.89 362.042 523.87 360.572C524.722 360.152 525.918 361.114 525.265 362.009C523.789 364.038 522.39 365.959 521.419 368.295C520.439 370.657 520.255 373.092 519.776 375.565C519.453 377.23 517.883 377.445 516.719 376.799C516.475 377.032 516.118 377.168 515.784 377.047C515.104 376.799 514.571 376.361 514.152 375.803L514.144 375.905C513.814 379.118 509.052 379.085 509.06 375.772ZM124.815 468.704C121.887 467.596 118.437 469.934 116.784 472.208L116.696 472.335L116.716 472.049C116.998 469.662 118 467.719 118.934 465.552C119.656 463.876 118.028 461.472 116.128 462.75C115.078 463.455 114.142 464.431 113.356 465.578C113.731 462.073 114.362 458.608 114.714 455.09C114.89 453.34 112.379 452.917 111.567 454.24C108.907 458.567 107.89 463.705 107.58 468.732C107.501 470.023 107.431 471.352 107.434 472.679L107.386 472.516C106.227 468.52 105.646 464.292 105.127 460.169C104.98 459 103.397 458.645 102.993 459.882C101.874 463.311 101.552 466.688 101.769 470.159C99.994 468.799 97.886 467.813 95.807 467.915C94.879 467.96 93.917 469.108 94.61 470C96.325 472.22 98.557 473.83 100.143 476.2C101.715 478.55 101.883 481.792 104.216 483.49C104.679 483.827 105.247 483.89 105.786 483.77C106.324 484.302 106.943 484.713 107.658 484.943C108.845 485.325 109.988 484.49 110.366 483.407C110.46 483.138 110.523 482.885 110.562 482.641C111.242 483.183 112.252 482.727 112.52 481.949C112.672 481.513 112.789 481.073 112.89 480.631C113.539 481.144 114.4 481.347 115.195 481.255L115.298 481.417C116.457 482.98 119.175 483.519 120.213 481.417C121.112 479.597 120.753 477.567 121.83 475.791C122.848 474.112 124.408 473.161 125.601 471.675C126.476 470.585 126.143 469.208 124.815 468.705V468.704ZM659.609 424.461C657.899 425.169 656.419 426.337 655.331 427.834L655.084 427.837C653.976 427.981 653.054 428.251 652.287 428.723C652.752 427.217 653.611 425.835 653.737 424.266C653.78 423.7 653.199 423.146 652.643 423.175C650.436 423.295 648.794 424.938 647.803 427.117C647.946 426.409 648.12 425.693 648.336 424.967C649.444 421.231 651.429 417.727 653.286 414.321C653.791 413.394 652.752 412.238 651.791 412.83C649.058 414.516 646.778 417.026 645.047 419.95L645.017 419.635C644.499 414.96 643.233 408.221 639.335 405.097C638.532 404.453 637.338 404.842 637.29 405.942C637.192 408.122 637.917 410.337 638.288 412.475C638.538 413.915 638.742 415.337 638.892 416.765C638.705 416.205 638.505 415.65 638.292 415.099C636.02 409.282 631.983 401.655 625.678 399.411C625.165 399.229 624.798 399.851 625.016 400.271C626.425 402.981 628.544 405.339 630.202 407.905C632.019 410.717 633.484 413.702 634.502 416.894C634.946 418.291 635.311 419.71 635.592 421.144C633.786 418.797 631.349 416.544 628.51 416.306C628.095 416.272 627.837 416.723 627.92 417.081C628.638 420.173 631.083 422.961 632.43 425.827C633.991 429.145 634.6 432.471 635.11 436.075C635.508 438.887 639.547 438.729 640.65 436.585C640.938 436.591 641.223 436.558 641.494 436.486C641.53 436.756 641.572 437.022 641.619 437.286C642.187 440.484 647.132 439.631 647.165 436.536C647.168 436.16 647.173 435.786 647.175 435.416C647.475 436.335 647.92 437.136 648.524 437.729C649.416 438.601 650.648 438.543 651.503 437.926L651.886 438.224C652.864 438.907 654.184 438.485 654.923 437.63C656.632 438.828 659.543 437.416 659.036 434.772C658.499 431.977 659.008 428.87 660.854 426.595C661.545 425.741 660.93 423.911 659.609 424.461ZM456.955 488.847C456.961 486.289 456.989 483.771 456.514 481.242C456.089 478.974 455.192 476.795 454.992 474.498C454.865 473.062 456.777 472.646 457.661 473.456C459.167 474.834 460.242 476.833 460.965 479.036C461.554 475.142 463.011 471.413 465.17 468.118C465.929 466.958 467.59 467.999 466.992 469.215C465.26 472.738 464.514 476.415 464.57 480.329C464.575 480.721 464.594 481.104 464.614 481.487C466.129 478.122 468.784 475.117 471.764 473.647C472.616 473.227 473.812 474.189 473.159 475.084C471.683 477.113 470.285 479.034 469.315 481.37C468.333 483.732 468.148 486.167 467.669 488.64C467.347 490.305 465.777 490.52 464.614 489.872C464.368 490.107 464.011 490.242 463.678 490.122C462.997 489.874 462.465 489.436 462.045 488.878L462.038 488.98C461.708 492.193 456.948 492.16 456.955 488.847ZM188.17 365.337C188.163 362.778 188.135 360.26 188.61 357.73C189.035 355.464 189.932 353.285 190.132 350.988C190.259 349.551 188.348 349.136 187.463 349.945C185.956 351.324 184.882 353.321 184.159 355.526C183.57 351.632 182.113 347.902 179.954 344.608C179.195 343.448 177.534 344.488 178.132 345.705C179.864 349.228 180.61 352.905 180.554 356.819C180.549 357.209 180.53 357.594 180.51 357.977C178.995 354.612 176.34 351.605 173.36 350.136C172.508 349.716 171.312 350.678 171.964 351.574C173.441 353.602 174.839 355.522 175.81 357.86C176.791 360.221 176.976 362.656 177.455 365.129C177.777 366.795 179.347 367.008 180.51 366.362C180.756 366.595 181.113 366.732 181.446 366.611C182.127 366.364 182.659 365.926 183.079 365.368L183.087 365.47C183.417 368.682 188.177 368.649 188.169 365.337H188.17ZM392.338 466.626C392.332 464.067 392.304 461.549 392.778 459.019C393.204 456.753 394.101 454.574 394.301 452.277C394.426 450.84 392.517 450.425 391.632 451.234C390.125 452.613 389.05 454.61 388.326 456.815C387.739 452.921 386.282 449.191 384.124 445.897C383.364 444.737 381.704 445.777 382.302 446.994C384.032 450.517 384.779 454.194 384.723 458.108C384.717 458.498 384.7 458.883 384.678 459.266C383.164 455.901 380.508 452.894 377.529 451.426C376.676 451.006 375.482 451.967 376.133 452.863C377.61 454.891 379.008 456.813 379.979 459.149C380.96 461.51 381.145 463.945 381.624 466.419C381.944 468.084 383.516 468.299 384.679 467.651C384.925 467.886 385.282 468.021 385.615 467.901C386.296 467.653 386.828 467.215 387.248 466.657L387.256 466.759C387.586 469.971 392.346 469.938 392.338 466.626ZM633.898 363.788C633.904 361.23 633.932 358.713 633.458 356.183C633.032 353.915 632.137 351.736 631.935 349.44C631.81 348.003 633.721 347.587 634.605 348.397C636.111 349.777 637.186 351.774 637.91 353.977C638.498 350.083 639.956 346.355 642.113 343.059C642.873 341.899 644.533 342.94 643.936 344.156C642.205 347.681 641.456 351.358 641.513 355.272C641.519 355.662 641.536 356.045 641.558 356.428C643.072 353.063 645.728 350.058 648.708 348.588C649.56 348.168 650.756 349.13 650.103 350.025C648.627 352.054 647.228 353.975 646.257 356.311C645.277 358.673 645.093 361.108 644.614 363.581C644.291 365.246 642.721 365.461 641.557 364.815C641.313 365.048 640.956 365.184 640.622 365.063C639.942 364.815 639.409 364.377 638.99 363.819L638.982 363.921C638.652 367.134 633.89 367.101 633.898 363.788ZM249.653 456.72C246.725 455.612 243.275 457.95 241.622 460.224L241.534 460.351L241.554 460.065C241.836 457.678 242.838 455.735 243.773 453.568C244.494 451.892 242.866 449.488 240.966 450.766C239.916 451.471 238.98 452.447 238.194 453.594C238.569 450.089 239.2 446.624 239.552 443.106C239.728 441.356 237.217 440.933 236.405 442.256C233.745 446.583 232.728 451.721 232.418 456.748C232.34 458.039 232.269 459.368 232.272 460.695L232.224 460.532C231.065 456.536 230.484 452.308 229.965 448.185C229.818 447.016 228.235 446.661 227.832 447.898C226.712 451.327 226.39 454.704 226.607 458.175C224.832 456.815 222.724 455.829 220.645 455.931C219.717 455.976 218.756 457.124 219.448 458.016C221.163 460.236 223.396 461.846 224.981 464.216C226.553 466.566 226.721 469.808 229.054 471.506C229.517 471.843 230.086 471.906 230.624 471.786C231.162 472.318 231.781 472.729 232.496 472.959C233.683 473.341 234.826 472.506 235.204 471.423C235.298 471.154 235.361 470.901 235.4 470.657C236.08 471.199 237.09 470.743 237.358 469.965C237.51 469.529 237.628 469.089 237.728 468.647C238.377 469.16 239.238 469.363 240.033 469.271L240.136 469.433C241.295 470.996 244.014 471.535 245.051 469.433C245.95 467.613 245.591 465.583 246.668 463.807C247.686 462.128 249.246 461.177 250.439 459.691C251.314 458.601 250.981 457.224 249.653 456.721V456.72ZM191.285 232.71C192.995 233.418 194.475 234.586 195.563 236.083L195.81 236.086C196.918 236.23 197.84 236.5 198.607 236.972C198.142 235.466 197.283 234.084 197.157 232.515C197.114 231.949 197.695 231.395 198.251 231.424C200.458 231.544 202.1 233.187 203.091 235.366C202.946 234.642 202.768 233.924 202.558 233.216C201.45 229.48 199.465 225.976 197.608 222.57C197.103 221.643 198.142 220.487 199.103 221.079C201.836 222.765 204.116 225.275 205.847 228.199L205.877 227.884C206.395 223.209 207.661 216.47 211.559 213.346C212.362 212.702 213.556 213.091 213.604 214.191C213.702 216.371 212.977 218.586 212.606 220.724C212.356 222.147 212.155 223.577 212.002 225.014C212.191 224.456 212.387 223.9 212.602 223.348C214.874 217.531 218.911 209.904 225.216 207.66C225.729 207.478 226.096 208.1 225.878 208.52C224.469 211.23 222.35 213.588 220.692 216.154C218.875 218.966 217.41 221.951 216.392 225.143C215.947 226.537 215.583 227.956 215.302 229.393C217.108 227.046 219.545 224.793 222.384 224.555C222.799 224.521 223.057 224.972 222.974 225.33C222.256 228.422 219.811 231.21 218.464 234.076C216.903 237.394 216.294 240.72 215.784 244.324C215.386 247.136 211.347 246.978 210.244 244.834C209.959 244.841 209.675 244.807 209.4 244.735C209.364 245.005 209.322 245.271 209.275 245.535C208.707 248.733 203.762 247.88 203.729 244.785C203.726 244.409 203.721 244.035 203.719 243.665C203.419 244.584 202.974 245.385 202.37 245.978C201.478 246.85 200.246 246.792 199.391 246.175L199.008 246.473C198.03 247.156 196.71 246.734 195.971 245.879C194.262 247.077 191.351 245.665 191.858 243.021C192.395 240.226 191.886 237.119 190.04 234.844C189.349 233.99 189.964 232.16 191.285 232.71ZM393.938 297.096C393.932 294.538 393.904 292.02 394.379 289.491C394.804 287.223 395.701 285.044 395.901 282.747C396.028 281.311 394.116 280.895 393.232 281.705C391.726 283.083 390.651 285.082 389.928 287.285C389.339 283.391 387.882 279.662 385.723 276.367C384.964 275.207 383.303 276.248 383.901 277.464C385.633 280.987 386.379 284.664 386.323 288.578C386.316 288.964 386.302 289.35 386.279 289.736C384.764 286.371 382.109 283.366 379.129 281.896C378.277 281.476 377.081 282.438 377.734 283.333C379.21 285.362 380.608 287.283 381.578 289.619C382.56 291.981 382.745 294.416 383.224 296.889C383.546 298.554 385.116 298.769 386.279 298.121C386.525 298.356 386.882 298.491 387.215 298.371C387.896 298.123 388.428 297.685 388.848 297.127L388.855 297.229C389.185 300.442 393.945 300.409 393.938 297.096ZM662.725 173.586C662.731 171.027 662.759 168.509 662.283 165.979C661.859 163.713 660.963 161.534 660.762 159.237C660.635 157.8 662.546 157.385 663.431 158.194C664.938 159.573 666.012 161.57 666.735 163.775C667.324 159.881 668.781 156.151 670.94 152.857C671.699 151.697 673.36 152.737 672.762 153.954C671.03 157.477 670.284 161.154 670.34 165.068C670.345 165.458 670.364 165.843 670.384 166.226C671.899 162.861 674.554 159.854 677.534 158.385C678.386 157.965 679.582 158.927 678.93 159.823C677.453 161.851 676.055 163.771 675.084 166.109C674.103 168.47 673.918 170.905 673.439 173.378C673.117 175.044 671.547 175.257 670.384 174.611C670.138 174.844 669.781 174.981 669.448 174.86C668.767 174.613 668.235 174.175 667.815 173.617L667.807 173.719C667.477 176.931 662.717 176.898 662.725 173.586ZM458.556 274.875C458.562 272.316 458.59 269.798 458.116 267.268C457.69 265.002 456.793 262.823 456.593 260.526C456.468 259.089 458.377 258.674 459.262 259.483C460.769 260.862 461.844 262.859 462.568 265.064C463.155 261.17 464.612 257.44 466.77 254.146C467.53 252.986 469.19 254.026 468.592 255.243C466.862 258.766 466.115 262.443 466.171 266.357C466.177 266.747 466.194 267.132 466.216 267.515C467.73 264.15 470.386 261.143 473.365 259.675C474.218 259.255 475.412 260.216 474.761 261.112C473.284 263.14 471.886 265.062 470.915 267.398C469.934 269.759 469.749 272.194 469.27 274.668C468.95 276.333 467.378 276.548 466.215 275.9C465.969 276.135 465.612 276.27 465.279 276.15C464.598 275.902 464.066 275.464 463.646 274.906L463.638 275.008C463.308 278.22 458.548 278.187 458.556 274.875ZM216.996 172.037C216.99 169.479 216.962 166.962 217.436 164.432C217.862 162.164 218.757 159.985 218.959 157.689C219.084 156.252 217.173 155.836 216.289 156.646C214.783 158.026 213.708 160.023 212.984 162.226C212.396 158.332 210.938 154.604 208.781 151.308C208.021 150.148 206.361 151.189 206.958 152.405C208.689 155.93 209.438 159.607 209.381 163.521C209.375 163.911 209.358 164.294 209.336 164.677C207.822 161.312 205.166 158.307 202.186 156.837C201.334 156.417 200.138 157.379 200.791 158.274C202.267 160.303 203.666 162.224 204.637 164.56C205.617 166.922 205.801 169.357 206.28 171.83C206.603 173.495 208.173 173.71 209.337 173.064C209.581 173.297 209.938 173.433 210.272 173.312C210.952 173.064 211.485 172.626 211.904 172.068L211.912 172.17C212.242 175.383 217.004 175.35 216.996 172.037ZM601.24 264.97C604.17 263.861 607.62 266.2 609.272 268.473L609.36 268.6L609.34 268.314C609.058 265.927 608.056 263.984 607.121 261.817C606.4 260.141 608.028 257.737 609.928 259.015C610.978 259.72 611.914 260.696 612.7 261.843C612.325 258.338 611.694 254.873 611.342 251.355C611.166 249.605 613.677 249.182 614.489 250.505C617.149 254.832 618.166 259.97 618.476 264.997C618.554 266.288 618.625 267.617 618.622 268.944L618.67 268.781C619.829 264.785 620.41 260.557 620.929 256.434C621.076 255.265 622.659 254.91 623.062 256.147C624.182 259.576 624.504 262.953 624.287 266.424C626.062 265.064 628.17 264.078 630.249 264.18C631.177 264.225 632.138 265.373 631.446 266.265C629.731 268.485 627.498 270.095 625.913 272.465C624.341 274.815 624.173 278.057 621.84 279.755C621.377 280.092 620.808 280.155 620.27 280.035C619.732 280.567 619.113 280.978 618.398 281.208C617.211 281.59 616.068 280.755 615.69 279.672C615.602 279.423 615.536 279.167 615.494 278.906C614.814 279.448 613.804 278.992 613.536 278.214C613.384 277.778 613.266 277.338 613.166 276.896C612.517 277.409 611.656 277.612 610.861 277.52L610.758 277.682C609.599 279.245 606.88 279.784 605.843 277.682C604.944 275.862 605.303 273.832 604.226 272.056C603.208 270.377 601.648 269.426 600.455 267.94C599.58 266.85 599.913 265.473 601.241 264.97H601.24ZM66.447 234.707C68.1567 235.415 69.6373 236.583 70.725 238.08L70.972 238.083C72.08 238.227 73.002 238.497 73.769 238.969C73.304 237.463 72.445 236.081 72.319 234.512C72.276 233.946 72.857 233.392 73.413 233.421C75.62 233.541 77.262 235.184 78.253 237.363C78.1079 236.639 77.93 235.921 77.72 235.213C76.612 231.477 74.627 227.973 72.77 224.567C72.265 223.64 73.304 222.484 74.265 223.076C76.998 224.762 79.278 227.272 81.009 230.196L81.039 229.881C81.557 225.206 82.823 218.467 86.721 215.343C87.524 214.699 88.718 215.088 88.766 216.188C88.864 218.368 88.139 220.583 87.768 222.721C87.5183 224.144 87.3169 225.574 87.164 227.011C87.353 226.453 87.549 225.897 87.764 225.345C90.036 219.528 94.073 211.901 100.378 209.657C100.891 209.475 101.258 210.097 101.04 210.517C99.631 213.227 97.512 215.585 95.854 218.151C94.037 220.963 92.572 223.948 91.554 227.14C91.1094 228.534 90.7454 229.953 90.464 231.39C92.27 229.043 94.707 226.79 97.546 226.552C97.961 226.518 98.219 226.969 98.136 227.327C97.418 230.419 94.973 233.207 93.626 236.073C92.065 239.391 91.456 242.717 90.946 246.321C90.548 249.133 86.509 248.975 85.406 246.831C85.1214 246.838 84.8373 246.804 84.562 246.732C84.526 247.002 84.484 247.268 84.437 247.532C83.869 250.73 78.924 249.877 78.891 246.782C78.888 246.406 78.883 246.032 78.881 245.662C78.581 246.581 78.136 247.382 77.532 247.975C76.64 248.847 75.408 248.789 74.553 248.172L74.17 248.47C73.192 249.153 71.872 248.731 71.133 247.876C69.424 249.074 66.513 247.662 67.02 245.018C67.557 242.223 67.048 239.116 65.202 236.841C64.511 235.987 65.126 234.157 66.447 234.707ZM269.101 299.094C269.095 296.536 269.067 294.018 269.542 291.489C269.967 289.221 270.864 287.042 271.064 284.745C271.191 283.309 269.279 282.893 268.395 283.703C266.889 285.081 265.814 287.08 265.091 289.283C264.502 285.389 263.045 281.66 260.886 278.365C260.127 277.205 258.466 278.246 259.064 279.462C260.796 282.985 261.542 286.662 261.486 290.576C261.479 290.962 261.465 291.348 261.442 291.734C259.927 288.369 257.272 285.364 254.292 283.894C253.44 283.474 252.244 284.436 252.897 285.331C254.373 287.36 255.771 289.281 256.741 291.617C257.723 293.979 257.908 296.414 258.387 298.887C258.709 300.552 260.279 300.767 261.442 300.119C261.688 300.354 262.045 300.489 262.378 300.369C263.059 300.121 263.591 299.683 264.011 299.125L264.018 299.227C264.348 302.44 269.108 302.407 269.101 299.094ZM537.887 175.584C537.893 173.025 537.921 170.507 537.445 167.977C537.021 165.711 536.125 163.532 535.924 161.235C535.797 159.798 537.708 159.383 538.593 160.192C540.1 161.571 541.174 163.568 541.897 165.773C542.486 161.879 543.943 158.149 546.102 154.855C546.861 153.695 548.522 154.735 547.924 155.952C546.192 159.475 545.446 163.152 545.502 167.066C545.507 167.456 545.526 167.841 545.546 168.224C547.061 164.859 549.716 161.852 552.696 160.383C553.548 159.963 554.744 160.925 554.092 161.821C552.615 163.849 551.217 165.769 550.246 168.107C549.265 170.468 549.08 172.903 548.601 175.376C548.279 177.042 546.709 177.255 545.546 176.609C545.3 176.842 544.943 176.979 544.61 176.858C543.929 176.611 543.397 176.173 542.977 175.615L542.969 175.717C542.639 178.929 537.879 178.896 537.887 175.584ZM333.718 276.872C333.724 274.313 333.752 271.795 333.278 269.265C332.852 266.999 331.955 264.82 331.755 262.523C331.63 261.086 333.539 260.671 334.424 261.48C335.931 262.859 337.006 264.856 337.73 267.061C338.317 263.167 339.774 259.437 341.932 256.143C342.692 254.983 344.352 256.023 343.754 257.24C342.024 260.763 341.277 264.44 341.333 268.354C341.339 268.744 341.356 269.129 341.378 269.512C342.892 266.147 345.548 263.14 348.527 261.672C349.38 261.252 350.574 262.213 349.923 263.109C348.446 265.137 347.048 267.059 346.077 269.395C345.096 271.756 344.911 274.191 344.432 276.665C344.112 278.33 342.54 278.545 341.377 277.897C341.131 278.132 340.774 278.267 340.441 278.147C339.76 277.899 339.228 277.461 338.808 276.903L338.8 277.005C338.47 280.217 333.71 280.184 333.718 276.872ZM92.158 174.035C92.152 171.477 92.124 168.96 92.598 166.43C93.024 164.162 93.919 161.983 94.121 159.687C94.246 158.25 92.335 157.834 91.451 158.644C89.945 160.024 88.87 162.021 88.147 164.224C87.558 160.33 86.101 156.602 83.944 153.306C83.183 152.146 81.522 153.187 82.12 154.403C83.851 157.928 84.6 161.605 84.543 165.519C84.537 165.909 84.52 166.292 84.498 166.675C82.984 163.31 80.328 160.305 77.348 158.835C76.496 158.415 75.3 159.377 75.953 160.272C77.429 162.301 78.828 164.222 79.799 166.558C80.779 168.92 80.963 171.355 81.442 173.828C81.765 175.493 83.335 175.708 84.499 175.062C84.743 175.295 85.1 175.431 85.434 175.31C86.114 175.062 86.647 174.624 87.066 174.066L87.074 174.168C87.404 177.381 92.166 177.348 92.158 174.035ZM476.403 266.966C479.331 265.858 482.781 268.196 484.434 270.47L484.522 270.597L484.502 270.311C484.22 267.924 483.218 265.981 482.283 263.814C481.562 262.138 483.19 259.734 485.09 261.012C486.14 261.717 487.076 262.693 487.862 263.84C487.487 260.335 486.856 256.87 486.504 253.352C486.328 251.602 488.839 251.179 489.651 252.502C492.311 256.829 493.328 261.967 493.638 266.994C493.716 268.285 493.787 269.614 493.784 270.941L493.832 270.778C494.991 266.782 495.572 262.554 496.091 258.431C496.238 257.262 497.821 256.907 498.224 258.144C499.344 261.573 499.666 264.95 499.449 268.421C501.224 267.061 503.332 266.075 505.411 266.177C506.339 266.222 507.3 267.37 506.608 268.262C504.893 270.482 502.66 272.092 501.075 274.462C499.503 276.812 499.335 280.054 497.002 281.752C496.539 282.089 495.97 282.152 495.432 282.032C494.894 282.564 494.275 282.975 493.56 283.205C492.373 283.587 491.23 282.752 490.852 281.669C490.764 281.42 490.698 281.164 490.656 280.903C489.976 281.445 488.966 280.989 488.698 280.211C488.546 279.775 488.428 279.335 488.328 278.893C487.679 279.406 486.818 279.609 486.023 279.517L485.92 279.679C484.761 281.242 482.042 281.781 481.005 279.679C480.106 277.859 480.465 275.829 479.388 274.053C478.37 272.374 476.81 271.423 475.617 269.937C474.742 268.847 475.075 267.47 476.403 266.967V266.966Z" fill="#6A8617"/>
</g>
</g>
<defs>
<clipPath id="clip0">
<rect width="784" height="617" fill="white"/>
</clipPath>
</defs>
</svg>
