<svg width="260" height="135" viewBox="0 0 260 135" fill="none" xmlns="http://www.w3.org/2000/svg">
<path opacity="0.1" d="M122 135C54.6213 135 0 113.286 0 86.5C0 59.7142 54.6213 38 122 38C189.379 38 244 59.7142 244 86.5C244 113.286 189.379 135 122 135Z" fill="#B1B834"/>
<path d="M197.373 14.9638C186.811 30.5505 190.18 86.3541 190.18 86.3541C190.18 86.3541 243.268 68.7837 253.83 53.2039C258.902 45.7189 260.792 36.5265 259.084 27.6488C257.375 18.771 252.209 10.9352 244.722 5.86517C237.234 0.795129 228.038 -1.09387 219.158 0.613732C210.277 2.32134 202.438 7.48569 197.366 14.9707L197.373 14.9638Z" fill="#B1B834"/>
<path opacity="0.1" d="M197.373 14.9638C186.811 30.5505 190.18 86.3541 190.18 86.3541C190.18 86.3541 243.268 68.7837 253.83 53.2039C258.902 45.7189 260.792 36.5265 259.084 27.6488C257.375 18.771 252.209 10.9352 244.722 5.86517C237.234 0.795129 228.038 -1.09387 219.158 0.613732C210.277 2.32134 202.438 7.48569 197.366 14.9707L197.373 14.9638Z" fill="black"/>
<path d="M244.522 5.89941C244.522 5.89941 204.739 36.6045 189.974 86.409" stroke="#535461" stroke-miterlimit="10"/>
<path d="M179.955 44.0984C179.955 44.0984 208.205 39.277 188.912 86.0509C188.912 86.0509 169.283 78.5709 167.753 59.9606C167.45 56.3397 168.485 52.7333 170.662 49.8241C172.84 46.9148 176.009 44.9047 179.57 44.1741L179.955 44.0984Z" fill="#B1B834"/>
<path d="M179.542 44.05C179.542 44.05 174.161 69.92 188.885 86.0646" stroke="#535461" stroke-miterlimit="10"/>
<path d="M91.5632 20.9766C91.5632 20.9766 87.7806 25.9219 93.3133 33.3743C98.846 40.8267 103.407 47.1496 101.581 51.8056C101.581 51.8056 93.2375 37.9339 86.4232 37.7411C79.609 37.5482 84.0944 29.3175 91.5632 20.9766Z" fill="#B1B834"/>
<path opacity="0.1" d="M91.5633 20.9766C91.234 21.454 90.9742 21.9758 90.7916 22.5263C84.1634 30.3093 80.6288 37.5758 87.0021 37.7617C92.9344 37.9339 100.059 48.5409 101.76 51.2202C101.705 51.4281 101.639 51.6327 101.561 51.8332C101.561 51.8332 93.2169 37.9615 86.4026 37.7686C79.5884 37.5758 84.0945 29.3175 91.5633 20.9766Z" fill="black"/>
<path d="M84.5285 27.2856C84.5285 29.0281 84.7214 30.4401 84.9625 30.4401C85.2037 30.4401 85.3966 29.0626 85.3966 27.2856C85.3966 25.5086 85.1554 26.3626 84.9143 26.3626C84.6731 26.3626 84.5285 25.543 84.5285 27.2856Z" fill="#FFD037"/>
<path d="M82.117 29.3588C83.6466 30.1922 84.9832 30.695 85.0935 30.4815C85.2037 30.2679 84.06 29.4208 82.5304 28.5874C81.0008 27.754 81.6071 28.3601 81.49 28.5874C81.3729 28.8147 80.5874 28.5529 82.117 29.3588Z" fill="#FFD037"/>
<path d="M111.558 20.9766C111.558 20.9766 115.341 25.9219 109.808 33.3743C104.275 40.8267 99.7141 47.1496 101.54 51.8056C101.54 51.8056 109.884 37.9339 116.698 37.7411C123.512 37.5482 119.034 29.3175 111.558 20.9766Z" fill="#B1B834"/>
<path opacity="0.1" d="M111.558 20.9766C111.887 21.454 112.147 21.9758 112.33 22.5263C118.958 30.3093 122.493 37.5758 116.119 37.7617C110.187 37.9339 103.063 48.5409 101.361 51.2202C101.416 51.4281 101.483 51.6327 101.561 51.8332C101.561 51.8332 109.905 37.9615 116.719 37.7686C123.533 37.5758 119.034 29.3175 111.558 20.9766Z" fill="black"/>
<path d="M118.593 27.2856C118.593 29.0281 118.4 30.4401 118.159 30.4401C117.918 30.4401 117.725 29.0626 117.725 27.2856C117.725 25.5086 117.966 26.3626 118.207 26.3626C118.448 26.3626 118.593 25.543 118.593 27.2856Z" fill="#FFD037"/>
<path d="M121.011 29.3588C119.482 30.1922 118.145 30.695 118.035 30.4815C117.924 30.2679 119.068 29.4208 120.598 28.5874C122.127 27.754 121.521 28.3601 121.638 28.5874C121.755 28.8147 122.513 28.5529 121.011 29.3588Z" fill="#FFD037"/>
<path d="M117.387 51.1786C117.387 51.1786 106.804 50.8549 103.607 48.582C100.41 46.3091 87.3257 43.6022 86.5403 47.2389C85.7548 50.8756 70.6381 65.3465 82.5854 65.443C94.5327 65.5394 110.345 63.5833 113.529 61.641C116.712 59.6986 117.387 51.1786 117.387 51.1786Z" fill="#A8A8A8"/>
<path opacity="0.2" d="M82.3787 64.1826C94.326 64.2791 110.139 62.323 113.322 60.3807C115.747 58.9067 116.712 53.6101 117.036 51.165H117.387C117.387 51.165 116.698 59.6988 113.535 61.6342C110.373 63.5697 94.5396 65.5326 82.5923 65.4362C79.1473 65.4362 77.9553 64.1827 78.0173 62.3643C78.4927 63.4732 79.7949 64.162 82.3787 64.1826Z" fill="black"/>
<path d="M177.33 119.291C176.067 118.261 175.147 116.873 174.691 115.31C174.347 113.725 175.022 111.831 176.538 111.253C178.233 110.605 180.045 111.776 181.416 112.968C182.787 114.159 184.365 115.509 186.163 115.254C185.239 114.417 184.548 113.354 184.156 112.17C183.765 110.986 183.687 109.721 183.931 108.498C184.009 107.991 184.223 107.515 184.551 107.12C185.495 106.115 187.197 106.548 188.327 107.341C191.91 109.861 192.909 114.724 192.929 119.105C193.288 117.527 192.984 115.881 192.998 114.283C193.012 112.685 193.453 110.839 194.817 109.999C195.663 109.545 196.613 109.319 197.573 109.345C199.185 109.283 200.977 109.448 202.079 110.626C203.457 112.086 203.092 114.545 201.9 116.136C200.708 117.727 198.903 118.753 197.236 119.869C195.899 120.663 194.759 121.749 193.901 123.044C193.8 123.224 193.717 123.413 193.653 123.609H183.559C181.297 122.457 179.202 121.004 177.33 119.291Z" fill="#B1B834"/>
</svg>
