<svg width="473" height="212" viewBox="0 0 473 212" fill="none" xmlns="http://www.w3.org/2000/svg">
<path d="M362.662 205.645C375.641 205.645 386.163 203.867 386.163 201.674C386.163 199.481 375.641 197.704 362.662 197.704C349.683 197.704 339.161 199.481 339.161 201.674C339.161 203.867 349.683 205.645 362.662 205.645Z" fill="#A0C23C"/>
<path opacity="0.1" d="M284.662 166.217C297.641 166.217 308.163 164.439 308.163 162.247C308.163 160.054 297.641 158.276 284.662 158.276C271.683 158.276 261.161 160.054 261.161 162.247C261.161 164.439 271.683 166.217 284.662 166.217Z" fill="#A0C23C"/>
<path opacity="0.1" d="M23.5011 211.8C36.4805 211.8 47.0023 210.022 47.0023 207.829C47.0023 205.636 36.4805 203.858 23.5011 203.858C10.5218 203.858 0 205.636 0 207.829C0 210.022 10.5218 211.8 23.5011 211.8Z" fill="#A0C23C"/>
<path d="M436.988 165.415C456.367 165.415 472.078 162.758 472.078 159.481C472.078 156.204 456.367 153.547 436.988 153.547C417.608 153.547 401.897 156.204 401.897 159.481C401.897 162.758 417.608 165.415 436.988 165.415Z" fill="#A0C23C"/>
<path opacity="0.1" d="M91.2039 188.773C134.947 188.773 170.408 182.78 170.408 175.387C170.408 167.993 134.947 162 91.2039 162C47.4608 162 12 167.993 12 175.387C12 182.78 47.4608 188.773 91.2039 188.773Z" fill="#A0C23C"/>
<path d="M451.491 149.777C453.093 148.47 454.261 146.708 454.843 144.724C455.27 142.717 454.415 140.317 452.504 139.584C450.357 138.764 448.062 140.247 446.325 141.757C444.589 143.267 442.59 144.969 440.313 144.654C441.484 143.594 442.36 142.248 442.856 140.747C443.351 139.247 443.449 137.643 443.14 136.094C443.041 135.451 442.77 134.848 442.355 134.348C441.159 133.074 439.004 133.624 437.572 134.628C433.034 137.821 431.769 143.983 431.743 149.533C431.289 147.534 431.673 145.449 431.664 143.424C431.656 141.399 431.088 139.061 429.36 137.987C428.292 137.399 427.089 137.098 425.87 137.115C423.828 137.045 421.559 137.245 420.162 138.738C418.417 140.597 418.88 143.703 420.389 145.719C421.899 147.735 424.186 149.035 426.289 150.449C427.981 151.455 429.425 152.83 430.512 154.472C430.638 154.701 430.743 154.94 430.827 155.188H443.611C446.47 153.747 449.12 151.927 451.491 149.777Z" fill="#A0C23C"/>
<path d="M377.175 192.179C378.774 190.872 379.939 189.11 380.517 187.127C380.944 185.119 380.098 182.763 378.178 181.987C376.031 181.166 373.736 182.65 372 184.159C370.263 185.669 368.265 187.371 365.987 187.057C367.158 185.996 368.034 184.65 368.53 183.149C369.026 181.649 369.124 180.046 368.814 178.496C368.72 177.852 368.448 177.248 368.029 176.751C366.842 175.477 364.678 176.026 363.255 177.03C358.717 180.224 357.452 186.385 357.426 191.935C356.963 189.936 357.347 187.851 357.339 185.826C357.33 183.802 356.763 181.463 355.035 180.39C353.963 179.814 352.76 179.528 351.544 179.561C349.502 179.491 347.233 179.691 345.837 181.184C344.091 183.042 344.554 186.149 346.064 188.165C347.573 190.181 349.86 191.481 351.972 192.895C353.661 193.902 355.102 195.277 356.187 196.918C356.312 197.147 356.417 197.386 356.501 197.633H369.286C372.148 196.178 374.802 194.343 377.175 192.179Z" fill="#A0C23C"/>
<path d="M50.1178 161.805C50.1178 161.805 37.8567 120.17 52.4217 89.5309C58.6238 76.713 60.4979 62.2283 57.7624 48.254C56.4127 41.6343 54.4585 35.1523 51.9242 28.8896" stroke="#535461" stroke-width="2" stroke-miterlimit="10"/>
<path d="M60.9564 9.52546C60.9564 14.6305 51.7147 29.4222 51.7147 29.4222C51.7147 29.4222 42.4818 14.6305 42.4818 9.52546C42.4438 8.28854 42.6546 7.05659 43.1017 5.90267C43.5488 4.74875 44.2231 3.69637 45.0847 2.80798C45.9462 1.91958 46.9773 1.21327 48.117 0.730929C49.2566 0.248585 50.4816 0 51.7191 0C52.9566 0 54.1816 0.248585 55.3212 0.730929C56.4609 1.21327 57.492 1.91958 58.3535 2.80798C59.2151 3.69637 59.8894 4.74875 60.3365 5.90267C60.7836 7.05659 60.9944 8.28854 60.9564 9.52546Z" fill="#A0C23C"/>
<path d="M76.2282 37.791C73.4531 42.0671 57.6577 49.4673 57.6577 49.4673C57.6577 49.4673 57.9456 32.014 60.7208 27.7467C62.0844 25.7632 64.168 24.3901 66.5286 23.9193C68.8891 23.4485 71.3402 23.9172 73.3604 25.2257C75.3807 26.5342 76.8107 28.5793 77.3462 30.926C77.8818 33.2726 77.4807 35.7356 76.2282 37.791Z" fill="#A0C23C"/>
<path d="M75.565 86.0837C71.0096 88.3875 53.6346 86.7993 53.6346 86.7993C53.6346 86.7993 62.6843 71.8856 67.2396 69.5905C69.4169 68.5689 71.9067 68.4364 74.1801 69.221C76.4536 70.0056 78.3316 71.6455 79.4153 73.7925C80.499 75.9395 80.7031 78.4244 79.9842 80.7194C79.2652 83.0144 77.6799 84.9387 75.565 86.0837Z" fill="#A0C23C"/>
<path d="M66.8295 122.535C62.7279 125.563 45.3355 126.898 45.3355 126.898C45.3355 126.898 51.7409 110.667 55.8076 107.63C57.7812 106.314 60.1855 105.807 62.5226 106.214C64.8598 106.621 66.9508 107.912 68.3627 109.818C69.7746 111.725 70.3993 114.101 70.1074 116.455C69.8155 118.81 68.6294 120.961 66.7946 122.465L66.8295 122.535Z" fill="#A0C23C"/>
<path d="M38.2581 50.462C41.9233 54.0137 58.9667 57.6964 58.9667 57.6964C58.9667 57.6964 54.7953 40.7579 51.1126 37.2062C49.3412 35.5721 47.0014 34.6946 44.5922 34.7608C42.1831 34.8271 39.8951 35.8318 38.2162 37.5609C36.5372 39.2899 35.6001 41.6064 35.6047 44.0164C35.6093 46.4265 36.5551 48.7393 38.2406 50.462H38.2581Z" fill="#A0C23C"/>
<path d="M28.5889 93.196C33.1443 95.4911 50.5105 93.9028 50.5105 93.9028C50.5105 93.9028 41.4609 78.9891 36.9055 76.694C34.724 75.6494 32.22 75.5016 29.9308 76.2824C27.6416 77.0631 25.7497 78.7101 24.6612 80.87C23.5727 83.0298 23.3743 85.5303 24.1086 87.8348C24.843 90.1393 26.4515 92.064 28.5889 93.196Z" fill="#A0C23C"/>
<path d="M24.8801 136.018C28.9816 139.054 46.374 140.381 46.374 140.381C46.374 140.381 39.9686 124.149 35.9019 121.121C33.9283 119.805 31.5241 119.298 29.1869 119.705C26.8498 120.112 24.7588 121.403 23.3469 123.309C21.9349 125.216 21.3103 127.592 21.6022 129.946C21.8941 132.301 23.0802 134.453 24.9149 135.957L24.8801 136.018Z" fill="#A0C23C"/>
<path d="M21.11 159.187C21.11 159.187 36.0415 156.22 40.0296 152.267C44.0178 148.314 61.925 141.402 63.9147 146.342C65.9044 151.281 90.7931 168.08 73.872 171.047C56.9508 174.014 34.0518 175 29.0776 173.028C24.1033 171.055 21.11 159.187 21.11 159.187Z" fill="#A8A8A8"/>
<path opacity="0.2" d="M73.8981 169.188C56.977 172.155 34.078 173.141 29.1037 171.16C25.3076 169.659 22.6721 162.433 21.6337 159.056L21.11 159.187C21.11 159.187 24.0946 171.047 29.0776 173.027C34.0605 175.008 56.9508 174.014 73.8719 171.047C78.7589 170.174 80.1552 168.184 79.6316 165.636C79.2389 167.268 77.5372 168.551 73.8981 169.188Z" fill="black"/>
<path d="M289.47 105C289.47 105 294.27 111.274 287.263 120.708C280.255 130.141 274.478 138.161 276.79 144.069C276.79 144.069 287.367 126.485 295.989 126.241C304.611 125.996 298.921 115.55 289.47 105Z" fill="#A0C23C"/>
<path opacity="0.1" d="M289.47 105C289.89 105.608 290.222 106.272 290.457 106.972C298.852 116.833 303.32 126.04 295.248 126.267C287.734 126.485 278.719 139.924 276.555 143.319C276.626 143.582 276.71 143.841 276.808 144.095C276.808 144.095 287.385 126.511 296.007 126.267C304.629 126.022 298.921 115.55 289.47 105Z" fill="black"/>
<path d="M298.389 112.993C298.389 115.201 298.136 116.99 297.831 116.99C297.525 116.99 297.281 115.245 297.281 112.993C297.281 110.742 297.586 111.824 297.892 111.824C298.197 111.824 298.389 110.785 298.389 112.993Z" fill="#FFD037"/>
<path d="M301.443 115.629C299.506 116.685 297.813 117.322 297.674 117.051C297.534 116.781 298.974 115.716 300.911 114.66C302.849 113.604 302.089 114.372 302.238 114.66C302.386 114.948 303.381 114.573 301.443 115.629Z" fill="#FFD037"/>
<path d="M264.154 105C264.154 105 259.354 111.274 266.362 120.708C273.37 130.141 279.147 138.161 276.834 144.069C276.834 144.069 266.266 126.485 257.635 126.241C249.004 125.996 254.686 115.55 264.154 105Z" fill="#A0C23C"/>
<path opacity="0.1" d="M264.154 105C263.734 105.608 263.402 106.272 263.168 106.972C254.773 116.833 250.305 126.04 258.377 126.267C265.891 126.485 274.906 139.924 277.07 143.319C277 143.583 276.912 143.842 276.808 144.095C276.808 144.095 266.24 126.511 257.609 126.267C248.978 126.022 254.686 115.55 264.154 105Z" fill="black"/>
<path d="M255.235 112.993C255.235 115.201 255.488 116.99 255.794 116.99C256.099 116.99 256.344 115.245 256.344 112.993C256.344 110.742 256.038 111.824 255.733 111.824C255.427 111.824 255.235 110.785 255.235 112.993Z" fill="#FFD037"/>
<path d="M252.181 115.629C254.118 116.685 255.803 117.322 255.951 117.051C256.099 116.781 254.651 115.716 252.713 114.66C250.776 113.604 251.535 114.372 251.387 114.66C251.238 114.948 250.244 114.573 252.181 115.629Z" fill="#FFD037"/>
<path d="M256.763 143.275C256.763 143.275 270.167 142.856 274.216 139.985C278.265 137.114 294.837 133.675 295.841 138.239C296.845 142.803 315.982 161.182 300.85 161.304C285.718 161.426 265.69 158.948 261.658 156.495C257.627 154.043 256.763 143.275 256.763 143.275Z" fill="#A8A8A8"/>
<path opacity="0.2" d="M301.112 159.742C285.98 159.864 265.952 157.386 261.92 154.934C258.848 153.066 257.618 146.355 257.216 143.257H256.763C256.763 143.257 257.635 154.07 261.65 156.522C265.664 158.974 285.709 161.452 300.841 161.33C305.205 161.33 306.714 159.742 306.636 157.447C306.025 158.852 304.358 159.716 301.112 159.742Z" fill="black"/>
</svg>
