<svg width="130" height="127" viewBox="0 0 130 127" fill="none" xmlns="http://www.w3.org/2000/svg">
<path d="M79.2718 4.70693C76.3392 3.02177 73.2663 1.70332 69.9829 1.01861L69.8298 1.75282C68.2699 1.42751 66.663 1.25 65 1.25C63.1936 1.25 61.285 1.34392 59.3078 1.52462L59.2395 0.777728C55.5912 1.11113 51.7245 1.73575 47.8478 2.60295L48.0115 3.33486C44.286 4.16825 40.5516 5.22721 36.9972 6.46732L36.7502 5.75918C32.9394 7.08877 29.3318 8.62561 26.155 10.3166L26.5074 10.9786C24.7386 11.9201 23.1115 12.9066 21.6646 13.9277C20.3308 14.8689 19.0796 15.8526 17.9063 16.8771L17.413 16.3122C14.8971 18.5091 12.7299 20.8937 10.8691 23.4508L11.4755 23.8921C9.59789 26.4724 8.03597 29.2339 6.74543 32.1626L6.05911 31.8602C4.77715 34.7693 3.76065 37.8369 2.96677 41.0475L3.69484 41.2275C2.94728 44.2508 2.39815 47.4072 2.01194 50.6852L1.26709 50.5975C0.898785 53.7233 0.678082 56.9534 0.57359 60.2765L1.32322 60.3C1.27327 61.8888 1.25 63.4998 1.25 65.1317C1.25 67.0637 1.35536 68.9241 1.55531 70.7252L0.809888 70.808C1.24507 74.7281 2.12205 78.3759 3.33531 81.8696L4.04381 81.6235C5.2674 85.147 6.84044 88.5194 8.65697 91.8692L7.99766 92.2268C9.75778 95.4726 11.7386 98.686 13.8399 101.979L14.4722 101.576C15.3086 102.887 16.164 104.21 17.0336 105.556C17.2049 105.821 17.3768 106.086 17.5492 106.353C18.3404 107.578 19.2273 108.742 20.2007 109.846L19.6382 110.342C21.583 112.548 23.8604 114.515 26.3973 116.251L26.8208 115.632C29.19 117.253 31.795 118.673 34.5761 119.896L34.2741 120.582C36.9621 121.765 39.8064 122.763 42.7526 123.584L42.9539 122.861C45.7769 123.647 48.6969 124.269 51.6649 124.731L51.5494 125.473C54.5043 125.933 57.5041 126.236 60.5014 126.387L60.5391 125.638C62.0287 125.713 63.5176 125.75 65 125.75C66.6602 125.75 68.2779 125.735 69.8549 125.702L69.8709 126.451C73.2901 126.378 76.5233 126.216 79.585 125.918L79.5125 125.172C82.8924 124.843 86.0508 124.35 89.0115 123.632L89.1882 124.361C92.4544 123.57 95.4936 122.506 98.3319 121.091L97.9972 120.42C100.808 119.018 103.417 117.264 105.852 115.074L106.353 115.632C108.627 113.588 110.751 111.174 112.746 108.325L112.132 107.895C113.015 106.633 113.875 105.282 114.712 103.837C115.501 102.475 116.355 100.942 117.238 99.281L117.9 99.6331C119.409 96.7955 121.003 93.5876 122.51 90.2168L121.825 89.9107C123.231 86.7657 124.559 83.4831 125.669 80.2328L126.378 80.4752C127.566 76.9982 128.508 73.5528 129.035 70.3434L128.295 70.2219C128.589 68.4264 128.75 66.7181 128.75 65.1317C128.75 63.5156 128.675 61.9568 128.528 60.451L129.275 60.3785C128.952 57.0505 128.288 53.9698 127.329 51.0934L126.618 51.3305C125.612 48.3106 124.274 45.5186 122.659 42.9015L123.297 42.5075C121.642 39.8262 119.702 37.3284 117.536 34.9605L116.983 35.4668C114.912 33.2032 112.626 31.0548 110.175 28.9731L110.661 28.4014C108.298 26.3945 105.788 24.4541 103.178 22.5376L102.734 23.1422C101.473 22.2165 100.188 21.2958 98.8828 20.3749C97.5274 19.4185 96.1833 18.3909 94.8436 17.329L95.3095 16.7412C94.0894 15.7741 92.8684 14.7745 91.6396 13.7686C90.2747 12.6513 88.9002 11.5261 87.5068 10.4288L87.0428 11.018C84.3997 8.93658 81.709 6.97244 78.8981 5.35721L79.2718 4.70693Z" stroke="#B1B834" stroke-width="1.5" stroke-dasharray="10 10"/>
</svg>
