<svg width="126" height="129" viewBox="0 0 126 129" fill="none" xmlns="http://www.w3.org/2000/svg">
<path d="M121.793 78.7718C123.478 75.8392 124.797 72.7663 125.481 69.4829L124.747 69.3298C125.072 67.7699 125.25 66.163 125.25 64.5C125.25 62.6936 125.156 60.785 124.975 58.8078L125.722 58.7395C125.389 55.0912 124.764 51.2245 123.897 47.3478L123.165 47.5116C122.332 43.786 121.273 40.0516 120.033 36.4973L120.741 36.2502C119.411 32.4394 117.874 28.8318 116.183 25.655L115.521 26.0074C114.58 24.2386 113.593 22.6115 112.572 21.1646C111.631 19.8308 110.647 18.5796 109.623 17.4063L110.188 16.913C107.991 14.3971 105.606 12.2299 103.049 10.3691L102.608 10.9755C100.028 9.09789 97.2661 7.53597 94.3374 6.24543L94.6399 5.55911C91.7307 4.27715 88.6631 3.26066 85.4525 2.46677L85.2725 3.19484C82.2493 2.44728 79.0928 1.89816 75.8148 1.51194L75.9025 0.76709C72.7767 0.398788 69.5466 0.178085 66.2235 0.0735931L66.2 0.823227C64.6112 0.77327 63.0002 0.75 61.3683 0.75C59.4363 0.75 57.5759 0.855362 55.7748 1.05531L55.692 0.309891C51.7719 0.745071 48.1241 1.62206 44.6304 2.83531L44.8765 3.54381C41.353 4.7674 37.9806 6.34045 34.6308 8.15697L34.2733 7.49767C31.0275 9.25778 27.814 11.2386 24.5206 13.34L24.924 13.9722C23.6132 14.8086 22.2898 15.664 20.9444 16.5336C20.6794 16.7049 20.4135 16.8768 20.1467 17.0492C18.922 17.8404 17.758 18.7273 16.6539 19.7007L16.1579 19.1382C13.952 21.083 11.985 23.3604 10.2491 25.8973L10.8681 26.3208C9.24689 28.69 7.82719 31.295 6.60408 34.0761L5.91754 33.7741C4.73535 36.4621 3.73692 39.3064 2.91635 42.2526L3.63886 42.4539C2.8526 45.2769 2.23075 48.1969 1.76853 51.1649L1.02747 51.0494C0.5673 54.0043 0.26427 57.0041 0.113224 60.0014L0.862273 60.0391C0.787211 61.5287 0.75 63.0176 0.75 64.5C0.75 66.1602 0.764645 67.7779 0.798386 69.3549L0.0485576 69.3709C0.121714 72.7901 0.284378 76.0233 0.581969 79.085L1.32845 79.0125C1.65697 82.3924 2.15017 85.5508 2.86773 88.5115L2.13883 88.6882C2.93044 91.9544 3.99373 94.9936 5.40923 97.8319L6.08039 97.4972C7.48239 100.308 9.2363 102.917 11.4256 105.352L10.8678 105.853C12.9116 108.127 15.3261 110.251 18.1751 112.246L18.6053 111.632C19.8674 112.515 21.2178 113.375 22.6627 114.212C24.0252 115.001 25.558 115.855 27.219 116.738L26.8669 117.4C29.7045 118.909 32.9124 120.503 36.2832 122.01L36.5893 121.325C39.7343 122.731 43.0169 124.059 46.2672 125.169L46.0248 125.878C49.5018 127.066 52.9472 128.008 56.1566 128.535L56.2781 127.795C58.0736 128.089 59.7819 128.25 61.3683 128.25C62.9844 128.25 64.5432 128.175 66.049 128.028L66.1215 128.775C69.4495 128.452 72.5302 127.788 75.4066 126.829L75.1695 126.118C78.1894 125.112 80.9814 123.774 83.5985 122.159L83.9925 122.797C86.6738 121.142 89.1716 119.202 91.5395 117.036L91.0332 116.483C93.2968 114.412 95.4452 112.126 97.5269 109.675L98.0986 110.161C100.106 107.798 102.046 105.288 103.962 102.678L103.358 102.234C104.284 100.973 105.204 99.6878 106.125 98.3828C107.082 97.0274 108.109 95.6833 109.171 94.3436L109.759 94.8095C110.726 93.5894 111.726 92.3684 112.731 91.1396C113.849 89.7747 114.974 88.4002 116.071 87.0068L115.482 86.5428C117.563 83.8997 119.528 81.209 121.143 78.3981L121.793 78.7718Z" stroke="#B1B834" stroke-width="1.5" stroke-dasharray="10 10"/>
</svg>
