<svg width="126" height="129" viewBox="0 0 126 129" fill="none" xmlns="http://www.w3.org/2000/svg">
<path d="M4.20693 50.2282C2.52176 53.1607 1.20331 56.2337 0.518603 59.517L1.25281 59.6702C0.9275 61.2301 0.749987 62.837 0.749987 64.5C0.749987 66.3063 0.843912 68.215 1.02461 70.1922L0.277719 70.2605C0.611116 73.9088 1.23574 77.7755 2.10294 81.6522L2.83485 81.4884C3.66824 85.214 4.7272 88.9484 5.96731 92.5027L5.25917 92.7498C6.58876 96.5606 8.1256 100.168 9.81656 103.345L10.4786 102.993C11.4201 104.761 12.4066 106.388 13.4277 107.835C14.3689 109.169 15.3526 110.42 16.3771 111.594L15.8122 112.087C18.0091 114.603 20.3937 116.77 22.9508 118.631L23.3921 118.024C25.9724 119.902 28.7339 121.464 31.6626 122.755L31.3601 123.441C34.2693 124.723 37.3369 125.739 40.5475 126.533L40.7275 125.805C43.7507 126.553 46.9072 127.102 50.1852 127.488L50.0975 128.233C53.2233 128.601 56.4534 128.822 59.7765 128.926L59.8 128.177C61.3888 128.227 62.9997 128.25 64.6317 128.25C66.5636 128.25 68.4241 128.145 70.2252 127.945L70.308 128.69C74.2281 128.255 77.8759 127.378 81.3696 126.165L81.1235 125.456C84.647 124.233 88.0194 122.66 91.3692 120.843L91.7267 121.502C94.9725 119.742 98.186 117.761 101.479 115.66L101.076 115.028C102.387 114.191 103.71 113.336 105.056 112.466C105.321 112.295 105.586 112.123 105.853 111.951C107.078 111.16 108.242 110.273 109.346 109.299L109.842 109.862C112.048 107.917 114.015 105.64 115.751 103.103L115.132 102.679C116.753 100.31 118.173 97.705 119.396 94.9239L120.082 95.2259C121.265 92.5379 122.263 89.6936 123.084 86.7474L122.361 86.5461C123.147 83.7231 123.769 80.8031 124.231 77.8351L124.973 77.9506C125.433 74.9957 125.736 71.9959 125.887 68.9986L125.138 68.9609C125.213 67.4713 125.25 65.9824 125.25 64.5C125.25 62.8398 125.235 61.2221 125.202 59.6451L125.951 59.6291C125.878 56.2099 125.716 52.9767 125.418 49.915L124.672 49.9875C124.343 46.6076 123.85 43.4492 123.132 40.4885L123.861 40.3118C123.07 37.0456 122.006 34.0064 120.591 31.1681L119.92 31.5028C118.518 28.6917 116.764 26.0831 114.574 23.6481L115.132 23.1466C113.088 20.8734 110.674 18.7495 107.825 16.7542L107.395 17.3685C106.133 16.4846 104.782 15.625 103.337 14.7882C101.975 13.999 100.442 13.1454 98.7809 12.2621L99.1331 11.5999C96.2955 10.0911 93.0876 8.49728 89.7168 6.99034L89.4107 7.67503C86.2657 6.26904 82.9831 4.94119 79.7328 3.83127L79.9752 3.12151C76.4982 1.93416 73.0528 0.992352 69.8434 0.465392L69.7219 1.20548C67.9264 0.910666 66.2181 0.749995 64.6317 0.749995C63.0156 0.749994 61.4568 0.825464 59.951 0.971682L59.8785 0.225193C56.5505 0.548352 53.4698 1.2122 50.5934 2.17058L50.8305 2.88212C47.8106 3.88831 45.0186 5.22587 42.4015 6.84122L42.0075 6.203C39.3262 7.85798 36.8284 9.79757 34.4605 11.964L34.9668 12.5174C32.7032 14.5884 30.5548 16.8738 28.4731 19.3248L27.9014 18.8393C25.8945 21.2023 23.9541 23.7118 22.0376 26.3222L22.6422 26.7661C21.7165 28.0269 20.7958 29.3122 19.8749 30.6171C18.9185 31.9726 17.8909 33.3167 16.829 34.6563L16.2412 34.1905C15.2741 35.4106 14.2745 36.6316 13.2686 37.8604C12.1512 39.2253 11.0261 40.5998 9.92877 41.9932L10.518 42.4572C8.43657 45.1002 6.47243 47.791 4.8572 50.6019L4.20693 50.2282Z" stroke="#B1B834" stroke-width="1.5" stroke-dasharray="10 10"/>
</svg>
