<svg xmlns="http://www.w3.org/2000/svg" width="134.8" height="124.9"><path d="M102.6 114.8c3.2-1.1 6.2-2.6 8.8-4.6l-.5-.6c1.3-1 2.4-2.1 3.5-3.3 1.2-1.4 2.3-2.9 3.5-4.5l.6.4c2.1-3 4.2-6.3 6-9.8l-.5-.4c1.8-3.4 3.4-6.9 4.8-10.4l.7.3c1.5-3.8 2.7-7.5 3.4-11l-.7-.2c.4-2 .7-3.8.9-5.6.2-1.6.2-3.2.2-4.8h.8c0-3.3-.4-6.5-1.2-9.6l-.7.2c-.7-3.1-1.8-6.1-3.2-9l.7-.3c-1.4-2.9-3-5.6-5-8.3l-.6.4c-1.8-2.5-3.8-5-6.1-7.4l.6-.5c-2.1-2.3-4.4-4.6-6.9-6.8l-.5.6c-1.2-1.1-2.4-2.1-3.6-3.2-1.5-1.3-2.9-2.4-4.4-3.4l.4-.6c-3.3-2.2-6.6-3.9-10-5.3l-.3.7c-3.5-1.4-7.1-2.4-10.8-3.2l.2-.7c-3.7-1-7.4-1.5-11.3-2.1l-.1.7c-1.5-.2-3.1-.4-4.7-.6-.3 0-.6-.1-.9-.1-1.4-.2-2.9-.3-4.4-.3V.8c-2.9 0-5.9.5-8.9 1.3l.2.7c-2.8.7-5.5 1.8-8.3 3.1l-.3-.7c-2.6 1.3-5.3 2.8-7.8 4.5l.4.6c-2.4 1.6-4.8 3.4-7.1 5.4l-.5-.6c-2.3 1.9-4.5 4-6.5 6.2l.5.5-3 3.3c-1.1 1.3-2.1 2.5-3.1 3.7l-.6-.5c-2.2 2.6-4.2 5.2-5.9 7.7l.6.4c-2 2.8-3.6 5.5-5 8.2l-.7-.3c-1.5 3-2.7 6-3.5 9.1l.7.2c-.8 3-1.1 6.2-1.1 9.4H.7c.1 3.1.5 6.2 1.4 9.6l.7-.2c.4 1.5.8 3 1.4 4.6.5 1.5 1.1 3.1 1.8 4.9l-.7.3c1.2 3 2.6 6.3 4.1 9.6l.7-.3c1.5 3.1 3.1 6.3 4.8 9.2l-.6.4c1.9 3.2 3.9 6.1 6 8.6l.6-.5c1.2 1.4 2.4 2.6 3.6 3.7 1.2 1.1 2.5 2 3.7 2.9l-.4.6c2.7 1.9 5.5 3.4 8.3 4.6l.3-.7c2.9 1.2 5.9 2 9 2.5l-.1.7c3.1.5 6.3.6 9.5.5v-.8c3.1-.1 6.2-.4 9.4-.9l.1.7c3.1-.5 6.2-1.1 9.3-1.9l-.2-.7c1.5-.4 3.1-.7 4.6-1.1 1.6-.4 3.3-.8 4.9-1.1l.1.7c1.5-.3 3.1-.6 4.6-.8 1.7-.3 3.5-.6 5.2-1l-.1-.7c3.3-.6 6.5-1.4 9.6-2.5l.3.9z" fill="none" stroke="#b1b834" stroke-width="1.5" stroke-dasharray="10,10"/></svg>