<svg width="33" height="78" viewBox="0 0 33 78" fill="none" xmlns="http://www.w3.org/2000/svg">
<path fill-rule="evenodd" clip-rule="evenodd" d="M18.7466 54.9545C22.4361 54.8116 32.7955 47.6559 32.7955 36.9227C32.7955 27.9525 28.9492 21.0372 25.1178 15.0267C24.591 14.2004 21.712 8.15732 19.598 0C17.4693 2.14667 0.440386 17.1733 0.0146616 30.4826C-0.411062 43.792 8.52915 53.6667 14.4893 54.9545H18.7466ZM29.8155 41.6454C27.0907 49.8885 21.3009 52.8079 18.7466 53.2372L14.4893 52.8079C3.40579 47.6559 0.425725 33.9173 2.98007 26.1892C5.53441 18.4613 14.9151 6.86932 18.7466 3.00533C20.1089 10.2181 24.423 18.032 26.4096 21.0372C28.6802 24.4719 32.54 33.4021 29.8155 41.6454Z" fill="#A0C23C"/>
<path d="M18.6128 53.1818C21.0645 52.75 26.6217 49.8137 29.2369 41.5228C31.852 33.2318 28.1473 24.25 25.968 20.7954C24.0611 17.7728 19.9204 9.91364 18.6128 2.65909C14.9352 6.54545 5.93141 18.2046 3.47969 25.9772C1.02797 33.75 3.88831 47.5682 14.5265 52.75L18.6128 53.1818Z" fill="#A0C23C"/>
<path fill-rule="evenodd" clip-rule="evenodd" d="M18.7466 54.9545C22.4361 54.8116 32.7955 47.6559 32.7955 36.9227C32.7955 27.9525 28.9492 21.0372 25.1178 15.0267C24.591 14.2004 21.712 8.15732 19.598 0C17.4693 2.14667 0.440386 17.1733 0.0146616 30.4826C-0.411062 43.792 8.52915 53.6667 14.4893 54.9545H18.7466ZM29.8155 41.6454C27.0907 49.8885 21.3009 52.8079 18.7466 53.2372L14.4893 52.8079C3.40579 47.6559 0.425725 33.9173 2.98007 26.1892C5.53441 18.4613 14.9151 6.86932 18.7466 3.00533C20.1089 10.2181 24.423 18.032 26.4096 21.0372C28.6802 24.4719 32.54 33.4021 29.8155 41.6454Z" fill="#6A8617"/>
<path d="M17.0182 74.1677L11.3848 78L12.6849 73.3161L5.31818 72.4646L13.9848 70.7613V56.2841L14.4182 48.1938L13.5516 47.3422L5.75151 43.9358L11.3849 44.7874L7.48485 39.252L8.35153 38.8262L14.4182 45.2132H15.2849L17.4516 34.5682H17.8849L17.4516 45.8519L20.0516 41.8068L20.4849 42.6584L18.3183 47.3422V50.3228L20.9183 49.0454L21.3516 49.897L18.3183 52.4519L18.3182 71.1872L24.8182 73.7419L17.0182 74.1677Z" fill="#6A8617"/>
<path d="M10.6875 19.1085C10.0116 16.8803 16.2631 9.75 16.2631 9.75C18.2906 11.0869 21.8388 17.7716 17.2769 21.7824C13.6273 24.991 11.3633 21.3367 10.6875 19.1085Z" fill="#B9EA28"/>
</svg>
